<svg width="65" height="60" viewBox="0 0 65 60" fill="none" xmlns="http://www.w3.org/2000/svg">
<g clip-path="url(#clip0_3_270)">
<path d="M19.5044 22.1408C19.8444 22.1408 19.62 21.59 19.654 21.4608C19.1168 21.7056 19.5384 22.2836 19.5044 22.1408Z" fill="#EB509F"/>
<path d="M14.2684 24.3916L14.3228 24.1468L13.6224 24.854L14.2684 24.3916Z" fill="#EB509F"/>
<path d="M9.16162 25.3028C9.84162 26.1732 10.984 24.8132 11.9564 24.99L12.1468 25.1804L12.4188 24.3372C11.3308 24.6568 9.99122 25.4252 9.16162 25.3028Z" fill="#EB509F"/>
<path d="M6.06761 23.7252C6.30561 24.0652 5.53721 24.1536 6.74761 23.7252C6.69854 23.7078 6.65261 23.6825 6.61161 23.6504C6.43286 23.6914 6.2508 23.7165 6.06761 23.7252V23.7252Z" fill="#EB509F"/>
<path d="M6.59122 23.6504C7.12842 23.528 6.18322 23.4056 6.59122 23.6504V23.6504Z" fill="#EB509F"/>
<path d="M4.15682 24.31L4.83682 23.8544C4.64642 23.6572 4.00722 23.7252 4.21802 23.5212C3.47682 23.834 3.66722 24.0244 4.15682 24.31Z" fill="#EB509F"/>
<path d="M3.59921 25.16L3.94601 24.9492C3.86441 24.8404 3.76241 24.8268 3.59921 25.16Z" fill="#EB509F"/>
<path d="M4.66681 24.48L3.94601 24.9152C4.07521 25.0512 4.14321 25.364 4.27921 24.7452C4.26561 25.0444 4.37441 24.7452 4.66681 24.48Z" fill="#EB509F"/>
<path d="M5.13602 24.5548C5.57122 24.6908 6.10842 24.7316 5.45562 25.1872C6.78842 24.8132 6.46882 24.174 5.13602 24.5548Z" fill="#EB509F"/>
<path d="M9.08001 26.3364L9.65801 26.52L10.066 26.1188C9.86201 26.316 8.99161 26.044 9.08001 26.3364Z" fill="#EB509F"/>
<path d="M2.32761 33.2452C2.40241 33.048 2.17121 32.6604 2.15761 32.3952L1.60001 32.5448C1.84481 32.7284 2.33441 32.9324 2.32761 33.2452Z" fill="#EB509F"/>
<path d="M2.15762 32.3952L3.00082 32.164C2.30722 32.0144 2.15082 32.1572 2.15762 32.3952Z" fill="#EB509F"/>
<path d="M3.66722 26.214L4.81642 25.2484L3.42242 26.2684L3.66722 26.214Z" fill="#EB509F"/>
<path d="M5.31963 33.7416L4.80283 34.1428L5.70723 33.5512L5.31963 33.7416Z" fill="#EB509F"/>
<path d="M7.3256 34C6.9312 34.3332 7.6724 34.7276 7.2848 34.918C7.82773 34.8854 8.3538 34.717 8.8148 34.4284C8.55034 34.4748 8.2788 34.4603 8.02077 34.386C7.76274 34.3118 7.52501 34.1798 7.3256 34V34Z" fill="#EB509F"/>
<path d="M9.5968 34.0748C9.32979 34.156 9.0722 34.2654 8.8284 34.4012C9.10508 34.3491 9.36721 34.2378 9.5968 34.0748V34.0748Z" fill="#EB509F"/>
<path d="M4.32001 32.4768C4.35016 32.6233 4.41371 32.7609 4.5057 32.8788C4.59769 32.9968 4.71565 33.0919 4.85041 33.1568L4.63281 32.5312L4.32001 32.4768Z" fill="#EB509F"/>
<path d="M4.62601 32.5108L5.30601 32.6536L4.62601 32.5108Z" fill="#EB509F"/>
<path d="M4.24521 32.4632H4.32001C4.29961 32.4156 4.28601 32.3952 4.24521 32.4632Z" fill="#EB509F"/>
<path d="M1.51841 26.0644L1.28041 26.282L1.33481 31.1304C1.83801 30.9264 2.40921 30.702 1.70201 30.1784C1.39601 30.4436 1.63401 30.7292 1.34841 31.0148L0.0768127 32.3L1.30081 26.3976C1.34064 26.2683 1.41605 26.1528 1.51841 26.0644V26.0644Z" fill="#EB509F"/>
<path d="M3.9732 31.6812L3.164 31.4228C3.164 31.5724 3.266 31.8172 3.0144 31.9464L3.9732 31.6812Z" fill="#EB509F"/>
<path d="M4.41521 31.5656L3.97321 31.6812L4.27921 31.7832L4.41521 31.5656Z" fill="#EB509F"/>
<path d="M8.23681 33.32C8.63423 33.163 9.06771 33.1206 9.48801 33.1976C9.03355 33.0099 8.55894 32.8753 8.07361 32.7964C7.97841 32.9596 7.72681 33.252 8.23681 33.32Z" fill="#EB509F"/>
<path d="M6.48923 32.8712C6.51861 32.8743 6.54824 32.8743 6.57763 32.8712C6.53003 32.7964 6.49603 32.776 6.48923 32.8712Z" fill="#EB509F"/>
<path d="M13.874 33.8844L13.8196 33.7688C13.8196 33.7688 13.8196 33.83 13.7856 33.864L13.874 33.8844Z" fill="#EB509F"/>
<path d="M8.01242 32.674C7.88426 32.6072 7.73939 32.5794 7.59562 32.5939C7.45186 32.6084 7.31546 32.6646 7.20322 32.7556C7.49274 32.729 7.78409 32.729 8.07362 32.7556C8.11442 32.7148 8.13482 32.64 8.01242 32.674Z" fill="#EB509F"/>
<path d="M10.848 34C10.67 33.8455 10.4789 33.7067 10.2768 33.5852C10.4332 33.796 10.7596 34.136 10.848 34Z" fill="#EB509F"/>
<path d="M6.6728 33.0344H6.6116C6.7136 33.1908 6.7068 33.1296 6.6728 33.0344Z" fill="#EB509F"/>
<path d="M6.67281 33.0344C6.86151 32.9661 7.03997 32.8723 7.20321 32.7556C6.99181 32.7642 6.782 32.7962 6.57761 32.8508C6.6161 32.9083 6.64804 32.9698 6.67281 33.0344Z" fill="#EB509F"/>
<path d="M15.778 30.4028C15.6352 30.9264 14.6152 31.2732 13.8876 30.5728C13.024 30.8448 13.2756 32.6808 13.8196 33.7688C13.8808 33.5376 13.9148 33.3268 14.7852 33.1364C14.5472 32.8032 13.0648 32.1708 13.8332 31.7764C14.9688 31.6744 14.7036 32.1096 15.1932 32.4564C14.8464 31.722 16.7368 31.7152 16.6484 30.702L15.642 30.8924C15.642 30.77 16.0228 30.6 15.778 30.4028Z" fill="#EB509F"/>
<path d="M12.2556 33.4628H11.9088C12.3405 33.6792 12.7137 33.9964 12.9968 34.3876C13.6088 34.2108 13.7516 34.034 13.8196 33.864L12.1604 33.524L12.2556 33.4628Z" fill="#EB509F"/>
<path d="M10.3788 33.2384C10.7392 32.7012 11.5892 32.5584 11.188 31.8784C10.1884 31.7628 10.4196 32.2524 9.78041 32.4088C11.4124 32.5176 9.27041 32.6604 10.3788 33.1704C10.0828 33.2038 9.784 33.2038 9.48801 33.1704C9.76074 33.2813 10.0245 33.4131 10.2768 33.5648V33.524C10.2156 33.4424 10.202 33.3948 10.2768 33.4492C10.2997 33.3762 10.3341 33.3073 10.3788 33.2452C10.8276 33.4356 10.4332 33.4084 10.2768 33.4492C10.2626 33.4751 10.2512 33.5025 10.2428 33.5308L11.902 33.4628C11.4075 33.3162 10.8946 33.2406 10.3788 33.2384V33.2384Z" fill="#EB509F"/>
<path d="M2.75601 29.07C2.77757 29.092 2.79275 29.1194 2.79994 29.1494C2.80713 29.1793 2.80604 29.2106 2.79681 29.24C2.90561 29.1584 2.95321 29.1108 2.75601 29.07Z" fill="#EB509F"/>
<path d="M3.368 29.5188C3.28724 29.6029 3.1846 29.6627 3.07166 29.6915C2.95872 29.7203 2.83997 29.717 2.7288 29.682C2.4296 29.4576 2.7764 29.4032 2.79 29.2128C2.5384 29.3284 1.9196 29.4984 2.5996 29.8928L2.722 29.8316C3.3408 30.1308 4.082 30.9876 3.9324 31.0488C3.84667 30.5067 3.65488 29.9867 3.368 29.5188V29.5188Z" fill="#EB509F"/>
<path d="M6.94482 31.2392L8.30482 31.1644L7.69962 30.5592V30.8652C6.96522 30.6 7.07402 31.0216 6.94482 31.2392Z" fill="#EB509F"/>
<path d="M13.9828 34.1904L13.704 34.7752L14.6152 34.034L13.9828 34.1904Z" fill="#EB509F"/>
<path d="M15.7304 34.3944L15.5876 34.918L16.0976 34.6664L15.7304 34.3944Z" fill="#EB509F"/>
<path d="M35.6884 34L35.0424 33.5784C35.2464 33.7356 35.4624 33.8766 35.6884 34Z" fill="#EB509F"/>
<path d="M38.9796 37.3116L39.2652 37.2164C39 37.162 38.8368 37.1688 38.9796 37.3116Z" fill="#EB509F"/>
<path d="M26.1548 52.2104C26.896 52.02 27.9092 51.9316 27.372 51.646L26.7872 51.4556C26.6781 51.7774 26.4525 52.0466 26.1548 52.2104V52.2104Z" fill="#EB509F"/>
<path d="M46.3168 44.4244L45.732 44.0436L46.242 44.5196C46.3087 44.6025 46.3679 44.6913 46.4188 44.7848C46.3712 44.6828 46.5004 44.6556 46.3168 44.4244Z" fill="#EB509F"/>
<path d="M40.53 39.9908L41.89 40.8408C41.4616 40.5552 41.006 40.2696 40.53 39.9908Z" fill="#EB509F"/>
<path d="M39.918 24.5208C39.5032 24.582 39.0748 24.6636 38.6192 24.7588C39.0449 24.6439 39.4793 24.5643 39.918 24.5208V24.5208Z" fill="#EB509F"/>
<path d="M18.022 42.0376C17.7555 42.3829 17.5507 42.7717 17.4168 43.1868C17.8724 42.6632 18.4708 42.296 18.022 42.0376Z" fill="#EB509F"/>
<path d="M43.25 32.674C43.0889 32.6426 42.9223 32.6543 42.7672 32.708C42.9263 32.7611 43.1 32.7489 43.25 32.674V32.674Z" fill="#EB509F"/>
<path d="M17.1176 44.6012C17.1924 44.5332 17.24 44.4516 17.308 44.3768C17.2718 43.9768 17.3087 43.5736 17.4168 43.1868C17.2166 43.3556 17.0785 43.5864 17.0243 43.8426C16.9701 44.0988 17.003 44.3658 17.1176 44.6012V44.6012Z" fill="#EB509F"/>
<path d="M22.918 14.8104L22.8296 14.6336C22.9316 14.892 22.9384 14.8852 22.918 14.8104Z" fill="#EB509F"/>
<path d="M17.2672 19.04C17.2125 18.7226 17.1739 18.4025 17.1516 18.0812C17.1299 18.4052 17.1691 18.7304 17.2672 19.04Z" fill="#EB509F"/>
<path d="M18.9468 35.1628C18.7904 35.1628 18.8516 35.2104 18.9468 35.1628V35.1628Z" fill="#EB509F"/>
<path d="M20.3476 33.0208C20.4779 32.9616 20.5973 32.8812 20.7012 32.7828C20.5957 32.8791 20.4766 32.9593 20.3476 33.0208V33.0208Z" fill="#EB509F"/>
<path d="M19.9464 49.0076V49.0416C20.0688 48.96 20.0484 48.96 19.9464 49.0076Z" fill="#EB509F"/>
<path d="M19.0692 34.9044C19.0392 34.9583 19.025 35.0196 19.0284 35.0812C19.0609 35.0283 19.0752 34.9662 19.0692 34.9044V34.9044Z" fill="#EB509F"/>
<path d="M18.7904 35.1492C18.7848 35.1241 18.7732 35.1007 18.7564 35.0812C18.6476 35.1628 18.5864 35.2172 18.7904 35.1492Z" fill="#EB509F"/>
<path d="M19.0012 35.2512C19.0071 35.2051 19.0233 35.1609 19.0488 35.122C19.0488 35.122 19.0488 35.122 19.0488 35.0812L18.9672 35.1628H19.0148L19.0012 35.2512Z" fill="#EB509F"/>
<path d="M34.3488 23.12H34.2468C33.7232 23.4192 33.9476 23.3512 34.3488 23.12Z" fill="#EB509F"/>
<path d="M26.8484 40.4804C26.8484 40.4804 26.8484 40.528 26.8484 40.5484L26.9164 40.494L26.8484 40.4804Z" fill="#EB509F"/>
<path d="M27.746 38.42C27.6848 39.78 27.3924 40.0452 26.896 40.46C27.4443 40.6421 27.9766 40.8696 28.4872 41.14C28.1523 40.2596 27.9041 39.3486 27.746 38.42Z" fill="#EB509F"/>
<path d="M37.81 26.7104C37.2433 26.9235 36.6517 27.1501 36.0352 27.3904C36.7628 25.7312 38.422 24.8404 36.3888 25.4592C37.0688 26.1052 35.804 27.1252 34.546 28.1792C33.288 29.2332 32.0232 30.2192 33.288 30.43L32.0844 30.9264V31.0148L32.0368 30.906C32.166 30.7904 32.1184 30.736 32.336 30.5864C32.1041 30.6737 31.877 30.7735 31.656 30.8856C31.9552 31.4024 32.744 31.654 33.5668 31.9328C34.445 32.1482 35.2385 32.6219 35.8448 33.2928C36.246 33.8844 36.382 34.3944 35.7088 34.0408L37.5516 35.2172C37.8984 35.6048 37.504 35.6728 37.1368 35.258L39.34 37.2232H39.2856C39.408 37.2232 39.5644 37.2844 39.7344 37.332H39.8636H39.9248L40.0132 37.23C40.1251 37.1302 40.2573 37.056 40.4008 37.0124C40.1764 37.162 40.2036 37.094 40.0064 37.2232C40.1586 37.1277 40.3371 37.0825 40.5164 37.094C40.2444 37.1688 39.9248 37.1824 39.7548 37.2504C39.5848 37.3184 39.5508 37.4204 39.6392 37.4612C39.3988 37.6101 39.1193 37.6835 38.8368 37.672C38.7212 37.672 38.7484 37.5496 38.8368 37.468C38.9252 37.3864 39.0136 37.3116 38.9864 37.2368C38.9592 37.162 38.8232 37.1076 38.1976 36.8628C38.1756 36.9659 38.1756 37.0725 38.1976 37.1756C37.5405 37.0884 36.911 36.8562 36.3548 36.4956C35.8856 36.1964 35.4708 35.8836 34.3148 35.2308C35.1993 35.6945 36.1072 36.1121 37.0348 36.482C37.6851 36.7483 38.3738 36.909 39.0748 36.958C38.796 36.8628 38.524 36.6928 39.0748 36.8288L39.272 36.9172C37.8236 36.4072 38.3132 36.6724 38.592 36.9172L36.4568 36.04C37.1844 36.4072 38.2792 36.8628 39.408 37.4C39.4624 37.57 37.6876 36.7744 36.1644 36.04C36.6238 36.3045 37.1036 36.5319 37.5992 36.72C38.3485 37.0237 39.0697 37.3923 39.7548 37.8216C39.136 37.6788 40.292 38.318 42.4748 39.7732C42.0402 39.5761 41.6198 39.3488 41.2168 39.0932C40.7612 38.828 40.3192 38.5628 39.9452 38.3656L42.4952 39.9024C42.4952 39.9024 41.7472 39.4944 41.3732 39.27C41.924 39.6304 42.6856 40.0724 43.4132 40.5212C44.1408 40.97 44.9364 41.4324 45.5756 41.8812C47.2552 42.8944 46.446 42.5136 45.5008 42.0376C43.8212 41.1264 42.2572 40.222 43.8416 41.3576C42.8624 40.7796 42.128 40.2424 40.9516 39.508C41.8152 40.188 42.026 40.3648 42.3728 40.6436C42.7196 40.9224 43.1616 41.276 44.1068 42.0852C43.318 41.6296 42.5564 41.1808 41.8424 40.7252C42.8465 41.3664 43.8074 42.0728 44.7188 42.84C45.3122 43.3031 45.8486 43.8349 46.3168 44.4244L47.364 45.1044C47.6088 45.2608 47.8128 45.39 47.9556 45.4716C47.7068 45.5007 47.4638 45.5672 47.2348 45.6688C46.903 45.4383 46.6247 45.1392 46.4188 44.7916C46.4123 44.8481 46.4123 44.9051 46.4188 44.9616C46.2166 44.8413 46.0213 44.7096 45.834 44.5672L45.2696 44.098C44.814 43.7104 44.406 43.316 43.9912 42.9284L45.7184 44.0504C44.5978 43.0363 43.4219 42.0851 42.196 41.2012C42.3932 41.3712 42.4884 41.4936 42.4748 41.5412C42.1892 41.2964 41.9036 41.072 41.6656 40.902C41.4276 40.732 41.8016 41.0516 42.1688 41.4052L39.714 39.5896L40.5572 40.2696C39.748 39.7936 39.0068 39.338 38.3404 38.9096C38.7616 39.3609 39.1545 39.8378 39.5168 40.3376C40.36 41.4188 40.5164 42.2756 39.306 42.1668C39.1733 41.7173 38.9409 41.3036 38.626 40.9564C38.3132 40.5348 37.946 40.0792 37.5856 39.5148C38.1364 40.1948 38.3268 40.1268 38.354 39.9432C38.3812 39.7596 38.2248 39.4196 38.5988 39.6372C38.1917 39.3479 37.8257 39.0048 37.5108 38.6172C37.7117 38.8901 37.8126 39.2239 37.7964 39.5624C37.4855 39.1193 37.12 38.7172 36.7084 38.3656C38.0004 40.2152 36.7084 39.3244 36.4024 39.6576C36.2732 39.1408 36.2392 38.6376 36.654 38.8824C36.1984 38.2024 36.3208 38.658 36.2256 39.066C36.1304 39.474 35.906 39.8684 35.6068 39.3108C35.7428 39.3108 35.8244 39.4468 35.872 39.2156C35.7292 39.3788 35.4164 39.304 35.192 39.1612L35.0696 39.0388C35.0029 38.9834 34.9394 38.9244 34.8792 38.862C34.7772 38.7464 34.7636 38.6376 34.8792 38.5832L35.1784 38.6648C33.509 37.9911 31.7683 37.5098 29.99 37.23C29.4868 38.2772 29.242 39.1408 29.4188 39.6508C29.1402 39.019 28.9349 38.3573 28.8068 37.6788C28.6096 40.2356 28.8612 42.1464 29.4868 43.5336C28.932 43.0887 28.3272 42.7099 27.6848 42.4048C27.3661 42.2292 27.0807 41.9991 26.8416 41.7248C26.7273 41.5559 26.6612 41.359 26.6504 41.1553C26.6396 40.9516 26.6846 40.7489 26.7804 40.5688C26.6716 40.6708 26.5492 40.7796 26.4268 40.9088L26.2364 41.1128C26.1752 41.1808 26.1412 41.2148 26.1004 41.2692C25.8877 41.5512 25.7455 41.8799 25.6856 42.228C25.9508 42.092 27.2496 42.5 27.1136 42.8536C25.6244 43.0508 26.2228 43.0916 24.7404 43.5744C25.1416 43.3704 26.1684 44.6284 25.7604 45.118C25.6244 44.9072 24.4684 44.2884 24.4684 44.0028L24.8152 46.1788C24.8152 45.696 23.7884 45.3832 23.2308 45.4308C23.5708 45.4308 22.4284 46.546 22.306 46.9812L22.986 46.6276C21.7688 47.9876 23.7408 49.3136 22.6528 50.7076C22.5168 50.3472 21.3608 49.164 20.6876 49.7964C21.0956 50.5852 22.7276 53.4548 22.3264 55.0936H21.8368L21.5648 56.3788C20.8517 54.4575 20.3478 52.4649 20.062 50.4356C19.382 50.7892 19.518 50.286 18.9808 51.1156C18.43 51.17 18.77 50.3064 18.9196 50.048L17.3624 51.816C18.1716 52.2512 17.0904 53.8084 17.7636 54.1756L18.4436 51.544C19.2528 51.9792 19.7356 54.264 18.6612 55.5016C18.1172 55.6444 17.5052 54.3116 17.2332 54.1416C17.3692 54.502 16.8252 55.7804 16.5532 55.7804V54.9576C15.9752 55.3656 16.2948 56.1816 16.0296 56.7596L20.232 58.5752C20.2375 58.4229 20.2777 58.2739 20.3496 58.1395C20.4215 58.0052 20.5232 57.8891 20.6468 57.8C20.7828 57.4328 22.0068 56.9228 21.5172 56.746C20.368 57.1404 17.1856 56.5964 16.5056 56.0252C17.0846 55.2549 17.7509 54.5544 18.4912 53.9376C19.4228 53.4888 20.2048 55.2976 21.0004 54.8896C20.7624 54.8148 20.5312 54.4068 20.4632 54.2436C20.7556 53.8968 21.1908 54.57 21.2588 53.686C20.3816 53.3528 21.7008 51.9656 20.5788 53.1216C20.4904 52.2308 20.9528 52.2716 21.116 51.2788C20.436 51.4692 19.3072 49.9732 19.2256 49.0824C19.4688 49.1387 19.724 49.1074 19.9464 48.994C20.3884 47.294 20.9936 46.4576 21.3404 44.8596C21.592 44.7576 22.0204 44.0436 22.34 44.4516C22.1246 44.1519 22.0212 43.7861 22.0476 43.418C23.0336 42.6292 21.9388 44.54 23.0336 44.0096C22.5168 43.8396 22.578 42.5816 22.3944 41.8132C21.5376 41.854 21.898 43.4044 22.0748 44.1728C20.9528 43.9416 20.0348 42.466 19.8648 40.6844C19.8648 39.3244 20.7148 40.2628 20.606 40.0044C20.7443 39.6019 20.7861 39.1726 20.7283 38.751C20.6704 38.3293 20.5144 37.9272 20.2728 37.5768C20.1164 37.3048 19.9872 36.9784 19.926 36.8492C19.8648 36.72 19.926 36.5092 20.2048 36.21C20.5483 35.9791 20.9538 35.8582 21.3676 35.8632C21.6777 35.9214 21.9959 35.9214 22.306 35.8632C22.3217 36.3079 22.1849 36.7445 21.9184 37.1008C21.6691 37.3814 21.4897 37.7169 21.3948 38.08C21.5716 37.808 21.7484 37.5088 21.9184 37.264C22.022 37.5025 22.0686 37.762 22.0545 38.0216C22.0403 38.2813 21.9658 38.5341 21.8368 38.76C22.2312 38.4812 22.4828 37.4476 22.7752 36.176C23.0387 34.8344 23.435 33.5223 23.9584 32.2592C23.8732 32.1502 23.775 32.052 23.666 31.9668C23.3056 32.0552 23.0404 32.164 22.986 32.3204H23.1356V32.7148C22.612 33.3336 22.4556 32.9392 22.272 32.9188C22.0884 32.8984 21.966 33.0276 21.9932 33.1092C21.9596 33.1453 21.932 33.1866 21.9116 33.2316L21.8708 33.1976C21.32 33.32 20.7556 33.4832 20.3136 33.5716C20.1492 33.6351 19.9724 33.6601 19.7968 33.6448C19.6211 33.6295 19.4514 33.5742 19.3004 33.4832C19.4364 33.218 19.5588 32.9596 19.6744 32.6944C19.5656 32.9256 19.892 33.2316 20.3544 33.0412C20.028 33.1772 19.9396 32.878 19.6744 32.6468C19.6094 32.5688 19.5265 32.5078 19.4327 32.469C19.3389 32.4303 19.237 32.4149 19.136 32.4243C19.0349 32.4336 18.9376 32.4675 18.8525 32.5228C18.7675 32.5782 18.6971 32.6534 18.6476 32.742C18.772 32.9402 18.8724 33.1525 18.9468 33.3744C18.5658 33.5439 18.2015 33.7488 17.8588 33.9864C17.784 34.034 17.716 34.0816 17.648 34.1156L17.5528 34.1632H17.5052H17.4032C17.1405 34.1807 16.8773 34.1365 16.6348 34.034C16.8048 34.4828 16.8728 34.4692 16.9612 34.476C16.9962 34.4775 17.0305 34.4861 17.0621 34.5013C17.0936 34.5165 17.1218 34.538 17.1448 34.5644C17.1976 34.6147 17.2433 34.6719 17.2808 34.7344C17.32 34.7734 17.3505 34.8202 17.3704 34.8717C17.3903 34.9233 17.3992 34.9784 17.3964 35.0336C17.3964 34.4284 17.6208 34.476 17.8588 34.5168C18.0968 34.5576 18.328 34.5984 18.4164 33.9728C18.328 34.5236 18.3484 34.6528 18.4164 34.7548C18.4844 34.8568 18.566 34.9588 18.2464 35.3872C18.498 35.1492 18.6272 34.918 18.7632 35.0744C18.8584 35.0064 18.9944 34.9248 19.076 34.8772C19.1372 34.8772 19.144 34.8364 19.076 34.8772C19.1419 34.7392 19.2265 34.6111 19.3276 34.4964C19.7024 34.264 20.1261 34.122 20.5652 34.0816C20.64 34.2244 20.6808 34.4148 20.8304 34.4488C20.6196 34.8296 20.4904 34.5236 20.1504 34.8636C20.3136 34.8763 20.4739 34.913 20.6264 34.9724C20.2796 35.1424 19.9464 35.428 19.6948 35.5844C19.4432 35.7408 19.2324 35.7952 19.076 35.6796L18.974 36.04C18.5592 36.3324 18.3892 36.4752 18.6136 36.6656C18.608 36.6736 18.6051 36.6831 18.6051 36.6928C18.6051 36.7025 18.608 36.712 18.6136 36.72C18.6215 36.7627 18.6215 36.8065 18.6136 36.8492C18.636 36.9885 18.6724 37.1252 18.7224 37.2572C18.804 37.4884 18.8652 37.5836 18.6748 37.3116V39.0864H18.5252C18.0968 40.7388 18.7904 42.7312 17.308 44.4108C17.3991 45.1274 17.3055 45.8554 17.036 46.5256L16.4784 46.6004C16.5124 47.3552 15.506 48.6404 15.982 49.0756C14.4248 49.5584 14.9416 52.4756 14.4248 53.7268L15.1048 53.9172C14.91 54.8652 14.855 55.8365 14.9416 56.8004L15.5536 56.8548C15.6215 57.1064 15.6215 57.3716 15.5536 57.6232L19.9872 59.534C20.5244 58.8132 21.626 58.174 22.2516 57.1948C22.3808 57.4124 22.1156 57.6912 21.8436 57.834C24.006 57.154 23.2036 54.1348 24.9512 53.3664C24.9599 53.1912 25.0182 53.0222 25.1193 52.8789C25.2205 52.7356 25.3603 52.624 25.5224 52.5572C25.5022 52.5875 25.4904 52.6228 25.4884 52.6592C25.5267 52.6173 25.5609 52.5717 25.5904 52.5232C25.7808 52.4348 25.9848 52.3532 26.182 52.2444C25.9913 52.2842 25.8078 52.353 25.638 52.4484C25.8617 52.0825 26.0377 51.6894 26.1616 51.2788L26.8416 51.4896L26.8824 51.3876C27.3448 51.1496 26.8416 50.9116 26.2976 50.83C26.3379 50.5869 26.3379 50.3387 26.2976 50.0956C27.3788 50.3948 26.7056 48.8852 27.9228 49.1164C27.6508 48.5384 28.9224 46.9472 28.1132 46.0836C28.2492 46.1584 28.3852 46.0836 28.2492 46.2944C28.4721 46.1581 28.6609 45.9727 28.8011 45.7523C28.9414 45.532 29.0294 45.2824 29.0584 45.0228L29.8676 45.3152L29.5956 43.7444L29.8812 43.6492C29.9513 43.6426 30.0219 43.6426 30.092 43.6492C30.2097 43.6468 30.3262 43.6724 30.432 43.724C30.6574 43.88 30.8304 44.1004 30.9284 44.3564C30.8158 43.9951 30.7994 43.6107 30.8808 43.2412C30.9526 42.8098 30.9844 42.3728 30.976 41.9356L31.2276 42.5136C31.3296 42.3368 31.3568 41.752 31.4724 41.4324C31.5812 41.4324 31.7036 41.4732 31.8192 41.6704C32.0642 41.9802 32.3696 42.237 32.7168 42.4252C32.9004 42.523 33.0887 42.6116 33.2812 42.6904L33.5872 42.806L34.036 42.9624C35.226 43.3636 36.4908 43.7852 37.7692 44.268C39.1128 44.7698 40.4272 45.3465 41.7064 45.9952C40.6116 44.8052 41.244 45.1996 42.0804 45.7028C42.9168 46.206 44.066 46.8588 43.4064 46.002C44.0864 46.614 45.052 47.1512 44.678 47.362C45.8987 47.6534 47.0894 48.0586 48.2344 48.5724C48.4724 48.5724 48.4928 48.3548 48.078 47.7156C48.758 48.2392 48.758 48.5452 49.1932 48.858C49.1184 48.7152 48.928 48.3276 49.336 48.6132C49.744 48.8988 49.6964 49.0824 49.8528 49.3748C50.356 48.926 48.9348 47.5184 47.6088 46.2196C48.8328 46.8996 48.9076 46.75 48.5744 46.1244C49.1728 46.5188 49.8188 46.8452 49.336 46.954C49.7848 47.0422 50.2393 47.099 50.696 47.124C51.1788 47.124 51.5392 47.0628 51.2808 46.8248C51.3728 46.871 51.4732 46.8984 51.5759 46.9054C51.6786 46.9124 51.7817 46.8989 51.8792 46.8656C52.7496 46.9744 52.838 46.988 53.6336 47.0492L53.3684 47.0016C53.3684 47.0016 53.4568 46.9608 53.552 47.0016C53.3072 46.7364 53.2052 46.512 52.872 46.07L52.9332 46.1108C52.8133 45.784 52.6308 45.4838 52.396 45.2268C52.2807 45.1273 52.19 45.0025 52.131 44.8621C52.072 44.7217 52.0463 44.5696 52.056 44.4176L51.4236 44.2C50.6824 43.8736 50.5668 43.6288 50.6416 43.3908C50.7164 43.1528 51.0768 42.9556 50.3968 42.432L50.0364 42.5068C49.5128 42.16 49.9684 42.1192 50.7708 42.1872C51.4447 42.2992 52.128 42.3448 52.8108 42.3232C53.0352 42.3232 53.2188 42.5748 53.3956 42.7312C54.1436 42.5816 53.756 42.4184 53.0488 42.1668C52.3057 41.9889 51.6098 41.6526 51.0088 41.1808C51.8656 41.378 53.2188 42.0512 53.5928 41.922C53.4993 41.7928 53.397 41.6701 53.2868 41.5548C53.2868 41.2896 51.2468 39.8344 49.54 38.5628C48.6628 37.8828 47.8332 37.2912 47.1804 36.7132C46.6024 36.248 46.1257 35.6695 45.7796 35.0132C45.868 35.6048 45.7796 36.006 44.6644 35.292C44.2931 34.9445 43.9644 34.5542 43.6852 34.1292L43.4404 33.7688V33.626V33.3404C43.386 32.9936 43.3248 32.81 42.5904 32.8712C42.6461 32.7945 42.7246 32.7373 42.8148 32.708C42.0013 32.3408 41.1655 32.0251 40.3124 31.7628C40.8972 31.688 41.1216 31.5928 41.1216 31.4704C41.6384 31.28 41.516 30.9196 41.686 30.5456C41.856 30.1716 42.1552 29.8656 42.9304 30.3416L43.7532 29.5732L43.862 29.7568H43.9164L43.998 29.6956L44.3176 29.4576C44.5148 29.308 44.6916 29.1584 44.848 29.0156C45.103 28.7861 45.3312 28.5283 45.528 28.2472C45.7793 27.9128 45.9217 27.5093 45.936 27.0912C46.4732 26.86 46.412 27.1524 46.4868 27.2272C47.5449 26.6582 48.5369 25.974 49.4448 25.1872C49.6783 24.9738 49.8635 24.7129 49.9878 24.422C50.1121 24.1312 50.1727 23.8171 50.1656 23.5008L51.6684 23.2016C51.58 23.018 52.9808 22.2768 54.7216 21.216C56.4624 20.1552 58.5364 18.768 58.7132 18.1356C58.9104 18.0812 59.2436 17.986 59.3048 18.0676C59.7591 17.4876 60.3228 17.0025 60.964 16.6396C61.8412 16.0344 63.004 15.3136 64.1532 14.5996C63.1604 14.3752 61.6848 14.246 56.8296 16.3064L53.1168 17.3468C54.1436 17.3128 53.2732 17.6868 52.2124 18.122C51.3619 18.3968 50.5488 18.7759 49.7916 19.2508C49.2136 19.4004 49.2068 19.21 49.4448 18.9584C49.8552 18.5823 50.365 18.3321 50.9136 18.2376L50.7776 18.3736C52.6204 17.4964 52.1376 17.442 51.4236 17.4692C50.7096 17.4964 49.8392 17.5984 50.7436 17.0408C47.9692 17.4284 45.5756 17.5712 42.9644 17.7208L38.9592 17.9792L36.8784 18.1492L34.8384 18.3532C34.8571 18.4372 34.8892 18.5175 34.9336 18.5912L35.1172 18.8224C35.2328 18.972 35.3484 19.1216 35.4504 19.278L35.022 19.3188H34.8112H34.4236C34.2264 19.108 34.2672 18.5504 34.6752 18.5436C34.5528 18.2716 34.41 18.4076 34.2264 18.6524C34.0526 18.8621 33.9021 19.0901 33.7776 19.3324C33.2948 19.1896 33.56 18.8632 33.7776 18.5912C33.9952 18.3192 34.2264 18.0948 34.1244 18.0948L33.8184 18.2036V18.3192C33.6174 18.6115 33.3745 18.8727 33.0976 19.0944C33.0024 19.0944 32.9004 19.0264 32.7916 18.8224C32.7032 18.3192 33.0636 18.1424 33.0228 17.9724C32.982 17.8024 33.0704 17.8568 32.9412 17.7956L32.7848 17.476L32.7032 17.3196V17.238V17.204L32.6284 17.0816C32.6284 17.1904 32.6284 17.2924 32.5604 17.3264L32.438 17.5032C32.3564 17.6256 32.2884 17.748 32.2136 17.884C32.0999 17.8589 31.9945 17.8051 31.9076 17.7276C31.7852 17.5916 31.6628 17.4148 31.5744 17.3332C31.3908 17.1428 31.3024 17.2176 31.1868 17.8568C31.4044 16.9252 30.364 15.0892 29.31 13.4504C28.256 11.8116 27.2156 10.4108 27.0184 9.7104C26.1752 9.4588 25.5564 8.4864 24.6928 7.0244C24.924 7.7044 25.0736 9.5336 24.4344 8.3504C24.469 7.09345 24.1761 5.8491 23.5844 4.7396C23.083 4.03486 22.7207 3.24093 22.5168 2.4004C23.0676 4.2976 21.082 1.7204 21.8912 4.114C21.7101 3.85091 21.6064 3.54228 21.592 3.2232C21.5788 2.86085 21.4932 2.50481 21.3404 2.176C20.9392 2.2916 20.436 1.768 19.8988 1.2852C19.3933 0.795829 18.8345 0.364731 18.2328 0C18.1648 0.17 18.0968 0.34 18.0356 0.5236C17.9744 0.7072 18.192 0.5236 18.1852 0.9996C18.1165 1.07463 18.0301 1.13133 17.9339 1.16457C17.8377 1.19782 17.7348 1.20656 17.6344 1.19C17.6347 1.42153 17.6738 1.65137 17.75 1.87C17.8044 2.1216 17.8384 2.38 17.5664 2.312C17.6529 2.36181 17.7241 2.43448 17.7721 2.52204C17.82 2.60959 17.843 2.70867 17.8384 2.8084C17.5623 3.36344 17.3348 3.94133 17.1584 4.5356C16.9611 5.2718 16.8201 6.02198 16.7368 6.7796C16.9612 8.7788 17.1788 10.7032 17.2128 12.4168C17.2743 14.0457 17.0605 15.6734 16.5804 17.2312C17.002 16.6192 17.0972 17.306 17.172 18.0064C17.2536 17.6324 17.7976 18.428 18.1308 18.5572C17.8792 19.2372 17.6344 19.958 17.3964 20.7808C17.8274 21.3032 18.0481 21.9676 18.0152 22.644C18.0832 23.324 18.1376 24.004 18.5796 24.1876L18.362 23.3444C18.9196 23.97 19.4568 23.6164 20.0348 23.3444C20.3075 23.17 20.616 23.0593 20.9374 23.0204C21.2588 22.9816 21.5848 23.0156 21.8912 23.12C21.2656 22.5488 21.66 22.1204 22.0068 21.8008C22.3536 21.4812 22.6324 21.2432 21.7008 19.9308C21.966 19.9308 22.17 20.5224 22.4828 20.6448C21.864 19.89 21.7076 19.3528 21.9252 18.9652L22.0816 19.1896C21.9673 18.7187 21.9476 18.2299 22.0234 17.7513C22.0993 17.2728 22.2693 16.814 22.5236 16.4016C22.5733 16.3762 22.6138 16.3357 22.6392 16.286L21.9048 15.0552C21.9796 14.8852 22.2108 15.2524 22.3876 15.47C21.2112 12.9336 22.3876 16.2656 21.116 13.7224C21.8504 14.7424 21.796 14.1984 21.796 13.668C21.796 13.1376 21.796 12.6752 22.7072 14.7696C22.5912 14.3407 22.4341 13.9239 22.238 13.5252C22.0321 13.1142 21.8746 12.6806 21.7688 12.2332L22.2584 13.3552L21.5784 11.6008C22.043 12.4184 22.4213 13.2821 22.7072 14.178C22.6664 14.1032 22.8432 14.6608 22.884 14.8104C23.1696 15.436 23.1084 15.1436 22.9928 14.688C22.8772 14.2324 22.7072 13.6204 22.8024 13.8584C22.7072 13.6612 22.6052 13.4776 22.51 13.3076C22.4175 12.9263 22.3448 12.5404 22.2924 12.1516C22.4964 12.3964 22.816 12.9472 23.054 13.2396C23.292 13.532 23.4688 13.6 23.564 13.1444L23.3532 12.24C23.5028 11.9476 23.7068 12.4236 23.8904 12.92C24.0067 13.4043 24.2402 13.8527 24.5704 14.2256V14.348C24.5628 14.3053 24.5628 14.2615 24.5704 14.2188C24.6452 13.8924 24.822 13.9468 25.0192 14.3004C24.9869 14.6896 25.0261 15.0813 25.1348 15.4564C25.2363 15.8237 25.2595 16.2083 25.2028 16.5852C25.468 16.4424 25.5768 16.388 25.638 16.1432C25.7061 15.7402 25.8667 15.3585 26.1072 15.028V16.014C26.3792 15.5924 26.454 15.266 26.9708 15.8236C26.7056 15.8236 26.726 16.1976 26.7124 16.5648C26.6988 16.932 26.6648 17.2924 26.4132 17.4352C26.4234 17.8204 26.5361 18.196 26.7396 18.5232C26.8723 18.6504 27.0367 18.7396 27.2156 18.7816C27.542 18.8904 27.8956 19.1216 27.4332 19.9376C28.7932 19.4888 27.3108 18.3192 27.7052 18.3736C27.7528 18.0268 27.9772 17.8976 28.256 17.9792C28.41 18.0397 28.5499 18.1313 28.6669 18.2483C28.7839 18.3653 28.8755 18.5052 28.936 18.6592C29.0023 18.8345 29.0023 19.0279 28.936 19.2032C28.8816 19.4412 28.7524 19.6384 28.6912 19.9512C28.6405 20.9766 28.935 21.9893 29.5276 22.8276C29.3848 22.5964 29.31 22.6712 29.1672 22.44C29.2966 22.8492 29.5311 23.2173 29.8472 23.5076C30.178 23.7812 30.4587 24.1103 30.6768 24.48C30.8689 24.4839 31.0583 24.5255 31.2344 24.6024C31.5655 24.2722 32 24.0657 32.4652 24.0176C32.6541 24.0051 32.8341 23.9323 32.9785 23.8099C33.123 23.6875 33.2243 23.5219 33.2676 23.3376L30.9692 23.8748C31.719 23.5708 32.4442 23.2093 33.1384 22.7936C33.8212 22.3611 34.6415 22.201 35.4368 22.3448C35.139 22.6839 34.7666 22.9492 34.3488 23.12C34.9268 23.3648 35.6272 22.746 35.7972 23.052C35.809 23.245 35.7457 23.4351 35.6204 23.5824L35.5796 23.6164L35.4572 23.6572L35.1784 23.7252C34.988 23.766 34.7772 23.8068 34.5528 23.8408C33.568 23.9247 32.6081 24.1947 31.724 24.6364C32.0232 24.8268 32.8324 24.5276 33.3832 24.3508C33.934 24.174 34.2808 24.1128 33.8388 24.7588C34.074 24.4185 34.409 24.1595 34.7976 24.0176C34.9625 23.9606 35.1338 23.924 35.3076 23.9088H35.5796C35.6179 23.9032 35.6569 23.9032 35.6952 23.9088C35.9468 23.97 36.0964 24.0856 36.518 23.46L36.3344 24.14C36.4228 24.0312 36.6948 23.6844 36.858 23.6844C36.6575 23.9737 36.4802 24.2784 36.3276 24.5956C36.586 24.2012 36.7356 24.3372 36.756 24.5344C36.7764 24.7316 36.6948 24.9832 36.9668 24.752C36.722 24.7928 36.8104 24.582 36.9668 24.3032C37.1232 24.0244 37.436 23.6708 37.3748 23.4396C37.8168 23.1676 38.0548 23.1336 38.1092 23.2356C38.1636 23.3376 38.0412 23.5892 37.878 23.8612C37.572 24.3916 37.0076 25.0308 37.4836 24.8132C37.3816 24.8744 37.4428 24.7656 37.5652 24.6024C37.7275 24.3784 37.9305 24.1869 38.1636 24.038C38.1636 24.1672 38.0616 24.4324 37.5924 24.8336C37.9096 24.7037 38.2018 24.5196 38.456 24.2896C38.7549 23.9936 39.0909 23.7376 39.4556 23.528C38.932 23.9904 39.1156 23.8884 39.5984 23.6164C40.1494 23.2842 40.7193 22.9845 41.3052 22.7188L40.0064 23.5416C39.9316 23.9768 43.2092 21.76 43.1072 22.2836C42.2096 22.7052 41.3596 23.12 40.5504 23.528L41.5568 23.1812L39.6324 24.1808C41.346 23.4056 41.2236 23.562 40.9448 23.8136C41.584 23.494 42.4544 23.086 43.2568 22.7392C43.855 22.4599 44.4761 22.2324 45.1132 22.0592C44.2088 22.5692 42.9712 22.9636 43.896 22.7392C42.3592 23.3444 40.6592 24.0992 42.3388 23.256L40.2988 24.1468C39.714 24.446 39.7208 24.4664 39.918 24.412C40.1152 24.3576 40.5096 24.2148 40.598 24.208C40.7137 24.1208 40.8421 24.052 40.9788 24.004L42.8624 23.324C43.3452 23.1472 43.8076 22.984 44.2224 22.848C43.3248 23.2288 42.74 23.4328 42.1076 23.6708C42.497 23.5241 42.8943 23.3992 43.2976 23.2968C41.6384 23.8952 39.9316 24.514 39.0544 24.8676C39.7344 24.5888 40.36 24.3644 40.904 24.1876L39.646 24.616L38.5104 24.9764C38.1296 25.0716 38.932 24.7792 39.5508 24.616C40.1696 24.4528 40.6252 24.3984 40.1696 24.4868C40.347 24.454 40.5265 24.4336 40.7068 24.4256C40.4853 24.4873 40.2567 24.5193 40.0268 24.5208C39.8704 24.5208 39.9656 24.48 40.3532 24.65C39.9945 24.5631 39.6522 24.4185 39.34 24.2216C39.5168 24.2216 39.7412 24.4324 40.0608 24.582C40.3804 24.7316 40.7816 24.8608 40.7408 25.1124C40.7 25.364 40.5368 25.2008 40.36 24.99C40.1832 24.7792 39.9384 24.5344 39.8568 24.4256L39.918 24.5004C39.8772 24.5684 39.8364 24.65 39.7956 24.7248L39.51 25.2212C39.3067 25.5719 39.0795 25.9081 38.83 26.2276C38.233 27.0089 37.4087 27.5861 36.4704 27.88C36.8814 27.4512 37.3297 27.0598 37.81 26.7104ZM39.0476 36.9648C38.9167 36.9472 38.7841 36.9472 38.6532 36.9648C38.5784 36.9648 38.6532 37.0532 38.9456 37.094C40.0608 37.1552 39.5168 37.1484 39.0476 36.9648ZM41.7676 41.6296C41.4616 41.3032 41.8764 41.5548 42.6856 42.0716C42.6108 42.1124 42.3388 41.9968 41.7608 41.6296H41.7676ZM19.3276 36.2576H19.3616C19.0216 36.5092 19.1168 36.4276 19.3004 36.2576H19.3276ZM19.7424 35.6796C19.6407 35.6616 19.536 35.6835 19.45 35.7408C19.62 35.7408 19.6064 35.8428 19.5316 35.9856C19.6948 35.9176 19.8376 35.802 19.7152 35.6796H19.7424ZM32.8868 18.1764L32.846 18.428C32.5604 18.36 32.7168 18.2648 32.8868 18.1764Z" fill="#EB509F"/>
<path d="M41.2168 40.5076L42.1756 41.1876C41.8717 40.9395 41.5514 40.7123 41.2168 40.5076V40.5076Z" fill="#EB509F"/>
<path d="M40.1424 24.48L39.9044 24.514L40.1424 24.48Z" fill="#EB509F"/>
<path d="M21.4356 54.4816C21.3331 54.6603 21.1823 54.8064 21.0004 54.9032C21.1568 54.944 21.3132 54.8624 21.4356 54.4816Z" fill="#EB509F"/>
<path d="M17.6888 35.2648C17.7838 35.2164 17.8815 35.1733 17.9812 35.1356C17.8588 35.1356 17.8996 35.0132 17.886 34.9044C17.8248 35.0472 17.7568 35.2648 17.6888 35.2648Z" fill="#EB509F"/>
<path d="M12.514 30.3416C12.3848 30.4028 12.2624 30.3416 12.1332 30.3416V30.6476C12.6228 30.736 12.9968 30.5456 12.514 30.3416Z" fill="#EB509F"/>
<path d="M18.1648 33.1296C18.2328 32.8576 18.1648 32.7556 18.0084 32.7216C17.9228 32.708 17.8356 32.708 17.75 32.7216H17.342H17.444C17.3012 33.0956 17.3896 33.2384 17.5936 33.2724C17.7918 33.2644 17.9862 33.2158 18.1648 33.1296V33.1296Z" fill="#EB509F"/>
<path d="M17.2128 32.7352C17.036 32.737 16.8598 32.7141 16.6892 32.6672C16.5804 32.9596 16.8932 32.7624 17.2128 32.7352Z" fill="#EB509F"/>
<path d="M19.4432 35.1968C19.6268 34.9996 18.634 35.598 18.906 35.4076C18.5048 35.6116 18.736 35.5572 19.0012 35.5096C19.2664 35.462 19.5928 35.36 19.4432 35.1968Z" fill="#EB509F"/>
<path d="M18.26 31.28C18.26 31.5112 18.26 31.7424 18.26 31.96C18.396 31.7968 18.5456 31.6336 18.702 31.4704L18.26 31.28Z" fill="#EB509F"/>
<path d="M22.1564 32.4224L21.5104 32.13C21.3935 32.2334 21.2447 32.2934 21.0888 32.3C21.5716 32.3952 21.9592 32.5992 22.1564 32.4224Z" fill="#EB509F"/>
<path d="M21.0888 32.3C20.8534 32.232 20.6035 32.232 20.368 32.3C20.6075 32.3278 20.8493 32.3278 21.0888 32.3Z" fill="#EB509F"/>
<path d="M19.5724 31.3004L19.7764 31.4772L20.3884 31.6268L19.5724 31.3004Z" fill="#EB509F"/>
<path d="M20.9392 40.8V41.8064C21.1432 41.956 21.3404 41.7248 21.3268 41.344C21.1976 41.0788 21.1908 40.698 20.9392 40.8Z" fill="#EB509F"/>
<path d="M23.3804 38.2568C23.1832 38.488 23.0336 38.4744 22.782 38.5764L23.6048 38.7804L23.3804 38.2568Z" fill="#EB509F"/>
<path d="M22.9792 41.1196C23.1832 41.2692 23.3396 42.6632 23.5436 41.4256C23.3396 41.2828 23.3532 40.2696 22.9792 41.1196Z" fill="#EB509F"/>
<path d="M18.8516 55.5016L18.8992 55.25L17.5324 54.9984L18.8516 55.5016Z" fill="#EB509F"/>
<path d="M20.8712 47.4436C19.926 48.2188 21.4084 48.1236 20.4632 48.8036C20.5788 49.2116 21.2384 48.28 21.3064 48.6744C21.4288 47.8924 21.8368 47.6952 20.8712 47.4436Z" fill="#EB509F"/>
<path d="M21.3064 48.6676C21.2949 48.8056 21.2949 48.9444 21.3064 49.0824C21.3329 48.9454 21.3329 48.8046 21.3064 48.6676V48.6676Z" fill="#EB509F"/>
<path d="M16.798 22.5896L16.5872 23.6504C16.73 23.426 16.866 23.2084 17.0088 22.9704L16.798 22.5896Z" fill="#EB509F"/>
<path d="M17.988 24.6976C17.7024 24.7724 17.41 24.854 17.1244 24.9424C17.4032 25.16 17.6888 25.3504 17.9676 25.534C17.9132 25.3096 17.8044 24.8676 17.988 24.6976Z" fill="#EB509F"/>
<path d="M34.9744 35.4484L35.4708 35.6388C35.9944 35.836 36.008 35.8224 36.042 35.8088L34.9744 35.4484Z" fill="#EB509F"/>
<path d="M33.4852 33.0548L33.6892 33.2792C33.8831 33.0946 34.0898 32.9242 34.308 32.7692C34.0292 32.8576 33.7572 32.9528 33.4852 33.0548Z" fill="#EB509F"/>
<path d="M38.9456 23.6776C38.999 23.6378 39.0627 23.6142 39.1292 23.6096H39.204L39.1496 23.6572C39.0136 23.7796 38.8708 23.8884 38.7348 23.9904C38.8615 23.8676 39.0005 23.7582 39.1496 23.664C39.2516 23.5892 39.204 23.664 39.2108 23.664V23.7184C39.222 23.7888 39.2426 23.8574 39.272 23.9224C39.3332 24.004 39.3264 24.0176 38.9456 23.6776Z" fill="#EB509F"/>
</g>
<defs>
<clipPath id="clip0_3_270">
<rect width="64.0764" height="59.5" fill="white" transform="translate(0.0768127)"/>
</clipPath>
</defs>
</svg>
