<svg id="Capa_1" data-name="Capa 1" xmlns="http://www.w3.org/2000/svg" viewBox="0 0 155.92 147.3"><defs><style>.cls-1{fill:#ffed3b;}</style></defs><path class="cls-1" d="M53.57,141l-.24-.23.44-.45.23.23Zm-7.83,6.27-.47-.45.25-.26.47.46Zm9.67-14.37.27-.74.25-.26.23.23c.27.26.24.57-.09.91ZM51.89,137l-.47-.46.19-.19.46.46Zm4.94-5.07-.23-.23.5-.52.23.23Zm1-1.94-.23-.23.5-.51.24.23Zm-4.28,3.46a1.85,1.85,0,0,0-.4-.88l.5-.52.47.46c.27.27.25.57-.09.91A.3.3,0,0,0,53.52,133.46Zm-2.75,2.47-.23-.23.69-.71.66.14-.25.26A2.72,2.72,0,0,0,50.77,135.93Zm-2.88,2.95-.47-.46.25-.25.47.45Zm6.64-6.81-.23-.23.5-.51.23.23Zm1.69-1.73-.47-.46.69-.71a.57.57,0,0,1,0,.91Zm-4.49,4.14-.47-.46.44-.45.47.46Zm-9.07,8.83a.67.67,0,0,1,0-1l.47.46Zm1-1.45-.41-.4.25-.26.41.4Zm3.57-3.67-.41-.39.5-.52C47.55,137.55,47.52,137.85,47.19,138.19Zm-1.85,1.08c-.33-1.15-.38-1.83-.17-2.05l.25-.25.87.85a.53.53,0,0,0,0,.85A3.92,3.92,0,0,0,45.34,139.27ZM50,134.82l-.41-.4c.34-.34.64-.38.91-.12Zm1.19-1.22-.17-.17a.73.73,0,0,1,0-1l.72.2-.33.68Zm73.85-76.1-.47-.46.25-.25.47.45ZM47.73,136.35l-.46-.46.25-.26.47.46ZM52,132l-.47-.46.26-.26.46.46Zm2.26-4.07c-.28-.35-.29-.65,0-.91l.5-.51a.61.61,0,0,1,1-.06l.41.4-.5.52-.65-.63-.27.74Zm-6.72,7.24-.17-.17c-.27-.35-.28-.65,0-.91l.73-.29c-.27-.34-.16-1,.31-2.07l.18.17a2.26,2.26,0,0,0,.45.94l.27-.74.19-.19.46.45a3.73,3.73,0,0,0-.76,1.14,3.06,3.06,0,0,0-1.11.79A3,3,0,0,1,47.53,135.15Zm1.94-3.75-.23-.23a.63.63,0,0,1,.09-.91l.44-.45c.43.42.81.45,1.14.11l-.41-.4a2.22,2.22,0,0,1-1-.43l.27-.74.71.2.88.86c.16.23.05.92-.31,2.08l-.25.25C50.27,131.17,49.81,131.06,49.47,131.4Zm10-9.31.25-.25c.33-.35.64-.39.91-.12l-.25.26C60,122.28,59.69,122.32,59.46,122.09Zm-6.65,7.3-.24-.23a.66.66,0,0,1,0-1l.44-.45.24.23a.56.56,0,0,1,0,.9ZM39.81,140c.21-.21.65-.24,1.33-.08a.56.56,0,0,1,0,.91Zm-15.07-3.29-.65-.63,1.19-1.22c-.23-.23-.23-.69,0-1.39l-.66-.14a.66.66,0,0,1,0-1c-.19-.19-1-.15-2.3.13l-.23-.23c.79-.81,1.34-1.06,1.65-.76.31-.62.38-1,.22-1.16a1.86,1.86,0,0,1-.89-.38l-.2.68-.26.26-.23-.23-.22-.71.67-.22.26-.26c-.43-.42-.4-.89.1-1.4l-.72-.2-.26.74-.25.26a2.73,2.73,0,0,0-1.81-.38l.25-.26,1.59-.33.25-.26-1.54-1-.33.69-.18.19c-.06-2,.23-3.28.85-3.93l-.47-.45-1,1,.71.68-1.16.25-.5.51a2.78,2.78,0,0,1,.39,2.77l-.24-.23a2.19,2.19,0,0,0-.45-.94c-.16.17-.31.2-.42.08.5-.51.59-.92.28-1.23l-.24-.22-1.81.1.2-.68a.66.66,0,0,0,1-.05l.24-1.65.25-.26.67-.22c-.16-.15-.15-.31,0-.48.23.22.72.2,1.45-.09l.19-.19A7.77,7.77,0,0,1,17.88,121l.28-1.11c.34-.34.8-.23,1.38.34l1.63-1.67c-.74-.72-.86-1.34-.36-1.85a3.17,3.17,0,0,0-2.3.13l.47.46.43-.45.41.4-.18.19-1.43,1-.17-.17-.27-1.13c-.33.26-.61.28-.85,0l-.23-.23a3.83,3.83,0,0,0,1.14-1.64l.75-.77-.23-.23.25-.26.7.69-1,1.39.23.23,1.19-1.22,1.3.89c.3-.38.33-.69.09-.91l-.5.51c-1.16-1.47-1.89-2.35-2.21-2.66l.25-.25c.28.26.58.22.92-.12l.23.23.2,1.2.5-.51.18.17.22.71.43-.45-1.3-.89a1.14,1.14,0,0,0,.06-1.82l.44-.45.65.63.78-1.62c.11.11.26.08.42-.09-.19-.19-.16-.65.11-1.4.16.16.3.17.42,0l-.23-.23-.66-.26a.23.23,0,0,0,0-.37l.68-.34a6.8,6.8,0,0,1,1-1.88l1.57.15.26-.74q1.67-.76,2.07-.36l.44-.45-.41-.4c-.46.47-.84.55-1.16.25l.27-.75c.36.27.66.27.91,0a.66.66,0,0,1,0-1,3.67,3.67,0,0,0,1.66-.76l-.24-.23c.71-.57,1.26-.66,1.65-.28l.25-.26-.47-.45c-.24-.23-.84-.2-1.82.1l-.23-.22-.25.25a3.63,3.63,0,0,1-.29,1.23l-.23-.23a2.54,2.54,0,0,0-.45-.94l.5-.51,1.64-.28.25-.26L29,99l-.23-.23,3.24.78q.56-.58.09-2.79l.67-.22-.47-.46c-.46.47-.84.56-1.15.25l-.18-.17.25-.26c.38-.38,1.12-.28,2.23.3l.5-.52.2,1.2.41.4.33-.69L35,96.4q.49-.51,1.14.12l.25-.26a2.35,2.35,0,0,1,.47-1.42l-.17-.17-.5.51a.24.24,0,0,1,0,.37l-.41-.4c-.32-1.16-.38-1.84-.17-2.05l.41.4.22.71q.5-.51,1.14.12l.44-.45-.66-.15a3,3,0,0,1,.52-1l-.47-.45-.5.51-.41-.4.25-.26a2.2,2.2,0,0,0,.92-.47l.18.17c.15.15.17.29,0,.42l.66.26a2.52,2.52,0,0,0,.69,1l-.25.26-.73.28.21.72a3,3,0,0,1,1-.54l-.17-2c1.15-.8,2-.93,2.55-.4l1-1.44-.23-.23a.61.61,0,0,1-1,0l-.25.26.47.46-.44.45q-.64-.63-1.14-.12c-.32-.3-.22-.71.28-1.22A3.71,3.71,0,0,0,42,89.27l-1.69-.14a2,2,0,0,0-.4-.89l.25-.25a2.43,2.43,0,0,0,2,.6l.23.23a2.78,2.78,0,0,0,.21,1.08,2.48,2.48,0,0,1,.92-.48l-.2-1.2c-.16.17-.31.2-.42.09l.43-.45a2,2,0,0,0,.9.37l.27-.74L45,87l1.62.57.25-.26q-.64-.63-.21-1.08l.74-.28a3.08,3.08,0,0,1,1-1.45l.41.4a4.05,4.05,0,0,1,1-1.39l.17.17.33-.69.44-.45.17.18.22.71-.67.22-.5.51.23.23q.75-.77,1-.54l.2-.68.5-.51a.57.57,0,0,1,.91,0L53,82l.68-.7a3.54,3.54,0,0,1,1.38.34l.51-.51-.47-.46c-.8.81-1.7.73-2.72-.27l-.7-.68.19-.19.47.45.26-.74a3.85,3.85,0,0,0,3,.07l.43-.45-.65-.27-.24-.23.44-.45,1.58,1.55.06-1.82.25-.26.24.23.16.65,1.92-1.5-.64-.63a2.51,2.51,0,0,1-1.17.73.31.31,0,0,1,0,.49l-.72-.2,1-1.45c.63.29,1.35,0,2.14-.79l.69-.71c.43.42,1,.22,1.83-.59a1.86,1.86,0,0,0-.39-.88l.25-.26c.43.42.81.45,1.14.11L65,70.9l.23.23.28.65a5.84,5.84,0,0,1,1.1-.31l.25-.26L66.67,71l-.5.51L66,71.33a.66.66,0,0,1,0-1l.68-.22c-.47-.46-.37-1,.3-1.72l.23.23.2-.68.25-.25.71.68c.63-1,.87-1.52.72-1.67l.73-.29L71.22,65a2.88,2.88,0,0,1-1.07-.67l-.34,1.17-.44.45a2,2,0,0,0-.44-1.3l.25-.26a.31.31,0,0,1,.49,0l.2-.68.5-.51.22.71c.16.16.32.15.49,0q.8,1.41.42,1.8a.3.3,0,0,0-.48,0l.64.63a2.48,2.48,0,0,1,.92-.48c-.53-.93-.65-1.55-.36-1.85l.44-.45,2.55-.39-.46-.46-.5.51L74.07,63c-.16-.15-.15-.31,0-.48l-.72-.2-.24-.23a.61.61,0,0,1,1-.06.3.3,0,0,0,0-.48l1.42-1,.44-.45-.66-.26c.13-.13.13-.25,0-.36a3.83,3.83,0,0,0,1.17-.86l.24.23-.5.51.47.46.26-.74.68-.22-.24-.23-.72-.2a4.06,4.06,0,0,0,.83-1.2l.86,1.34a.59.59,0,0,0,.85,0l.5-.51-1.8-.38,1.19-1.22,1.55.63c.84-1.1.95-1.95.33-2.56l.5-.51.23.23L82,55c.17-.17.31-.2.43-.09.84-1,1-1.77.5-2.27l.5-.51.46.46L84,54.1l.24.23a5.22,5.22,0,0,1,.91-1.87,2.86,2.86,0,0,0,1-.54l-.72-.2a.64.64,0,0,1,.1-.92l.43-.45.41.4a40.5,40.5,0,0,0,2.73-3.61l.41.4-1,1.45.47.46L90,48l.68-.22c.21-.22.23-1,.07-2.31l.94-1,1.65-.4.19-.2c-.43-.41-1-.3-1.59.34l-.47-.46c1.69-.94,2.79-1.17,3.29-.67A6.38,6.38,0,0,1,95.06,41l.6.21.28.64.24.23.19-.19-.47-.46.75-.77a.57.57,0,0,1,.91,0c.5-.51.38-1.13-.37-1.86l.25-.25a5.29,5.29,0,0,1,1.1-.31l.25-.26c-.43-.42-.49-.78-.2-1.07l.73-.29a2.47,2.47,0,0,1,.46-.94,2.86,2.86,0,0,0,1-.54,3.34,3.34,0,0,1-1.61-.57l1.16-.37a2.46,2.46,0,0,1-.46-.82.61.61,0,0,1-.9,0l.25-.25c.46-.48,1.06-.35,1.8.37l.28-1.1a.71.71,0,0,0,.91-.12l-.41-.4a2.29,2.29,0,0,1-1-.42l.25-.26c.25-.26.87-.27,1.87,0l.21,1.08.69-.71a1.26,1.26,0,0,1,.06-1.82,3.17,3.17,0,0,0-1.14-.24l-.18-.17,1.35-.56a.59.59,0,0,1,0-.85l.25-.26,1.36.83-.5.51-.47-.45-.43.45.71.2c-.16.17-.19.31-.07.43l1.42-1c-.72-1.29-.75-2.27-.08-3a2.54,2.54,0,0,1,1.07.66,3.11,3.11,0,0,1,.51-1c-.42-.42-.95-.31-1.58.33l-.47-.46A11.67,11.67,0,0,0,108,23.74c-.16-.15-.15-.31,0-.48a.58.58,0,0,0,.84-.05l-.41-.4-.43.45-.24-.23A5.43,5.43,0,0,0,109,20.9l.24.23a6.31,6.31,0,0,1,1-1.88l1.14.12a1.85,1.85,0,0,0,.4.88l.27-1.1c.5-.52,1-.56,1.4-.15l-.58-2.44a6.84,6.84,0,0,0,2.57-.88c-.28-.35-.29-.65,0-.91l.25-.25.21.71.41.4.5-.52c.3-.29-.14-1.18-1.3-2.64l.25-.26.71.69.93-1A.87.87,0,0,0,116,12l-.41-.4.25-.25c1.31-.56,2.28-.54,2.9.07l.51-.52-.67-.14.27-.74L120,9.23a2.22,2.22,0,0,1,.45-.93,1.82,1.82,0,0,1,.89.37l.27-.74.25-.26.22.71,1.16-.25L123,7.91l-.72-.2.35-1.17,1.55.63.5-.51L124,6l.26-.26c.58.58,1.51.52,2.78-.16l-.64-.63c.21-.21.65-.24,1.33-.08-.17.18-.17.34,0,.49l.25-.26,1-1.45-.23-.22c-.63.64-1.08.83-1.35.56l.44-.45a3.61,3.61,0,0,0,.92-.6l.47.46.22.71c.87-.74,1.48-.93,1.83-.59l-.5.51.24.23.75-.77c-.16-.15-.15-.31,0-.49.35.27.65.27.9,0a2.26,2.26,0,0,0-.45-.94l.25-.26a.87.87,0,0,0,1.39,0l.88.86L135.55,4c.34-.34.64-.38.91-.11l.24.22.22.72.75-.77-.7-.69.43-.45.71.69.26-.75a3.2,3.2,0,0,1,1.55.64c-.12.13-.1.27.05.42l.44-.45.41.4-.25.26-1.84.59-.18.19,2.52.58.17.17.22.72.94-1,.24.23.42,1.79c.25-.25,1-.14,2.29.35-.69,1.26-.88,2-.57,2.34l.25-.26,1-1.45.47.46c-.21.21-.23.82-.06,1.82a.31.31,0,0,0-.49,0l.15,1.14-.62.28-.25.25.18.18a2.2,2.2,0,0,1,.92-.48.72.72,0,0,1,.09-.92l.25-.25c.24.23.22.83-.06,1.82l-.5.51c-.31-.3-.55-.37-.72-.2a2.4,2.4,0,0,1-.45.94l.23.22.44-.45.41.4c-.63.65-.78,1.12-.47,1.42a.61.61,0,0,1,1,0c-.17.17-.19.31-.08.43l-1.35.56-.25.26L145,17a9.8,9.8,0,0,0,2.33-1.11l.65.63-.75.77a11.27,11.27,0,0,1-1.4,1.9l-.23-.23-.5.51c.74.73,1.28.92,1.61.57a3.19,3.19,0,0,1,.51-.87l.65.62-.25.26a2.32,2.32,0,0,0-.92.48.61.61,0,0,1,0,1l-.47-.46-.16-.65c-.46.47-.84.55-1.15.25l-.5.51.19,1.56a10.34,10.34,0,0,0-2.34,1.11l-.25.26.23.22,1.62-1.3.23.23c.32.3.24.69-.22,1.16a3,3,0,0,0-1,.54.3.3,0,0,1,0,.49l-.65-.27c.12-.12.11-.26,0-.42l-.19.2c-.81,1.46-1,2.4-.58,2.81l-.5.52a2.29,2.29,0,0,0-.83-.44l.69-.7-.88-.86-.5.51c.43.42,0,1.27-1.23,2.56.31.3.86.05,1.65-.76l.41.4-1.86,1.56-.71-.69c-.27-.26-.15-.65.35-1.17a.61.61,0,0,0-1,.06,2.34,2.34,0,0,1-.46.93.3.3,0,0,0-.48,0l.22.72q.24-.25.42-.09L136,31l.24.23c.62-.65,1.09-.81,1.4-.51l.24.23-.75.77c-.63-.61-1.4-.44-2.32.5l.66.26a2.82,2.82,0,0,0,.69,1.05l-.5.52-1.49-2.46-.75.77a2,2,0,0,1,.39.89.31.31,0,0,1,.49,0l-.44.45c-.5.51-1.05.48-1.63-.09l-.25.26a.55.55,0,0,0,0,.9.54.54,0,0,1,.85-.05l-.24,1.65-.47-.45-.44.45q.65.63.15,1.14a3.29,3.29,0,0,1-2.56.39l-.2.68-.25.26c-.43-.42-.81-.46-1.15-.12l-.25.26.65.63.5-.52.47.46L127,40.8c.69,1.09.9,1.76.65,2s-.69.32-1,0l-.15-.65a2.55,2.55,0,0,1-1-.43l-.2.68-.74.28a2.43,2.43,0,0,0,.46,1l-.69.7-.87-1.34q-1.87-1.83-3.43-.46l.66.14,1.12,1.08-.26.26c-.37.31-.67.34-.91.11.17-.17.18-.33,0-.48l-.67.22a2,2,0,0,0,.39.89l-1.16.37-.69.7.41.4.69-.7.47.45c-.46.47-.53.86-.22,1.17l-.5.51-.71-.68-.86-1.35-.69.71.24.23.72.2-.33.68c-.17.17-.31.2-.43.09l-.26.62c-.25.26-.71.31-1.39.14a7.54,7.54,0,0,1-1.24,2.56,1.92,1.92,0,0,1-.89-.37l-.5.51-.22,1.16c-.51-.49-1.14-.47-1.88.05l-.65-.62-.5.51.24.23,1.36.83-.25.25c-.29.3-.67.22-1.14-.23l-1,1,.7.68.5-.51.24.23c.27.26.24.57-.09.91l-.68.22.47.46-.5.51-1.13-.6-.19.19c.28.27.33.49.16.66q-3.06,1.27-3.42.93l-.25.26c-.33.34-.36.64-.09.91l.75-.77c.28,1.52.16,2.53-.34,3l-.23-.23-.16-.66a2.34,2.34,0,0,1-1.41.51l.22.71.17.17.44-.45.47.46-.19.19-2.8.65-.5.52.72.2.16.65a2.63,2.63,0,0,1,1.65-.76.31.31,0,0,1,0-.49c.16.16.32.15.49,0a2,2,0,0,0,.62,1.12l-.25.26c-.35-.35-.95-.31-1.81.1l.41.4c-.3.3-.74.17-1.32-.41l-.5.52.86,1.34-.44.45a11.42,11.42,0,0,0-1.32-2.16,2.49,2.49,0,0,1-1-.43l-.44.45a2.26,2.26,0,0,1,.45.94l.5-.51.41.4-1,1c.35.35.35,1,0,1.88l-.25.26-.23-.23a2.15,2.15,0,0,1,.32-2.56l-.72-.2-.23-.23-.16-.66-.44.45c.27.27.33.49.16.66l.72.2.23.23-1.42,1-.25.26c-.33.34-.21.8.38,1.37l-1.1.3-.75.77a2.73,2.73,0,0,1-.89-.49L94,70.1l.72.2,1.12,1.09a2.54,2.54,0,0,0-.71,1.19l-.23-.23-.27.74-.25.26-.23-.23a2.37,2.37,0,0,0-.46-.94l-.69.71.71.68-.75.77-1.54-1.12c-.43.92-.55,1.47-.36,1.66l.24.23.75-.77.47.45c.27.27.24.57-.09.92s-.94.21-1.81-.38l-.26.74-.44.45-1.16.37a.54.54,0,0,0,0,.85l.44-.45.22.71.41.4.5-.51.47.46-.25.25c-1.92.64-3.21.64-3.87,0-.26.26-.2,1.1.15,2.53l.18.17,1.14.24-.44.45a9,9,0,0,1-2.8.65l.64.63-.67.22L83.69,84.7a2.68,2.68,0,0,1-.53,1.48,4.81,4.81,0,0,1-2.31.14l-.2.68-.47-.46-.5.51.47.46.5-.51c.27.26.24.57-.09.91l-.25.26-.62.28.16.65.24.23.26-.74.19-.19.47.45.27-.74,1.14.12-.5.51-1.36,1.05a1.76,1.76,0,0,0,.39.88l-.94,1c-.37.3-.7.32-1,0l1.19-1.22-.17-.17-.44.45-.27-1.13-.44.45L79,91.69l-.19.2q-.5.51-1.14-.12l-.27.74L77,93c-.47-.45-.87-.51-1.2-.17l-.25.26.7.69-.19.19-3,.9A2.36,2.36,0,0,1,73.64,96l.25-.26,1-1.45.71.69a.54.54,0,0,1,0,.85l-.75.77a.56.56,0,0,1,0,.9L74.33,97l-.21-1.08a3.33,3.33,0,0,1-1.42,1c.19.19.18.64,0,1.34l-.25.25q-.87-.85-1.56-.15,1.11,1.09.36,1.86l-.66-.14-.27.62-1.36,1,.86,1.34-.5.51c-.62-.61-1.4-.44-2.32.5l-.26.74-1.35.57.17.17c.47.46,1,.36,1.65-.28l.16.66q-1.48.69-2.07.36l-.41-.4-.22-.71-.74.28A7.94,7.94,0,0,0,65,108a8.3,8.3,0,0,1-3.33,2,.31.31,0,0,1,0,.49l.72.2.41.4a2.26,2.26,0,0,0-.56,2.33A6.31,6.31,0,0,1,59.46,115a2.34,2.34,0,0,1-.46.93.61.61,0,0,0-1,.06l-.2.68.65.26.88.86-.44.45.41.4.44-.45.24.23-.94,1-.24-.23-.16-.65-.94,1c-.15-.15-.48,0-1,.54l-.24-.23,1.7-1.73-.24-.23c-.79.81-1.33,1.09-1.6.82a2.83,2.83,0,0,1-.7,1.19c1,1,2.15.85,3.4-.44l.23.23a5.93,5.93,0,0,0-1.48,2.81l-.18-.17-.2-1.2q-.4-.41-1.41.63l-.47-.46.5-.51-.23-.23-.51.51c.16.16.18.3,0,.42a2.19,2.19,0,0,1-1.13-.6l-.5.52,1.36.83c-.33.34-.36.64-.09.91l.47.46L56,123l.47.46-.73.29c.43.41.24,1-.55,1.84l-.64-.62c.5-.52.3-1.37-.58-2.57l-.83,3.07.23.23-.67.22-.22-.59-.47-.46-.19.2q-.37.38-.09,2.79l-.5.51a1.45,1.45,0,0,0-2.31.14.53.53,0,0,1,0,.85c-.28-.27-.58-.23-.91.11.43.42.47.8.14,1.14a.54.54,0,0,0-.85.05l-.22-.71-.23-.23-.25.26.84,1.82c-.41.43-1,.31-1.8-.37l-.75.77.47.45-.19.2-.73.28c.27.27.24.57-.1.91l-.18.2c-.17.17-.31.2-.43.08-.17.17-.19.32-.07.43l-1.37,1-.5.51.41.4a.91.91,0,0,1,1.45-.08c.3-.3.21-.68-.26-1.14l.73-.28c.75.72.49,1.73-.76,3-1-.51-1.57-.61-1.87-.31a.31.31,0,0,1,0-.49c-2.53-1.55-4.19-1.91-5-1.1l.47.46-.5.51-.24-.23-.22-.71c-.5.51-.89.64-1.16.37q.44-.45-1.05-3a4,4,0,0,0-1.36,1c.62.61.43,1.55-.58,2.82l.08-2.3q-.51.51-1.62-.57a3.92,3.92,0,0,0,.93-.6l-.41-.4-.25.25-1,1.45c-1.45.17-2.45,0-3-.55a.63.63,0,0,1,.09-.91l.64.63.19-.2c-.43-.41-.39-.88.11-1.39l-.72-.2-.24-.23.51-.52-.24-.22L25.77,133A3.89,3.89,0,0,1,24.74,136.73Zm21.41-1.93a.3.3,0,0,1,0-.48l-.66-.14-.47-.46.5-.51,1.07.66-.21.68Zm13.78-14.13-.41-.4.5-.51.41.4ZM46,133.24l-.47-.46c.26-.25.74-.28,1.46-.08l.41.4C47.11,133.36,46.64,133.4,46,133.24Zm7.6-6.5c-.2-.19-.18-.64,0-1.34l.24.23c.27.27.24.57-.09.92ZM37.16,143.2l-.46-.45.5-.52.46.46Zm15.25-16.58-.47-.45a.61.61,0,0,1,1-.06l.47.46C53,126.83,52.65,126.85,52.41,126.62Zm-7.84,8.52c-.27-.35-.28-.65,0-.91l.47.46Zm-8.21,3,.25-.26,1.22-.32.19-.19-.47-.45.74-.29.22.71.41.4c.5-.51.83-.69,1-.54l.38,1.37a.31.31,0,0,1,.49,0l-.25.26a.31.31,0,0,1-.49,0l-.2.68-.25.25-.47-.45c.46-.48.63-.77.51-.88Zm19.15-15.66-.17-.17.69-.71.17.17a.56.56,0,0,1,0,.91ZM61,116.92l-.17-.17c.33-.35.64-.38.91-.12l.23.23C61.56,117.17,61.24,117.18,61,116.92ZM34.83,144.19l-.41-.4.19-.19.41.4Zm2.59-3.12a.63.63,0,0,1,.09-.91l.25-.26.64.63A2.86,2.86,0,0,0,37.42,141.07Zm34.09-35.79.5-.52.41.4C72.05,105.47,71.75,105.51,71.51,105.28ZM35.36,142.83l-.23-.23.44-.45.23.23Zm14.3-15.13.18-.2-.46-.45-.19.19Zm10.66-11.41-.24-.23.51-.51.23.23Zm1.19-1.22-.24-.23.5-.51.24.23ZM86.75,89.18l-.47-.45.5-.52.47.46ZM40.36,136.3l.25-.26-.41-.4-.25.26ZM53,123.38l.25-.25a2.89,2.89,0,0,1,.51-1L52.6,121c.33,1.15.36,1.86.11,2.12ZM66.3,109.22l-.41-.4a.66.66,0,0,1,0-1l.66.26.64.63A2.34,2.34,0,0,0,66.3,109.22Zm10-9.8-.41-.4.25-.25c.3-.3.58-.32.85,0Zm62.56-64.17-.23-.23.5-.51.24.23ZM36.8,139.47l-.41-.4.25-.25.41.39Zm6-6.1.44-.45-.17-.17-.44.45Zm3.82-3.92.19-.19-.17-.17a3.54,3.54,0,0,1-1.9.53l-.18.19C44.94,130.15,45.63,130,46.57,129.45Zm1.88-1.93L49,127l-.17-.17-.5.51ZM64.7,110l-.23-.23a2.33,2.33,0,0,0,.45-.94l.72.2a3.18,3.18,0,0,1-.28,1.11Zm-30,31.25-.47-.45.5-.52.47.46Zm7.39-7.58.25-.25-.47-.46-.25.26Zm1.94-2a.7.7,0,0,0,0-.91l-.24-.22a.56.56,0,0,0,0,.9ZM69.19,105.9l-.47-.46.25-.26.47.46ZM132.54,40l-.24-.22a.57.57,0,0,1,.91,0l.23.23C133.07,40.21,132.77,40.21,132.54,40ZM32.37,141.79a.59.59,0,0,1,0-.85c.25-.25.79-.23,1.63.09l-.27.74C33.56,142,33.09,142,32.37,141.79Zm23.06-22.25.44-.45a2.19,2.19,0,0,1-.45-.94l-.94,1A2.29,2.29,0,0,1,55.43,119.54Zm4-5.08,1.41-.5-.23-.23-.72-.2-.65-.63-.67.22a2.26,2.26,0,0,1,.45.94c.17-.17.31-.2.43-.08A.3.3,0,0,0,59.47,114.46Zm13.56-13-.24-.22.51-.52.23.23Zm2.6-3.6.75-.77.47.46-.25.25C76.23,98.14,75.9,98.16,75.63,97.89Zm1.19-1.22.27-.74a.61.61,0,0,1,1-.06l-.27.74C77.42,96.92,77.09,96.94,76.82,96.67Zm-37.59,39,.94-1-.47-.45-.19.19a3,3,0,0,1-.52,1Zm8.58-8.8.25-.26-.47-.46-.25.26Zm1.69-1.74.44-.45-.24-.23-.44.45ZM62.63,110.4l.25-.26.62-.27c-.12-.12-.1-.26.07-.43l.66.14.24.23-.51.51C63.76,110.54,63.31,110.56,62.63,110.4ZM82.06,91.76l-.47-.46.25-.26.47.46Zm61.62-63.21-.23-.23.5-.51.24.23Zm-108,110.32-.41-.4a2.49,2.49,0,0,0,.45-.93l.23.23a.53.53,0,0,1,0,.85ZM40.43,134l.26-.26-.41-.4-.26.26ZM53,121.08l.25-.26-.41-.4-.25.26Zm20.23-20.75L73,100.1l1-1,.23.23Zm33.82-34.69-.41-.4.5-.51.41.4Zm-46.57,47a2.72,2.72,0,0,1,.87-.54l-.18-.17a2.28,2.28,0,0,1-.95-.43l-.44.45ZM38.58,135.07l.76-.77-.24-.23c-.31-.31-.63-.29-1,.06A2.19,2.19,0,0,1,38.58,135.07Zm9.27-9.51.5-.51c-.31-.31-.63-.29-1,0ZM71.9,100.89l-.23-.22c-.24-.23-.22-.72,0-1.46l.69-.71.47.46Zm68.76-70.53-.47-.45.25-.26.47.46ZM74.05,98.22l-.47-.45.25-.26.47.46ZM87.63,84.29l-.46-.46a.56.56,0,0,1,.9,0ZM93.8,77l.94-1a.55.55,0,0,1,0,.9C94.4,77.27,94.08,77.29,93.8,77ZM96,75.74c-.23-.23-.24-.69,0-1.39l.23.23a.56.56,0,0,1,0,.91Zm6.2-6.36-.47-.45.44-.45A.55.55,0,0,1,102.16,69.38Zm23.77-25.31-.23-.23c.25-.26.73-.29,1.45-.09l-.25.26C126.53,44.31,126.2,44.33,125.93,44.07Zm13.31-12.72-.47-.45.5-.52.47.46Zm6.45-6.61-.47-.46.5-.51.47.45ZM62.2,109a5.51,5.51,0,0,1,2.09-1.21l.25-.26-.23-.23A5.28,5.28,0,0,1,62,108.38ZM77.66,93.11l.44-.45.47.45A.62.62,0,0,1,77.66,93.11ZM33.9,137.64l.27-.74.64.63C34.44,137.84,34.14,137.87,33.9,137.64Zm3.73-3,.25-.26-.41-.4-.25.26Zm23.36-24,.25-.26a2.49,2.49,0,0,1,.45-.93l-.41-.4-.5.51a.53.53,0,0,1,0,.85ZM83.35,87.75l-.65-.63c.34-.34.64-.38.91-.12l.24.23Zm15-15.36-.23-.22a.72.72,0,0,1,.09-.92c.33-.34.64-.38.91-.11Zm23.61-24.21-.41-.4.44-.45.41.4Zm7.42-8.43-.23-.23.93-1,.65.62-.44.45C129.88,39.94,129.57,40,129.34,39.75ZM134.76,35a.59.59,0,0,1,0-.85l.25-.26a.54.54,0,0,1,0,.85Zm-68,68.49a3.73,3.73,0,0,1,1.16-.37,3.06,3.06,0,0,1-.86-1.34l-.25.25C66.53,102.3,66.51,102.79,66.73,103.5ZM86.18,84.37l-.41-.4a.74.74,0,0,1,0-1l.88.86Zm14.28-14.64-.41-.4.5-.52.41.4Zm23.61-24.22-.41-.4.44-.45.41.4Zm-94,96.05-.47-.45.5-.52.47.46ZM36.53,135l.5-.52-.23-.23-.5.52Zm20.48-21,.44-.45-.24-.23-.43.45Zm9.27-9.51.5-.51-.24-.23-.5.52Zm2.13-2.18c.25-.42.26-.74,0-1l-.23-.23-.51.51ZM91.53,78.06a3.32,3.32,0,0,0-.51-.88l.25-.25a2.3,2.3,0,0,0,1.44.4l-.51.51ZM105.79,63.9l-.23-.23.44-.45.23.23Zm4.26-6.24.25-.26a.61.61,0,0,1,1-.06l.21-.68.25-.25c.23.23.24.69,0,1.39l-.5.51L111,57.6C110.65,57.9,110.33,57.92,110.05,57.66Zm39.77-38.92-.47-.45.25-.26.47.46ZM35.61,135.42l.44-.44a.57.57,0,0,0-.91,0ZM59.41,111l.43-.44-.23-.23-.44.45Zm4-4.11.25-.25a2.52,2.52,0,0,1-.45-1l-.5.52Zm19-19.52L82,86.92l.25-.26.47.46Zm6.45-6.62-.23-.23c-.2-.19-.18-.63,0-1.33l.18.17a2.26,2.26,0,0,0,.45.94Zm4.51-4.63-.23-.22.5-.52.23.23Zm9-10.22.5-.51.47.46C103.06,66.16,102.73,66.18,102.46,65.91ZM31.77,138l-.17-.17.68-.34a5.65,5.65,0,0,1,1-1.88l.59.21-.2.68a.3.3,0,0,0-.49,0,.6.6,0,0,1,0,1l-.44.45C32.37,138.2,32.05,138.22,31.77,138Zm37.86-37.89.25-.26-.47-.45-.25.25ZM72,97.62l.25-.26-.64-.63-.26.26ZM97.47,70.57a3.55,3.55,0,0,0,.28-1.11l.66.14a3.41,3.41,0,0,1-.22,1.17Zm9-8.35-.46-.45.43-.45.47.45Zm15.24-16.09-.41-.4.25-.26c.82-.45,1.35-.56,1.58-.33l-.5.51A2.39,2.39,0,0,0,121.75,46.13Zm8.58-8.8.2-.68a.66.66,0,0,0,1-.06,2,2,0,0,1-.63-1.11l-.73.29-.94,1,.23.23A1.92,1.92,0,0,1,130.33,37.33ZM31.07,139.14l-.41-.4.25-.25.41.4Zm4.51-4.62.5-.52-.41-.4C35.34,134,35.31,134.25,35.58,134.52ZM72.23,96.45l.73-.28a.59.59,0,0,1,0-.85,3.06,3.06,0,0,1-1.12-.72l-.5.51Zm5.49-5.16.69-.71c.3-.38.33-.68.09-.91l-.23-.23a4.62,4.62,0,0,1-.78,1.62Zm18.54-19L96,72l.5-.51.23.23Zm26.68-27.36-.41-.4.69-.71a.54.54,0,0,1,0,.85Zm-63,64.2.44-.45-.17-.17-.44.45Zm8.52-8.74.5-.51a1.81,1.81,0,0,1-.39-.89l-.24-.22L68,99a.61.61,0,0,1,0,1Zm1.44-1.47.5-.52-.64-.63-.5.52ZM86.26,82.07l.25-.26q-.65-.63-.15-1.14a2,2,0,0,1-.89-.37,3.19,3.19,0,0,1-.51.87A3.73,3.73,0,0,1,86.26,82.07ZM98,69.2l.25-.25c.33-.35.63-.38.91-.12l-.25.26C98.53,69.39,98.23,69.43,98,69.2Zm1.94-2,.44-.45.41.4C100.46,67.42,100.17,67.44,99.94,67.21Zm7.55-6.92-.88-.86.44-.45-.66-.14-.24-.23.75-.77.88.86-.75.77.72.2.17.17Zm19.22-19.72c.3-.38.33-.69.09-.91l-.23-.23-.25.25.47.46-.44.45-.47-.46-.5.52C125.57,40.84,126,40.81,126.71,40.57ZM70.61,97.76l.25-.26-.46-.45-.26.25ZM82.07,86l.25-.26a2.39,2.39,0,0,1,.46-.94l-.47-.45a2.35,2.35,0,0,1-.47,1.42ZM96.13,70.65a2.47,2.47,0,0,0,.46-.94l.23.23a.61.61,0,0,1,0,1Zm15.69-15.16-.47-.45a.57.57,0,0,1,.91,0ZM121.12,45l.44-.45L122,45A.69.69,0,0,1,121.12,45Zm-90.69,93.5-.47-.46.25-.26.47.46ZM78.52,89.18l.19-.19-.47-.46-.19.19ZM83,84.56l.2-.68a3,3,0,0,0,1-.54L84,82.62l-.23-.23a3.18,3.18,0,0,1-1.84.6l.88.85-.25.26Zm-9.75,9.53.25-.25-.47-.46-.75.77A.67.67,0,0,0,73.28,94.09Zm8.07-8.28.51-.52-.24-.23-.5.52Zm49.73-51,.5-.51a.6.6,0,0,0-1,.06ZM98,68.23,97.79,68l.44-.44.24.22ZM106.11,60a.65.65,0,0,1,.09-.92l.41.4ZM123.7,41.9l.94-1-.41-.4-.18.2a3.79,3.79,0,0,1-.58.94ZM127,38.49l.5-.51-.23-.23-.5.51Zm1.94-2,.44-.45-.23-.23-.44.45ZM30.22,137.32l-.41-.4.69-.71.41.4ZM69.93,96.59l.5-.51-.18-.18-.5.52Zm10.71-11,.25-.26-.41-.4-.25.26ZM144,20.66l.5-.51-.18-.17-.5.51ZM87.16,78.56l.69-.71c.21-.21.2-.67,0-1.39l-.43.45a2.4,2.4,0,0,1-.47,1.42ZM93.55,72l.5-.52L93.58,71l-.5.51Zm35.69-36.62.25-.25-.47-.46-.25.26ZM28.58,137.72l-.24-.23a.31.31,0,0,1,0-.49l-.66-.14-.24-.23.25-.26A2.57,2.57,0,0,0,29.3,136a.56.56,0,0,1,0,.9Zm3.13-3.22.25-.25a.63.63,0,0,0,0-.91l-.25.26A.56.56,0,0,0,31.71,134.5Zm41.89-43,.44-.45-.47-.46A.57.57,0,0,0,73.6,91.53ZM95.21,69.37l.25-.26L95,68.65l-.25.26ZM96,68.6a.63.63,0,0,0,0-.91l-.44.45Zm23.3-23.9.5-.51-.24-.23-.5.51Zm3.31-3.4.51-.52-.24-.23-.5.52Zm.76-.77.43-.45-.23-.23-.44.45Zm21.16-21.72.5-.51-.23-.23-.5.52ZM79.07,85.46l.44-.45-.24-.23-.44.45ZM97.35,66.7l.25-.26-.41-.4-.25.26Zm2.88-3,.51-.51L100.5,63l-.5.52Zm8.33-8.54.5-.51-.41-.4C108.32,54.63,108.29,54.93,108.56,55.2Zm6.2-6.36.25-.26c.21-.21.23-.65,0-1.33l-.69.71A1.76,1.76,0,0,1,114.76,48.84ZM27.17,138.22l-.65-.63a.3.3,0,0,1,0-.48l-.66-.14-.23-.23.7-1.19.47.45-.44.45.66.14-.26.75.71.2.18.17ZM105.7,57.67l.5-.51a3.12,3.12,0,0,1,.51-.88l-.47-.46a2.65,2.65,0,0,1-.72,1.68Zm6.7-6.87.44-.45-.18-.17-.44.45Zm3.32-3.41.25-.25-.41-.4-.25.25ZM147.59,14.7l-.41-.4a.66.66,0,0,1,0-1,2.48,2.48,0,0,0,.92-.48C148.49,13.19,148.31,13.81,147.59,14.7ZM102.2,60.9l-.46-.45-.51.51A.73.73,0,0,0,102.2,60.9Zm1.44-1.47.44-.45a.56.56,0,0,0-.9,0ZM87,76l.44-.45-.23-.23-.44.45Zm7.83-8,.5-.52-.23-.22-.5.51Zm13.59-13.94.44-.45a.57.57,0,0,0-.91,0ZM111,51.42l.5-.51-.24-.23-.5.52Zm-80.9,82.51-.23-.23a.54.54,0,0,0-.85.05l.18.18Q29.71,134.32,30.09,133.93Zm81.85-84,.5-.52-.23-.23-.5.52ZM25.35,138.33l-.41-.4.25-.26.41.4Zm5-5.14.44-.45-.24-.23-.43.45ZM28.19,135c.29-.38.32-.68.09-.91l-.24-.23a.61.61,0,0,0,0,1Zm85.49-88,.25-.26-.47-.46-.25.26Zm33.56-34.43-.46-.46a.61.61,0,0,1,1-.06ZM29.72,132.56l.25-.25-.47-.46-.25.26Zm-3.17-1.2-.26-1.14-.18-.17a3.21,3.21,0,0,1-.76,1.13l.23.23A.67.67,0,0,0,26.55,131.36Zm1.88-1.93.5-.52-.23-.22-.5.51Zm-2.86,2.47-.47-.46-.44.45A.64.64,0,0,0,25.57,131.9Zm1.69-1.74.25-.25-.47-.46-.25.26ZM143.88,10.07l.44-.45-.24-.23-.44.45ZM22.06,133.74l-.88-.86.5-.51.88.86Zm2.38-2.44.5-.52-.24-.22-.5.51Zm.75-.77.25-.26-.47-.46-.25.26ZM143.44,8.76l.25-.25c.29-.38.3-.71,0-1l-.25.25C143.13,8.14,143.12,8.46,143.44,8.76ZM20,134.1l-.47-.45.25-.26a.61.61,0,0,1,1-.06l.18.17A3.71,3.71,0,0,0,20,134.1Zm-1.63,1.67-.47-.45.25-.26.47.46Zm2.58-3.12-.23-.22,1-1-.72-.2a2.88,2.88,0,0,1,.52-.88l-1.15-.24.28-1.1.25-.26c.43.42.79.48,1.09.18l.46.46a3.6,3.6,0,0,0-.51,2.75A3,3,0,0,0,20.94,132.65Zm3.59-4.14-.47-.46-.44.45C24,128.76,24.28,128.76,24.53,128.51ZM141.43,7.31l.25-.26-.47-.46-.25.26ZM18.94,131.08l.19-.2.73-.28-.41-.4.5-.52.18.18a2.54,2.54,0,0,0,.45.94l-.75.77A2.73,2.73,0,0,0,18.94,131.08Zm4.24-3.89.75-.77-.23-.23L23,127ZM141.27,4.77l-.47-.45.5-.52.47.46ZM22.3,126.34l.5-.52-.23-.22-.5.51Zm-4,2.77-.47-.45.5-.52.47.46Zm-2.11,1.7-.47-.45.19-.2.47.46ZM139,3.94l-.16-.66-.75.77A.71.71,0,0,0,139,3.94ZM18.17,125.19l.25-.26,1-1.39-.23-.23L18,124.53Zm2.88-3,.5-.51-.18-.17-.5.51Zm-.16-.65a.63.63,0,0,0,0-.91l-.44.45Zm74-76.84c-.43-.42-.48-.8-.14-1.14a.61.61,0,0,0-1,.06L94,44.79A.58.58,0,0,0,94.88,44.74ZM12.8,128.47l-.18-.17.5-.51.18.17ZM97.28,41.82l.5-.52-.18-.17-.5.51ZM133.66,4.49l.5-.51L134,3.81l-.51.51ZM82.82,56.29a2.85,2.85,0,0,1,.71-1.19l-.24-.23L82.1,56.09l-.23-.23-.44.45C81.66,56.54,82.13,56.53,82.82,56.29Zm9.27-9.51.5-.51a2.28,2.28,0,0,1-1-.43l-.5.52A2.29,2.29,0,0,1,92.09,46.78ZM19,121.26l.5-.51a.6.6,0,0,0-1,.06Zm40.47-42,.5-.51-.24-.23-.5.51Zm13.84-14.2c.21-.21.22-.65,0-1.33l-.25.26a.54.54,0,0,0,0,.85Zm4.27-4.85a2.48,2.48,0,0,1,.92-.48l.25-.25-.23-.23c-.33.34-.64.38-.91.11l-.44.45Zm22.84-23,.25-.26-.64-.63-.25.26ZM133,3.87l.25-.26-.47-.46-.25.26ZM63.77,74.43l.25-.26-.41-.4-.25.26Zm1-1c.26-.34.27-.62,0-.85l-.67.22Zm4.76-4.88.44-.45-.23-.23-.44.45Zm1.38-1.42c.3-.38.33-.68.09-.91l-.73.29ZM86.19,51.43l.19-.19-.41-.4-.19.19Zm6-6.1.19-.2a.54.54,0,0,0-.85,0l-.25.26A.63.63,0,0,0,92.14,45.33ZM18.41,119.66a.66.66,0,0,1,0-1c.21-.21.67-.22,1.39,0l-.33.69C19.24,119.09,18.87,119.19,18.41,119.66Zm49.7-50.15.19-.19-.41-.4-.19.19Zm33.75-34.62.5-.52L102,34l-.5.52ZM95,40.62c.5-.52.59-.93.28-1.23l.44-.45.23.23c.24.23.24.69,0,1.39C95.58,40.83,95.25,40.85,95,40.62Zm-49.24,51,.25-.25-.47-.46-.25.26Zm8.33-8.54.25-.26-.47-.46-.25.26Zm2.13-2.19.25-.25a.61.61,0,0,1,0-1l-.23-.23-.5.51.21.72ZM61,76l.5-.51L61,75A.61.61,0,0,0,61,76ZM80,56.45,79.57,56l.75-.77.47.45Zm6.2-6.35-.46-.46.25-.26a2.39,2.39,0,0,0,.92-.48c-.16-.15-.15-.31,0-.48l.46.45ZM96.69,39.37l-.47-.46.51-.51.46.45ZM22,115.52l.44-.45-.24-.23-.44.45ZM89.32,46.46a.66.66,0,0,1,0-1l.69-.7.47.45-.25.26c-.13.13-.27.12-.42,0l-.27.75ZM128.58,6.19l.25-.26-.46-.46-.25.26ZM84.83,50.6l-.41-.4.43-.45.41.4ZM50.09,85.77l.44-.45-.18-.17-.44.45Zm28.8-29.55-.41-.4.44-.45.41.4Zm1.24-2.56.25-.25a.57.57,0,0,1,.91,0l.17.18C81.25,53.8,80.81,53.83,80.13,53.66Zm6.59-5.47-.41-.4.5-.51.41.4ZM16.34,120l-.46-.46.5-.51C16.69,119.36,16.68,119.68,16.34,120Zm5.7-5.85.25-.26-.46-.45-.26.25Zm1.69-1.73.25-.26-.46-.46-.25.26ZM43.71,92l.69-.71a.57.57,0,0,0-.91,0l-.25.26Zm1.44-1.48.25-.26a2.48,2.48,0,0,1-.5-1.36l-.17-.17-.27.62-.67.34.17.17A2.48,2.48,0,0,1,45.15,90.48ZM63.94,71.21l-.47-.46.25-.26a.57.57,0,0,1,.91,0Zm1.44-1.48-.47-.46,1-1.45C66.22,68.17,66.06,68.8,65.38,69.73ZM96.31,38l-.7-.69.25-.25a.57.57,0,0,1,.91,0l.23.23Zm1.19-1.22-.93-.92.67-.22a2.78,2.78,0,0,0,.52.88ZM12,124l-.23-.22.5-.52.23.23Zm36.7-37.64.44-.45-.24-.23-.44.45ZM85.12,49l-.23-.23.5-.51.23.23Zm2.63-2.7-.47-.45.25-.26.47.46Zm20.92-21.45.5-.52-.7-.68-.25.26A2.45,2.45,0,0,1,108.67,24.86Zm21-21.52c-.27-.35-.28-.65,0-.91l.25-.26a.62.62,0,0,1,0,1Zm-82.34,84,.69-.7-.47-.46-.25.26A.56.56,0,0,0,47.31,87.32ZM59.65,74.67l-.47-.46.25-.25.47.45Zm50.22-51.52.94-1-.62-1.12-.74.29-.19.19-.26.75.66.14ZM23,111.76l-.23-.23c-.12-.11-.58-.06-1.4.15a2.35,2.35,0,0,1-.45.93C21.54,112.86,22.24,112.58,23,111.76ZM52,82l-.24-.23a.71.71,0,0,1,.09-.91l.25-.26.24.23c.27.27.24.57-.09.91Zm4.32-4.43-.41-.4.44-.45A.54.54,0,0,1,56.35,77.59Zm45.9-47.09-.23-.23a.64.64,0,0,1,.09-.91l.23.23C102.61,29.86,102.58,30.16,102.25,30.5Zm10.46-10.72.5-.52L113,19l-.5.52Zm-89.47,91.3.25-.25a3,3,0,0,1-.37-1.86L23,108.8l-.25.26a3.06,3.06,0,0,1,.36,1.85Zm14.52-14.9.51-.51-.18-.17-.5.51ZM8.09,126.27l-.47-.46.25-.26.47.46Zm16.69-18.06a.57.57,0,0,1,.91,0l.25-.25-.47-.46-.73.29-.19.19ZM114,17.64l.25-.26-.47-.45-.25.25Zm5.45-5.59.5-.51-.24-.23-.5.51Zm3.91-6.71-.23-.22.25-.26,2.55-.39.47.45-.5.52ZM15.69,118l-.24-.23a.73.73,0,0,1,0-1l.72.2.24.23ZM45.93,87l-.7-.68.5-.52.7.69Zm11-11.24-.47-.46.25-.25.47.45Zm5.45-5.59-.47-.46.25-.25.47.45Zm55-56.4.51-.51-.24-.23-.5.51ZM35,97.74l.69-.71-.23-.23-.69.71ZM86.15,45.26,85.92,45l.5-.52.24.23Zm40-41-.47-.45a.6.6,0,0,1,1-.06ZM14.28,118.51l-.41-.4.25-.25.41.4ZM25.49,107l.25-.26-.65-.63-.75.77.24.23A.65.65,0,0,0,25.49,107ZM58.8,72.84l-.41-.4.25-.25.41.39Zm58.74-60.25.51-.52-.24-.22-.5.51ZM16.42,115.84l-.17-.17L16,115a2.32,2.32,0,0,0,.92-.48l.24.23A3.66,3.66,0,0,0,16.42,115.84Zm3.14-3.21-.41-.4.68-.7c.28.26.25.57-.09.91ZM46,85.16l-.21-.71a2,2,0,0,1-.9-.37l.5-.52,1.37.83-.33.69C46.3,85,46.16,85,46,85.16ZM127.33,2.08l-.41-.4.25-.25.41.4Zm-82,83.79-.24-.23.44-.45.23.23Zm4.25-4.37-.23-.23c-.23-.23-.22-.71.05-1.46l.23.23C49.85,80.27,49.83,80.76,49.56,81.5Zm6.89-7.07L56,74l.76-.77c.31.3.3.62,0,1Zm54.3-55.69-.47-.46a.57.57,0,0,1,.91,0Zm.69-.71a.66.66,0,0,1,0-1l.47.46Zm2.63-2.69-.47-.46,1-1.45c.24.23.24.69,0,1.39Zm8.11-9.26.44-.45.46.46C122.71,6.31,122.41,6.31,122.18,6.08ZM19.85,111c-.35-.34-.1-1.18.75-2.53l.66.15c-.6,1-.76,1.64-.49,1.9A2.48,2.48,0,0,0,19.85,111ZM51,79.54c-.27-.35-.28-.65,0-.91l.47.46ZM13.65,117.4l-.23-.23.5-.51.23.23ZM17,114l-.47-.46L17,113l.47.45Zm16-16.38.25-.26-.47-.46-.25.26Zm20.48-21L53,76.15l.69-.7c.31.3.3.62,0,1Zm-24.79,25-.41-.4c.34-.34.64-.38.91-.11Zm5.29-6.24-.23-.23,1-1,.64.63-.5.51C34.56,94.94,34.26,95,33.92,95.32Zm5.19-5a.63.63,0,0,1,.09-.91l.41.4Zm14.53-14.9-.41-.4.5-.52C54,74.8,54,75.1,53.64,75.45ZM23.5,105.07c-.27-.34-.28-.65,0-.9l.72.2.46.45-.25.26C24,105.3,23.73,105.3,23.5,105.07Zm1-1.93.26-.62.88.86.28-1.23.66.26.23.23-1.19,1.22Zm-3.82,3.92.25-.26a.57.57,0,0,1,.91,0l-.21.68A2.16,2.16,0,0,0,20.65,107.06ZM33,95.8l-.47-.46.5-.52.47.46Zm2.88-3c-.23-.23-.24-.69,0-1.39l.25-.26c.23.23.21.72,0,1.46ZM38.21,90l-.47-.46.25-.26.47.46ZM14.68,113.65l-.88-.86.25-.26a2,2,0,0,0,1.13.6Zm.69-.71a.71.71,0,0,1,.09-.91l.66.14Zm23.11-23.7-.41-.4.25-.26.41.4Zm-5.93,5.61a.59.59,0,0,1,0-.85l.42.4ZM16.67,110.32l-.24-.23.44-.45.24.23ZM32.84,93.26l-.47-.46.5-.51.47.46Zm6.89-7.06a.68.68,0,0,1,0-1l.47.46Zm-22.84,23-.24-.23.51-.52.23.23Zm5.71-6.33-.41-.4.25-.26c.34-.34.64-.38.92-.12Zm1.27-1.65-.47-.46.25-.26.47.46Z"/><path class="cls-1" d="M7.11,48.68l.21-.26.49.38-.2.27ZM0,41.51.42,41l.28.22-.42.54Zm15.49,8,.78.17.29.23-.21.26c-.25.32-.56.32-.94,0ZM11,46.46l.42-.53.21.16-.42.54Zm5.62,4.39.2-.27.57.45-.21.27Zm2.05.74.21-.26.57.44-.21.27Zm-3.92-3.92a2.09,2.09,0,0,0,.86-.51l.57.44-.42.54c-.24.31-.56.32-.94,0A.31.31,0,0,0,14.77,47.67ZM12,45.19l.21-.27.78.62-.08.69L12.64,46A3,3,0,0,0,12,45.19ZM8.74,42.64l.42-.54.28.22L9,42.86Zm7.54,5.88.21-.26.56.44-.2.27ZM18.2,50l.41-.53.79.61a.58.58,0,0,1-.92.15Zm-4.63-4,.42-.54.5.39-.42.54Zm-9.81-8.1a.67.67,0,0,1,1-.09l-.42.53Zm1.56.79.36-.47.29.22-.37.47Zm4,3.16.36-.46.57.44C10.06,42.12,9.75,42.13,9.37,41.83ZM8.1,40.09c1.13-.48,1.82-.62,2.06-.44l.28.22-.78,1a.54.54,0,0,0-.87.08A3.59,3.59,0,0,0,8.1,40.09Zm5,4.2.37-.47c.38.3.44.6.2.91Zm1.35,1.05.16-.2a.75.75,0,0,1,1-.09l-.13.76-.72-.24ZM98.6,110.8l.42-.53.28.22-.41.53ZM11.29,42.15l.42-.53.29.22-.42.54Zm4.84,3.78.42-.53.28.22-.42.53Zm4.34,1.78c.32-.32.63-.37.91-.15L22,48a.62.62,0,0,1,.15,1l-.36.47L21.17,49l.57-.74L21,48.09Zm-8-5.91.16-.2c.32-.32.63-.37.91-.15l.36.71c.33-.32,1-.3,2.14.05l-.16.2A2.61,2.61,0,0,0,15,43l.78.18.21.17-.42.53a3.84,3.84,0,0,0-1.22-.63,3.17,3.17,0,0,0-.91-1A3.15,3.15,0,0,1,12.49,41.8Zm4,1.49.21-.26a.65.65,0,0,1,.94,0l.49.39c-.38.49-.38.88,0,1.18l.36-.47a2.49,2.49,0,0,1,.35-1l.77.17-.13.76-.78,1c-.22.19-.94.17-2.14,0l-.28-.22C16.78,44.07,16.85,43.59,16.47,43.29Zm10.39,9,.29.22c.37.3.44.6.2.92l-.29-.23C26.72,52.84,26.65,52.54,26.86,52.27Zm-8-5.84.21-.27a.68.68,0,0,1,1-.09l.49.39-.2.27a.59.59,0,0,1-.92.14Zm-12-11.87c.24.18.31.63.21,1.34a.58.58,0,0,1-.92.15ZM8.7,18.8l.57-.73,1.35,1.05c.21-.26.68-.33,1.41-.19l.08-.69a.68.68,0,0,1,1-.09c.18-.22.06-1-.36-2.32l.21-.27c.9.7,1.21,1.23.94,1.59.66.23,1.06.25,1.2.08a2,2,0,0,1,.29-1l-.71-.12-.29-.23.21-.26.71-.32.28.66.29.22c.38-.49.86-.51,1.43-.07l.13-.75-.78-.18L16.37,15a2.85,2.85,0,0,0,.21-1.88l.28.22.5,1.57.28.22.86-1.69-.72-.25L17.57,13c2-.3,3.34-.18,4.06.38l.41-.54L20.91,12l-.63.81-.36-1.15-.57-.44a2.88,2.88,0,0,1-2.76.75l.2-.27a2.54,2.54,0,0,0,.92-.58c-.19-.15-.24-.29-.13-.43.57.45,1,.49,1.27.14l.21-.27-.28-1.84.7.12a.68.68,0,0,0,.15,1l1.7,0,.28.23.29.65a.31.31,0,0,1,.49,0c-.21.26-.13.75.23,1.47l.21.16A8.44,8.44,0,0,1,24,9.83L25.1,10c.38.3.31.78-.21,1.45l1.85,1.45c.66-.85,1.27-1,1.84-.61a3.17,3.17,0,0,0-.36-2.32l-.42.53.5.39-.36.47-.22-.17L26.58,9.84l.16-.2,1.12-.42c-.29-.3-.34-.59-.13-.85l.21-.27a3.7,3.7,0,0,0,1.77,1l.86.67.21-.27.28.23-.63.8-1.5-.86-.21.27L30.07,11l-.78,1.43c.41.26.72.25.93,0l-.57-.44c1.38-1.37,2.2-2.23,2.48-2.59l.29.22c-.25.31-.18.62.2.91l-.21.27-1.2.36.57.44-.15.2-.71.32.5.39L32.2,11a1.16,1.16,0,0,0,1.85-.17l.5.39L34,12l1.72.59c-.1.13-.06.28.13.42.17-.22.65-.24,1.43-.07-.14.18-.14.33,0,.44l.21-.27.2-.7c.15.11.27.1.37,0l.42.64a6.39,6.39,0,0,1,2,.81v1.61l.77.18c.63,1.06.81,1.75.57,2.06l.5.39.36-.47c-.52-.41-.64-.79-.36-1.15l.78.18c-.23.4-.21.7.08.93a.68.68,0,0,1,1-.1A3.5,3.5,0,0,0,45.07,19l.21-.26c.64.64.78,1.19.44,1.63l.28.23.42-.54c.21-.27.11-.88-.28-1.84l.2-.26-.28-.23a3.43,3.43,0,0,1-1.27-.13l.21-.26a2.47,2.47,0,0,0,.91-.59l.57.45.44,1.64.28.22.14-.76.2-.27-.47,3.4c.42.33,1.37.25,2.83-.26l.29.65.42-.53c-.52-.41-.64-.79-.36-1.15l.15-.2.29.23c.42.33.4,1.1-.09,2.3l.57.44L50,23.27l-.37.47.73.24.21.17c.38.3.38.69,0,1.18l.29.22a2.37,2.37,0,0,1,1.48.3l.16-.2-.57-.44a.23.23,0,0,1-.37,0l.37-.47c1.13-.47,1.82-.62,2.06-.44l-.37.47-.7.32c.38.29.37.69,0,1.18l.5.38.08-.69a3.07,3.07,0,0,1,1.06.4l.42-.53-.57-.45.37-.46.28.22a2.41,2.41,0,0,0,.57.88l-.15.2c-.14.18-.28.21-.42.1l-.21.7a2.72,2.72,0,0,0-1,.84l-.28-.23L53.17,27l-.7.31a2.9,2.9,0,0,1,.64.94l2.06-.44c.92,1.08,1.13,1.93.64,2.55l1.56.79.21-.27a.62.62,0,0,1-.15-1l-.28-.22-.42.53-.5-.39c.38-.49.39-.88,0-1.18.28-.35.7-.31,1.27.14a3.62,3.62,0,0,0,.93,1.59l0-1.74a1.92,1.92,0,0,0,.86-.51l.29.22a2.48,2.48,0,0,0-.42,2.15l-.21.27a2.84,2.84,0,0,0-1.07.34,2.29,2.29,0,0,1,.57.88l1.2-.36c-.19-.15-.24-.29-.13-.42l.5.39a2,2,0,0,0-.29,1l.77.17.5.39-.42,1.72.28.22c.38-.49.74-.61,1.07-.35l.36.71a3,3,0,0,1,1.56.79l-.36.47a3.94,3.94,0,0,1,1.5.85l-.15.21.72.24.5.39-.16.2-.7.31-.29-.65-.57-.45-.2.27c.56.44.78.75.64.93l.71.12.57.45a.58.58,0,0,1,.07.92l.78.18.78.61a3.79,3.79,0,0,1-.21,1.45l.57.44.42-.53c-.9-.71-.9-1.64,0-2.8l.63-.8.21.17-.41.53.77.18a3.91,3.91,0,0,0,.23,3.08l.5.39.2-.7.21-.27.5.39-1.41,1.81,1.85-.17.28.22-.21.27-.65.24,1.71,1.77.58-.74a2.5,2.5,0,0,1-.86-1.1.3.3,0,0,1-.49,0l.13-.76,1.56.79c-.23.68.11,1.38,1,2.08l.78.61c-.38.49-.12,1.09.78,1.79a2,2,0,0,0,.86-.51l.28.22c-.38.49-.38.88,0,1.18l1.78,1-.21.27-.63.37a7.32,7.32,0,0,1,.41,1.08l.29.22.21-.27-.57-.44.15-.2a.68.68,0,0,1,1-.09l.29.65c.42-.53,1-.5,1.76.09l-.2.27.7.12.29.22-.63.8c1,.53,1.63.7,1.77.52l.36.72L85.81,57a3,3,0,0,1,.57-1.17l-1.22-.2-.49-.39A2.21,2.21,0,0,0,86,54.61l.28.22a.31.31,0,0,1,.08.49l.7.12.57.45-.7.31a.31.31,0,0,0,.08.49c-.9.66-1.49.88-1.78.66a.31.31,0,0,0-.07-.49l-.58.73a2.37,2.37,0,0,1,.57.88c.9-.66,1.52-.86,1.85-.6l.5.39.64,2.54.42-.53-.57-.44.16-.21a.31.31,0,0,1,.49,0l.13-.76.21-.27a.62.62,0,0,1,.15,1,.31.31,0,0,0,.5,0l1.14,1.32.5.39.2-.7a.23.23,0,0,0,.37,0,3.79,3.79,0,0,0,1,1.08l-.21.27L92,61.38l-.41.53.77.18.29.66.21-.27.13-.76a4,4,0,0,0,1.3.69L93,63.46a.6.6,0,0,0,.13.85l.57.45.21-1.88,1.35,1-.49,1.66c1.19.72,2.07.72,2.63,0L98,66l-.21.27-.71.31c.19.15.24.29.13.43,1.11.72,1.9.8,2.35.22l.57.44-.42.54-1.57.39-.2.26a5.23,5.23,0,0,1,2,.69,2.9,2.9,0,0,0,.64.94l.14-.76a.64.64,0,0,1,.93,0l.5.39-.37.47a40.86,40.86,0,0,0,3.92,2.31l-.36.47-1.56-.79-.42.54,1.56.78.29.66c.23.19,1,.11,2.34-.21l1.07.83.56,1.62.21.17c.39-.49.22-1-.49-1.57l.42-.53c1.12,1.59,1.45,2.68,1,3.26a6,6,0,0,1,2.14,0l-.16.63-.63.37-.21.27.22.17.41-.54.86.67a.58.58,0,0,1,.08.92c.57.45,1.18.24,1.84-.6l.29.22a6.18,6.18,0,0,1,.41,1.08l.29.22c.38-.49.74-.6,1.07-.35l.36.72a2.29,2.29,0,0,1,1,.34,2.81,2.81,0,0,0,.65.93,3.56,3.56,0,0,1,.42-1.71l.49,1.13a2.72,2.72,0,0,1,.79-.57.62.62,0,0,1-.08-.92l.28.22c.52.41.45,1-.21,1.88l1.15.15a.72.72,0,0,0,.2.91l.37-.47a2.52,2.52,0,0,1,.34-1l.28.22c.29.22.36.86.23,1.9l-1.07.35.78.61a1.28,1.28,0,0,1,1.85-.17,3.29,3.29,0,0,0,.13-1.19l.16-.2.7,1.3a.6.6,0,0,1,.86-.08l.29.22-.71,1.5-.57-.45.42-.53-.5-.39-.13.75c-.19-.14-.34-.15-.44,0L126.05,88c1.24-.9,2.23-1.06,3-.47a2.75,2.75,0,0,1-.57,1.17,3.07,3.07,0,0,1,1.06.4c.39-.49.22-1-.49-1.57l.42-.53a11.73,11.73,0,0,0,1.71,2.2.31.31,0,0,1,.5,0,.59.59,0,0,0,.13.85l.37-.47-.5-.38.21-.27a5.35,5.35,0,0,0,2.26.91l-.21.26a6.8,6.8,0,0,1,2,.81V92a2.08,2.08,0,0,0-.86.52l1.15.14c.57.45.66.91.28,1.4l2.42-.9a6.66,6.66,0,0,0,1.14,2.5c.32-.32.63-.37.91-.15l.29.23-.71.31-.36.47.57.44c.33.26,1.18-.29,2.56-1.66l.28.22-.63.8,1.07.84a.89.89,0,0,0-.16-1.42l.37-.46.28.22c.7,1.26.77,2.25.21,3l.57.44.08-.69.78.18.86,1.1a2.43,2.43,0,0,1,1,.34,2.09,2.09,0,0,1-.29,1l.77.18.29.22-.7.31.36,1.15.21-.27.13-.76,1.22.2-.49,1.66.57.45.62-.81.29.23c-.53.67-.38,1.6.43,2.81l.57-.73c.24.18.31.63.21,1.34a.3.3,0,0,0-.49,0l.28.22,1.56.79.21-.27c-.71-.55-.94-1-.7-1.3l.5.39a3.58,3.58,0,0,0,.7.87l-.42.53-.7.31c.82.8,1.08,1.39.77,1.79l-.57-.44-.21.27.86.66a.31.31,0,0,1,.49,0c-.23.39-.2.7.08.92a2.48,2.48,0,0,0,.91-.58l.29.22a.89.89,0,0,0,.15,1.42l-.78,1-1.28,1c.38.3.45.6.2.91l-.21.27-.7.31.85.67.63-.8.5.39-.63.8.78.17a3.35,3.35,0,0,1-.5,1.66c-.14-.11-.28-.07-.42.1l.5.39-.37.47-.28-.22-.78-1.79-.21-.17-.34,2.64-.16.2-.7.31,1.06.84-.21.26-1.77.66c.28.23.24,1-.14,2.38-1.33-.54-2.14-.64-2.41-.28l.28.22,1.56.79-.42.54c-.24-.19-.85-.13-1.85.17a.31.31,0,0,0-.07-.49l-1.15.29-.34-.59-.28-.22-.16.2a2.23,2.23,0,0,1,.57.87.74.74,0,0,1,.94,0l.28.22c-.21.27-.82.33-1.85.17l-.57-.44c.28-.36.33-.61.14-.76a2.29,2.29,0,0,1-1-.34l-.21.27.5.38-.37.47c-.71-.55-1.21-.65-1.48-.3a.63.63,0,0,1,.15,1c-.19-.15-.34-.15-.44,0l-.71-1.3-.28-.22-.21.27a9.14,9.14,0,0,0,1.35,2.23l-.58.74-.85-.67a10.37,10.37,0,0,1-2.06-1.18l.21-.26-.57-.45c-.66.85-.8,1.42-.42,1.72a2.8,2.8,0,0,1,.94.41l-.58.73-.28-.22a2.4,2.4,0,0,0-.58-.88.61.61,0,0,1-1,.09l.41-.53.65-.25q-.78-.61-.36-1.14l-.57-.45-1.56.39a10.53,10.53,0,0,0-1.35-2.23l-.28-.22-.21.26,1.48,1.48-.21.27c-.28.36-.68.33-1.2-.08a2.93,2.93,0,0,0-.65-.93.3.3,0,0,1-.49,0l.2-.7c.15.11.29.08.43-.1l-.22-.17c-1.56-.64-2.53-.71-2.91-.22l-.57-.45a2.44,2.44,0,0,0,.36-.9l.79.61.78-1-.57-.45c-.38.49-1.28.18-2.71-.93-.28.36,0,.89.94,1.59l-.37.47-1.76-1.7.62-.8c.25-.31.65-.25,1.22.2a.62.62,0,0,0-.15-1,2.27,2.27,0,0,1-1-.35.31.31,0,0,0-.07-.49l-.71.32c.19.14.24.28.13.42l-.78-.61-.21.26c.71.56.93,1,.65,1.37l-.21.27-.85-.67c.55-.71.31-1.47-.73-2.29l-.21.7a3,3,0,0,0-1,.84l-.57-.44,2.34-1.83-.85-.67a2,2,0,0,1-.86.51.31.31,0,0,1,.08.49l-.5-.39c-.57-.44-.59-1-.07-1.67l-.28-.22a.58.58,0,0,0-.92.15.55.55,0,0,1,.13.86l-1.69,0,.42-.53-.5-.39c-.39.49-.77.59-1.15.29a3.3,3.3,0,0,1-.64-2.55l-.7-.12-.29-.22c.38-.49.39-.88,0-1.18l-.29-.22-.57.73.57.45-.42.53-1.5-2c-1,.84-1.7,1.15-2,.93s-.39-.67-.15-1l.65-.25a2.44,2.44,0,0,1,.35-1l-.71-.13-.36-.71a2.48,2.48,0,0,0-.91.58l-.78-.61,1.27-1c1.12-1.42,1.16-2.61.14-3.55l-.08.69-1,1.27-.28-.22c-.35-.34-.42-.64-.21-.91a.31.31,0,0,0,.5,0l-.29-.65a1.92,1.92,0,0,0-.86.51l-.49-1.14-.78-.61-.37.47.79.61-.42.54c-.52-.41-.92-.43-1.2-.08l-.57-.44.63-.8,1.27-1-.78-.61-.21.26-.13.76-.73-.24c-.19-.15-.23-.29-.13-.43l-.65-.18c-.28-.23-.38-.69-.28-1.41a7.17,7.17,0,0,1-2.71-.93,2.22,2.22,0,0,1,.29-1l-.56-.44-1.2-.08c.45-.57.37-1.21-.23-1.9l.57-.73-.57-.45-.21.27-.71,1.49-.28-.22c-.33-.26-.29-.66.13-1.19l-1.14-.89-.63.8.57.45-.21.26c-.24.32-.55.32-.93,0L98.85,95l-.42.54L97.86,95l.5-1.22-.21-.17c-.24.31-.46.39-.65.25-1-2-1.48-3.1-1.27-3.36L96,90.31c-.38-.29-.69-.28-.94,0l.86.66c-1.52.47-2.56.49-3.12,0l.2-.27.65-.24A2.33,2.33,0,0,1,93,89.16l-.71.31-.15.2.49.39-.41.54L92,90.43,91,87.66l-.57-.44-.14.75-.65.25a2.62,2.62,0,0,1,.94,1.59.31.31,0,0,1,.49,0,.31.31,0,0,0,.08.49,2.14,2.14,0,0,0-1.07.78l-.29-.22c.32-.4.22-1-.28-1.83l-.37.46c-.33-.25-.23-.72.29-1.39l-.57-.44-1.27,1-.5-.39a12.27,12.27,0,0,0,2.06-1.62,2.62,2.62,0,0,1,.34-1L89,85.24a2.57,2.57,0,0,1-.91.58l.56.44-.36.47-1.14-.89c-.31.4-1,.48-1.9.24L85,85.86l.21-.27a2.17,2.17,0,0,1,2.63,0l.14-.75.2-.27.65-.25-.49-.38c-.25.31-.46.39-.65.24l-.14.76-.21.27L86.2,83.88l-.28-.22c-.38-.3-.83-.11-1.35.56l-.42-1.08-.85-.67a3,3,0,0,1,.41-1l-.85-.66-.14.76-1,1.27a2.43,2.43,0,0,0-1.28-.57l.21-.27-.77-.17-.29-.23.21-.26a2.61,2.61,0,0,0,.91-.58l-.78-.62-.63.81-.85-.67,1-1.7c-1-.33-1.54-.38-1.71-.16l-.21.27.85.67-.42.53q-.36.47-.93,0t.21-1.89l-.78-.17L76,77.5l-.48-1.14a.55.55,0,0,0-.87.08l.5.39-.7.31-.37.47.57.45-.42.53-.28-.22q-1.25-2.81-.36-3.94-.42-.33-2.55.48l-.16.2-.13,1.19-.49-.38a9.22,9.22,0,0,1-.93-2.78l-.58.74-.28-.66-1.36-1a2.6,2.6,0,0,1-1.55-.36c-.19-.14-.31-.92-.36-2.32l-.71-.12.42-.54-.57-.44-.41.53.56.45c-.24.31-.55.32-.93,0l-.28-.22-.35-.59-.65.25-.2.26.77.18.22.17-.42.53.78.18v1.18l-.57-.45-1.19-1.25a1.92,1.92,0,0,0-.86.51l-1.07-.83c-.34-.34-.39-.67-.15-1l1.35,1,.16-.2-.5-.39,1.13-.41-.5-.39-1.64.34-.21-.17c-.38-.29-.38-.69,0-1.18l-.77-.17-.5-.39c.42-.54.44-1,.06-1.25L57.83,65l-.63.8L57,65.58l-1.21-3a2.33,2.33,0,0,1-1.07.78l.29.22,1.56.79-.63.8a.53.53,0,0,1-.86.08l-.86-.66a.58.58,0,0,1-.91.14l.42-.53,1.07-.35a3.24,3.24,0,0,1-1.14-1.32c-.18.22-.63.26-1.36.12L52,62.44c.53-.67.53-1.21,0-1.61-.67.84-1.28,1-1.85.6l.08-.69-.65-.19-1.2-1.25-1.27,1-.57-.44c.55-.71.31-1.48-.73-2.29L45,57.43l-.7-1.3-.16.2c-.41.53-.27,1.08.44,1.64l-.65.24c-.56-.94-.75-1.63-.56-2.06l.36-.46.7-.32-.36-.71a8.46,8.46,0,0,0-2.4,1.46c-1.42-1.4-2.21-2.44-2.36-3.13a.3.3,0,0,1-.49,0l-.13.76-.37.47A2.27,2.27,0,0,0,35.94,54a6.28,6.28,0,0,1-1.84-2.62,2.27,2.27,0,0,1-1-.35A.61.61,0,0,0,33,50l-.71-.13-.2.71-.79,1-.49-.39-.37.47.5.39-.21.26-1.07-.83.21-.27.65-.24-1.07-.84c.14-.17-.07-.49-.64-.93L29,49l1.92,1.5.21-.26q-1.35-1.07-1-1.53a2.85,2.85,0,0,1-1.27-.56q-1.37,1.74.77,3.4l-.21.27a5.83,5.83,0,0,0-3-1.15l.16-.21,1.19-.35c.25-.31,0-.77-.77-1.36l.42-.53.57.44.21-.27-.57-.44c-.14.18-.28.21-.42.1a2.39,2.39,0,0,1,.5-1.23l-.57-.44-.71,1.49c-.38-.29-.69-.29-.94,0l-.41.53.57.44-.42.54-.36-.71c-.39.49-1,.38-1.93-.32l.58-.74c.57.45,1.42.14,2.54-.91l-3.19-.46-.21.27-.29-.65.58-.31.42-.53-.22-.17c-.28-.22-1.23-.13-2.83.26l-.57-.44a1.48,1.48,0,0,0-.36-2.33.54.54,0,0,1-.86.08c.24-.31.17-.61-.21-.91-.38.49-.76.59-1.14.29a.55.55,0,0,0-.13-.86l.7-.31.21-.27-.28-.22-1.77,1.09c-.48-.37-.41-1,.21-1.88l-.86-.66-.42.53-.21-.17-.36-.71c-.24.32-.55.32-.93,0l-.22-.17q-.28-.23-.12-.42c-.19-.15-.34-.16-.44,0l-1.2-1.26-.57-.45-.36.47A.93.93,0,0,1,10.65,38c.33.26.71.12,1.13-.41l.36.71c-.66.85-1.71.72-3.13-.4.43-1,.47-1.67.14-1.93a.31.31,0,0,1,.49-.05c1.33-2.77,1.54-4.5.64-5.21l-.42.54-.57-.45.21-.27.71-.31c-.57-.44-.74-.82-.49-1.13.33.26,1.32-.23,3-1.45a3.89,3.89,0,0,0-1.19-1.26c-.56.71-1.53.64-2.91-.23l2.34-.21c-.38-.3-.24-.87.43-1.72a3.59,3.59,0,0,0,.69.87l.37-.47-.29-.22-1.56-.79c-.3-1.46-.22-2.5.27-3.13a.65.65,0,0,1,.94,0l-.58.73.21.17c.39-.49.86-.51,1.43-.07l.14-.76.21-.26.56.44.21-.27L12.6,19.38A3.91,3.91,0,0,1,8.7,18.8Zm4,21.55a.32.32,0,0,1,.5-.05l.08-.69.42-.53.57.44-.57,1.17L13,40.57ZM28.35,52.57l.36-.47.57.45-.37.46ZM14.27,40l.42-.54c.28.22.36.71.22,1.47l-.36.47C14.26,41.14,14.17,40.67,14.27,40Zm7.32,6.9c.17-.22.62-.27,1.35-.13l-.21.27c-.24.31-.55.32-.93,0ZM3.33,32.27l.42-.53.57.44-.42.53ZM21.59,45.68l.42-.54a.62.62,0,0,1,.15,1l-.42.54C21.43,46.27,21.38,46,21.59,45.68Zm-9.38-6.9c.33-.32.63-.37.92-.15l-.42.54Zm-3.85-8,.28.22.44,1.2.21.17.42-.54.36.71-.7.32L9,33.36c.57.45.78.76.65.94l-1.36.56a.31.31,0,0,1,.08.49l-.29-.23A.31.31,0,0,1,8,34.63l-.71-.12L7,34.29l.42-.53c.52.4.83.54.94.41Zm17.7,17.49.16-.2.78.61-.15.2a.58.58,0,0,1-.92.15Zm6.19,4.83.16-.2c.37.3.44.6.2.91l-.21.27C32.05,53.78,32,53.45,32.25,53.14ZM2.11,30l.36-.46.22.16-.37.47Zm3.41,2.24a.63.63,0,0,1,.93,0l.29.22-.58.74A2.83,2.83,0,0,0,5.52,32.26ZM45.06,62.4l.56.44-.36.47C44.91,63,44.85,62.66,45.06,62.4Zm-41.52-32,.21-.27.5.39L4,30.78ZM20.24,43l.22.17.41-.54-.21-.17Zm12.58,9.4.21-.27.57.44-.21.27Zm1.35,1.05.21-.27.57.45-.21.27ZM62.83,75.85l.41-.54.57.45-.42.53ZM10.64,34.64l.28.22.37-.46L11,34.17ZM24.93,45.81l.28.22a2.87,2.87,0,0,1,1.06.4l1-1.27c-1.14.48-1.85.6-2.13.38ZM40.56,57.59l.37-.46a.69.69,0,0,1,1-.1l-.21.71-.57.73A2.5,2.5,0,0,0,40.56,57.59Zm10.89,8.94.36-.47.29.22a.55.55,0,0,1,.13.86Zm71,55.49.21-.27.57.45-.21.26ZM7.08,31.43,7.44,31l.29.22-.37.47Zm6.75,5.28.5.39.16-.2-.5-.39Zm4.34,3.39.21.16.16-.2a3.31,3.31,0,0,1-.72-1.86L17.6,38C17.3,38.52,17.49,39.21,18.17,40.1Zm2.13,1.66.57.45L21,42l-.57-.45ZM39.58,56.07l.21-.27a2.27,2.27,0,0,0,1,.35l-.13.75a3.21,3.21,0,0,1-1.15-.14ZM5,29.51,5.45,29l.57.45L5.6,30Zm8.39,6.55.28.22.42-.53-.28-.22Zm2.2,1.72c.41.17.71.13.92-.14l.21-.27a.58.58,0,0,0-.92.15ZM44.2,60.11l.42-.53.29.22-.42.54Zm72.87,56.07.21-.26a.58.58,0,0,1,.08.92l-.21.27A.71.71,0,0,1,117.07,116.18ZM4.3,27.22a.6.6,0,0,1,.87-.08c.28.22.3.77.07,1.67l-.78-.18C4.22,28.44,4.17,28,4.3,27.22ZM29.06,47.85l.49.39a2.54,2.54,0,0,1,.92-.58l-1.07-.84A2.52,2.52,0,0,1,29.06,47.85Zm5.53,3.46.65,1.37.21-.27.13-.75.58-.74-.29-.66a2.47,2.47,0,0,1-.91.59c.19.14.23.28.13.42A.32.32,0,0,0,34.59,51.31ZM49,63.46l.21-.27.57.44-.21.27Zm3.91,2.18.85.67-.42.54-.28-.23C52.74,66.28,52.69,66,52.94,65.64Zm1.35,1.06.77.18a.63.63,0,0,1,.16,1l-.78-.18C54.09,67.34,54,67,54.29,66.7ZM11.14,33.42l1.06.83.42-.54-.21-.16a2.87,2.87,0,0,1-1.06-.4ZM20.88,41l.28.22.42-.54-.29-.22Zm1.92,1.5.49.39.21-.27L23,42.26ZM39,54l.29.22.34.59c.1-.13.25-.12.44,0l-.08.69-.21.27-.57-.44Q38.86,55.08,39,54Zm20.76,17.4.41-.53.29.22-.42.53Zm69.95,54.66.21-.27.57.45-.21.27ZM7.58,30.2l.36-.46a2.43,2.43,0,0,0,1,.34l-.2.27a.55.55,0,0,1-.87.08ZM13,34.43l.29.22.36-.47L13.35,34ZM27.27,45.59l.29.22.36-.46-.28-.23Zm23,17.94.21-.26,1.14.89-.21.26Zm38.4,30,.36-.47.57.45-.37.46Zm-52-41.41a3,3,0,0,1,.63.81l.16-.2a2.52,2.52,0,0,1,.34-1l-.5-.39ZM11.71,32.68l.85.67.21-.27a.62.62,0,0,0-.15-1A2.48,2.48,0,0,1,11.71,32.68ZM22.23,40.9l.57.45a.62.62,0,0,0-.15-1Zm27.3,21.33.21-.26c.21-.27.71-.32,1.48-.14l.78.61-.41.54Zm78.07,61,.41-.54.29.22-.42.54ZM52.44,64.08l.42-.54.29.22-.42.54Zm15.43,12,.42-.53a.58.58,0,0,1,.08.92Zm8,5.35,1.06.84a.58.58,0,0,1-.91.14C75.63,82.12,75.58,81.8,75.83,81.48Zm1.5,2c.21-.27.68-.33,1.41-.19l-.21.26a.58.58,0,0,1-.92.15Zm7,5.5.41-.54.5.39A.57.57,0,0,1,84.37,89Zm27.93,21,.21-.27c.28.22.36.71.22,1.47l-.28-.22C112.1,110.62,112.05,110.29,112.3,110Zm14.15,11.92.42-.53.57.44-.42.54Zm7.33,5.72.41-.53.57.44-.41.54ZM40.42,53.39a5.38,5.38,0,0,1,1.43,2l.28.22.21-.27A5.16,5.16,0,0,1,41,53.08ZM58,67.11l.49.39-.41.53A.62.62,0,0,1,58,67.11ZM8.65,28.24l.78.18-.58.74C8.51,28.82,8.44,28.51,8.65,28.24Zm3.4,3.42.29.22.36-.47-.28-.22ZM38.57,52.38l.29.22a2.29,2.29,0,0,1,1,.34l.36-.47L39.64,52a.54.54,0,0,1-.86.08ZM64,72.21l.58-.74c.38.3.44.6.2.91l-.21.27Zm17,13.27.21-.26a.73.73,0,0,1,.94,0c.38.3.44.6.2.91Zm26.81,20.94.36-.46.5.39-.36.46ZM117,112.9l.21-.27,1.07.84-.58.73-.5-.39C116.86,113.47,116.79,113.17,117,112.9Zm5.32,4.91a.61.61,0,0,1,.87-.08l.28.23a.54.54,0,0,1-.86.07ZM46.4,57.31a3.83,3.83,0,0,1,.49,1.13,3.14,3.14,0,0,1,1.27-1l-.28-.22C47.59,57,47.1,57,46.4,57.31ZM67.65,74.66l.36-.47a.76.76,0,0,1,1-.09l-.79,1ZM83.86,87.33l.36-.47.57.44-.37.47Zm26.8,20.94.36-.47.5.39-.36.47ZM4.31,24.86l.42-.54.57.44-.42.54Zm7.33,5.72.57.44.21-.27-.57-.44ZM34.89,48.74l.49.39.21-.27-.5-.39ZM45.41,57l.57.45.21-.27-.57-.44Zm2.41,1.89q.68.32,1-.09l.21-.27-.57-.44ZM74.55,79.3a3,3,0,0,0,.84-.63l.29.22a2.42,2.42,0,0,0-.27,1.51L74.84,80ZM90.27,92l.21-.26.5.39-.21.26ZM97,95.55l.28.23a.62.62,0,0,1,.15,1l.71.12.28.22c-.21.27-.68.33-1.41.19l-.57-.44.71-.32C96.81,96.19,96.76,95.87,97,95.55Zm43.24,35.51.42-.53.28.22-.42.54ZM11.06,29.7l.5.39a.59.59,0,0,0-.08-.93Zm27,21.11.5.39.21-.27-.5-.39Zm4.55,3.55.28.22a2.68,2.68,0,0,1,.92-.58l-.57-.44ZM64.24,71.25l.42-.54.29.23-.42.53ZM71.57,77l.21-.27q.25-.33,1.35-.12l-.15.2a2.54,2.54,0,0,0-.92.58Zm5.11,4,.21-.27.57.45-.21.26Zm11.23,7.91.57.44-.42.54C87.72,89.52,87.67,89.19,87.91,88.88ZM8.14,26.12l.15-.2.42.64a6,6,0,0,1,2,.81l-.16.64-.7-.12a.31.31,0,0,0-.08-.49.62.62,0,0,1-1,.09l-.5-.39C7.94,26.76,7.89,26.43,8.14,26.12Zm42,33.7.29.22.41-.54-.28-.22Zm2.7,2.11.29.22.57-.74-.28-.22ZM82.72,84.39a3.18,3.18,0,0,0,1.14.14l-.08.69a3.12,3.12,0,0,1-1.2-.07ZM92,92.53l.42-.53.49.39-.42.53ZM109.81,106l.36-.47.29.22c.53.78.7,1.3.49,1.57l-.57-.44A2.29,2.29,0,0,0,109.81,106Zm9.74,7.61.7.12a.68.68,0,0,0,.15,1,2.18,2.18,0,0,1,1.07-.78l-.36-.71-1.06-.84-.21.27A2.09,2.09,0,0,1,119.55,113.6ZM6.86,25.55l.37-.47.28.23-.36.46Zm5.12,4,.57.45.36-.47C12.54,29.23,12.22,29.24,12,29.55ZM54.06,62l.36.71a.6.6,0,0,1,.87-.07,3.22,3.22,0,0,1,.62-1.24L55.34,61Zm5.77,4.94.78.61q.62.38.93,0l.21-.26A4.44,4.44,0,0,1,60,66.67Zm21,16.44.21-.27.57.45-.21.26ZM111.16,107l.36-.47.79.62a.56.56,0,0,1-.87.08Zm-71.1-56,.5.39.15-.2-.5-.39Zm9.67,7.55.57.45a1.88,1.88,0,0,1,.85-.51l.21-.27-.28-.22a.63.63,0,0,1-1,.09Zm1.63,1.28.57.45.58-.74-.57-.44ZM70,74.45l.28.22c.39-.49.77-.59,1.15-.29a2,2,0,0,1,.29-1,2.91,2.91,0,0,1-.94-.41A4,4,0,0,1,70,74.45Zm14.16,10.3.28.23c.38.29.45.6.2.91l-.28-.22C84,85.33,83.94,85,84.15,84.75Zm2.2,1.73.5.39-.37.46C86.19,87,86.14,86.74,86.35,86.48Zm7.74,6.8.78-1,.5.39.08-.69.21-.26.86.66-.79,1-.85-.66-.14.76-.15.2Zm21.83,17c.41.25.72.24.93,0l.21-.27-.28-.22-.42.53-.5-.39.42-.53-.57-.45Q115.44,109.32,115.92,110.33ZM52.59,60.52l.28.23.42-.54L53,60Zm13,10.17.28.22a2.27,2.27,0,0,1,1,.35l.42-.54a2.27,2.27,0,0,1-1.49-.3ZM82.51,83a2.27,2.27,0,0,0,1,.35l-.21.26a.62.62,0,0,1-1,.09Zm16.86,14,.41-.54a.57.57,0,0,1,.08.92Zm11.5,8.13.5.39-.42.53A.71.71,0,0,1,110.87,105.21ZM7.44,24.82l.41-.54.29.22L7.72,25ZM62,67.48l.21.17.42-.54-.22-.17Zm5.12,4,.7.12a2.71,2.71,0,0,0,.65.93l.7-.31.21-.27a3.11,3.11,0,0,1-.78-1.79l-.78,1-.29-.23Zm-10.6-8.71.28.22.42-.54-.85-.66A.68.68,0,0,0,56.56,62.77Zm9.17,7.16.57.45.21-.27-.57-.44ZM122.18,114l.57.44a.62.62,0,0,0-.15-1ZM85.13,84.66l.21-.26.5.39-.21.26Zm9.18,7.17a.64.64,0,0,1,.93,0l-.37.46Zm20,15.61,1.07.83.37-.47-.22-.16a3.56,3.56,0,0,1-1-.47Zm3.77,2.94.57.45.21-.27-.57-.44Zm2.2,1.73.5.38.21-.26-.5-.39ZM8.63,24.46,9,24l.78.61-.37.47ZM53.71,59.68l.56.44.16-.2-.57-.44Zm12.15,9.5.29.22.36-.47-.28-.22Zm71.88,56.16.57.44.16-.2-.57-.44ZM73.63,74.92l.78.61c.24.19.71.12,1.41-.19l-.5-.39a2.35,2.35,0,0,1-1.48-.3Zm7.25,5.67.57.44.42-.54-.57-.44Zm40.52,31.66.29.22.42-.53-.29-.23ZM8.07,22.83l.21-.26a.3.3,0,0,1,.49-.05l.08-.69.21-.27.29.23c.09.86.25,1.38.49,1.57a.59.59,0,0,1-.92.14Zm3.55,2.78.29.22a.62.62,0,0,0,.91-.14l-.28-.22A.59.59,0,0,0,11.62,25.61ZM59.19,62.77l.49.39.42-.53A.58.58,0,0,0,59.19,62.77ZM83.71,81.94l.29.22.42-.53-.29-.23Zm.86.67a.63.63,0,0,0,.91-.15l-.5-.39ZM111,103.27l.57.44.21-.26-.57-.45Zm3.77,2.94.57.45.21-.27L115,106Zm.86.67.49.39.21-.27-.5-.39Zm24,18.78.56.44.21-.27-.57-.44ZM65.86,67.56l.5.39.21-.27-.5-.39ZM86.62,83.78l.29.22.36-.46L87,83.31Zm3.27,2.56.57.44.21-.27-.57-.44Zm9.46,7.39.57.44.36-.47C99.91,93.41,99.59,93.41,99.35,93.73Zm7,5.49.28.23c.24.18.69.14,1.36-.13l-.78-.61A2,2,0,0,1,106.39,99.22Zm-99-77.75L8,20.73c.13-.18.3-.19.49,0L8.57,20l.21-.27,1.27.56-.41.54-.5-.39-.08.69L8.28,21l-.13.76-.16.2ZM96.57,91.12l.57.45a2.91,2.91,0,0,1,.94.41l.42-.54a2.59,2.59,0,0,1-1.77-.52Zm7.61,5.95.5.39.15-.2-.49-.39ZM108,100l.28.22.37-.46-.29-.23Zm36.19,28.28.36-.47a.68.68,0,0,1,1-.09,2.29,2.29,0,0,0,.57.88C145.75,129,145.11,128.9,144.14,128.29ZM93,88l.42-.53L92.81,87A.76.76,0,0,0,93,88Zm1.64,1.28.49.39a.59.59,0,0,0-.07-.93ZM76.18,74.44l.5.39.21-.27-.5-.39Zm8.89,6.94.57.44.2-.26-.56-.45Zm15.42,12.05.5.39a.58.58,0,0,0-.08-.92Zm2.92,2.28.57.45.21-.27-.57-.45ZM12.05,23.9l.21-.27a.54.54,0,0,0-.14-.86L12,23C11.74,23.37,11.76,23.68,12.05,23.9ZM105,96.5l.57.44.21-.26-.57-.45ZM7.14,19.63l.36-.47.29.22-.37.47Zm5.69,4.44.49.39.21-.26-.5-.39Zm-2-2c.41.26.73.25.93,0l.21-.27a.62.62,0,0,0-1,.09Zm97.41,75.8.29.22.42-.54-.29-.22Zm38.11,29.77.42-.54a.62.62,0,0,1,.15,1ZM13.4,23.34l.28.22L14.1,23l-.28-.23ZM14.32,20l1.12-.41.16-.2a3.17,3.17,0,0,1-1.22-.63l-.21.27A.67.67,0,0,0,14.32,20Zm2.13,1.67.57.45.21-.27-.57-.45ZM13.67,19l.42-.53-.49-.39C13.36,18.5,13.39,18.81,13.67,19Zm1.92,1.5.29.22.42-.53L16,20ZM148.47,123.92l.49.39.21-.27-.49-.39ZM11.47,15.69l.79-1,.56.45-.78,1Zm2.7,2.12.57.44L15,18l-.57-.44Zm.86.66.28.22.42-.53-.28-.22ZM149.75,123.3l.28.23c.42.25.74.22,1-.1l-.29-.22A.62.62,0,0,0,149.75,123.3ZM10.91,13.64l.41-.54.29.22a.62.62,0,0,1,.15,1l-.16.2A3.31,3.31,0,0,0,10.91,13.64ZM9.06,12.19l.41-.53.29.22-.42.53Zm3.41,2.23.2-.26,1.14.89.14-.76a2.64,2.64,0,0,1,.93.41L15,13.51l1.15.14.29.22c-.39.49-.41.87-.08,1.13l-.42.53c-.52-.41-1.47-.46-2.84-.17A2.9,2.9,0,0,0,12.47,14.42ZM17,17.54l.42-.53-.5-.39C16.7,17,16.73,17.32,17,17.54ZM151,121.07l.29.23.41-.54-.28-.22ZM13.87,12.18l.21.17.36.71.37-.47.57.45-.16.2a2.48,2.48,0,0,0-.91.58l-.85-.67A3.07,3.07,0,0,0,13.87,12.18ZM18.21,16l.86.66.2-.26-.85-.67ZM153.58,120.59l.42-.53.57.44-.42.54ZM19,15l.57.45.2-.27-.56-.44Zm-3.2-3.68.42-.53.57.44-.42.54ZM13.88,9.39l.42-.53.21.16-.42.54ZM154.21,118.18l.65-.25-.85-.67A.73.73,0,0,0,154.21,118.18ZM19.76,10.65l.29.22,1.51.86.21-.27L20.41,10.4ZM23,13.21l.57.44.16-.2L23.19,13Zm.65-.25a.63.63,0,0,0,.92-.15l-.5-.39Zm84.95,65.51c.39-.49.77-.58,1.15-.29a.62.62,0,0,0-.15-1l-1.13.42A.6.6,0,0,0,108.63,78.47ZM15.92,5.6l.16-.2.57.45-.16.2Zm95.91,74.94.57.44.16-.2-.57-.44Zm41.31,32.27.56.45.16-.2-.57-.45ZM95.78,67.67a2.76,2.76,0,0,1,1.27.57l.21-.27-1.35-1,.21-.27-.5-.39C95.41,66.53,95.46,67,95.78,67.67Zm10.52,8.22.57.45a2.52,2.52,0,0,1,.34-1l-.57-.44A2.46,2.46,0,0,1,106.3,75.89ZM23.82,11l.57.45a.62.62,0,0,0-.15-1ZM70.25,46.86l.56.45L71,47l-.57-.45ZM86,59.14c.23.18.69.14,1.35-.13L87,58.79a.54.54,0,0,0-.86.08Zm5.32,3.73a2.28,2.28,0,0,1,.58.88l.28.22.21-.27c-.38-.29-.45-.6-.2-.91l-.5-.39Zm25.46,20.32.29.22.57-.73-.28-.22Zm37,28.89.28.22.42-.54-.28-.22ZM75.57,50.59l.29.23.36-.47-.28-.22Zm1.14.89c.37.22.65.19.86-.08l-.28-.65Zm5.4,4.22.5.39.21-.26-.5-.39Zm1.57,1.23q.61.38.93,0l-.36-.71ZM101,70.48l.22.17.36-.47-.21-.17Zm6.76,5.28.21.16a.53.53,0,0,0-.13-.85l-.28-.22A.64.64,0,0,0,107.78,75.76ZM25.39,10.2a.67.67,0,0,1,1-.09c.24.18.29.65.16,1.41l-.73-.24C26.05,11,25.91,10.6,25.39,10.2ZM81,54.38l.22.17.36-.47-.21-.17Zm38.32,29.94.57.45.37-.47-.57-.45Zm-6.46-6.23c.57.44,1,.49,1.27.13l.5.39-.21.27c-.21.26-.68.33-1.41.19C112.67,78.68,112.62,78.35,112.83,78.09ZM56.45,34.47l.29.22.42-.53-.29-.22Zm9.46,7.39.28.22.42-.53-.28-.23Zm2.42,1.89.28.22a.62.62,0,0,1,1-.09l.21-.27-.57-.44-.7.31ZM73.73,48l.57.44.42-.53A.62.62,0,0,0,73.73,48ZM95.34,64.86l.42-.54.85.67-.41.53Zm7,5.5.42-.54.28.22a2.4,2.4,0,0,0,.58.88.3.3,0,0,1,.49,0l-.42.53Zm11.87,9.27.42-.53.57.44-.42.54ZM29.93,13.32l.5.39.21-.27-.5-.39ZM106.36,73a.68.68,0,0,1,1-.09l.78.61-.42.54-.28-.22c-.15-.12-.15-.26,0-.44l-.78-.18Zm44.58,34.83.28.22.42-.53-.29-.22ZM101.73,69l.37-.47.5.39-.37.47Zm-39-30.88.5.39.15-.2-.49-.39Zm32.7,25.56.37-.47.5.39-.37.46Zm2.71.93.28.22a.57.57,0,0,1,.08.92l-.15.2C98.15,65.76,98.08,65.31,98.18,64.6Zm6.18,6,.37-.47.56.45-.36.46ZM24.82,8.14l.42-.54.57.45A.63.63,0,0,1,24.82,8.14Zm6.47,5,.28.23.42-.54-.28-.22Zm1.92,1.5.28.22.42-.53-.28-.22ZM55.89,32.41l.78.61a.58.58,0,0,0-.08-.92l-.28-.22Zm1.63,1.28.29.22a2.65,2.65,0,0,1,1.33-.68l.16-.2-.66-.19-.41-.64-.16.2A2.46,2.46,0,0,1,57.52,33.69ZM78.85,50.36l.42-.54.28.22a.58.58,0,0,1,.08.93Zm1.64,1.27.41-.53,1.56.79C82.15,52.29,81.49,52.2,80.49,51.63Zm35.12,27.44.62-.8.29.22a.59.59,0,0,1,.08.93l-.21.26ZM117,80.13l.83-1.07.29.66a3,3,0,0,0-.84.63ZM20.41,4.26,20.62,4l.56.45L21,4.7ZM62.07,36.81l.5.39.2-.27-.49-.39Zm41.3,32.28.21-.27.57.44-.21.27Zm3,2.33.42-.54.28.23-.42.53ZM130.11,90l.56.45.63-.81-.28-.22A2.57,2.57,0,0,1,130.11,90Zm23.81,18.61c.33-.32.63-.37.92-.15l.28.23a.62.62,0,0,1-1,.09Zm-93-73.09.78.61.42-.54-.29-.22A.57.57,0,0,0,60.93,35.49Zm14,10.94.42-.53.28.22-.41.53ZM132,91l1.07.84,1.06-.79-.35-.71-.22-.16-.78-.18-.08.69ZM33.83,13.89l.21-.27c.11-.13,0-.6-.27-1.4a2.29,2.29,0,0,1-1-.34C32.58,12.52,32.94,13.19,33.83,13.89ZM66.75,39.61l.21-.27a.74.74,0,0,1,.94,0l.28.22-.21.27c-.24.31-.55.32-.93,0Zm4.91,3.83L72,43l.5.39A.53.53,0,0,1,71.66,43.44Zm52.11,40.72.21-.27a.64.64,0,0,1,.93,0l-.21.27C124.46,84.45,124.15,84.46,123.77,84.16Zm11.87,9.28.57.44.21-.27-.57-.44ZM34.54,14l.29.22a3.22,3.22,0,0,1,1.84-.6l.16-.2-.29-.22a3.12,3.12,0,0,1-1.84.6ZM51,26.9l.56.44.16-.2-.57-.44ZM17.71.53,18.12,0l.29.22L18,.76ZM37.6,15.22a.57.57,0,0,1,.08.92l.29.23.42-.54L38,15.12,37.81,15ZM137.93,94.47l.28.22.42-.53-.28-.23Zm6.18,4.83.57.45.21-.27-.57-.45Zm7.18,3.13.21-.27.28.22.64,2.55-.42.54-.56-.45ZM26.8,7.21,27,6.94a.76.76,0,0,1,1-.09l-.14.76-.2.27ZM61.14,34l.63-.8.57.44-.63.81Zm12.44,9.72.42-.53.29.22-.42.53Zm6.19,4.83.42-.53.28.22-.42.54Zm62.42,48.78.57.44.21-.27-.57-.44Zm-93-73.1.79.62.2-.27L49.4,24Zm58.09,45.39.21-.27.57.45-.21.26Zm45.36,35.44.41-.54a.63.63,0,0,1,.16,1ZM26.15,5.84l.37-.47.28.23-.36.47Zm12.73,10,.28.22.58-.74-.85-.66-.21.26A.65.65,0,0,0,38.88,15.79ZM76.7,45.34l.37-.47.28.22-.36.47Zm66.69,52.1.57.45.21-.27-.57-.44ZM29.06,7.69l.16-.2.7-.32a2.4,2.4,0,0,0,.58.88l-.21.27A3.43,3.43,0,0,0,29.06,7.69Zm3.56,2.77L33,10l.78.61c-.25.31-.56.32-.94,0ZM63,33.87l.7-.31a2.09,2.09,0,0,1,.29-1l.57.45-.71,1.49-.72-.25C63.22,34.16,63.18,34,63,33.87Zm92,72.19.37-.46.28.22-.36.47ZM62.21,33.26l.21-.27.5.39-.21.27ZM67,37l.21-.27c.21-.27.71-.31,1.48-.14l-.21.27C68.32,37.17,67.82,37.21,67,37Zm7.82,6.11.42-.54.86.67a.62.62,0,0,1-1,.09ZM136.5,91.31l.42-.54a.59.59,0,0,1,.08.93Zm.79.61a.67.67,0,0,1,1-.09l-.42.53Zm3,2.33.42-.53,1.56.79c-.21.26-.68.33-1.41.19Zm10.16,7.08.5.39-.42.53A.7.7,0,0,1,150.43,101.33ZM34.26,10.56c.31-.4,1.19-.25,2.63.44l-.08.69c-1.07-.48-1.73-.56-2-.25A2.29,2.29,0,0,0,34.26,10.56ZM69.17,38.27c.33-.32.63-.37.92-.15l-.42.54ZM27.22,5.06l.21-.27.57.45-.21.27ZM31,8l.42-.54.57.45-.42.53ZM49.12,22.17l.28.22.42-.53-.28-.22ZM72.37,40.34l.42-.54.78.61a.62.62,0,0,1-1,.09ZM44.71,18.29l.36-.47c.38.3.45.61.21.92Zm6.83,4.59.21-.27,1.14.89-.58.74-.56-.45C52,23.48,51.92,23.18,51.54,22.88Zm5.53,4.64a.65.65,0,0,1,.94,0l-.37.47Zm16.5,12.89.36-.47.57.45C74.26,40.7,74,40.71,73.57,40.41ZM40.66,13.51c.32-.32.63-.37.91-.14l-.13.75-.42.54-.28-.22A.7.7,0,0,1,40.66,13.51Zm2.05.75.65.18-.78,1,1.27.13-.2.7-.21.27-1.35-1.06Zm-4.34-3.39.29.22a.58.58,0,0,1,.08.92L38,11.89A2.52,2.52,0,0,0,38.37,10.87ZM51,22l.42-.53.57.44-.42.54Zm3.27,2.56c.21-.27.68-.33,1.41-.19l.28.22c-.21.26-.7.31-1.48.13Zm3.12,2,.42-.54.29.22-.42.54ZM31.13,5.63l.78-1,.28.22a2.2,2.2,0,0,0-.5,1.23Zm.78.62a.71.71,0,0,1,.93,0l-.08.69ZM58.14,26.74l.37-.46.28.22-.36.47Zm-6.26-5.32a.6.6,0,0,1,.86-.08l-.36.47ZM34.69,7.23,34.9,7l.49.39-.21.27ZM53.52,21.52l.42-.54.57.45-.42.53Zm7.82,6.11a.68.68,0,0,1,1-.09l-.42.53ZM35.89,7.31,36.1,7l.56.45-.21.26Zm7,5,.36-.47.29.22c.38.3.45.6.2.91Zm1.79,1.08.42-.54.28.22-.41.54Z"/><g id="xXwLgW"><path class="cls-1" d="M111.94,60.58l.26-.28.59,1,.18-.11-.47-.65.57-.42v1.55l.63,0,0,.19-.45.25.37.35c.31-.48.41.11.64.09-.46,1-.59,1.66.57,1.71.14.84.14.84-.21,1l.2.27.28-.26c0,.09.15.24.12.26-.39.41.08.73.11,1.09h-.15a1.92,1.92,0,0,0,0,.48c0,.12.17.21.26.32-.14,0-.28.12-.42.16a1.43,1.43,0,0,1-.32,0l.35.3-.23.84-.44-.27-.22.3.42.34-.85,1c.87-.3.46.35.53.66.46-.27.46-.27.85.63l-.89.25v.14l.44,0,0,.06c.43.1.85.23,1.29.3a3,3,0,0,1,2,2c.19.54,0,1.09.37,1.74l-.54-.2c-.53.55-.37,1.18,0,1.83l-1.22.58h1l-.42.84-.62-.34L116.24,80l.47.25a3,3,0,0,0-.2,1.67l-.59-.47-.11.12.13.48h.53l-.14.62.61-.5.71,1.07-.13.13-.35-.2-.06,0,.57.65v1a6.55,6.55,0,0,1,1.12-.36c.16,0,.36.19.54.29-.15.12-.29.25-.44.36a2.28,2.28,0,0,1-.32.16l.09-.48a3.21,3.21,0,0,0-.93.39c-.16.12-.19.45-.21.7a2.3,2.3,0,0,0,.08.57l-.16-.12-.8.67.09.16h1.06l-.32-.12,0-.18,1,.15c.25,1.14-.12,1.51-1.27,1.25l-.21.43-.81-.65.1-.12-.49,0,.22-.74.17.31.27-.63-.09-.1c-.2.19-.4.37-.58.57-.36.38-.3.58.16.71.11,0,.19.14.29.21a1.56,1.56,0,0,1-.42.08,2.44,2.44,0,0,1-.46-.14l0,.13.44.26-.35.42c.19,0,.27-.12.39-.18a1.65,1.65,0,0,1,.58-.25,2.19,2.19,0,0,1,.62.07c.39,0,.5.17.57.5a1.92,1.92,0,0,0,.23.48l.32-.53s0-.1.07-.14h.16l.05.85c.42-.09.94-.37,1.18.09l-.25,1.33.1.12c.33-.61.71-.33,1.12-.11l.2-1,.9.44-.2.6,1.89.54c0,.25-.54.85.37.88v-.51c.47.61,1,1.2,1.38,1.84a1,1,0,0,0,1.1.41,3.22,3.22,0,0,1,.78.17,5.88,5.88,0,0,1-.33.72c-.19.28-.41.52-.7.06,0-.08-.28,0-.52-.07.24.56.21.92-.34,1.13-.16.06-.22.36-.31.51l-.89.56c.08.44.16.77.19,1.1.08.69-.11.83-.74.57-.51.56-.57.53-1-.55-.31,0-.31.74-.79.37a3.14,3.14,0,0,1-.32-.31l.09-.13.37.1c.2-.62,0-.89-.83-1.19l.65.82-.34.13h0a7.48,7.48,0,0,0-1-.51c-.06,0-.33.23-.34.38a3.86,3.86,0,0,0,.07.88l-.65-.13.08-.2-1.11-1-.3.58c-.26-.08-.58-.13-.87-.25a2.34,2.34,0,0,1-.74-.56l.7.09v-.37l.4.7.58,0a9,9,0,0,1-.35-.89c0-.08.13-.19.2-.29h0a1.3,1.3,0,0,0,.92.91c.26.06.53.09.8.14l.8-1.19c0-.64-.48-.83-1.14-.77l.08-.14.54-.1,0-.17c-.25-.07-.68-.27-.73-.2-.32.47-.71.2-1.07.15l.22.45h-.94c.08-.33.15-.61.21-.9l.3.16c-.21-.62.36-1.2-.15-1.76-.28.59-.53.21-.79,0,.08-.62.33-.23.65.06,0-.32,0-.57-.11-.61a4,4,0,0,0-.79-.23v.12l.24.27-.45.11.49.26-.52.36c.23,0,.23,0,.83.58l.36,0,0,.73-.64.37c.3.45,0,.76-.21,1l.3,1a1.22,1.22,0,0,1-.38,0c-.52-.12-.82.19-.74.73a7.26,7.26,0,0,1,0,.8,1.89,1.89,0,0,0,.21.54l-.25.28-.43-.94c.51-.38,0-1,.32-1.42-.3.15-.3.15-.35,1l-2.57,1.3.1.61.33.23.59-.47c-.16-.08-.32-.1-.35-.18a.39.39,0,0,1,.06-.35,1.23,1.23,0,0,1,.45-.18c.27.59.64.15,1,.09a2.74,2.74,0,0,1,.38.45c.27.41.32.42.65,0l.07.37.33-.22v.81l-.7-.24.17.45-.52-.29.14.51-.12-.08-.78,1.07a1.21,1.21,0,0,1,1.07,1l-.92-.18,0-.09-.73.27c-.14-.2-.28-.41-.43-.61l-.27-.34c.13,0,.35-.1.36-.16,0-.35.14-.78,0-1s-.59-.21-1-.33l-.25.22.84.58c-.22.21-.79,0-.65.61a1.6,1.6,0,0,1,.61-.2.87.87,0,0,1,.22,0l-.12.26c-.25.6-.77,1-1.07.85l-.37.57.45.52c-.11-.58-.11-.56.32-.67.08,0,.12-.19.19-.29a.94.94,0,0,1,.14-.13l.14.41.91-.34-.24.74.12.11-.82.16.41.27-.58.21.26.2.74.1.66-.36h0l.2.83-.54-.26.24.89.15,0c0-.13,0-.26,0-.4s0-.06.08-.16l.71.29,0,.13-.23.07.34.56-.67-.24-.08.12.46.58,1.14-.72,0-.42c.31.37.48.61.15.74l.08,1.32-1.09-.23.26,1.24.17,0-.06-.85,1.17.3c-.19.33-.29.78-.55.9s-.71,0-1.11-.06l0,.25-1,.81.08.23a7.54,7.54,0,0,1-2.21-.24,7.53,7.53,0,0,1-1.74-1.44c.51-.49.32-1.1.38-1.67l.54-.42-.61-.31h0l-.23-.35h.32c.13-.33-.63-.67.09-1l.37.58a1.19,1.19,0,0,0-.83-1.5l.42.72-.88.28-.2-.25-.18,0a.8.8,0,0,1,.12,1.22l.45-.09c-.1.12-.21.35-.32.35-.51,0-.39.56-.68.74.38.26,0,1,.59,1.11s.43.56.45.94,0,.67-.39.68a1.81,1.81,0,0,1-1-.26,3.3,3.3,0,0,1-.79-.75.42.42,0,0,1-.07-.39,2.44,2.44,0,0,1,.35-.51l.31.4a.58.58,0,0,1,.09-.1c.14-.15.44-.34.41-.45a3.18,3.18,0,0,0-.43-.84.25.25,0,0,0-.24,0c-.36.28-.71.58-1.17,1l.14-.8-.48-.29h0l-.45-.21c-.42.87-.42.87-.52.78l-.19.5c-.46.1-1.11-.13-1.12.68-.65-.22-.7-.38-.27-.79a1.7,1.7,0,0,0-.15-.22s-.13,0-.18-.06l-.45.8.53.33-.33.14,0,.14c.21,0,.41,0,.62,0A1.28,1.28,0,0,0,105,109c0,.13,0,.25,0,.38s0,.24-.07.34l1,.07a10.54,10.54,0,0,1,1.26,0,.89.89,0,0,1,.85.58c.14.37.58.62.88.94a.37.37,0,0,1,.09.33l-.55-.27c-.08.23-.15.44-.23.64a1.4,1.4,0,0,1-2.38.47c-.42-.47-1-.46-1.48-.71a.14.14,0,0,0-.15,0c-.34.28-.67.44-1,0-.09.14-.3.29-.27.41.24,1.33-.3,2.77.58,4,.1.14,0,.45,0,.69a8,8,0,0,1,.09,2.12,40,40,0,0,0-.35,4.09,21.89,21.89,0,0,1-.43,2.55A4.4,4.4,0,0,1,102,127a2.83,2.83,0,0,1-1-3.39,12.43,12.43,0,0,0,.21-2.52c0-.11-.17-.23-.26-.34a.64.64,0,0,0,0-1c-.31-.4-.43-.7,0-1.13.19-.18.15-.66.11-1-.07-.66-.25-1.32-.32-2-.1-1-.11-2-.24-3-.06-.55.07-1.17-.38-1.63,0,0,0-.11,0-.16,0-.22.21-.52.12-.63a2.71,2.71,0,0,0-.75-.52.37.37,0,0,0-.21,0,2.79,2.79,0,0,0-.38.07,2.11,2.11,0,0,0,.25-.27.66.66,0,0,0,.13-.42l-.56.47,0-.5-.12-.09-.15.35-.63-.3c-.11.13-.27.23-.28.35s0,.42.14.47c.62.27.68.4.35,1a3.68,3.68,0,0,1-.23.32c-.26-.91-1-.53-1.5-.66-.2-.42-.39-.79-.54-1.16-.06-.14-.1-.42,0-.46a2,2,0,0,1,.79-.3,1.12,1.12,0,0,0,1-1l-.58,0,.61-.92c.61-.13,1,.17,1.12.84l.31-.19-.34-.6.12-.1c.31.13.59.58,1.06.07l-.55,0-.11-.41-.3.22-.16-.38-.12.09c-.21.09-.52.3-.61.23a.68.68,0,0,0-.91.09c-.15.14-.11.47-.16.72a1.15,1.15,0,0,0,0,.2l-1,.2.23-1.12c.11-.16-.56-.33.16-.55l-.62-1.16.22-.13.32.45c.44-.33,0-.58-.11-.79-.24-.39-.55-.75-.92-1.24,0,.23,0,.43,0,.49a.53.53,0,0,1,.1.87c-.07.08,0,.26,0,.4-.06.65-.26.75-.8.41l-.06,0-.22-1-.21,0,.06.79c-.15-.1-.27-.14-.32-.22-.2-.3-.38-.61-.56-.92.11-.32.22-.64.34-1l.28.14.34-1.85h-.58a7.34,7.34,0,0,0,0,.81,6.85,6.85,0,0,0,.16.76l-.17.06-.35-.33c-.1.4-.21.79-.28,1.19,0,0,.15.14.23.21l.1.38c-.56-.29-.83,0-1,.4l-1-.29-.09.1a2.31,2.31,0,0,1,.19.28c.07.11.12.23.18.34h0a2,2,0,0,1-.5-.19.55.55,0,0,1-.24-.39c.09-.64,0-.71-.59-.74l-.29-.85c-.36-.09-.48.23-.58.62.35.2.71.36,1,.58a.56.56,0,0,1,.21.46.62.62,0,0,1-.27.43c-.33.22-.68.38-.88.49a5,5,0,0,1,.48,1.36c0,.53-.44.76-.91.76a.89.89,0,0,1-.69-.41,1,1,0,0,1,.25-1.21,4.68,4.68,0,0,1,.49-.33v-.59l.53-.19c-.14-.28-.09-.68-.6-.58,0,0-.14-.47-.21-.71l-.36.3c-.45-.3.65-.49,0-.71-.18-.06-.47.21-.75.35l-.16-.54c.25-.12.66-.19.22-.57-.08-.07,0-.39.08-.54s.29-.24.47-.38l-.39-.42L87,102.24l-.22-.08a3.11,3.11,0,0,1,.27-.83c.16-.24-.11-.79.65-.67l-.47-.32.41-.46.32.4L87.37,99l-.6,1.31c.54,0,.2.47.13.85-.21-.19-.4-.41-.63-.58s-.26-.07-.39-.12a1.35,1.35,0,0,1-.46-.19c-.15-.11-.37-.36-.34-.42a2.22,2.22,0,0,1,.52-.49s.17,0,.18.06,0,.16,0,.25,0,.29.06.44c.15-.09.3-.16.44-.26s.35-.29.55-.46l-.63-.33h0l.83-.23s0-.12,0-.25c.82-.12.76.49.76,1.12l.34-.33c-.16-.42-.28-.81-.46-1.17-.3-.6.37-.59.61-1l-.69-.35,0,.61a1,1,0,0,1-.64-.92c0-.51.48-.55.78-.66s.72-.23.86.44L89,95.32l-2,.52-.28-.74-.11,0,.21.71-.83.06.36-.47-.32-.19.46-.24-.67-.56c.07.66.27,1.28-.38,1.71l0-.52c-.83-.07-.83-.07-1-1.12l2.08-.94v-.06l-2,.52-.12-.39-.1,0c-.18.53-.5.13-.76.1,0,0-.07-.16,0-.18a.5.5,0,0,1,.22-.1l.4-.07c-.06-.28-.11-.55-.18-.82,0,0-.11-.08-.14-.1l.53-.6c.28-.3.13-.49-.13-.72-.11-.09-.07-.34-.11-.62l-.86.28-.3-.73.07-.09.62.38-.08-.16.63-.73-.67-.33c.79-.52,1,.19,1.41.53a1.27,1.27,0,0,0-.14.17,2,2,0,0,0-.07.34l.77-.46s-.06-.14-.12-.14c-.83-.09-.47-.71-.5-1.15l-.65-.28.51-.7,0,0c.28,0,.54-.42.84,0l0,.5s.13.06.12.1c-.08.3-.19.59-.29.86l1.15-.14v-.19l-.86-.16.6-1.3-.76.33c-.05-.1-.08-.27-.14-.28-.46-.1-.26-.35-.13-.54s.23-.15.43-.28l-.55-.31-.12-.13-1-.21-.06.14-.4-.68.12-.12.47.13c-.41-.63.09-.8.48-1.08l-.6-.47-.12-1-.61.35c.18-.43.17-.46-.17-.7a.25.25,0,0,1-.09-.21s.13-.1.16-.08.33.22.49.33l.11.07.23-.34c-.38-.55-.8-.4-1.31-.11-.29.17-.41.3-.37.6L82,83l-.29-.32-.59.21c-.48-1-.44-1.19.25-1.62l.33,1.06,2-2.28.38,1.51.17,0,0-.61a3.49,3.49,0,0,1,.84.57c.31.4.53.36.8,0l-.47.09c0-.08-.15-.2-.13-.25a3.24,3.24,0,0,1,.41-.5v-.57c.24.19.55-.44.72.15.11-.19.33-.4.3-.57-.07-.53.35-.69.61-1.05l-.76-.43c.14-.07.31-.23.4-.19.62.27.59-.23.7-.56h0c.28-.17.35-.54.11-.66s-.46-.5-.19-.72.56-.08.85,0c.1,0,.19.19.34.24l-.29-.56-.71.1a1.18,1.18,0,0,0-.17-1.29c-.13-.15.09-.61.15-.95a1.22,1.22,0,0,1,.37,1.74l1.21-.5a1.94,1.94,0,0,0,0-.22l.56.23c0-.48.06-.88.09-1.28a.32.32,0,0,1,.13-.16c.17.08.33.18.45.25l.55-.37L90.52,73l1-.86,1.26-.07a.62.62,0,0,0-.51-.23,3.67,3.67,0,0,0-.75.3l-.1-.87,1.8-.11c0-.74-.78-.08-1-.65h1.41l.07.86-.76.15c.78.18.86.13,1-.56a.84.84,0,0,1,1.29-.59c.26.14.64.47.74-.14.16,0,.39.11.4.1.29-.76,1-.34,1.54-.59l-.75-.38c.36-.07.48-.32.69-.58a.77.77,0,0,1,1.15.07l.34-.64a4.89,4.89,0,0,0,.15.61,2.08,2.08,0,0,0,.22.33A3.2,3.2,0,0,0,99.79,68c-.1-.34-.47-.6-.72-.89l-.16.12.44.68c-.21-.19-1.17.46-.65-.4a9,9,0,0,1-.69-.71c-.08-.11-.05-.3-.07-.46l.37.05c.1,0,.2,0,.24,0l.24.64.39-1.14.18,0c0,.36-.13.81,0,1.07a4.33,4.33,0,0,0,1.06.85c-.2-.39.08-1-.69-.94-.07,0-.2-.15-.2-.22s.11-.2.18-.3l.38.27c.09-.16.2-.32.29-.49s.14-.27.21-.41c-.1.22-.4-.28-.45.13a.45.45,0,0,1-.23,0c0-.2-.17-.44-.1-.59s.33-.33.56-.54c-.1-.16-.68-.27-.24-.68l.7.26,0,.55.64-.5c-.41-.13-.71-.21-1-.32,0,0-.09-.16-.08-.17a.7.7,0,0,1,.31-.18,4.65,4.65,0,0,1,.66-.05l-.43-.42c.17-.08.34-.23.51-.22.57,0,.88-.31,1-1.21-.28.06-.75.24-.79.17a6.63,6.63,0,0,1-.46-1.2l.23-.1c.08.16.18.32.26.48s.14.33.22.49c.2-.1.51-.16.57-.32.13-.37.24-.62.71-.65.18,0,.31-.41.52-.57a.7.7,0,0,1,.52,0c.34-.06.64-.56,1,.06.38-.67,1-.46,1.57-.52.4,0,.78,0,1.11-.36.13-.16.6,0,.92,0,0,0,0,.21,0,.36l.55-.3c.16.14.34.74.6,0,.21.11.11.81.58.33l.67.74ZM85.33,92.52l.68-.67c-.37-.22-.64-.54-.8,0,0,.24.09.49.13.74-.1,0-.22,0-.29-.07a2.6,2.6,0,0,1-.3-.36l-.09.09v.53a1.19,1.19,0,0,1,.33,0c.08,0,.14.12.21.18Zm2.2-1.24.63-.16.16.39.31-.11,0-.16-1.61-.74a2.31,2.31,0,0,0,.58.65l-.09.14c-.27.51-.59,1-1.23.87a2,2,0,0,0,.54.21c.17,0,.45-.05.49-.15A5.59,5.59,0,0,0,87.53,91.28Zm2.41,9.61-.1-.73-.69.58-.08.51ZM85,83c.16,1,.73-.18.91.15l-1.43-.45v.65Zm1.16,8.3.53.5c.58-.32.25-.61,0-.87Zm-.12-1.55v1.12c.7-.1.23-.63.37-.92Zm2.51,9.2c.13-.32.32-.57.3-.81s-.35-.25-.59-.41Zm20.67,6.92-.21.35-.25-.27c0,.24-.32.61.13.71l.55-.28ZM86.93,87.11l0,.72.94-.16Zm28.23,6c.12.09.25.25.36.24a1.56,1.56,0,0,0,.46-.24C115.7,92.67,115.45,92.69,115.16,93.13Zm-3.38,9.32,0-.18c-.15,0-.31-.12-.43-.08-.36.11-.35.14-.2.68l.26-.56Zm-18.45-.55L93,100.67l0,1ZM88.69,90.12l.09-.07-.28-1h-.24Z"/><path class="cls-1" d="M126.26,69.11c.2.29.29.54.46.63a1.91,1.91,0,0,1,.92,1.43,2.65,2.65,0,0,1,.11,1.07,1.89,1.89,0,0,1-.57.92,2.75,2.75,0,0,1-2.6.67,1.12,1.12,0,0,1-1-.78c0-.24-.35-.42-.49-.57a6.23,6.23,0,0,1,0-1.3,2,2,0,0,1,1.4-1.7C125.13,69.32,125.74,69.22,126.26,69.11Z"/><path class="cls-1" d="M91.76,109.66l0,.36a1.43,1.43,0,0,0,1.65-.33c.32.3.72.51.86.83.25.6.88-.11,1.09.42l-.54.62.84.49-.72.37c.5.9.5.89-.49,1.12a.83.83,0,0,0-.45.38.74.74,0,0,1-.92.41,1.63,1.63,0,0,0-.54,0,.9.9,0,0,1-1-.65c-.07-.21-.35-.38-.56-.5-.38-.19-.42-.42-.19-.75a1,1,0,0,0,.17-.39,1.92,1.92,0,0,1,.81-1.64c-.65-.27-.12-.47-.05-.7Z"/><path class="cls-1" d="M132,90.88a2,2,0,0,1-2.07,2.22A2.27,2.27,0,0,1,127.64,91a2.14,2.14,0,0,1,2-2.27A2,2,0,0,1,132,90.88Z"/><path class="cls-1" d="M91.62,105.07c.24-.18.45-.47.81-.23,0,0,.17,0,.25-.08l.86-.36v1.09l-.83.28c.1.4.1.41.62.46.3,0,.6,0,1,.07l-.07-.67,1,.21.61-.24c-.39.59-.48,1.39-1.27,1.56l.72.54c-.07.22-.36.29-.77.11-.43.3-.18,1.2-1,1.13a1.15,1.15,0,0,0-1.24-.48,3,3,0,0,1-1.08-.06.48.48,0,0,1-.27-.4.82.82,0,0,1,.33-.47c.48-.32,1.18-.36,1.35-1.07-.29-.29-.85-.43-.58-1.06,0-.06-.22-.23-.34-.35Z"/><path class="cls-1" d="M81.84,84.5l-.33.86-1.11.09c.07.4.6.74.23,1.19a6.38,6.38,0,0,1,.45-1,.5.5,0,0,1,.49-.09c.29.16.23.75,0,1a5.35,5.35,0,0,0-.48.57l-.93.52,0-.77.1.25-.8.5-.22-.17.83-1.2-.13-.15.42.05,0-.11-.38-.1L79.72,85l-.16,0-.42,1.3-.15,0-.36-.66c.36-.08.37-.41.26-.8.47,0,.47,0,.48-.21a4.06,4.06,0,0,1-.63-.09,4.61,4.61,0,0,1,.09-1c0-.16.2-.29.3-.44h.21l.28.78-.67.18,0,.17c.28-.09.55-.18.83-.25a.27.27,0,0,1,.21.14.92.92,0,0,0,1.42.31C81.72,84.16,81.72,84.41,81.84,84.5Z"/><path class="cls-1" d="M81.27,87.23l.85-.14-.42-.28.36-.82.32.65A1,1,0,0,0,83,85.3c.6-.59.61-.59.88-.25l-.12.12c-.5.2-.16.57-.06.75s.62.27.64.24c.21-.41.58-.16.85-.24l.12.13.37.51-.84,0,.32.67-.3.32,0,0-.23-.27a4.16,4.16,0,0,1-.24-.35l-.2.89c-.1,0-.27,0-.28-.09a1.75,1.75,0,0,1,0-.46,3.84,3.84,0,0,0-.76,0c-.13,0-.23.17-.34.27a1.17,1.17,0,0,0,.36.2,3.15,3.15,0,0,0,.65,0c0,.27.24.67.12.92s-.55.3-.85.45l-.25-.4.25-.3-1-.68,0-.21-1,.47C80.74,87.57,81.06,87.42,81.27,87.23Z"/><path class="cls-1" d="M99.37,118.57A1.38,1.38,0,0,1,98,120a1.31,1.31,0,0,1-1.31-1.44A1.42,1.42,0,0,1,98,117.24,1.23,1.23,0,0,1,99.37,118.57Z"/><path class="cls-1" d="M99.41,111.54a3.4,3.4,0,0,1-.4.89,2.37,2.37,0,0,1-.73.39,3.63,3.63,0,0,1,.87.11,1.12,1.12,0,0,1,.63,1.54c-.27.73-.75,1-1.4.74a1.21,1.21,0,0,1-.72-1.53,2.46,2.46,0,0,0,.12-.85,1.32,1.32,0,0,1,.92-1.38C98.9,111.36,99.19,111.5,99.41,111.54Z"/><path class="cls-1" d="M121.13,88.38c-.11-.3-.48-.49-1-.5l-.1-1.32-.72-.28.06-.14c.23,0,.5.09.68,0s.27-.35.44-.61c.55.11.91.65,1.39,1.1-.19.36-.16.61.4.67.22,0,.42.37.6.59a3.3,3.3,0,0,1,.28.53c-.54.3-1,1-1.82.31Z"/><path class="cls-1" d="M94.37,125.15a1.41,1.41,0,0,1-1.93,1.2c-.2-.06-.4-.1-.6-.14s-.36-.09-.15-.34c.06-.07,0-.25,0-.37a1.44,1.44,0,0,1,1.17-1.74A1.48,1.48,0,0,1,94.37,125.15Z"/><path class="cls-1" d="M93.72,115.74a2.38,2.38,0,0,1,.72.58,1,1,0,0,1-.16,1.26,1.06,1.06,0,0,1-1.17.25c-.28-.12-.58-.21-.87-.31a.86.86,0,0,1-.67-.89.74.74,0,0,1,.74-.79C92.71,115.79,93.12,115.78,93.72,115.74Z"/><path class="cls-1" d="M126.93,100.49a4.69,4.69,0,0,0,.49.72,1.33,1.33,0,0,1,.29,1.61,1.18,1.18,0,0,1-1.27.55,1.43,1.43,0,0,1-1.09-1.24,1.48,1.48,0,0,1,.34-.79,3.46,3.46,0,0,1,.71-.46C126.61,100.74,126.81,100.59,126.93,100.49Z"/><path class="cls-1" d="M71.78,75.87a1.86,1.86,0,0,0,.49-.26,1.1,1.1,0,0,1,1.21-.3,1,1,0,0,1,.76.84c.05.27.17.53,0,.75a2.21,2.21,0,0,1-.77.56,1,1,0,0,1-1.37-.82C72,76.37,71.87,76.12,71.78,75.87Z"/><path class="cls-1" d="M126.71,84c0,.24-.08.45-.1.67a1.1,1.1,0,0,1-1,1,1.13,1.13,0,0,1-1.2-1,1.1,1.1,0,0,1,.78-1.17,1.7,1.7,0,0,1,.79.14A4.57,4.57,0,0,1,126.71,84Z"/><path class="cls-1" d="M84.35,101.8a.67.67,0,0,0,0-1.15c-.12-.11-.13-.34-.19-.51l.43.15s.09-.06.13-.05l.38.13-.16.34c.9-.33,1.28-.08,1.4,1,0,.1.07.2.08.31a3.12,3.12,0,0,1,.05.44h-.38s-.11,0-.14,0c-.61.47-1,.14-1.36-.36,0,0-.13-.06-.19-.1A.82.82,0,0,1,84.35,101.8Z"/><path class="cls-1" d="M134.26,93.45a1.07,1.07,0,0,1,1.16-1.06c.55,0,.85.35.84,1a1,1,0,0,1-1.07,1A.92.92,0,0,1,134.26,93.45Z"/><path class="cls-1" d="M81.62,74.29,82,73.13,83.12,73c.08,0,.17.11.25.16-.41.48.16.77.25,1.14s0,.45-.32.62-.79,0-1.16-.17-.55-.16-.82-.27c-.1,0-.17-.17-.25-.26l.38.08Z"/><path class="cls-1" d="M121.94,85.47c.16-.14.35-.35,0-.51.24-.13.47-.23.69-.36a.93.93,0,0,1,1.28.36.85.85,0,0,1-.3,1.19,7.79,7.79,0,0,1-.95.38Z"/><path class="cls-1" d="M119.33,83l.36.19a1,1,0,0,1,1.52,0,.9.9,0,0,1-.12,1.31.94.94,0,0,1-1.32-.12,9.6,9.6,0,0,1-.56-1.27Z"/><path class="cls-1" d="M81.93,94.8c.66-.12.82,0,1.11.59a7.18,7.18,0,0,0,.65.93l-.45.75a4.54,4.54,0,0,1-.65-.27,7.86,7.86,0,0,1-.68-.58l.54-.79v.13a2.77,2.77,0,0,1-.9.08c-.14,0-.22-.34-.3-.47l.7-.38Z"/><path class="cls-1" d="M79.53,88.94c.14.18.24.29.32.41.21.31.54.61.59.94s-.28.69-.73.75a.79.79,0,0,0-.29.18l-.74-.39.36-.77-.36.08C78.62,89.5,79.11,88.91,79.53,88.94Z"/><path class="cls-1" d="M119.13,105c0,.31,0,.6-.11.76a6.67,6.67,0,0,1-1.12,1.07c-.06,0-.39-.11-.57.07,0,0-.16-.09-.15-.13,0-.59-.13-1.23.32-1.73.08-.09.35-.06.51,0s.48.24.73.31C118.81,105.4,118.94,105.21,119.13,105Z"/><path class="cls-1" d="M85.38,78.08l.34-.67.79.7c-.84.2-.93.38-.58.91l.76-.61c0,.26.12.43.07.53s-.25.09-.42.14l.26.33-.8.62L85.47,79l-1.36.28L84,79l.56-.23c.29-.13.75-.06.67-.59Z"/><path class="cls-1" d="M82.3,100.08a3.48,3.48,0,0,1-.49-.57A1.27,1.27,0,0,1,81.7,99a3.54,3.54,0,0,1,0-.65c0-.12,0-.31.13-.35a.48.48,0,0,1,.42,0,6.12,6.12,0,0,1,.64.5.8.8,0,0,1-.1,1.34C82.62,99.93,82.47,100,82.3,100.08Z"/><path class="cls-1" d="M82.49,82.5a1.75,1.75,0,0,0,.35.2,1.56,1.56,0,0,0,.33,0l.23.87-.31.72L83,84.28l.2.25-.25.13-.61.26-.45.2a1.75,1.75,0,0,0,.09-.38c0-.07-.07-.16-.11-.24a.62.62,0,0,1,.24-.78h0l.68-.06Z"/><path class="cls-1" d="M137.88,104.28c-.13.52-.45.77-.83.57s-.72-.36-.72-.87c0-.15-.17-.3-.2-.46a3,3,0,0,1,0-.61,3.58,3.58,0,0,1,.55.19,2.12,2.12,0,0,1,.44.35C137.36,103.72,137.62,104,137.88,104.28Z"/><path class="cls-1" d="M140.9,87.25c0,.46-.62,1-1,.82-.26-.08-.66-.34-.66-.53a1,1,0,0,1,1.07-1A.63.63,0,0,1,140.9,87.25Z"/><path class="cls-1" d="M123.31,102.93v.87h-1.17v-.61c-.53,1.11-.7-.17-1.08,0,0-.58.17-.65.65-.36a.47.47,0,0,0,.43,0C122.59,102.43,123,102.62,123.31,102.93Z"/><path class="cls-1" d="M131.87,95.7c.92,0,1.19.42.86,1.12-.11.22-.21.58-.37.61-.39.09-.37-.32-.48-.58s-.24-.23-.3-.37a.84.84,0,0,1-.07-.55C131.58,95.79,131.82,95.73,131.87,95.7Z"/><path class="cls-1" d="M122,142.48c0,.47-.28.65-.69.67s-.75-.31-.73-.88c0-.4.27-.56.66-.58S122,141.94,122,142.48Z"/><path class="cls-1" d="M142.5,110.8c-.06.3-.3.41-.64.34s-.94-.71-.91-1.08a.61.61,0,0,1,.36-.43C141.73,109.54,142.51,110.3,142.5,110.8Z"/><path class="cls-1" d="M90.56,115.87a2.32,2.32,0,0,1,0,1c-.06.13-.53.11-.81.1a.58.58,0,0,1-.5-.8,1,1,0,0,1,.57-.52C90,115.59,90.3,115.78,90.56,115.87Z"/><path class="cls-1" d="M93.87,69.8l.65-.21c-.61-.44-.17-.81.07-1.19v.77l.12.11c.12-.1.31-.2.33-.32a1.53,1.53,0,0,0-.11-.54l.18-.06.34.76.48-.43a.73.73,0,0,1-.28.9c-.05,0-.16.1-.18.07-.53-.43-.74.24-1.11.33-.12,0-.22.15-.33.23l-.15-.43Z"/><path class="cls-1" d="M79.34,83.1a.85.85,0,0,0,0-.18c-.39-.14-.32-.47-.34-.78s.11-.5.45-.52.52.08.56.43.11.71.18,1.18l-.9-.14Z"/><path class="cls-1" d="M77.84,88l-.12.27.75.08-.22.47c.4.48.4.48.11,1.31-.31-.17-.62-.33-.93-.51a.2.2,0,0,1-.12-.15.22.22,0,0,1,.1-.15c.41-.2.46-.39.18-.8S77.35,88,77.84,88Z"/><path class="cls-1" d="M77.12,83.19l.27.42a3.17,3.17,0,0,1,.48-.1,3.72,3.72,0,0,1,.48,0c0,.25.22.48-.21.59-.16,0-.26.3-.43.51a2.72,2.72,0,0,0-.32-.23c-.09-.05-.22,0-.31-.09a6.47,6.47,0,0,1-.77-.45s0-.2.06-.3a1.67,1.67,0,0,1,.26.17,3.66,3.66,0,0,1,.23.33l.12-.85Z"/><path class="cls-1" d="M86.17,98.18c.21-.48.1-.68-.53-.86a1.21,1.21,0,0,0,.3-.3.62.62,0,0,0,0-.31c.6.12.78.38.69,1.1l.21-.31.56.53C87,98.7,86.93,98.72,86.17,98.18Z"/><path class="cls-1" d="M121.53,106.44c-.34,0-.65.09-.86,0-.55-.29-.3-.82-.29-1.48l1.63,1.32C121.76,106.74,121.72,106.74,121.53,106.44Z"/><path class="cls-1" d="M124.77,88.28l-1-.5c.37-.19.07-.89.72-.88a.91.91,0,0,1,.64.28C125.37,87.62,125.08,88,124.77,88.28Z"/><path class="cls-1" d="M114.59,104.75l.34-1.28c.46,0,.47,0,.39.49l.87.74-.07.17c-.39-.16-.83.48-1.19-.18,0,0-.24,0-.36,0Z"/><path class="cls-1" d="M118,99.62c-.54,0-.81.24-.59.81,0,.08-.18.25-.31.43l-.52-2.19.2,0,.19.65c0-.23,0-.34,0-.45s.08-.13.12-.13a.23.23,0,0,1,.16.09c-.13.46.3.41.52.54a1,1,0,0,0,.36.07Z"/><path class="cls-1" d="M82.79,94.61c.25-.22.39-.45,0-.71,0,0,0-.14,0-.2,0-.34,0-.68.09-1a3.38,3.38,0,0,1,.2-.59l.47,1c-.61.5.11,1.21-.29,1.86l-.46-.34Z"/><path class="cls-1" d="M131.81,102.17s-.06-.09-.09-.16c-.13-.24-.41-.62-.35-.68a2.39,2.39,0,0,1,.87-.55c.1,0,.37.08.42.2s-.07.31-.17.43S132.06,101.9,131.81,102.17Z"/><path class="cls-1" d="M121.11,98.55a4.69,4.69,0,0,1,0,.75c0,.11-.13.21-.22.34.46.23.09.63.07,1h0l-.47-.26a1.44,1.44,0,0,0-.63-1.8h1.25Z"/><path class="cls-1" d="M78.07,77.3c-.13-.15-.23-.29-.35-.41-.37-.33-.11-.68.06-.92s.6-.06.7.08,0,.51,0,.75A2,2,0,0,1,78.07,77.3Z"/><path class="cls-1" d="M116.51,102.85c-.21-.68-.46-1.3-1.34-.63l-.06-.18c.08-.17.11-.4.24-.47.34-.2,1.09.12,1.39.6v-.49C117.16,101.85,117.1,102.22,116.51,102.85Z"/><path class="cls-1" d="M71.09,70.65c.06.07.29.21.32.39a.65.65,0,0,1-.64.72.46.46,0,0,1-.48-.54C70.3,70.81,70.48,70.64,71.09,70.65Z"/><path class="cls-1" d="M88,108.57c.22-.38.13-1,.82-.84a.63.63,0,0,1,.34.89C88.78,109.21,88.42,108.65,88,108.57Z"/><path class="cls-1" d="M81.94,94.79c-.25-.13-.65-.17-.32-.56l-.78-.38c.39-.17.62-.28.86-.36a.67.67,0,0,1,.31,0l-.16.58,1,.05,0,.46h0c-.33-.09-.69-.32-.87.2Z"/><path class="cls-1" d="M72.79,85c-.43.46,0,.59.27.8a1,1,0,0,1,.3,1.27c-.52-.05-.42-.56-.58-.86s-.39-.66-.62-1Z"/><path class="cls-1" d="M85.32,98.66c.12.64,0,.84-.61.85.1-.42.24-.86-.35-1a.47.47,0,0,1,0-.34,2.94,2.94,0,0,1,.55-.39c.06.17.1.33.16.49s.15.29.22.43Z"/><path class="cls-1" d="M137.54,99.53c.56,0,.86.25.85.67a.67.67,0,0,1-.41.46c-.31.09-.74-.36-.69-.73C137.3,99.77,137.47,99.63,137.54,99.53Z"/><path class="cls-1" d="M119.43,88.64a2,2,0,0,0-.08-.23h.45l-.07.56.61,0-.15.6-.91-.1v-.16a1.07,1.07,0,0,1-.33.24.91.91,0,0,1-.37,0l.23-.24Z"/><path class="cls-1" d="M135.12,71c0-.24-.77-.28-.16-.72,0,0-.08-.21-.12-.28a3.35,3.35,0,0,1,.63-.19.58.58,0,0,1,.39.09.37.37,0,0,1,0,.34c-.2.29-.43.55-.64.83Z"/><path class="cls-1" d="M79.84,77.86c0,.44-.38.46-.54.4s-.75-.27-.57-.74c.07-.16.36-.26.57-.32s.21.18.31.3.16.25.24.37Z"/><path class="cls-1" d="M90.52,70.49c.17-.15.41-.24.46-.41s.17-.49-.2-.68c-.14-.07-.08-.53-.11-.83.42,0,.64.13.57.55s.27.81-.07,1.27S90.72,70.64,90.52,70.49Z"/><path class="cls-1" d="M85.38,78.08l-.12.12c-.21,0-.43-.21-.6.13,0,.08-.46,0-.71,0v-.16l-.46.32-.13-.09c.08-.12.12-.3.23-.36A1.43,1.43,0,0,1,85.38,78.08Z"/><path class="cls-1" d="M75.71,105.57a3.34,3.34,0,0,1-.25-.82c0-.11.35-.34.48-.3s.47.32.45.44a2.22,2.22,0,0,1-.43.71Z"/><path class="cls-1" d="M109.54,117.71c.3.31.61.5.6.66a.71.71,0,0,1-.48.5c-.17,0-.44-.26-.51-.47S109.34,118.05,109.54,117.71Z"/><path class="cls-1" d="M83.41,99.58l.15-.85a4.69,4.69,0,0,1,.87.58c.09.09,0,.36,0,.54a3.26,3.26,0,0,1-.55,0A3.19,3.19,0,0,1,83.41,99.58Z"/><path class="cls-1" d="M125.75,99.45l.51,0,.17-.47c.23.76.18.9-.31,1.24-.12.09-.18.25-.28.36a4.11,4.11,0,0,1-.33.3Z"/><path class="cls-1" d="M85,69.42a2.4,2.4,0,0,1,.54.34.93.93,0,0,1,.27.55c0,.11-.34.3-.47.27a.67.67,0,0,1-.41-.44A2.28,2.28,0,0,1,85,69.42Z"/><path class="cls-1" d="M120,102l.49-1.16.46-.17-.08,1C120.49,101.37,120.45,102.61,120,102Z"/><path class="cls-1" d="M80.23,88.67l-.42-.38L81.5,88c-.1.64-.66.4-1,.66l-.17.56-.21,0Z"/><path class="cls-1" d="M119.93,90.51l-.06.39c-.34-.12-.39-.29-.18-.55s.37-.48.57-.71.3-.29.44,0a2.15,2.15,0,0,0,.35.46l-.09.1-.32-.14Z"/><path class="cls-1" d="M84.88,96.17l.52,1.08L83.92,97Z"/><path class="cls-1" d="M68.92,71.46a1.77,1.77,0,0,1,.3.62c0,.12-.3.39-.4.36a2.11,2.11,0,0,1-.6-.42l.46-.56Z"/><path class="cls-1" d="M119.37,73.91c.55.2.29.75.41,1.13,0,.08-.28.25-.44.38a1.74,1.74,0,0,1-.22-.61A4.69,4.69,0,0,1,119.37,73.91Z"/><path class="cls-1" d="M125.6,100.17c-.34.25-.59.53-.69.48a.94.94,0,0,1-.44-.57c0-.1.28-.42.4-.4S125.26,99.93,125.6,100.17Z"/><path class="cls-1" d="M79.13,83.08a2.5,2.5,0,0,1-.92.13c-.11,0-.12-.49-.18-.77l1-.12-.23.57c.12.07.24.14.37.2Z"/><path class="cls-1" d="M128.27,96c.09.42.24.84-.32,1-.33.1-.47-.14-.5-.4C127.37,96,127.94,96.18,128.27,96Z"/><path class="cls-1" d="M125.29,104.27c.22.32.45.51.46.7s-.32.44-.42.41a.81.81,0,0,1-.47-.47C124.83,104.78,125.07,104.57,125.29,104.27Z"/><path class="cls-1" d="M79,106.39h-.4s0,.07,0,.11a4.07,4.07,0,0,1,0,.5s-.23,0-.27,0-.32-.34-.28-.46a4,4,0,0,1,.46-.86Z"/><path class="cls-1" d="M136.13,81.79c.07.64-.14.86-.78.81C135.15,81.83,135.33,81.64,136.13,81.79Z"/><path class="cls-1" d="M82.06,83.72l-1.46.19.27-.55,1.31-.17c-.05.2-.09.37-.14.54Z"/><path class="cls-1" d="M83.09,91.37l-.36,1c-.45-.35.17-.6,0-.84L82.17,91l.86-.33.07.14-.35.29Z"/><path class="cls-1" d="M91.05,114.88a8.06,8.06,0,0,1-1.12-.19c-.1,0-.15-.23-.22-.36a3,3,0,0,1,1-.18C90.8,114.17,90.89,114.57,91.05,114.88Z"/><path class="cls-1" d="M76.2,96.77a7.08,7.08,0,0,1,.92,0,.62.62,0,0,1,.38.27.38.38,0,0,1-.12.36.68.68,0,0,1-.44,0c-.28-.12-.55-.27-.82-.41Z"/><path class="cls-1" d="M121,100.63a2.34,2.34,0,0,0,.25-.56c.07-.27.07-.55.44-.25,0,0,.08,0,.11,0l.51.33-.68.15c0,.27-.08.67-.62.32Z"/><path class="cls-1" d="M110.82,106.52l.28.48-1.39.6-.15-.25,1.27-.82Z"/><path class="cls-1" d="M82.36,90.55l.15-.79c.29-.18.48-.31.68-.42s.19-.07.23,0a.24.24,0,0,1,0,.23c-.31.36-.63.71-.94,1Z"/><path class="cls-1" d="M111.94,60.58l-.57-.21a5,5,0,0,1-.2-.54,4.52,4.52,0,0,1-.06-.53l.18,0,.2.38c.22.23.26.34.17.42Z"/><path class="cls-1" d="M121.36,76.77,121,75.71l.79-.22-.28,1.25Z"/><path class="cls-1" d="M130.53,80.45c.19.09.44.14.54.28a.6.6,0,0,1,0,.55c0,.09-.39.14-.41.1a6.09,6.09,0,0,1-.28-.75Z"/><path class="cls-1" d="M124.83,91.24c.42.19.72.32,1,.46.07,0,.11.12.16.17a.87.87,0,0,1-.24.15l-.64.26Z"/><path class="cls-1" d="M77.54,81.18l-.36.09,0-.14c.37-.13.58-.67,1.11-.37a.29.29,0,0,1,.1.27,2.43,2.43,0,0,1-.39.45Z"/><path class="cls-1" d="M78.76,72.22l-.42-.35a4,4,0,0,0,.29-.29c.05-.06,0-.15.07-.23l.15-.35c.1,0,.26.07.27.13a.8.8,0,0,1-.05.43A5.84,5.84,0,0,1,78.76,72.22Z"/><path class="cls-1" d="M78.86,92.74c-.19.33-.33.61-.49.87a.33.33,0,0,1-.23,0,2,2,0,0,1-.15-.72c0-.09.29-.19.46-.24A1.12,1.12,0,0,1,78.86,92.74Z"/><path class="cls-1" d="M77,95l1.15.82C77,96,76.89,96,77,95Z"/><path class="cls-1" d="M81.11,115.37l-.58-.19c0-.07,0-.2.08-.22.31-.13.62-.23.93-.34,0,.14.13.34.07.41A2.1,2.1,0,0,1,81.11,115.37Z"/><path class="cls-1" d="M77.89,133.84c-.09-.36-.22-.73.31-.83a.47.47,0,0,1,.41.15C78.73,133.46,78.36,133.78,77.89,133.84Z"/><path class="cls-1" d="M74.78,59.67c-.2-.28-.4-.44-.39-.59s.23-.32.36-.47c.15.15.38.29.42.47S75,59.39,74.78,59.67Z"/><path class="cls-1" d="M72.86,82.5a.84.84,0,0,0-1.35,0l-.09-.15c.12-.2.24-.54.37-.55C72.61,81.72,72.72,81.81,72.86,82.5Z"/><path class="cls-1" d="M118.68,110.15c-.21-.31-.44-.55-.4-.62a1.66,1.66,0,0,1,.56-.45s.29.16.28.18C119,109.52,118.88,109.77,118.68,110.15Z"/><path class="cls-1" d="M77.92,79.93c-.15-.25-.31-.51-.45-.77a1,1,0,0,1,0-.25c.08,0,.21,0,.24,0,.27.33.52.68.85,1.11l-.74,0Z"/><path class="cls-1" d="M77.66,86.5a2.59,2.59,0,0,1-.44.64.46.46,0,0,1-.45-.06c-.11-.12-.11-.33-.17-.58Z"/><path class="cls-1" d="M117.08,66.69l-.19-.22-.5.13a.61.61,0,0,1,.07-.24c.26-.3.53-.59.8-.88,0,.09.06.19,0,.27C117.25,66,117.17,66.32,117.08,66.69Z"/><path class="cls-1" d="M73.19,102.12c-.37.1-.61.61-.87.06-.08-.16-.09-.5,0-.56C72.8,101.33,72.84,101.88,73.19,102.12Z"/><path class="cls-1" d="M125.12,103.9l.93-.2c.24,1.08.24,1.08-.18,1.11.36-.84-.31-.69-.76-.75Z"/><path class="cls-1" d="M87.17,72.43c-.06.08-.12.17-.19.25a5.46,5.46,0,0,1-.39.45.59.59,0,0,1-.3.18.3.3,0,0,1-.23-.19c0-.13,0-.34.09-.39A9.13,9.13,0,0,1,87,72.3Z"/><path class="cls-1" d="M133,58.78l.15-1.05.21,0c.09.23.26.46.24.68s-.25.36-.38.54Z"/><path class="cls-1" d="M80.6,74.92l-.49.42-.4-.58-.45.31c0-.06-.08-.16-.06-.18s.3-.34.42-.32A4.5,4.5,0,0,1,80.6,74.92Z"/><path class="cls-1" d="M100.77,62l.3-.48c.27.34.52.64.76,1,0,0,0,.16-.06.22s-.15,0-.19,0C101.32,62.44,101.08,62.23,100.77,62Z"/><path class="cls-1" d="M118.6,113.4c.19.3.38.46.39.64s-.29.36-.37.33a.66.66,0,0,1-.38-.42C118.21,113.84,118.41,113.67,118.6,113.4Z"/><path class="cls-1" d="M99.64,59.39c.16.19.32.36.45.54a1.48,1.48,0,0,1,.17.33c-.13,0-.29.1-.38.05a4.3,4.3,0,0,1-.59-.42Z"/><path class="cls-1" d="M85.32,98.66l.75-.4.11.8h0c-.51.37-.62-.13-.85-.39Z"/><path class="cls-1" d="M121.67,140.51c-.29.22-.45.42-.61.42s-.26-.24-.38-.37c.13-.13.25-.33.42-.37S121.38,140.34,121.67,140.51Z"/><path class="cls-1" d="M92.27,70.41V69.7l1,.31,0,.13Z"/><path class="cls-1" d="M86.89,117.24c-.08.1-.16.25-.2.25-.32-.08-.64-.19-1-.3a.47.47,0,0,1,.07-.27.42.42,0,0,1,.33-.11,1.72,1.72,0,0,1,.51.21A1.19,1.19,0,0,1,86.89,117.24Z"/><path class="cls-1" d="M118.73,100.06c-.28-.3-.66-.52-.55-1.12l.8.49Z"/><path class="cls-1" d="M74.61,108.28c-.2-.26-.41-.42-.39-.52s.24-.31.38-.46c.13.15.32.29.37.46S74.79,108,74.61,108.28Z"/><path class="cls-1" d="M80.43,72.3l.49.09a1.52,1.52,0,0,0-.18.33c0,.18,0,.37-.11.55s-.15.1-.23.15-.1-.18-.09-.26C80.33,72.89,80.38,72.62,80.43,72.3Z"/><path class="cls-1" d="M98.07,67.45l.25.24a2.6,2.6,0,0,1-.36.21c-.06,0-.14,0-.21,0l-.52.09.64-.55S97.91,67.45,98.07,67.45Z"/><path class="cls-1" d="M83.54,123.41l.68-.64.29.41-.81.45Z"/><path class="cls-1" d="M94.71,53.69c-.26.15-.44.33-.57.3s-.25-.24-.37-.38c.15-.11.29-.31.45-.31S94.49,53.5,94.71,53.69Z"/><path class="cls-1" d="M81.09,89.76c-.09-.11-.25-.23-.24-.33.06-.44.42-.59.88-.64l-.55.82Z"/><path class="cls-1" d="M81.3,94.42c0,.07-.08.18-.12.18-.35,0-.7.05-1.05.05,0,0,0-.12,0-.19l1.12-.23S81.26,94.35,81.3,94.42Z"/><path class="cls-1" d="M117.42,103.45l-1.13.28.79-1Z"/><path class="cls-1" d="M90.52,111.93l-.81.57L89.5,112c.29-.1.57-.2.87-.28C90.39,111.74,90.45,111.84,90.52,111.93Z"/><path class="cls-1" d="M116.29,105l.68.37c0,.3-.08.37-.38.26l-.5-.16a1.2,1.2,0,0,1-.27-.19l.23-.15Z"/><path class="cls-1" d="M120,88.38l-.74-.35.09-.23a8,8,0,0,1,1,.42s-.07.33-.11.5H120Z"/><path class="cls-1" d="M71.51,80.8a2.52,2.52,0,0,1,0,.62.5.5,0,0,1-.28.32.41.41,0,0,1-.33-.2.56.56,0,0,1,.12-.43A2.38,2.38,0,0,1,71.51,80.8Z"/><path class="cls-1" d="M94.48,110.07l.73-.44c.07.13.23.29.2.38C95.24,110.48,94.9,110.33,94.48,110.07Z"/><path class="cls-1" d="M73.94,79.25a4.53,4.53,0,0,1,.64-.13,3.23,3.23,0,0,1,.64.1c0,.34-.37.45-1.23.22Z"/><path class="cls-1" d="M76.44,57.67c-.25.18-.4.38-.54.38s-.26-.21-.39-.33c.13-.12.24-.31.39-.34S76.18,57.52,76.44,57.67Z"/><path class="cls-1" d="M81.36,119.13a6.5,6.5,0,0,1,.81.32s-.1.43-.16.43C81.68,119.89,81.44,119.72,81.36,119.13Z"/><path class="cls-1" d="M102.45,137.49c-.2.17-.35.37-.45.35s-.35-.22-.35-.34.19-.28.3-.42Z"/><path class="cls-1" d="M123.26,100.86a.85.85,0,0,1-.65-1l.57.33Z"/><path class="cls-1" d="M84,100.39a4.66,4.66,0,0,1-.55.33.34.34,0,0,1-.26,0,.74.74,0,0,1,0-.45c.09-.14.28-.21.45-.32Z"/><path class="cls-1" d="M76.3,74.27l.82.41-.5.71Z"/><path class="cls-1" d="M97.64,66l-.84-.44c.06-.58.6-.09.91-.19Z"/><path class="cls-1" d="M80.83,80.49l-.28-.26.76-.57.34.23Z"/><path class="cls-1" d="M78.38,81.22h1.13l-.66.74Z"/><path class="cls-1" d="M87,111.2c.1.17.25.3.24.4s-.21.38-.28.37a1.79,1.79,0,0,1-.51-.3Z"/><path class="cls-1" d="M94.32,108.45l.8.46-.39.49-.54-.79Z"/><path class="cls-1" d="M84.62,79.36l-.37.9-.58-.74Z"/><path class="cls-1" d="M77,82.07l-.65-.52.53-.36.28.85Z"/><path class="cls-1" d="M89.26,114.25a4.82,4.82,0,0,1,.31.74c0,.07-.15.19-.24.29-.1-.12-.28-.23-.3-.36a2.44,2.44,0,0,1,.07-.65Z"/><path class="cls-1" d="M75.43,103.61l-.45-.29a7.4,7.4,0,0,1,.71-.32c.06,0,.18.17.27.27Z"/><path class="cls-1" d="M72.13,90.89l-.36-.42.89-.38.11.16Z"/><path class="cls-1" d="M85.37,108.36l.65-.17.37-.09s.09.16.07.17a1.38,1.38,0,0,1-.29.17l-.3.13-.4.17Z"/><path class="cls-1" d="M83.23,75.33v.85L82.4,76Z"/><path class="cls-1" d="M82.43,117.62c.17.15.36.29.52.46,0,0-.16.29-.25.3-.43,0-.42-.29-.42-.58Z"/><path class="cls-1" d="M75.25,71.46c0-.3-.09-.6-.11-.9,0,0,.21-.13.27-.09s.21.17.2.26a3.91,3.91,0,0,1-.14.68Z"/><path class="cls-1" d="M84.56,108.58c.18.22.37.35.36.47a.46.46,0,0,1-.29.34.49.49,0,0,1-.35-.29C84.26,109,84.42,108.82,84.56,108.58Z"/><path class="cls-1" d="M81.52,108.25a4.7,4.7,0,0,1,.52.58s-.18.22-.28.34l-.44-.77Z"/><path class="cls-1" d="M141.05,103.43c-.27.18-.42.36-.5.33a.83.83,0,0,1-.37-.37s.19-.29.28-.28S140.76,103.26,141.05,103.43Z"/><path class="cls-1" d="M84.86,75.38c-.12.23-.24.47-.38.69a.82.82,0,0,1-.26.23s-.16-.09-.16-.1a2.07,2.07,0,0,1,.15-.25.68.68,0,0,0,.12-.22C84.41,75.26,84.4,75.26,84.86,75.38Z"/><path class="cls-1" d="M79.85,77.87c.07-.11.1-.26.2-.32s.25,0,.48-.06l.26.32c-.28.59-.64,0-1,0Z"/><path class="cls-1" d="M79.67,110.06l-.38.44c-.12-.13-.3-.25-.33-.4s.16-.3.29-.34S79.48,109.92,79.67,110.06Z"/><path class="cls-1" d="M119,108.86c-.2-.13-.47-.22-.56-.4s0-.47,0-.71l.23,0c0,.18-.1.41,0,.55s.31.21.47.31Z"/><path class="cls-1" d="M76.71,87.45l-1,.22.63-.83Z"/><path class="cls-1" d="M99.72,65.28a3,3,0,0,1-.53.49c-.06,0-.27-.24-.42-.37l.82-.31Z"/><path class="cls-1" d="M109.11,55.11l.69.44-.69.46Z"/><path class="cls-1" d="M85.33,109.67a5.27,5.27,0,0,1,.5.56s-.17.18-.26.28l-.48-.65Z"/><path class="cls-1" d="M79.47,104.56v.7h-.69l.56-.74Z"/><path class="cls-1" d="M82.43,120.14c.24-.16.38-.3.53-.32s.19.18.29.28a2.31,2.31,0,0,1-.4.37S82.65,120.32,82.43,120.14Z"/><path class="cls-1" d="M102.21,60.82c.08-.83.29-1,.84-.94Z"/><path class="cls-1" d="M99.77,62.7l0,.4-.11,0c-.05-.1-.16-.22-.14-.3a3.47,3.47,0,0,1,.31-.68s.26.05.39.08Z"/><path class="cls-1" d="M130.4,102.74v.56h-.78l.62-.72Z"/><path class="cls-1" d="M71.64,95a2.48,2.48,0,0,1-.46-.13.88.88,0,0,1-.18-.2c.08,0,.17-.13.26-.13a1.69,1.69,0,0,1,.35.1l.47.08Z"/><path class="cls-1" d="M93.88,69.79l-.61-.2.31-.81.12,0c.06.33.11.66.17,1Z"/><path class="cls-1" d="M89.89,109.21c-.37-.2-.22-.53-.18-.8,0-.1.2-.17.31-.26l.18.11-.32,1Z"/><path class="cls-1" d="M77,103.29l.68.5V104l-.7,0Z"/><path class="cls-1" d="M139.84,100.84l-.19.85c-.2-.23-.44-.42-.41-.48a2.25,2.25,0,0,1,.44-.49Z"/><path class="cls-1" d="M107.06,107l.26.74-.58,0c.11-.3-.34-.75.34-.77Z"/><path class="cls-1" d="M84.83,103.29c.19.22.35.33.39.47s-.15.23-.24.34c-.13-.1-.31-.19-.37-.33S84.72,103.52,84.83,103.29Z"/><path class="cls-1" d="M117.18,68.84l-.39,1-.16-.53h-.46l0-.11Z"/><path class="cls-1" d="M68,102.43c-.13-.28-.27-.55-.38-.83,0-.06.07-.17.11-.26a.91.91,0,0,1,.2.19,2.58,2.58,0,0,1,.23.54.9.9,0,0,1,0,.36Z"/><path class="cls-1" d="M80.79,109.42c.17.22.34.36.36.51s-.22.22-.35.33c-.1-.13-.25-.25-.28-.4S80.65,109.63,80.79,109.42Z"/><path class="cls-1" d="M130.27,97.44a4.61,4.61,0,0,1-.13-.69.41.41,0,0,1,.16-.31.29.29,0,0,1,.28,0,.41.41,0,0,1,.06.34A3.63,3.63,0,0,1,130.27,97.44Z"/><path class="cls-1" d="M121.85,89.65l.67-.62c0,.06.16.14.14.18a1.22,1.22,0,0,1-.26.49c-.08.08-.27.06-.41.09Z"/><path class="cls-1" d="M87.68,77.53l-.63-.15.14-.6c.06.32.88.16.48.76Z"/><path class="cls-1" d="M77.29,112.49l-.44-.5c.14-.09.26-.23.4-.26s.24.18.26.29S77.41,112.26,77.29,112.49Z"/><path class="cls-1" d="M124,101.61l.33-1,.32.77Z"/><path class="cls-1" d="M114.26,63c.4.19.4.19.39,1l-.56-.93Z"/><path class="cls-1" d="M78.37,86.69c-.18.24-.35.48-.53.71,0,0-.21.1-.22.07s-.13-.23-.1-.26c.23-.24.49-.45.74-.67Z"/><path class="cls-1" d="M119.05,82.94,118,83c-.1-.37,0-.44.29-.38a6.21,6.21,0,0,1,.74.2Z"/><path class="cls-1" d="M84.25,119.75h-.63l0-.46.62.14Z"/><path class="cls-1" d="M125.91,111.34l.68-.37.18.83Z"/><path class="cls-1" d="M76.74,69.94,76,69.47l.46-.42.36.74Z"/><path class="cls-1" d="M121.13,88.38l.22.35c-.42.4-.61-.06-.9-.15l0-.2Z"/><path class="cls-1" d="M112.75,121c.42.49.31.69,0,.76a1.3,1.3,0,0,1-.42-.08,1.29,1.29,0,0,0,.27-.25A3.36,3.36,0,0,0,112.75,121Z"/><path class="cls-1" d="M83.24,59.22v.67a4.27,4.27,0,0,1-.54-.22.35.35,0,0,1,0-.28A4.93,4.93,0,0,1,83.24,59.22Z"/><path class="cls-1" d="M91.07,105.17c-.3.58-.58.52-.85.35,0,0,0-.18,0-.28Z"/><path class="cls-1" d="M76.29,83.71c-.55.58-.8.61-1.13.19Z"/><path class="cls-1" d="M89.88,109.22l.21-.06.5-.12v.58l-.15.07-.55-.49Z"/><path class="cls-1" d="M89.5,71.75l-1.2-.21C88.81,71.21,89.17,71.17,89.5,71.75Z"/><path class="cls-1" d="M120.92,81.66l.52.4c-.12.08-.28.26-.35.23a1.37,1.37,0,0,1-.38-.38Z"/><path class="cls-1" d="M75.43,92.92l.13.88c-.54-.16-.55-.21-.31-.85Z"/><path class="cls-1" d="M84,91.5l-.46.53c0-.3,0-.57-.06-.83a.17.17,0,0,1,.11-.15.23.23,0,0,1,.18.07C83.88,91.23,83.94,91.35,84,91.5Z"/><path class="cls-1" d="M87.05,106c-.17.16-.24.26-.32.28a1.94,1.94,0,0,1-.42,0l-.48,0a2.09,2.09,0,0,1,.46-.26A4.32,4.32,0,0,1,87.05,106Z"/><path class="cls-1" d="M134.22,92.59c-.17-.21-.36-.35-.34-.44s.21-.29.32-.44c.08.13.21.25.22.38S134.32,92.36,134.22,92.59Z"/><path class="cls-1" d="M87.57,71.48c-.43.29-.76.18-.85-.26a.24.24,0,0,1,.06-.19A.26.26,0,0,1,87,71c.1.07.17.18.27.25A2.81,2.81,0,0,0,87.57,71.48Z"/><path class="cls-1" d="M85.55,117.33l-.46.39-.26-.35.55-.28Z"/><path class="cls-1" d="M126.43,97.24c.16.2.32.31.33.43s-.17.22-.26.33c-.1-.11-.24-.21-.27-.34S126.33,97.44,126.43,97.24Z"/><path class="cls-1" d="M78.92,95.73l.14.66-.13.11c-.14-.14-.35-.26-.41-.43s.16-.28.25-.42Z"/><path class="cls-1" d="M68.67,110.29l.26.45-.44.18-.07-.53Z"/><path class="cls-1" d="M77.82,98.8a5.13,5.13,0,0,1-.13-.66s.21-.07.32-.11l.08.74Z"/><path class="cls-1" d="M115.34,71.41c.42-.52.66-.48.91.14Z"/><path class="cls-1" d="M119.36,102.89a2.26,2.26,0,0,1,0-.52.49.49,0,0,1,.38,0,.4.4,0,0,1,.06.37,1.31,1.31,0,0,1-.46.14Z"/><path class="cls-1" d="M93.15,121.42l-.29-.71.35-.08.16.73Z"/><path class="cls-1" d="M74.25,95.17l-.49-.54.61-.21v.66Z"/><path class="cls-1" d="M119.35,102.88l-.34.7c-.62-.3.06-.53-.16-.84l.51.15Z"/><path class="cls-1" d="M87.32,75a2.13,2.13,0,0,1,0,.5c0,.13-.15.23-.23.35-.06-.14-.19-.28-.17-.4a1.66,1.66,0,0,1,.26-.49Z"/><path class="cls-1" d="M140.2,105.67a2.62,2.62,0,0,1,.57.11s0,.26,0,.39l-.63-.17Z"/><path class="cls-1" d="M122,134.91l.69-.53.09.09-.12.64Z"/><path class="cls-1" d="M89.14,74.9l-.84-.63c.64-.15.79.17,1,.48Z"/><path class="cls-1" d="M77.18,94.66h-.39c-.05-.24-.11-.42-.13-.59a.56.56,0,0,1,0-.25c.08.05.21.07.24.14A7.2,7.2,0,0,1,77.18,94.66Z"/><path class="cls-1" d="M117.83,97l-.23-.35c.26-.51.64-.45,1.11-.22a1.5,1.5,0,0,1-.9.56Z"/></g></svg>