<svg id="Capa_1" data-name="Capa 1" xmlns="http://www.w3.org/2000/svg" viewBox="0 0 135.75 122.37"><defs><style>.cls-1{fill:#fff;}.cls-2{fill:#ff227c;}</style></defs><path class="cls-1" d="M.42,15.13v.42H0Q.06,15.13.42,15.13ZM.66,9.65h.43v.66H.66Zm0,11.63h.43v.18H.66Zm.67-8.14v.48H.9C.94,13.3,1.09,13.14,1.33,13.14Zm0-7.65H2v.42H1.33Zm0,11h.42a1.82,1.82,0,0,0,.66.18v.66H2.17Q1.87,17.3,1.33,16.46Zm.18-7.72H2V9H1.51Zm0,6.63H2V16H1.51ZM12.3,0a1.48,1.48,0,0,0,.84.24L13,.66l.18.43L13.62.9h.18c0,.41.08.61.25.61a1.82,1.82,0,0,1,.66-.18.16.16,0,0,0,.18.18A1.52,1.52,0,0,0,15.13.9h.24v.43l-.24.42V2h.24q0-.66.42-.66H16v.18L15.79,2h.85V1.33q.9.3.9.66l-.24.42a2.14,2.14,0,0,1,1.15.24,1.49,1.49,0,0,1,.6-.24v.42l-.18,1.09q.42,0,.42-.6h.24L20,3.5q0-.18.24-.18v.6l.43-.18A3.68,3.68,0,0,0,21,5.49l-.18.42q.24,1,.84,1.08a1.89,1.89,0,0,1,.24-.66h-.48V6.15a.21.21,0,0,1,.24-.24l-.24-.42V5.24h.48c0,.61.14.91.42.91l-.24.42v.9h.24c0-.6.14-.9.43-.9L23,7a5.83,5.83,0,0,0-.91,1.15h.67V7.47h.48v.19A2.43,2.43,0,0,0,22.79,9q.66,0,.66.42a1.91,1.91,0,0,0-.18.67h-.66V9.89q0-.24.18-.24a2.49,2.49,0,0,1-.43-1.09l-.42.18a5.65,5.65,0,0,1,.42,1.81h-.42v.18h.42c0-.12.08-.18.25-.18a.58.58,0,0,0,.66.66A4,4,0,0,1,22.61,13h.18q.18,0,1.08-1.14l.24.48-.42.84h.66v.48h-.48l-.42-.24v.42h-.18l-.66-.42c-.33,0-.49.18-.49.42v.25h.67v.42a7.81,7.81,0,0,1-1.33.42A1.7,1.7,0,0,1,21.94,16h.42l-.24-.48a.49.49,0,0,1,.49-.42q0,.66.84.66v.43h-.18a1.88,1.88,0,0,0-.66-.19c0,.29.28.43.84.43v.42c-.72,0-1.09.26-1.09.66h.25L23,17.3v.91l.42-.25.24.49a3.18,3.18,0,0,1-.42.6v.48h.6l-.18.42v.24l.42-.24h.24v.43h-.48v.24l.48.66q0,.42-.66.42v.42a4,4,0,0,0,1.09.49c0,.12-.09.18-.25.18l.25.48a.38.38,0,0,1-.43.42l-.48-.24v.66a.49.49,0,0,0,.48.42l.67-.42v.67h-.49V25a.5.5,0,0,0,.49.42l.42-.24v.24l-.66,1.08v.25l1.08-.67v.18c0,.32-.22.49-.66.49q0,.3.66.66V27h.42l-.18.48a1.82,1.82,0,0,1,.18.66l-.42.18h-.18l.18-.42a2,2,0,0,1-1.08-.66.22.22,0,0,1-.25.24l.25.42v.24l-.43-.24v.24l.67.85a1.48,1.48,0,0,0-.24.66,1.48,1.48,0,0,1,.24.66h.18V30a1.86,1.86,0,0,1-.18-.84l.42-.24.42.24-.18.42q0,.36.84.66c0-.16.08-.24.25-.24l.18.48v.42h-.43V30.5h-.24a1.66,1.66,0,0,1-.42.85v.42l.42-.18h.24v.66L26.1,32a.21.21,0,0,1-.24.24A6.76,6.76,0,0,0,27,33.76V34h-.43v.42H27l.48-.24q.12.9.66.9v.43h-.9v-.18l.24-.49h-.24l-1.09.24L27,36a1.82,1.82,0,0,0-.18.6l.42-.18h.42l-.18.42q.42.06.42.42c-.2,0-.56.45-1.08,1.33v.24a3.43,3.43,0,0,1,1.5-.42v.42a.75.75,0,0,0-.84.85h.66v-.43h.18c.32,0,.48.18.48.43v.24q-.9.12-.9.66h.24q.06-.42.42-.42l.43,1.5.42-.24h.24v.91a2.07,2.07,0,0,0-.66-.42l-.19.42v.42c.29,0,.43.22.43.66l1.08-.18v.18c-.32.73-.54,1.09-.66,1.09a.21.21,0,0,0,.24.24l-.24,1.08v.25a12.09,12.09,0,0,0,1.32.24v.42h-.66v.42l.42.66a1.48,1.48,0,0,1-.84.24v.19a3.23,3.23,0,0,1,1.33.66v.42h-.25l-.42-.18-.24.42v.24l1.09.18v.24l-.43.67a.22.22,0,0,1,.25.24l.42-.24q.42.06.42.42l-.84.42q.18.66.42.66l-.24.49.24.42.42-.24h.24q0,.36-.9.9a.37.37,0,0,0-.43-.42h-.24v.18a1.64,1.64,0,0,1,.91.42q.06-.42.42-.42l.42.66c-.12,0-.18.08-.18.25l.42.18-.24.48c0,.2.44.42,1.33.66,0,.56.22.85.66.85a.37.37,0,0,1-.42.42.37.37,0,0,0-.42-.42l-.24.9.42-.24H34a7.71,7.71,0,0,0,.42,1.75q-.42.06-.42.42v.48l.42-.24h.24v.9H34l-.42-.24v.24c0,.29.18.43.42.43l-.24.42v.24l.24.42.42-.24.42.24.49-.66h-.25a1.48,1.48,0,0,1-.66.24l-.24-.48c.08-.28.24-.43.48-.43h.42L35.75,62q-.24.66-.42.66l.18.49a.38.38,0,0,1-.43.42h-.24v-.24a1.51,1.51,0,0,0,.24-.67l-.42-.18h-.24l.24.42h-.48v.25c.28,0,.72.42,1.33,1.26l.48.24q0-.3.6-.66h.24v.9h-1.5l.18.43v.24h-.43v.18c.28,0,.43.22.43.66h.24c.88-.72,1.32-1.22,1.32-1.51.2,0,.43.22.67.67a1.26,1.26,0,0,0-1.33.84v.24c0,.28.36.42,1.09.42a1.8,1.8,0,0,1-.25.91,1.52,1.52,0,0,1,.25.66l-.43.18c.12,1.17.34,1.75.67,1.75h.18v-.18l-.18-.48.66-.43.18.43a.44.44,0,0,0-.42.48v.18h.42c.12-.72.34-1.09.66-1.09h.67v.25a1.48,1.48,0,0,0-.24.66l.48.18h.18v-.18h-.42v-.24q0-.42.9-.42a1.83,1.83,0,0,1-.24-1.09q.66,0,.66-.48h.18a.21.21,0,0,1,.24.24l.43-.24a1.59,1.59,0,0,1,.9.24h.24v-.24a4.53,4.53,0,0,0-1.57-.42v-.67l.43.24q.12-.48.48-.48c0-.4-.38-.6-1.15-.6v.42h-.18l-.42-.24-.24.42v.24h.84v.24a.37.37,0,0,1-.42.43q0-.24-.18-.24a1.78,1.78,0,0,0-.24.9h-.24a.37.37,0,0,1-.42-.42l.42-.67v-.48h-.42l.24.48v.19c-.32,0-.48-.14-.48-.43v-.24l2.23-1.5-.25-1.09h.43V64h-.43a.21.21,0,0,1-.24.24V63.6l1.15.24-.24-.48c.12,0,.34-.22.66-.67Q43,62,41.9,62q0-.3.84-.84l.66.42v-.24l-.18-.43a1.82,1.82,0,0,1,.6-.18v-.24l-1.08-.42v-.24l.66-.9v-.19L43,58.11v-.24l.84-.18v.42q0,.24-.18.24a1.9,1.9,0,0,1,.18.85h.49V57.45a1.51,1.51,0,0,1-.67-.24,1.78,1.78,0,0,1-.9.24v-.24l.48-.67h-.48v-.18a.44.44,0,0,1,.48-.42v.42a3.71,3.71,0,0,0,1.27-.42v.42h.24v-.9h-.42v.48h-.24a3.31,3.31,0,0,0-.85-1.81l.42-.18c.2.57.43.85.67.85h.18v-.43c-.44,0-.67-.14-.67-.42a1.7,1.7,0,0,1,.25-.9,1.42,1.42,0,0,1-.25-.85,1.4,1.4,0,0,1,.25-.66,1.7,1.7,0,0,1-.25-.9,4.89,4.89,0,0,1,1.57-.85v-.24q-.66,0-.66-.42H45q-.12-.9-.66-.9v-.67q.48,0,.66-.84l.42.18a1.81,1.81,0,0,1,.67-.18v-.24h-.43v-.42h.43v-.25A1.76,1.76,0,0,1,45,45.39a1.78,1.78,0,0,1-.9.24q0-.36,1.32-1.32v.42a.37.37,0,0,0,.42-.42v-.49l-.42.25L45,43.4q.3-.84.66-.84l.43.18a1.48,1.48,0,0,1,.24-.66,2,2,0,0,1-.67.24,1.48,1.48,0,0,0-.66-.24v-.43q.06-.42.42-.42v.42h.42l-.18-.42v-.42l.85-.24-.18-.42-1.15.18a.37.37,0,0,1-.42-.42v-.67c.28,0,.42.22.42.67h.24l1.09-.24v-.43l-.42.24h-.25a1.82,1.82,0,0,0-.18-.66,3.71,3.71,0,0,0,.43-1.32l-.43.24v-.67c.44,0,.67-.16.67-.48V35.51h.42v.24l-.24.42h.42l.24-1.09-.42.25a6.34,6.34,0,0,1-.24-.91,3.08,3.08,0,0,1,.66-1.51l-1.08.18h-.43v-.18a1.68,1.68,0,0,0,1.51-.9,1.6,1.6,0,0,0-.84-.42v-.24h.6a2.57,2.57,0,0,1-.42-1.09h.24l.66.42V30.5l-.48-.66h.66v-.66a1.82,1.82,0,0,1,.24-.91l-.9-1.5v-.91h.48v.24a1.47,1.47,0,0,0-.24.67h.42c0-.45.3-.67.91-.67A7,7,0,0,1,48,23.69l.43.18v-.18l-.91-1.08a1.55,1.55,0,0,0,.24-.67q-.3,0-.66-.9l.9-.42a1.53,1.53,0,0,0,.85.24,3.91,3.91,0,0,0-.66-1.57.21.21,0,0,0,.24-.24c-.2,0-.43-.2-.67-.6L48,18a1.48,1.48,0,0,1-.24-.84c.28,0,.43-.16.43-.48H47.8l-.66.48h-.66v-.48c.36,0,.8-.28,1.32-.85a.37.37,0,0,1-.42-.42,1.48,1.48,0,0,1,.66-.24l-.24-.42v-.24h.67v-.42l-.43.18c-.6-.2-.9-.4-.9-.61h.42l.48.18v-.18l-.48-.9h.67v-.24a2,2,0,0,1-.43-.66c.61,0,.91-.37.91-1.09h-.48v-.42h.48l.42.24v-.24l-.42-.66V9.4Q50,9.4,50,8.74h-.84c1-.64,1.51-1.06,1.51-1.27-.29,0-.43-.16-.43-.48V6.15h.25q.42,0,.42.84h.24q0-.66.42-.66V6.15h-.66a1.48,1.48,0,0,0,.24-.66H52.2c.2,0,.43-.22.67-.67l.42.24h.24V4.82q-.66,0-.66-.42V4.16h.18a2.66,2.66,0,0,0,1.32.42V4.4l-.24-.48h.49V3.5a2.73,2.73,0,0,1-1.33.42A2.07,2.07,0,0,1,55,2.83l-.24.49V3.5H55a1.82,1.82,0,0,1,.66-.18q.06.42.42.42a2,2,0,0,0,.42-.67h-.42V2.83c.2,0,.5-.36.91-1.08h.18V2l-.42.66h.42a1.48,1.48,0,0,1,.66-.24l-.66-.9a3,3,0,0,0,1.32-.18v.18a2.33,2.33,0,0,0-.18.66h.18L59.44,2q0,.3.66.66h.66V2.41l-.48-.9.48-.18c.37,1.16.73,1.74,1.09,1.74h.66q0-.66.18-.66a1.47,1.47,0,0,0,.67.24l-.43.67a5.54,5.54,0,0,1,1.75.42A1.39,1.39,0,0,1,66,2.83l.24.49h-.48l.48.84-.48.24.24.42q0,.42-.66.42v.49h.24l1.08-.91h.66v.42a.43.43,0,0,1-.48.49,1.48,1.48,0,0,1,.24.84h.43l-.19-.42c0-.28.19-.42.43-.42l.42.18L68,6.33V7c.36,0,.64.45.84,1.33a1.48,1.48,0,0,0,.66.24.37.37,0,0,1-.42.42.21.21,0,0,0-.24-.24V9.4h1.09v.25l-.18.42h.18l-.18.48v.18h.18v-.42h.48a1.61,1.61,0,0,0,.42.9l-.42.61h.42q0,.36-.66.66a1.48,1.48,0,0,1,.24.66h.18c0-.24.36-.74,1.08-1.51a.37.37,0,0,1-.42-.42,1.66,1.66,0,0,0,.67-1.14.44.44,0,0,1,.42.48l-.42.66a1.51,1.51,0,0,1,.24.85q.18,0,.18-.24c1.32.2,2,.5,2,.9a.37.37,0,0,1-.42.42h-.25l.25-.42v-.24h-.25V13h-.42v-.48h-.42v.24l.18.42-.66.48c0-.32-.36-.48-1.09-.48a2.27,2.27,0,0,0-.18.91l1.51.18-.24.48.24.42-.24,1.33.48.18q.06-.42.42-.42V17.3h-.66l-.66-.42h-.43v.42h-.42v-.42h-.48q0,.12.48.66l-.24.42c.28,0,.42.31.42.91h.24c.28,0,.43-.22.43-.66h.24a1.86,1.86,0,0,0,.18.84c-.57.12-.85.28-.85.48l.18,1.09q-.42.06-.42.42h.42c0-.56.31-.85.91-.85V20h-.42v-.42h.18c.32,0,.48.28.48.85l.42-.19v.67H73l-.66-.48v1.08a2.39,2.39,0,0,0-1.09.66c-.12,0-.18.16-.18.49a.43.43,0,0,1-.48-.49q.24,0,.24-.18l-.42-.24q0,.42-.24.42l.24.49-.24.42q.3,1.08.66,1.08v-.24a1.49,1.49,0,0,1-.24-.6h.48l.18,1.51V25c-.28,0-.42-.22-.42-.67h-.9a3.39,3.39,0,0,1,.48,1.33h-.24l.24.42v.18l-.24.49h.24a1.4,1.4,0,0,1,.66-.25v.25q0,.42-.48.42h-.18a.21.21,0,0,1-.24-.24l-.42.24L69.26,27l-.18.48c.65.28,1,.56,1.09.84a.21.21,0,0,0-.24.24c-1-.52-1.51-1-1.51-1.32h-.24q0,.18-.18,1.32l.42-.24h.24v.48h-.48l.48.61a.21.21,0,0,0-.24.24q.3,0,.66.66v.24c-.72,0-1.08.22-1.08.67q.66,0,.66.42v.66h-.9V32h.66a.37.37,0,0,0-.42-.42l-.24.42-.43-.24h-.48l.48,1.14a1.82,1.82,0,0,1-.66.18v.25h.85c0-.45.16-.67.48-.67,0,.4.5.71,1.5.91v.18a.37.37,0,0,1-.42.42h-.24l.24-.42v-.18h-.42V34H68l-.48-.24v.42q0,.48.66.48v.18c-.44.89-.89,1.33-1.33,1.33v.42h.67l-.19-.42h.19q.48.06.48.42l-.91.91h-.24l.24-.43a1.86,1.86,0,0,1-.84.18v.67q1.08.06,1.08.66a1.53,1.53,0,0,0-.48.9h-.18a.21.21,0,0,1-.24-.24c-.88.2-1.33.43-1.33.67l.67.42H66v-.66q.42,0,.42,1.14h-.66v.42q1.08,0,1.08.42v.43h-.6v-.43h-.66a1.47,1.47,0,0,1-.24.67h1.32v.24a1.48,1.48,0,0,0-.24.66q-.42,0-.42-.66l-.42.18.66,1.08-.66.49h-.24v-.49h.42c-.41-.84-.69-1.26-.85-1.26h-.24l.24.42v.24h-.66v.42c.32,0,.54.29.66.85.28.08.43.24.43.48-.17,0-.25.06-.25.18h.67v.48h-.85c-.16.45-.32.67-.48.67a1.49,1.49,0,0,0-.6-.24v.24q0,.3,1.08.84,0-.24.18-.24a.8.8,0,0,0,.91.9v.43a6,6,0,0,1-.91.24,2,2,0,0,1-.18-.91h-.24a2.53,2.53,0,0,1-.42,1.15h.42v.42a1.38,1.38,0,0,0-.84.42q0-.66-.48-.66l.24.42v.24h-.42l.18.42v.24a.38.38,0,0,0-.43.43l-.42-.18h-.24v.42l.24.42.42-.18h.25c0,.84-.23,1.26-.67,1.26v.49H63.6v-.24h-.67a1.82,1.82,0,0,0,.43-1.09q.36,0,.66.84c-.12,0-.18.09-.18.25l.42.24c0-.32.22-.49.66-.49V52h-.66q.06-.42.42-.42a2,2,0,0,0,.91.18v.48c0,.45-.39.67-1.15.67l.48.66h-.66v-.48h-.42v.48h.42a1.76,1.76,0,0,0-.42,1.09h-.48v-.25a1.48,1.48,0,0,0,.24-.66l-.42.24c-.17,0-.25-.08-.25-.24a1.48,1.48,0,0,1-.66.24v.18l.24.49H62v.84l.48-.18v.18a.21.21,0,0,1-.24.24l.24.42-.9.91h.66v-.49h.24c.28.09.42.25.42.49q-.36,0-.9,1.5h.48V59a.42.42,0,0,1-.48.48v-.67h-.66l.24.43v.24h-.67c0,.2.23.42.67.66a1.48,1.48,0,0,0,.24-.66H62v.42a1.82,1.82,0,0,0-.18.66h-.24l-1.09-.9h-.66v.24q.9,0,.9.24s-.08.32-.24.84c.08.61.3.91.67.91a.38.38,0,0,1-.43.42l.18.42v.49a2,2,0,0,0-1.08.66l.24.42v.18h-.48a6.38,6.38,0,0,1-.18-.84q.18,0,.18-.24h-.18c-.32.08-.63.44-.91,1.08h.24l.43-.18.24.84h.18l.48-.18.42.67v.18H60.1v-.42a1.61,1.61,0,0,1-.9.42v.48l.24.42H59c0-.6-.29-.9-.85-.9V66a2.66,2.66,0,0,1,.42,1.32v.85c.61.08.91.3.91.66v.24c-.2,0-.42-.22-.67-.66a8.34,8.34,0,0,1-2.23.84v.24h.67a.21.21,0,0,1,.24-.24c0,.45.08.67.24.67a1.82,1.82,0,0,1,.66-.18v.42a.8.8,0,0,0-.9.9,1.61,1.61,0,0,0,.9.42c0,.21-.3.43-.9.67a.21.21,0,0,0-.24-.24l-.42.66H57l-.91,1.51v.48h.67v1.08l.24.43.42-.19.42.19c.32-.37.48-.59.48-.67h-.9V75h.42l.48.24q.06-.48.42-.48a2.39,2.39,0,0,1-1.32,2v.42L57,77c0,.2-.3.48-.91.84l.42.24-.18.43v.24h.18v-.42H57v.18l-.49.66v.42l.49-.18a2.07,2.07,0,0,1,.66.42,1.48,1.48,0,0,1,.66-.24l-.48.66-.42-.18h-.66c0,.57-.15.85-.43.85h-.24a.37.37,0,0,0-.42-.42v-.25q.66,0,.66-.42l-.24-.42c-1.61,1-2.41,2.09-2.41,3.26a2.1,2.1,0,0,1,1.09.66l.48-.18a.16.16,0,0,0,.18.18L55,84.39v.25h.24c0-.45.14-.67.42-.67h.24l-.48.91q.48,0,.48,1.08l.6-.42h.25v.18a1.4,1.4,0,0,0-.25.66.22.22,0,0,1,.25.24h-.25a1.49,1.49,0,0,0-.6-.24c0,.29-.16.43-.48.43h-.18v-.19l.18-.42V86h-.18a1.47,1.47,0,0,1-.91,1.33v-.48a.49.49,0,0,0-.42.48.16.16,0,0,1,.18.18l-.42.24q-.3,0-.66-.66a.21.21,0,0,0,.24-.24H52.2l.18.48v1.08c.33,0,.49.18.49.42l-.49.25.25.42v.42a3,3,0,0,1-1.51-.66v.24a2,2,0,0,1,.18.9H52a1.82,1.82,0,0,0,.91-.24,1.48,1.48,0,0,0,.84.24v.42h-.18l-.48-.24V91h1.32v-.25a1.48,1.48,0,0,1-.24-.66l.49-.24h.18L55,91l-.91,1.5L54,92.11v-.24h.42a.37.37,0,0,0-.42-.42q0,.66-.9.66l-.18-.48a.16.16,0,0,0,.18-.18h-.67V91h.49l-.24-.49a1.55,1.55,0,0,1-.67.24l.24.43q-.48.06-.48.42v.24c.4,0,.7.3.91.9h.24c0,.29-.16.43-.49.43S52,92.83,52,92.11h-.24l-1.08.18a1.48,1.48,0,0,1,.24.66h.24v-.42h.42V93l-.24.49h.24L52,93.2c.44,0,.67.36.67,1.08h.24q0-.66.42-.66v.9l.42-.24a1.48,1.48,0,0,0,.66.24l.43-.66c-.57,0-.85-.36-.85-1.09h.18a2.79,2.79,0,0,0,1.33.67,4.85,4.85,0,0,1-.84,1.26h.66v.48a6.81,6.81,0,0,1-1.75-.48,2.61,2.61,0,0,0-.48,1.57c-.2,0-.42-.22-.67-.66v-.24h.49v-.43c-.32-.6-.55-.9-.67-.9a1.48,1.48,0,0,1-.66.24,2,2,0,0,1,.66,1.09l-.24.48a1.49,1.49,0,0,1,.24.6l.43-.18h.24v.42h-.49v.42c.41,0,.71.45.91,1.33h-.42c-.32,0-.49-.28-.49-.84H52l-.24,1.08q.48.06.48.42v1.33l-.24.42a2.38,2.38,0,0,0,1.09.48q.06-.48.48-.48h.18l-1.08,1.33v.9c0,.12.3.4.9.85l.42-.19c.28,0,.42.19.42.43l-.42.18h-.42l-.66-.42-.91.9h-.24l-.42-.24-.42.66h.24l.42-.24.18.48v.42l-.18.43q.3,0,.66.66H52l.24.42v.24H50.88c0,.24.5.46,1.5.67.45-.37.67-.67.67-.91q.48.12.48.48l-.24.43a1.48,1.48,0,0,1,.24.66l-.66.42H52.2q-.48,0-.48-.66h-.18a11,11,0,0,1-.66,2.65h-.24l-.43-.24a.21.21,0,0,1-.24.24l-.18-.42v-.24h.67v-.24l-1.15-.18v.18l.24.48h-.24a8.7,8.7,0,0,1,.66,1.75l.49-.24h.42a10.07,10.07,0,0,0,.24,1.74l-.48.24H50v.67h-.42c0-.77-.22-1.15-.66-1.15h-.18v.48l-.48-.24H48v.67a1.85,1.85,0,0,1,.67.24q0-.24.18-.24v.42h-.66l.24.48h-.24c-.49,0-1-.52-1.51-1.57h-.24a2,2,0,0,1-.42,1.33h.24l1.08-.24q0,.48.66.48V116a.21.21,0,0,1-.24.24l.91,1.09v.24h-.24c-1.17-.52-1.75-1-1.75-1.33h-.24l-.42.24v-.66c-1.53,1.29-2.56,1.93-3.08,1.93v.66l.66-.42c.25,0,.53.3.85.91h-.18l-1.09-.25v.25l.18.42.42-.24c.33,0,.49.18.49.42l-.49.24q-.18,0-.18-.24l-.42.24-.48-.24a1.48,1.48,0,0,1-.66.24l-.18-.42q.06-.42.42-.42.06.42.42.42v-.24a2.29,2.29,0,0,1-.42-1.51H41.9l.18.42-.43.24q0-.36-.66-.66l-.42.18.24.48c0,.2-.22.42-.66.67l-.24-.49h.42v-.18h-.18c-.61.2-.91.42-.91.67v.6h.43V120h-.19l-.9-.66v.42h-.42v-1.33h-.24V118l1.08.24h.48v-.9q0-.42-.48-.42l-.18.42q.42.06.42.42h-.42q-.42,0-.42-.84h-.24L37.92,118a1.51,1.51,0,0,0-.85-.24v-.18l.18-.48h-.18q-.3,0-.66.66.18,0,.18.24h-.18l-.42-.24c0,.88-.16,1.33-.48,1.33v-.43l.24-.42h-.42v.42h-.67A.58.58,0,0,0,34,118a1.48,1.48,0,0,1-.66.24V118a1.59,1.59,0,0,0,.24-.9,1.79,1.79,0,0,1-1.15-.43c0,.17-.06.25-.18.25l.42,1.32H32q-.42,0-.42-.48v-.42a2.35,2.35,0,0,0,.84-1.51q.48,0,.48.66h.18v-.24a3.63,3.63,0,0,1-.42-1.32H32l.42.66v.24h-.66v-.48h-.18v1.32h-.24c0-.2-.23-.48-.67-.84l.49-.24c0-.6-.39-.9-1.15-.9v-.43h1.15V114l-.25-.42-.42.24h-.24a2.07,2.07,0,0,0,.42-.66h-.42v.42H30c-.36,0-.78-1-1.27-3.07q-.48,0-.48-.18l-.42.18h-.24v-.43l-.66.43a.16.16,0,0,0-.18-.18l.18-.49v-.18h-.18v.42h-.49v-.42h-.42a1.91,1.91,0,0,1-.18.67,1.4,1.4,0,0,0-.66-.25v-.42a1.64,1.64,0,0,0,1.08-.48,1.49,1.49,0,0,0,.85.24v-.24l-.18-.42-.49.24H26.1v-.66l-.42.24v-.24l.18-.43.42.18h.24l-.24-.42a.21.21,0,0,0,.24-.24l1.09.24h.24v-.24a3.74,3.74,0,0,1-1.57-.84.16.16,0,0,1-.18.18,1.49,1.49,0,0,1-.24-.6l.24-.49V105a.37.37,0,0,0,.42-.42l-.66-.42H25.2v.42l.48-.24.18.48V105h-.18q-.24,0-.24-.18L25,105h-.24v-.18l.24-.48c-.24,0-.47-.28-.67-.85a2.28,2.28,0,0,0,.18-1.08c-.12,0-.18-.3-.18-.91l.43.25c.6-.25.9-.47.9-.67l-.48.24h-.42c-.29,0-.43-.22-.43-.66h-.24l-.66.42-.66-.9.48-.18q0,.66.42.66a1.82,1.82,0,0,0,.18-.66h.48v.42h.43V100l-.43-.67H25l-.24-.42a.21.21,0,0,1,.24-.24l-.24-.42q.06-.48.42-.48h.24q0,.48.24.48a1.49,1.49,0,0,1,.6-.24,2,2,0,0,1-1.08-1.75.21.21,0,0,0,.24-.24.37.37,0,0,1-.42-.42h.42l.66.42h.18a2.31,2.31,0,0,0-1.5-2.17l-.25-.42c0-.24.31-.55.91-.91a1.48,1.48,0,0,1-.24-.66h.24l.84.24-.42-.66h.42v-.24c-.4,0-.6-.37-.6-1.09q.18,0,.18-.24h-.42v.9H25a1.5,1.5,0,0,0-.49-.9c.81-.72,1.33-1.09,1.57-1.09v-.18h-.66V89L25,88.79l.18-.42V88h-.42a11.19,11.19,0,0,0,.66-1.75V86H25.2c0,.32-.36.6-1.09.85v.24h-.66a.37.37,0,0,1-.42-.43q.54,0,1.5-1.56l-1.08-.67a2,2,0,0,0,.24-1.08h.42V84h.24v-.84h-.48v-.48c.6,0,.91-.22.91-.67h-.25l-.84.67h-.42c0-.28.2-.43.6-.43v-.66h-.42V82h-.66c0-.2-.29-.56-.85-1.08v-.42h.42v.42h.25v-.42a.22.22,0,0,1-.25-.25,2.59,2.59,0,0,1,1.09-.18l-.18-.48-.48.24-.43-.24a.21.21,0,0,1-.24.24.58.58,0,0,0-.66-.66v-.24q0-.3.66-.6l-.18-.49.67-1.32a1.81,1.81,0,0,1-.67-.18l.18-.43v-.24c-.28,0-.42.22-.42.67-.28,0-.42-.22-.42-.67a.58.58,0,0,1,.66-.66v-.24H21.7A1.48,1.48,0,0,1,21,75c-.28-.92-.65-1.43-1.09-1.51q0,.18-.24.18a.16.16,0,0,0-.18-.18,1.82,1.82,0,0,0,.18-.66H20l.43.18.24-1.08c-.21,0-.43-.22-.67-.67l.24-.42a.21.21,0,0,1-.24-.24l.43-.18c0-.36-.45-.8-1.33-1.33a.21.21,0,0,0,.24-.24l.42.24h.48q0-.42-.48-.42l.24-.48V68h-.24a1.82,1.82,0,0,1-.66.18V68a1.79,1.79,0,0,0,.24-.91v-.24q-.66,0-1.08-.84h.24q.18,0,.18.24l.42-.24h.48l.42.24v-.48a1.32,1.32,0,0,1-1.5-1.33v-.18h.18a.58.58,0,0,0,.66.66v-.24a1.48,1.48,0,0,1-.24-.66l-.42.24-.85-.9.43-.18h.24v.42h.18v-.24a2.57,2.57,0,0,1-.42-1.09,1.79,1.79,0,0,0,.24-1.08,1.18,1.18,0,0,1-1.33-1.33h-.24v.24a1.48,1.48,0,0,1,.24.84l-.48.25h-.18l.18-.43v-.24q0-.24-.18-.24a2.51,2.51,0,0,0,.18-1.08l.66.42h.48L17.3,59c.16,0,.24-.06.24-.19h-.9v.43H16V59c0-.21.51-.57,1.51-1.09v-.18a1.64,1.64,0,0,0-1.08-.48V57l.18-1.09h-.42v.85h-.67v-.25l.48-.6a1.48,1.48,0,0,1-.24-.66,1.51,1.51,0,0,1,.85-.24v-.42h-.18l-.91.66h-.66L16,54.37v-.24q-.48,0-.48-.84h-.18V54h-.48a.58.58,0,0,0-.66-.66v-.42q1.2.18,1.32.18h.24v-.18c-.28,0-.42-.16-.42-.49H14.23q.24-.84.9-.84v-.66l-.42.24a.42.42,0,0,1-.48-.48c.16-.45.32-.67.48-.67a.58.58,0,0,0-.66-.66l.18-.42h-.85v.9h-.24a1.61,1.61,0,0,0-.42-.9q.06-.42.42-.42a.21.21,0,0,0,.24.24.21.21,0,0,1,.24-.24v.24l.43-.24.66.42.18-.42v-.24L13.8,47.8a1.48,1.48,0,0,1-.66.24V47.8q0-.3.66-.66c0,.16.08.24.25.24V46.9h-.43v-.42h.85a1.47,1.47,0,0,1-.24-.67,6.65,6.65,0,0,1-1.75.49l-.18-.49.66-.42h.18l.48.24c0-.32.18-.48.43-.48a1.4,1.4,0,0,1-.25-.66l-.42.24L13,44.49a.58.58,0,0,0-.66.66h-.24V44.07a.22.22,0,0,1,.24-.25,1.48,1.48,0,0,1-.24-.84l-.67.42h-.18c0-.2.28-.48.85-.84q0,.18.24.18v-.66c-.61,0-.91-.22-.91-.67h.24l.43.24.66-.84v-.24l-.42-.66.42-.67V39h-.24v.48c-.24,0-.66-.62-1.27-1.74l.18-.49q-.18-.66-.42-.66l-.9.48-.18-.48a1.86,1.86,0,0,0,.18-.84q-.42,0-.42-.24a1.51,1.51,0,0,0,.24-.67c-.41,0-.71-.58-.91-1.75H9.4v-.84L9,32.43c-.16,0-.52-.5-1.08-1.51a2.49,2.49,0,0,0,.42-1.08L7.9,29.6c0,.88-.22,1.32-.67,1.32v-.24L7.66,30c-.57,0-.85-.14-.85-.42v-.66c-.6,0-.9-.23-.9-.67v-.18h.42v.42q.9-.36.9-.66-.42,0-.42-.66L7,26.77a1.91,1.91,0,0,1-.18-.67l-.48.18a.37.37,0,0,0-.42-.42l-.18.42.18.49H5.73a.44.44,0,0,1-.49-.49l.67-1.08V25l-.42.18-.43-.85c.29,0,.43-.16.43-.48-.73,0-1.09-.2-1.09-.6V23c.44-1.53.66-2.33.66-2.41-.32,0-.48-.14-.48-.43a1.86,1.86,0,0,1-.84.19l.66.9v.18H3.92V21H3.5v.66c-.2,0-.43-.22-.67-.66.24,0,.47-.22.67-.66A4.6,4.6,0,0,1,2,19.53l.18-.48.48.24h.18l-.66-.84V18l.9-.18-.42.67a.16.16,0,0,1,.18.18,2.56,2.56,0,0,1,1.09-.18l-.42-.67a.21.21,0,0,0,.24-.24c-.36,0-.67-.3-.91-.9H2.65v-.18c0-.28.18-.43.42-.43v.43h.25v-.91a1.86,1.86,0,0,1-.67-.18q0,.18-.24.18v-.18a.21.21,0,0,1,.24-.24l-.66-2a1.82,1.82,0,0,0,.18-.66A.16.16,0,0,1,2,12.3l.42-.24.66,1.32A.37.37,0,0,0,3.5,13c-.2,0-.49-.42-.85-1.14v-.19h.42v-.24H2.65a.21.21,0,0,1-.24.24l-.24-1.08H3.32v-.24c-.45,0-.67-.14-.67-.42h.18l.49.18.18-.42c0-.37-.28-.59-.85-.67A4.15,4.15,0,0,1,3.5,7.23V7l-.43.24-.24-.42c.45,0,.67-.3.67-.9q.42,0,.42.66H4.4V5.91h.42v.42h.24V6.15a1.48,1.48,0,0,1-.24-.66.37.37,0,0,0,.42-.43V4.82l-.42.24a1.48,1.48,0,0,0-.24-.66q.48,0,.48-1.08a1.91,1.91,0,0,0,.67.18v.24l-.24.42h.24a.37.37,0,0,0,.42-.42L5.91,2.65h.24L7,3.5V2.65c.48,0,.87-.52,1.15-1.56A2.49,2.49,0,0,0,9.22.9a1.87,1.87,0,0,0,.67.19l-.24.42h.66V1.09L10.07.66H11c0-.28.28-.42.85-.42q0,.18.24.18ZM2,7.9q.42.06.42.42H2Zm.66-4.58v.42H2.17A.49.49,0,0,1,2.65,3.32Zm0,18.14h.42v.9a1.52,1.52,0,0,0-.66.25v-.25A1.59,1.59,0,0,0,2.65,21.46ZM2.83,5.24h.49v.49H2.83Zm0,8.56v1.09h.24V13.8Zm0,6.15h.24a2,2,0,0,1,1.33-.42v-.24q-.9,0-.9-.66C3.26,18.63,3,19.07,2.83,20ZM3.32,4.82h.42v.24H3.32Zm.42,19.05h.42q0,.36-.66.66H3.32v-.18Q3.38,23.87,3.74,23.87ZM3.5,7.66v.48h.42a.42.42,0,0,0,.48-.48V7.47H4.16A1.69,1.69,0,0,1,3.5,7.66Zm0,6h.42v-.48A.44.44,0,0,0,3.5,13.62Zm.42-8.56H4.4v.18H3.92Zm0,1.75v.42h.24V6.81Zm.48,18q.3,0,.66.66v.24q-1.14-.3-1.14-.66Zm-.48,4.58H4.4v.48H3.92ZM4.4,17.3v.48h.18V17.3Zm1.33,6.15v.66h.42a1.48,1.48,0,0,1-.24-.66Zm.6.66-.18.42c0,.33.18.49.42.49a1.55,1.55,0,0,1,.24-.67ZM6.15,29.6h.42v.24H6.15ZM6.81,1.75A1.48,1.48,0,0,0,7.47,2v.18H6.33A.49.49,0,0,1,6.81,1.75Zm-.24,29.6H7v.24H6.57Zm.66-2.84v.24a2.57,2.57,0,0,1,1.09.43v-.43l-.18-.48A1.79,1.79,0,0,1,7.23,28.51Zm0,.67v.42h.43A.37.37,0,0,0,7.23,29.18ZM7.47,2.83v.24H7.9V2.83Zm0,25v.42h.19v-.42Zm.19,3.32q.48.06.48.42H7.66Zm.9,2.41V34H8.14Q8.2,33.58,8.56,33.58ZM8.32,2.41v.42a.37.37,0,0,0,.42-.42Zm0,30h.42v.48H8.32Zm.42,2.9V36H8.32v-.24Q8.38,35.33,8.74,35.33Zm-.18-5.07a1.82,1.82,0,0,1,.18.66H9V29.84Q8.56,29.9,8.56,30.26Zm0,4.16H9v.42H8.56Zm.18-2.83v.18h.48v-.18ZM9.4,36h.25v.42H9Q9,36,9.4,36Zm0-5.73v.42h.25v-.42Zm.49,2.41v.42h.18v-.42Zm0,1.51q.06.48.42.48v-.48Zm0,8.38h.42V43H9.89Zm.18-7.72v.24a1.68,1.68,0,0,1,.48,1.09h.66c-.4-.88-.7-1.33-.9-1.33Zm0,5.31h.48v.42h-.48Zm0,1.26h.24a.49.49,0,0,1,.42.49l-.42.18-.24-.43Zm.24-4.34H11v.43h-.24A.38.38,0,0,1,10.31,37.07Zm.24-4v.25a.37.37,0,0,0,.42-.43v-.24Q10.55,32.73,10.55,33.09Zm0,5.31h.84a.37.37,0,0,0,.43.42V39c0,.24-.21.46-.61.67H11l.42-.67a1.86,1.86,0,0,0-.84-.18Zm.18,7.9h.48v.18h-.48ZM11,35.08v.25h.42v-.25ZM11.21.9v.61h.42l.19-.85A1.57,1.57,0,0,1,11.21.9Zm0,32.68v.6h.18v-.6Zm.18,8.5h.43v.48h-.43Zm.24-2.41c.2,0,.43.22.67.66h-.24a.37.37,0,0,1-.43-.42ZM12.3.42V.9q.42,0,.42-.48Zm.42,43.22a1.47,1.47,0,0,1-.24.67h.24l.42-.67Zm0-.42v.18h.42v-.18Zm.9.18v.42h.18V43.4Zm.43,5.91v.24a.38.38,0,0,1-.43.42v-.18C13.66,49.47,13.8,49.31,14.05,49.31ZM14.23,45v.42h.24V45ZM14.47.42h.42V.66h-.42Zm0,53.53h.42v.42h-.42Zm.9,4.58h.18V59h-.18Zm.66-.66h.43v.48C16.18,58.35,16,58.19,16,57.87Zm.19-.42h.42q.48.06.48.42h-.48A.37.37,0,0,1,16.22,57.45Zm.66-1.33V57h.24v-.91Zm.42,8.56a.21.21,0,0,1,.24.24l.42-.24h.25v.67a.38.38,0,0,1-.43.42,1.58,1.58,0,0,0-.48-.85Zm.24-3.31a.49.49,0,0,1,.42.48h-.42Zm.67-2.17a1.64,1.64,0,0,1-.43.9l.43.18.24-.42V59.2Zm-.43,7.23h.43a4.89,4.89,0,0,0,.24.9c-.24,0-.47-.22-.67-.66Zm0,2,1.09.24v.84h-.24a1.82,1.82,0,0,0-.18-.66l-.49.24h-.18ZM18,58.11v.66h.25v-.66Zm.25-55v.25h.66V3.07Zm.66,69.27h.18v.48h-.18Zm.18-9.65v.49h.24v-.49Zm.24-58.53v.42h.42A.37.37,0,0,0,19.29,4.16Zm0,66.91q.42.06.42.42l-.42.18Zm0,7.66h.24v.42h-.24Zm.24-7.06h.18v.49h-.18Zm0,3.32H20v.24h-.42ZM20,5.24v.25h.67V5.06A1.91,1.91,0,0,1,20,5.24Zm.24,69.33c.29,0,.43.18.43.42h-.43Zm0,7.23h.19v.42h-.19Zm.19-10.73v.18h.48v-.18Zm.24-1.32a1.48,1.48,0,0,1,.24.84,1.38,1.38,0,0,1,.84-.42v-.24Zm0,3.73v.18H21v-.18Zm0,4.34h.24v.49h-.24Zm0,20.62H21v.48Q20.62,98.92,20.62,98.44Zm.24-25.86v.66h.42a1.48,1.48,0,0,1-.24-.66ZM21,3.32h.42V3.5H21Zm0,67.93v.42h.24v-.42Zm0,5.91h.42v.48H21Zm0,2h.42v.24H21Zm0,4.16h.42v.24H21Zm.24-76.08v.43h.18V7.23Zm0,73.91h.42a5,5,0,0,0,.24.84Q21.58,82,21.28,81.14Zm.18,7.23q.48.06.48.42h-.48Zm.66.42v.43H21.7C21.74,88.94,21.88,88.79,22.12,88.79Zm-.18-77v.48q.42,0,.42-.48Zm0,4.82v.24h.42v-.24Zm.85,58.59a.37.37,0,0,1-.43.42v.24h.43l.24-.48v-.18ZM22.36,88h.43v.84h-.43Zm.25-73.24a1.82,1.82,0,0,0,.66.18v.48H23q-.42,0-.42-.48Zm.18,69.68h.66c0,.25-.22.47-.66.67h-.18A1.81,1.81,0,0,0,22.79,84.39ZM23,94.7v.48h-.42Q22.67,94.7,23,94.7ZM23.27,96v.24q0,.42-.48.42h-.18Q22.61,96.39,23.27,96Zm-.48-13.14h.48a1.82,1.82,0,0,0,.18.66l-.42.24-.24-.48q.24,0,.24-.18A.21.21,0,0,1,22.79,82.89ZM23,21.94v.67h.24v-.67Zm0,54.8v.66h.24v-.66Zm0,13.38q.42.06.42.42H23Zm.42,8.8.24.42H23Q23.09,98.92,23.45,98.92ZM23,109.41h.24v.42H23Zm.24-89.22v.43h.18v-.43Zm0,.67v.42h.42A.37.37,0,0,0,23.27,20.86Zm0,59.86v.66q.42,0,.42-.48Zm.42,16.39a1.86,1.86,0,0,0,.18.67l-.42.24-.18-.42C23.31,97.27,23.45,97.11,23.69,97.11ZM23.87,89v.18q0,.48-.42.48v-.24Q23.51,89,23.87,89Zm-.42,2.83.42.24.48-.24.18.42v.24H23.45Zm.42,15.55.24.48-.42.18h-.24v-.18Q23.51,107.42,23.87,107.42Zm0,2.9v.42h-.42Q23.51,110.32,23.87,110.32Zm-.18-11.88h.42a1.78,1.78,0,0,0,.24.9h-.24a.37.37,0,0,1-.42-.42Zm0,5.49h.42a6,6,0,0,0,.24.9h-.24q-.42,0-.42-.48Zm.18-88.56h.48v.18h-.48Zm0,11.15v.25a1.82,1.82,0,0,1,.66.18v-.43Zm0,61.61h.48v.24h-.48Zm0,1.57q.48.06.48.42h-.48Zm.24-71.07h.42v.66a.37.37,0,0,1-.42-.42Zm0,72.4h.42v.42h-.42Zm.24,4.58h.43a.38.38,0,0,1-.43.42Zm.18-12.72v.42h.25v-.42Zm.25,2.17a1.52,1.52,0,0,1-.25.66h.25a.37.37,0,0,0,.42-.42Zm-.25,21.28c.33,0,.49.18.49.42V107c-.33,0-.49-.14-.49-.42ZM24.78,84q.06.42.42.42V84Zm0,11H25v.43h-.24Zm.42,7.66-.42.66.24.48a1.48,1.48,0,0,1,.66-.24v-.42A.42.42,0,0,0,25.2,102.6Zm0,3.31.66.85-.42.24a.58.58,0,0,0-.66-.66C24.82,106.06,25,105.91,25.2,105.91Zm0,5.67h.24q0,.48-.42.48h-.24Q24.84,111.58,25.2,111.58ZM25,12.48h.42V13H25Zm0,7.9h.18v.48H25Zm0,86.86h.18q.48.06.48.42h-.24A.37.37,0,0,1,25,107.24Zm.18-76.56v.24h.66v-.24Zm0,62.76V94h.24v-.6Zm0,6.08V100h.24v-.49Zm.66-80.89v.66h-.42v-.24Q25.5,18.63,25.86,18.63Zm-.18,80.71v.18h.42v-.18ZM25.86,93v.49h.24V93Zm0,3.5v.24h.42v-.24Zm0,2v.48h.24v-.48Zm0,3.74v.42h.42A.37.37,0,0,0,25.86,102.18Zm0,10.06h.42v.49h-.42Zm0,2.42h.42v.48Q25.86,115.14,25.86,114.66Zm.24-86.15h.42c0,.57.14.85.43.85v.48h-.18C26.32,29.68,26.1,29.24,26.1,28.51Zm0,82.23h.42l.25.84c-.21,0-.43-.2-.67-.6Zm.18-9.89v.24c.32,0,.49-.14.49-.42v-.24C26.44,100.47,26.28,100.61,26.28,100.85ZM26.52,94v.48c.28,0,.43-.16.43-.48Zm.25,11-.25.48.67.42.24-.42Zm-.25,3.56h1.09l-.18,1.08h.84c-.2-.88-.56-1.4-1.08-1.57H27A.45.45,0,0,0,26.52,108.57Zm.91-77.89.18.49a6.75,6.75,0,0,1-.84.18C26.77,31.15,27,30.92,27.43,30.68Zm-.66,73.49v.42H27v-.42ZM27,32h.48v.24H27Zm.24,79.39h.42v.42h-.42Zm.24-70.59v.42h.18v-.42Zm0,65.77V107h.18v-.42Zm.66,10.49v.48h-.48Q27.67,117.07,28.09,117.07Zm-.24-82.65h.66v.42h-.24A.37.37,0,0,1,27.85,34.42Zm0,6.57v.24a1.82,1.82,0,0,1,.66.18v-.18L28.09,41Zm.42,71.74h.24v.42a1.48,1.48,0,0,0-.66.24v-.24Q27.91,112.73,28.27,112.73Zm0-2c.2,0,.42.22.67.66-.29,0-.43.18-.43.42.28,0,.43.18.43.42l-.43.25a.37.37,0,0,0-.42-.43Zm-.18,5.72h.42v.43h-.42Zm.66-72.82a1.31,1.31,0,0,1-.48.85c.24,0,.54.22.91.66h.18v-.42l-.18-1.09Zm-.48,69.93h.67V114h-.19Q28.27,114,28.27,113.57Zm.24-67.94v.18h.43v-.18Zm.43,70.17h.42v.42h-.42ZM29.18,16h.42v.19h-.42Zm0,24.3h.18v.48h-.18ZM29.36,48v.43h.24V48Zm.48,65.53v.24q0,.42-.48.42V114A.49.49,0,0,1,29.84,113.57Zm-.48,1.33q1,.42,1.14.9v.42a1.83,1.83,0,0,0-1.14-.42Zm.24-72.58H30a.37.37,0,0,1-.42.42Zm.24,69.26v.48H30v-.48Zm0,.91v.42a.37.37,0,0,0,.42-.42Zm.66-70.84v.43H30A.44.44,0,0,1,30.5,41.65ZM30,50.21v.25h.48v-.25Zm.24,66.43h.42v.25h-.42Zm.24,3.08h.42V120H30.5Zm.67-84.64h.42v.25q0,.18-.24.18l.24.48v.18h-.42Zm.18,13.15a1.48,1.48,0,0,0,.66.24v.42h-.24l-.42-.18a.16.16,0,0,1-.18.18v-.18Zm-.18,64.26v.24h.42v-.24Zm.6-54.14v.42H32v-.42ZM32.25,52h.42v.42h-.42Zm.18,4v.6h.91a1.41,1.41,0,0,1-.25-.6Zm0,1.75v.42q.48,0,.48-.42Zm.48-4.82h.43v.42h-.43Zm0,61.36v.43h.18v-.43Zm.18-59.43h.49v.48A.43.43,0,0,1,33.09,54.8Zm0,4a1.54,1.54,0,0,1,.25.85h.24A.37.37,0,0,1,34,59.2a1.51,1.51,0,0,1-.24-.67A1.51,1.51,0,0,1,33.09,58.77Zm.49-.9v.48H34Q34,57.87,33.58,57.87ZM34,116.46a1.85,1.85,0,0,1,.18.61h.48v-.18c0-.29-.16-.43-.48-.43Zm.18.85v.42q.48,0,.48-.42Zm.48-52.87v.48h.18v-.48Zm.42,3.32v.42h.25v-.42Zm.25,52.38h.42v.48Q35.33,120.62,35.33,120.14Zm.42,1.57H36q0,.42-.48.42h-.18C35.36,121.85,35.51,121.71,35.75,121.71ZM36,63.18h.18v.18q0,.48-.42.48l-.24-.48Zm-.48,3.67v.24c0,.2.22.43.66.67l-.18.42v.24h.18q0-.42.24-.42C36.21,67.31,35.91,66.93,35.51,66.85Zm.24-1.26h.42v.18h-.42ZM36,59.86h.42a.37.37,0,0,1-.42.42Zm.6,1.33v.42h-.42Q36.23,61.19,36.59,61.19Zm0,9.64v.42h.24v-.42Zm0,2.83v.25c.32,0,.48-.14.48-.43v-.24Q36.59,73.3,36.59,73.66Zm.24,44.73h.24v.49h-.24Zm.42.49v.18a.37.37,0,0,1-.42.42v-.18Q36.89,118.88,37.25,118.88Zm.25-46.06V73a1.64,1.64,0,0,1,1.08.48h.24v-.24a.37.37,0,0,1-.42-.42Zm0,.66v.43h.24v-.43Zm1.08-2.23a.16.16,0,0,0-.18-.18v.42l-.48-.24h-.18v.42h1.08v-.42H39l.48.24c0-.16.06-.24.19-.24a.21.21,0,0,0,.24.24v-.66Zm-.66-3.49a1.48,1.48,0,0,0,.66.24v.42a1.48,1.48,0,0,0-.66.24Zm0,52.62h.48v.24c0,.28-.16.43-.48.43Zm.9-53.53v.67H38.4v-.19Q38.46,66.85,38.82,66.85Zm-.24,7.06v.18H39v-.18Zm.24-7.66h.42a.37.37,0,0,1-.42.42Zm.42,8.32a1.6,1.6,0,0,1-.42.84v.24h.66l-.24-.42V75h.43A.38.38,0,0,0,39.24,74.57ZM39,70.17v.42h.48v-.42Zm0,50.45h.67a.39.39,0,0,1-.43.43H39Zm.24-48.46v.18a.38.38,0,0,0,.43-.42v-.25C39.38,71.76,39.24,71.92,39.24,72.16Zm.24-8.8h.67v.24q0,.42-.48.42l-.19-.42Zm0,2.23h.43V66A.37.37,0,0,1,39.48,65.59ZM39.91,73l-.43.66h.19a.49.49,0,0,1,.48-.42q0,.24.18.24v-.24Zm0-.42h.42l.24-1.09C40.33,71.49,40.11,71.86,39.91,72.58Zm0,1.75v.42h.42v-.42Zm.66,42.31a.59.59,0,0,1-.66.67q.06.42.42.42l.66-1.09Zm-.24-55.88c.32,0,.48.18.48.43l-.48.18Zm.9,1.09.18.42H41v.24h.24a1.47,1.47,0,0,1,.67-.24q0,.24.18.24a.21.21,0,0,1,.24-.24v.24a.37.37,0,0,1-.42.42,1.55,1.55,0,0,0-.67-.24c0,.32-.14.49-.42.49l-.24-.49Q40.87,61.85,41.23,61.85Zm-.66,2.41H41v.42h-.42Zm.84,55.22c.32.08.49.24.49.48a.59.59,0,0,0-.67.66,1.48,1.48,0,0,0-.66-.24v-.24Q40.87,120.14,41.41,119.48ZM41,25h.24v.42H41Zm0,33.09h.42a.37.37,0,0,1-.42.42Zm0,11v.18a1.55,1.55,0,0,1,.24.67.21.21,0,0,0-.24.24,1.48,1.48,0,0,1,.66.24h.25v-.24c-.45,0-.67-.36-.67-1.09Zm0,5.49v.66h.24v-.66ZM41.23,59h.42v.24h-.42Zm0,1.14h.42v.42h-.42Zm.18,8.56a.49.49,0,0,0,.49.42h.18a.37.37,0,0,0-.43-.42Zm0,3v.25h.49v-.25Zm.49-13.8h.42v.24a.37.37,0,0,1-.42.42ZM42.08,59h.48v.24q0,.42-.48.42H41.9A1.82,1.82,0,0,0,42.08,59Zm0,61.42h.48v.42Q42.08,120.8,42.08,120.38Zm.48.67H43v.24a.37.37,0,0,1-.42.42q-.48,0-.48-.42ZM42.32,54.8h.42a.42.42,0,0,0,.48.48v.42H43q-.3,0-.66-.66ZM42.56,52h.18q.48.06.48.42v.91C42.9,53.29,42.68,52.85,42.56,52Zm.18,11.88v.42H43v-.42Zm0,5v.42H43v-.42Zm.66-19.05h.24v.42a1.52,1.52,0,0,0-.66.25v-.25Q43,49.79,43.4,49.79Zm0-5.3h.24c.28.08.43.24.43.48v.18c0,.32-.15.48-.43.48H43.4v-.24a.21.21,0,0,1,.24-.24l-.24-.42Zm0,20.19v.42h.24v-.42Zm.24-5.24v.42h.18v-.42Zm0,2.59v.66h.18a1.4,1.4,0,0,1,.25-.66Zm0,58.35c.28,0,.43.18.43.42h-.43Zm.43-77.82h.42a.37.37,0,0,1-.42.42Zm0,6.33h.42v.24a.37.37,0,0,1-.42.42Zm0,16v.43h.24v-.43Zm0,52.63h.42V118h-.42Zm.66-66.91-.42.66.42.66q-.42.06-.42.42H45l-.24-1.08a.37.37,0,0,0,.42-.42Zm-.42,9.22v.42h.18v-.42Zm0,2.41v.24h.42v-.24Zm0,51.12v.18h.42v-.18Zm.18-75.65H45v.42Q44.49,38.16,44.49,37.74Zm0,18.8V57h.24v-.49Zm0,59.44v.48H45A.42.42,0,0,0,44.49,116Zm0,5.31H45v.42h-.48Zm.24-68V54a.37.37,0,0,0,.42-.42v-.24Zm.24,64a1.48,1.48,0,0,0,.66.24q0,.3-.66.66l-.24-.48Zm0-3.5v.42h.66a1.82,1.82,0,0,1,.18-.66h-.18A1.48,1.48,0,0,1,45,113.81Zm0,.85v.24h.66v-.24Zm0,4.22q.42.06.42.42l-.42.18Zm.66,1.26v.24q0,.42-.48.42H45Q45,120.5,45.63,120.14Zm-.48-84.63h.48V36h-.48Zm0,15v.18h.48v-.18Zm.24-3.08v.42h.24v-.42Zm0,3.74v.18h.42v-.18Zm0,64v.18h.42v-.18ZM45.63,45v.42h.18V45Zm0,72.76h.85v.66h.24l.42-.18v.18c0,.2-.22.43-.66.67a.37.37,0,0,0-.42-.43.23.23,0,0,1-.25.25l-.18-.49Zm.18-89.46h.25v.48h-.25Zm0,91.45h.49v.66h-.49Zm.49-81.8.18.48-.18.42.42.18V37.92Zm0,5.72v.18h.42v-.18Zm.18-6.57v.18h.42v-.18Zm.66-14.28h.42q0,.48-.42.48h-.42Q46.78,22.79,47.14,22.79Zm.24,1.74a1.81,1.81,0,0,0,.18.67q-.42,0-.42.48l-.42-.24C46.92,24.84,47.14,24.53,47.38,24.53Zm-.24,11.64a.37.37,0,0,1-.42.42v.24h.42a1.48,1.48,0,0,1,.66-.24.37.37,0,0,0-.42-.42ZM46.9,15.55h.48v.24H46.9Zm0,2.66q.48.06.48.42H46.9Zm0,16.21v.42h.24v-.42Zm0,5.73v.18h.48v-.18Zm0,1.08v.85h.48a1.51,1.51,0,0,1-.24-.85Zm0,1.51V43h.48v-.24ZM47.14,11h.42v.24h-.42Zm0,22.37v.42h.42v-.42Zm0,4.58v.48q.42,0,.42-.48Zm0,76.07v.24h.42V114Zm0,5.07h.66c.28,0,.43.18.43.42s-.15.48-.43.48Zm.9,1.32.19.42c0,.16-.06.25-.19.25l.19.42c-.21.6-.43.9-.67.9l-.42-.9C47.42,120.82,47.72,120.46,48,120.38ZM47.38,18.63h.42v.42h-.42Zm.18,12.54-.18.42A2.07,2.07,0,0,1,48,32v-.42Q48,31.17,47.56,31.17Zm0-22h.24v.43h-.24Zm0,10.31h.67V20a.39.39,0,0,1-.43.43L47.56,20a.21.21,0,0,0,.24-.24Q47.56,19.71,47.56,19.53ZM47.8,21l-.24.42.48.24.19-.42Zm-.24,13.62v.42H48Q48,34.66,47.56,34.66Zm0,.85V36h.24v-.48Zm.24,5.72v.42H48v-.42Zm0,72.16v.42H48v-.42ZM48,15.79V16h.43v-.24Zm0,12.3c0,.28.19.42.43.42v-.42Zm0,84.64v.42h.43v-.42Zm.19-95.43v.24h.48V17.3Zm0,6.81a1.51,1.51,0,0,1,.24.67.37.37,0,0,0,.42-.43l-.42-.24Zm0,3.5v.24h.48v-.24Zm.66-16.22a1.64,1.64,0,0,1-.42.91l.42.18a.37.37,0,0,0,.42-.42,1.86,1.86,0,0,1-.18-.67ZM48.47,13v.18h.42V13Zm.24.66v.43h.18v-.43Zm0,.85.18.42a1.82,1.82,0,0,1,.66-.18v-.24Zm0,95.85v.18h.42v-.18Zm0,10.48h.18l1.08.25v.42a.37.37,0,0,0-.42.42h-.42a.37.37,0,0,1-.42-.42Zm1.93-1.32.48.66v.48c0,.28-.16.43-.48.43h-.18c-.89-.41-1.33-.71-1.33-.91A3,3,0,0,1,50.64,119.48ZM49.31,94.7q.12.48.48.48V94.7ZM50,115.56v.24l-.42.66c.44,0,.66.14.66.43q-.24,0-.24.18a1.82,1.82,0,0,0-.66-.18v-.67Q49.31,115.92,50,115.56Zm-.66,2h.48q0,.42-.48.42Zm.48-107.9-.24,1.08H50V9.65Zm-.24,97.11V107H50v-.24ZM50,118.21l.49.18a.16.16,0,0,1,.18-.18l.48,1.09-.48.18c0-.56-.22-.85-.67-.85,0,.16-.06.25-.18.25l-.24-.49ZM49.79,89v.42H50V89Zm0,.84v.48H50v-.48ZM50.21,91v.42h.25V91Zm0,2.83v.42h.25v-.42Zm0,19.71V114h.25v-.42Zm0,1.09h.43v.66a.37.37,0,0,1-.43-.42Zm.25-18v.24h.66v-.24Zm0,2q.06.42.42.42a.37.37,0,0,1,.42-.42v-.42A1.6,1.6,0,0,1,50.46,98.68Zm.18,4.82v.43h.24v-.43Zm.48-8.8a.21.21,0,0,1-.24.24l.24.43v.24a.21.21,0,0,1-.24.24,1.49,1.49,0,0,1,.24.6h.18a1.76,1.76,0,0,1,.42-1.08C51.72,95.17,51.52,94.94,51.12,94.7Zm0-3.49v.24h.42v-.24Zm0,9v.24h.42v-.24Zm0,.66v.66h.18v-.66Zm.18-18.63c0,.29.18.43.42.43v-.43Zm.24,27.61H52l-.24.49v.84l1.15.24v.84h-.24a2.81,2.81,0,0,1-1.33-1.5A1.62,1.62,0,0,0,51.54,109.83Zm-.24,3.74h.42V114A.37.37,0,0,1,51.3,113.57Zm.42,2.23q.48.06.48.42a.21.21,0,0,1-.24.24l.24.43q0,.42-.48.42a.37.37,0,0,1-.42-.42v-.67Q51.36,115.8,51.72,115.8Zm-.18-35.32v.42h.18v-.42Zm.18,6.81-.18,1.08H52V87.29Zm-.18,9.64v.18a.37.37,0,0,0,.42-.42v-.24A.49.49,0,0,0,51.54,96.93Zm0,6.33v.24c0,.2.22.43.66.67l.18-.43v-.24A5,5,0,0,0,51.54,103.26Zm0,9.23H52v.42h-.42ZM52,6.15v.66h.24V6.15Zm0,95.36v.25h.42v-.25ZM52.87,114q.06.48.42.48a.21.21,0,0,1,.24-.24v.43h-.48l.24.48v.42A1.17,1.17,0,0,1,52,114.23,1.82,1.82,0,0,0,52.87,114ZM52.2,3.92h.43v.24H52.2Zm0,82v.42h.43V86Zm0,22.61v.18c0,.28.18.42.43.42l.24-.42A1.86,1.86,0,0,1,52.2,108.57Zm.18,4.34h.25v.66H52.2A1.82,1.82,0,0,0,52.38,112.91Zm0-31.53v.42h.25v-.42Zm.91,17.72h.42v.24c-.48,1-.84,1.51-1.08,1.51,0-.12-.08-.18-.25-.18l.25-.48-.25-.42Zm-.91,6.15h.67a.37.37,0,0,1-.42.42Zm0,.66h.91V107c-.6-.2-.91-.42-.91-.66Zm0,13.39h.25q.42.06.42.42v.66h-.18c-.32,0-.49-.14-.49-.42Zm1.33-36.17-1.08,1.51h.42c.08-.57.52-.85,1.32-.85Q54.37,83.43,53.71,83.13ZM52.87,82c0,.24.22.47.66.67V82Zm0,5.73h.18q.3,0,.66.66-.18,0-.18.24h.6v.18c-.36.89-.64,1.33-.84,1.33h-.24L52.87,89l.42-.25v.43h.24V89L52.87,88Zm.42,4.58v.48h-.42Q52.93,92.29,53.29,92.29Zm-.24-13.8v.24h.48v-.24Zm0,32.91h.24q.42.06.42.42a.37.37,0,0,1-.42.42l-.24-.42ZM53.29,6.15v.42h.24V6.15Zm.42,89.7H54v.42l.42-.24h.25v.24c0,.12-.09.18-.25.18l.25.48c0,.2-.23.42-.67.67h-.24c-.28,0-.42-.16-.42-.49v-.84Q53.35,95.85,53.71,95.85Zm0,9.64H54v.42a.37.37,0,0,1-.42.43,1.51,1.51,0,0,0-.24-.67Zm-.18,3.5H54v.18a1.89,1.89,0,0,0-.24.66l-.42-.18A1.48,1.48,0,0,0,53.53,109Zm.18,9.4c.2,0,.42.22.66.67l-.42.24h-.24a.37.37,0,0,1-.42-.42C53.33,118.55,53.47,118.39,53.71,118.39ZM53.53,5.49v.24H54V5.49Zm0,73.42v.48h.18v-.48Zm0,17.54v.24h.6v-.24Zm.18-10.25q.06.42.42.42h.24V86.2Zm0,12.72H54q.42.06.42.42h-.24A.37.37,0,0,1,53.71,98.92Zm0,1.51h.66v.42h-.66Zm0,.66h.42a7.59,7.59,0,0,1,.49,1.33l-.49.18A5.12,5.12,0,0,1,53.71,101.09Zm0,15.13H54v.42h-.24Zm.42,4.58h.24v.25a.37.37,0,0,1-.42.42l-.24-.42ZM54,70.41v.66a1.91,1.91,0,0,1,.67.18v-.18C54.62,70.83,54.39,70.61,54,70.41Zm.42,5.91q0,.66-.42.66v.42a.37.37,0,0,1,.42.42h1.57l-.24-.42-.42.24a1.79,1.79,0,0,0-.91-.24v-.24c0-.28.18-.42.43-.42h.48v.42q.3,0,.84-.84Zm0,31.76h.43v.49a.38.38,0,0,1-.43.42H54v-.42C54,108.25,54.13,108.08,54.37,108.08Zm0,2.42.25.48-.49.18-.18-.42ZM54,114.66h.42v.66H54Zm.18-15.14h1.15c.28.09.42.25.42.49v1.08c-1.05-.52-1.57-.88-1.57-1.08Zm.24-20.79v.66h1.09a1.61,1.61,0,0,1-.42-.9A1.51,1.51,0,0,1,54.37,78.73Zm0,19h.43V98h-.43Zm.25-16c.2,0,.48.28.84.85v.24H54.8ZM55,103.26l.24.48-.48.19-.18-.43Zm.42-22.54h.24v.42a.37.37,0,0,1-.42.42q-.48,0-.48-.42Zm.48,6.57L57,88c-.81,1.29-1.55,1.93-2.23,1.93v-.42a1.13,1.13,0,0,0,1.14-.85,2.31,2.31,0,0,1-.48-1.14Zm-.66,1.08V89H54.8v-.25A.49.49,0,0,1,55.28,88.37Zm-.48,16H55v.48H54.8ZM55,75v.9l1.08-.24Q56.12,75.29,55,75Zm0,16.64h.24q.3,0,.66.66a.42.42,0,0,1-.48.48q-.42,0-.42-.48Zm.24-21.88v.66q.3,0,.66-.66Zm0,43.64h.42v.42h-.42Zm.18-39.91v.61h.24v-.61Zm0,8.08h.48l.18,1.09v.24H55.7a.21.21,0,0,1,.24-.24A2.08,2.08,0,0,1,55.46,81.56Zm0,12.06h.48V94h-.48Zm.48,3.73a3.72,3.72,0,0,1,.42,1.33l-.42.24h-.48v-.48q.48-.54.48-.66h-.48A.44.44,0,0,1,55.94,97.35Zm0,18.63v.91h-.48v-.43Q55.52,116,55.94,116ZM55.7,68.42v.24q.06.42.42.42a1.61,1.61,0,0,1,.42-.9h-.18A1.48,1.48,0,0,1,55.7,68.42Zm.42,1.08v.43a.21.21,0,0,1,.24.24l-.42.24.18.42v.24l-.42.6.66.49h.43a1.64,1.64,0,0,1,.42-.91c-.57,0-.85-.14-.85-.42l.18-.42.49.18h.18v-.42c-.57,0-.85-.22-.85-.67ZM55.7,90.36h.42v.18H55.7Zm.24-9.22h.18q.42.06.42.42l-.42.24-.18-.42Zm.18,14.23a.44.44,0,0,1,.42.48v.42a1.49,1.49,0,0,0-.6-.24A1.82,1.82,0,0,0,56.12,95.37Zm0-28.94v.42h.42v-.42Zm0,1.09v.24H57v-.24Zm0,41.65h.42v.24h-.42Zm.24-35.26h.18c.33,0,.49.18.49.42v.24C56.83,74.57,56.6,74.35,56.36,73.91Zm.43,18H57q.42.06.42.42h-.24a.16.16,0,0,1-.18-.18l-.49.18h-.18C56.4,92,56.54,91.87,56.79,91.87Zm-.43,14.71h.18c.33,0,.49.18.49.42v.24h-.24c-.29,0-.43-.16-.43-.48Zm.43,1.5v.49h-.43C56.4,108.25,56.54,108.08,56.79,108.08Zm0,8.81.24.42v.24h-.67v-.24C56.4,117,56.54,116.89,56.79,116.89Zm-.25-20.62h.67v.42H57C56.7,96.69,56.54,96.55,56.54,96.27Zm0,4.58H57v.24h-.49Zm.67-35.26a.37.37,0,0,1-.42.42v.42h.42a1.48,1.48,0,0,1,.24-.66v-.18Zm0,44.73.24.42L57,111h-.24v-.24Q56.85,110.32,57.21,110.32Zm-.42,3.49h.42v.42A.37.37,0,0,1,56.79,113.81ZM57,64.44v.48h.42Q57.45,64.44,57,64.44Zm0,13.2h.18c.24,0,.46.22.66.67a.37.37,0,0,1-.42.42.37.37,0,0,0-.42-.42Zm0,3.74h.18q.48.06.48.42l-.48.18H57Zm.18-8.56h.48v.42h.42v-.42h.42l.24.84-1.32.67q0-.42-.24-.42l.24-.43A1.48,1.48,0,0,1,57.21,72.82Zm0,10.07q.48.06.48.42h-.48Zm.24-79.82V3.5a6,6,0,0,1,.9.24c0-.28.2-.42.61-.42V3.07h-.43l-.42.25A1.52,1.52,0,0,0,57.45,3.07Zm0,81.81h.42v.42h-.42Zm0,3.07h.9v.18a1.48,1.48,0,0,0-.24.66h-.24q0-.66-.42-.66Zm0,4.34h.24v.48h-.24Zm0,3.32h.42a1.32,1.32,0,0,0,.48.84h-.24a1.82,1.82,0,0,0-.66-.18Zm.24-28.94.18.42a1.91,1.91,0,0,0-.18.67h.42a1.82,1.82,0,0,1,.24-.91A1.82,1.82,0,0,1,57.69,66.67Zm0,22.79h.18v.42h-.18Zm0,.66h.18v.42h-.18Zm0,4.4h.42v.18h-.42Zm0,4.4h.42v.18h-.42Zm.18-39.3v.24h.48v-.24Zm0,3.74v1.32h.24a1.48,1.48,0,0,1,.24-.66,1.48,1.48,0,0,1-.24-.66Zm0,34.42h.48v.48h-.48Zm.9-35.51q0,.42-.66.42c0,.24.22.47.66.67,0-.45.14-.67.43-.67A.37.37,0,0,0,58.77,62.27Zm-.66,24.78h.42v.24h-.42Zm.24-18.21c.2,0,.4.22.61.66h-.19a.37.37,0,0,1-.42-.42Zm.18,3.5h.24v.48h-.24ZM59,75.89c0,.13.08.19.24.19a1.48,1.48,0,0,0-.24.66.37.37,0,0,1-.43-.42C58.57,76,58.71,75.89,59,75.89Zm-.43.85h.24v.42h-.24Zm0,3.49H59v.25h-.43Zm0,3.32h.24V84h-.24Zm.24-16.22h.43a1.47,1.47,0,0,0,.24.67H59.2c-.29,0-.43-.16-.43-.48Zm.43,12.06.24.42-.48.24-.19-.48Zm-.43,16.46h.43V96h-.43ZM59,61.37h.48v-.43C59.12,61,59,61.13,59,61.37Zm.66,21.52.24.42q-.42,0-.42.48H59v-.24Q59,83.25,59.62,82.89ZM59,111h.48v.42H59ZM59.2,94.7h.24a.49.49,0,0,1,.42.48l-.42.19-.24-.43Zm0,10.13h.42V105H59.2Zm0,7.23h.24v.43H59.2Zm.24-52.2v.42h.18v-.42Zm0,30h.42v.48h-.42Zm0,16.46h.42a.37.37,0,0,1-.42.42Zm.18-45.58h.48v-.48Q59.62,60.34,59.62,60.76Zm.24.43a1.48,1.48,0,0,1-.24.66h.48a1.82,1.82,0,0,1,.18-.66Zm-.24,1.32h.48V62Q59.62,62.15,59.62,62.51Zm0,5.91h.48v.24h-.48Zm0,3.07h.48v.43h-.48Zm0,3.5h.9l-.24.42a1.82,1.82,0,0,0-.66-.18Zm0,1.09h.66v.24l-.18.42q.42.06.42.42h-.24a1.82,1.82,0,0,0-.66-.18Zm0,10.3h.24v.43h-.24Zm0,4.83q.48.06.48.42l-.48.24Zm.24-24.12h.24v.43h-.24Zm.42,2.84q.48.06.48.48t-.48.42a.37.37,0,0,1-.42-.42Q59.92,69.93,60.28,69.93ZM60.1,57.87v.24h.42v-.24Zm.42-5v.42h.24v-.42Zm0,11.39h.42v.42A.37.37,0,0,1,60.52,64.26Zm0,39.48h.42v.19h-.42Zm.24-47.38v.43h.18a.38.38,0,0,0,.43-.43Zm.43,1.75-.43-.24v.66h.61q.48,0,.48-.42v-.42Zm-.43,7.66h.18v.48h-.18Zm0,4.82h.18c.25,0,.47.3.67.9h-.24c-.2,0-.41-.22-.61-.66Zm.85-17.54-.67,1.08h.91a6.38,6.38,0,0,0,.18-.84ZM60.94,63.6h.25V64h-.25Zm.25-6.39v.24h.42v-.24Zm.42,3.55h.24v.43h-.66C61.23,60.91,61.37,60.76,61.61,60.76Zm-.42,2.42h.18q.48.06.48.42h-.66ZM62,1.33q.36,0,.66.66l-.42.18Q62,2.17,62,2l-.42.18h-.24V2Q61.37,1.69,62,1.33ZM61.37,55.7v.42q.48,0,.48-.42Zm.24,10.73H62v.42h-.42ZM62,83.79h.48V84H62Zm0,7.84h.48v.48A.42.42,0,0,1,62,91.63Zm.24-17.72h.24v.42h-.24Zm.24-19.29h.67V55h-.67Zm.42,3.49v.42h-.42Q62.57,58.11,62.93,58.11Zm-.42,33.1h.42v.24h-.42ZM63.36,55v.9a.38.38,0,0,1-.43.42h-.24C62.89,55.48,63.11,55,63.36,55Zm-.67,10.73c.32,0,.49.2.49.48h-.49Zm.24-12.72v.48h.43C63.36,53.21,63.21,53.05,62.93,53.05Zm.67,4.4.24.42-.48.24-.18-.42Zm-.24-55h.48v.24h-.48Zm.24,39v.24H64v-.24Zm.24-37.25q.06.42.42.42V4.16Zm0,46.48H64v.48h-.18Zm0,4.4h.42v.66h-.42ZM64,2.41h.42v.42H64Zm0,.66h.66V3.5h-.24A.37.37,0,0,1,64,3.07ZM64.26,45v.42a.37.37,0,0,0,.42-.42Zm.66,5v.49q0,.42-.48.42h-.18v-.24C64.26,50.44,64.48,50.21,64.92,50Zm-.66,9h.66v.24h-.66Zm.18,35.56h.24v.42h-.24ZM64.92,41v.24c0,.28.18.42.43.42v-.24A.38.38,0,0,0,64.92,41Zm.67,8.14H66v.42l-1.09.24C64.92,49.55,65.14,49.33,65.59,49.13ZM65.1,3.5v.9h.49V4.16a1.48,1.48,0,0,1-.24-.66Zm.25,34a1.79,1.79,0,0,1-.25.9h.49v-.9ZM65.1,58.11h.49c0,.28-.16.42-.49.42ZM65.35,39v.24h.42V39Zm0,11.21h.42v.43A.37.37,0,0,1,65.35,50.21Zm.24-43.64v.24H66V6.57Zm0,26.77v.42h.18v-.42Zm0,21H66v.25h-.42Zm.18-19.29v.25h.48v-.25Zm0,.67v.42h.48Q66.25,35.75,65.77,35.75Zm0,2.83v.24h.48v-.24ZM66,45.81h.42v.25H66Zm.24-42.49q.3,0,.6.6V4.4Q66.37,4.4,66.25,3.32Zm.42,40.5v.49h-.42C66.29,44,66.43,43.82,66.67,43.82Zm-.42,9.23h.6q0,.48-.42.48Zm.18-47.56v.42h.24V5.49Zm0,.84v.24h.42V6.33Zm0,38.82h.24a1.48,1.48,0,0,0,.66.24l-.24.42a1.82,1.82,0,0,0-.66-.18ZM66.67,0h.42V.24h-.42Zm0,2.65h.42v.42h-.42Zm0,28.27v.43h.18v-.43Zm0,2.84V34a1.82,1.82,0,0,0,.18.66l-.18,1.09V36h.18l.48-1.33a.21.21,0,0,1-.24-.24.21.21,0,0,0,.24-.24ZM67.09,54v.42h-.42Q66.73,54,67.09,54Zm0-11.87h.24v.48h-.24Zm0,6.15h.43v.24h-.43Zm.67-18.39-.43.66v.85h.19c0-.89.22-1.33.66-1.33v-.18Zm-.43,11.39h.43v.42h-.43Zm0,2h.43v.18h-.43ZM68,4.82h.66c0,.61.2.91.6.91v.84h-.18C68.84,6.57,68.48,6,68,4.82Zm.18,33.1h.48v.48h-.48Zm.24-14.65v.18h.42v-.18Zm0,3.25V27h.42a1.92,1.92,0,0,1,.24-.67A1.48,1.48,0,0,1,68.42,26.52Zm.24,4.16h.42v.91a.37.37,0,0,1-.42-.42ZM70.41,6.57V7c0,.24-.3.55-.91.91h-.42V7.23l.18-.42.49.18Zm-.91,34V41h-.42Q69.14,40.57,69.5,40.57ZM69.26,3.32h.49c0,.28-.17.42-.49.42Zm0,19v1.09h.49L69.5,23a1.39,1.39,0,0,0,.25-.67Zm0,3.08v.24a.49.49,0,0,0,.49.42v-.24C69.75,25.58,69.58,25.44,69.26,25.44Zm0,16.46h.49v.66h-.49ZM69.5,5.06h.43v.43H69.5Zm1.33,2.6V7.9l-.24.42a.21.21,0,0,1,.24.24q-.24,0-.24.18l-.42-.18-.42.18c0-.12-.08-.18-.25-.18a1.4,1.4,0,0,0,.25-.66h.18l.48.24Q70.47,7.66,70.83,7.66Zm-1.08,4h.42v-.42Q69.75,11.27,69.75,11.63Zm0,9.83v.48h.18v-.48Zm.18-12.72h.24c.2,0,.56.44,1.08,1.33q0,.36-.66.66A10,10,0,0,1,69.93,8.74Zm0,11.21a.44.44,0,0,0,.48.43h.18a.37.37,0,0,0-.42-.43Zm.48,11.4h.42v.24h-.42Zm0,2.65h.42v.42A.37.37,0,0,1,70.41,34Zm.18-8.56h.66a.37.37,0,0,1-.42.42h-.24Zm0,3.31h.48v.43C70.75,29.18,70.59,29,70.59,28.75Zm.24-13c0,.29.18.43.42.43l.24-.43Zm0,3.74v.18h.42v-.18Zm0,.42a1.51,1.51,0,0,1,.24.67.37.37,0,0,0,.42-.43L71.07,20Zm.24-14.89h.18v.43h-.18Zm0,16.64h.42v-.42Q71.07,21.34,71.07,21.7Zm.85.66v.43l-.85.24v-.42Zm-.85,5.07h.42v.42h-.42Zm.6-2.65h.25V25a.38.38,0,0,1-.43.42h-.24V25.2Q71.31,24.78,71.67,24.78Zm-.18-9.41v.18h.67v-.18Zm.43,1.93.24.48h-.67C71.53,17.46,71.67,17.3,71.92,17.3Zm.24,4.64h.66q.42.06.42.42v.25a.58.58,0,0,0-.66.66h-.42V23q0-.24.18-.24l-.18-.43Zm.42-7.47H73v.42h-.42Zm0,12.3H73v.42h-.42ZM73,8.14h.48v.18H73Zm.24,5.66h.24v.43h-.24Zm1.09,4.41q.42.06.42.42h-.42Zm.24,2h.18v.43h-.18Zm1.08-2.89h.24a.44.44,0,0,1,.43.48h-.24C75.79,17.78,75.65,17.62,75.65,17.3Z"/><path class="cls-2" d="M59.86,15.13v.42h-.42Q59.5,15.13,59.86,15.13Zm.24-5.48h.42v.66H60.1Zm0,11.63h.42v.18H60.1Zm.66-8.14v.48h-.42Q60.4,13.14,60.76,13.14Zm0-7.65h.67v.42h-.67Zm0,11h.43a1.82,1.82,0,0,0,.66.18v.66h-.24C61.41,17.3,61.13,17,60.76,16.46Zm.18-7.72h.49V9h-.49Zm0,6.63h.49V16h-.49ZM71.74,0a1.48,1.48,0,0,0,.84.24L72.4.66l.18.43L73.06.9h.18c0,.41.08.61.24.61a1.86,1.86,0,0,1,.67-.18.16.16,0,0,0,.18.18A1.52,1.52,0,0,0,74.57.9h.24v.43l-.24.42V2h.24q0-.66.42-.66h.24v.18L75.23,2h.85V1.33q.9.3.9.66l-.24.42a2.1,2.1,0,0,1,1.14.24,1.52,1.52,0,0,1,.61-.24v.42l-.18,1.09q.42,0,.42-.6H79l.42.18q0-.18.24-.18v.6l.42-.18a3.57,3.57,0,0,0,.43,1.75l-.18.42q.24,1,.84,1.08a1.89,1.89,0,0,1,.24-.66H80.9V6.15a.21.21,0,0,1,.24-.24l-.24-.42V5.24h.48c0,.61.14.91.42.91l-.24.42v.9h.24q0-.9.42-.9l.25.42a5.83,5.83,0,0,0-.91,1.15h.66V7.47h.49v.19A2.38,2.38,0,0,0,82.22,9c.45,0,.67.14.67.42a1.91,1.91,0,0,0-.18.67H82V9.89q0-.24.18-.24a2.57,2.57,0,0,1-.42-1.09l-.42.18a5.65,5.65,0,0,1,.42,1.81h-.42v.18h.42q0-.18.24-.18a.59.59,0,0,0,.67.66A4,4,0,0,1,82,13h.18c.12,0,.49-.38,1.09-1.14l.24.48-.42.84h.66v.48h-.48l-.42-.24v.42h-.18L82,13.38q-.48.06-.48.42v.25h.66v.42a7.56,7.56,0,0,1-1.32.42A1.7,1.7,0,0,1,81.38,16h.42l-.24-.48a.49.49,0,0,1,.48-.42c0,.44.28.66.85.66v.43h-.18A2,2,0,0,0,82,16c0,.29.28.43.85.43v.42c-.73,0-1.09.26-1.09.66H82l.43-.24v.91l.42-.25.24.49a3.18,3.18,0,0,1-.42.6v.48h.6l-.18.42v.24l.42-.24h.24v.43h-.48v.24l.48.66q0,.42-.66.42v.42a4,4,0,0,0,1.08.49q0,.18-.24.18l.24.48a.37.37,0,0,1-.42.42l-.48-.24v.66a.49.49,0,0,0,.48.42l.66-.42v.67H84V25a.49.49,0,0,0,.48.42l.43-.24v.24l-.67,1.08v.25l1.09-.67v.18c0,.32-.22.49-.66.49q0,.3.66.66V27h.42l-.18.48a1.82,1.82,0,0,1,.18.66l-.42.18h-.18l.18-.42a2.1,2.1,0,0,1-1.09-.66.21.21,0,0,1-.24.24l.24.42v.24l-.42-.24v.24l.66.85a1.48,1.48,0,0,0-.24.66,1.48,1.48,0,0,1,.24.66h.19V30a1.74,1.74,0,0,1-.19-.84l.43-.24.42.24-.18.42q0,.36.84.66A.21.21,0,0,1,86.2,30l.18.48v.42H86V30.5h-.24a1.66,1.66,0,0,1-.42.85v.42l.42-.18H86v.66L85.54,32a.21.21,0,0,1-.24.24,6.89,6.89,0,0,0,1.08,1.51V34H86v.42h.42l.49-.24q.12.9.66.9v.43h-.91v-.18l.25-.49h-.25l-1.08.24.84.91a1.82,1.82,0,0,0-.18.6l.42-.18h.43l-.18.42q.42.06.42.42c-.2,0-.57.45-1.09,1.33v.24a3.46,3.46,0,0,1,1.51-.42v.42a.75.75,0,0,0-.84.85h.66v-.43h.18c.32,0,.48.18.48.43v.24q-.9.12-.9.66h.24q.06-.42.42-.42l.42,1.5.42-.24H89v.91a2.17,2.17,0,0,0-.67-.42l-.18.42v.42q.42,0,.42.66l1.09-.18v.18c-.32.73-.54,1.09-.66,1.09a.21.21,0,0,0,.24.24L89,45.81v.25a12.09,12.09,0,0,0,1.32.24v.42H89.7v.42l.42.66a1.48,1.48,0,0,1-.84.24v.19a3.16,3.16,0,0,1,1.32.66v.42h-.24l-.42-.18-.24.42v.24l1.08.18v.24l-.42.67a.21.21,0,0,1,.24.24l.43-.24q.42.06.42.42l-.85.42c.12.44.26.66.43.66l-.25.49.25.42.42-.24h.24c0,.24-.3.54-.91.9a.37.37,0,0,0-.42-.42h-.24v.18a1.66,1.66,0,0,1,.91.42c0-.28.18-.42.42-.42l.42.66c-.12,0-.18.08-.18.25l.42.18-.24.48c0,.2.44.42,1.33.66,0,.56.22.85.66.85a.37.37,0,0,1-.42.42.38.38,0,0,0-.43-.42l-.24.9.43-.24h.24a7.71,7.71,0,0,0,.42,1.75q-.42.06-.42.42v.48l.42-.24h.24v.9h-.66L93,60.52v.24c0,.29.19.43.43.43l-.24.42v.24l.24.42.42-.24.42.24.48-.66h-.24a1.48,1.48,0,0,1-.66.24l-.24-.48c.08-.28.24-.43.48-.43h.42L95.18,62q-.24.66-.42.66l.18.49a.37.37,0,0,1-.42.42h-.24v-.24a1.51,1.51,0,0,0,.24-.67l-.42-.18h-.24l.24.42h-.48v.25q.42,0,1.32,1.26l.49.24q0-.3.6-.66h.24v.9H94.76l.18.43v.24h-.42v.18q.42,0,.42.66h.24c.89-.72,1.33-1.22,1.33-1.51.2,0,.42.22.66.67a1.25,1.25,0,0,0-1.32.84v.24q0,.42,1.08.42a1.79,1.79,0,0,1-.24.91,1.48,1.48,0,0,1,.24.66l-.42.18c.12,1.17.34,1.75.66,1.75h.18v-.18l-.18-.48.67-.43.18.43a.44.44,0,0,0-.42.48v.18H98c.12-.72.34-1.09.66-1.09h.66v.25a1.48,1.48,0,0,0-.24.66l.49.18h.18v-.18h-.43v-.24c0-.28.31-.42.91-.42a1.83,1.83,0,0,1-.24-1.09q.66,0,.66-.48h.18a.21.21,0,0,1,.24.24l.42-.24a1.6,1.6,0,0,1,.91.24h.24v-.24a4.58,4.58,0,0,0-1.57-.42v-.67l.42.24c.08-.32.25-.48.49-.48,0-.4-.39-.6-1.15-.6v.42h-.18l-.42-.24-.24.42v.24h.84v.24a.37.37,0,0,1-.42.43q0-.24-.18-.24a1.78,1.78,0,0,0-.24.9h-.24a.37.37,0,0,1-.43-.42l.43-.67v-.48h-.43l.25.48v.19c-.33,0-.49-.14-.49-.43v-.24l2.23-1.5-.24-1.09h.42V64h-.42a.21.21,0,0,1-.24.24V63.6l1.15.24-.24-.48c.12,0,.34-.22.66-.67,0-.44-.36-.66-1.09-.66,0-.2.28-.48.85-.84l.66.42v-.24l-.18-.43a1.82,1.82,0,0,1,.6-.18v-.24l-1.08-.42v-.24l.66-.9v-.19l-.42-.66v-.24l.84-.18v.42q0,.24-.18.24a1.9,1.9,0,0,1,.18.85h.48V57.45a1.48,1.48,0,0,1-.66-.24,1.78,1.78,0,0,1-.9.24v-.24l.48-.67h-.48v-.18a.44.44,0,0,1,.48-.42v.42a3.78,3.78,0,0,0,1.27-.42v.42h.24v-.9h-.43v.48h-.24a3.28,3.28,0,0,0-.84-1.81l.42-.18c.2.57.42.85.66.85h.19v-.43c-.45,0-.67-.14-.67-.42a1.78,1.78,0,0,1,.24-.9,1.29,1.29,0,0,1,0-1.51,1.78,1.78,0,0,1-.24-.9,4.89,4.89,0,0,1,1.57-.85v-.24q-.66,0-.66-.42h.24c-.08-.6-.3-.9-.67-.9v-.67c.33,0,.55-.28.67-.84l.42.18a1.82,1.82,0,0,1,.66-.18v-.24h-.42v-.42h.42v-.25a1.76,1.76,0,0,1-1.08-.42,1.79,1.79,0,0,1-.91.24c0-.24.45-.68,1.33-1.32v.42a.37.37,0,0,0,.42-.42v-.49l-.42.25-.42-.67q.3-.84.66-.84l.42.18a1.48,1.48,0,0,1,.24-.66,1.89,1.89,0,0,1-.66.24,1.48,1.48,0,0,0-.66-.24v-.43q.06-.42.42-.42v.42h.42l-.18-.42v-.42l.84-.24-.18-.42-1.14.18a.37.37,0,0,1-.42-.42v-.67c.28,0,.42.22.42.67h.24l1.08-.24v-.43l-.42.24h-.24a1.82,1.82,0,0,0-.18-.66,3.63,3.63,0,0,0,.42-1.32l-.42.24v-.67q.66,0,.66-.48V35.51h.43v.24l-.25.42h.43l.24-1.09-.42.25a7.26,7.26,0,0,1-.25-.91,3,3,0,0,1,.67-1.51l-1.09.18h-.42v-.18a1.69,1.69,0,0,0,1.51-.9,1.63,1.63,0,0,0-.85-.42v-.24h.61a2.62,2.62,0,0,1-.43-1.09h.25l.66.42V30.5l-.48-.66H107v-.66a1.82,1.82,0,0,1,.24-.91l-.9-1.5v-.91h.48v.24a1.47,1.47,0,0,0-.24.67H107c0-.45.3-.67.9-.67a7.28,7.28,0,0,1-.42-2.41l.42.18v-.18l-.9-1.08a1.55,1.55,0,0,0,.24-.67q-.3,0-.66-.9l.9-.42a1.49,1.49,0,0,0,.85.24,3.92,3.92,0,0,0-.67-1.57.21.21,0,0,0,.24-.24q-.3,0-.66-.6l.24-.49a1.48,1.48,0,0,1-.24-.84q.42,0,.42-.48h-.42l-.66.48h-.67v-.48c.37,0,.81-.28,1.33-.85a.37.37,0,0,1-.42-.42,1.48,1.48,0,0,1,.66-.24l-.24-.42v-.24h.66v-.42l-.42.18c-.6-.2-.9-.4-.9-.61H107l.48.18v-.18l-.48-.9h.66v-.24a2.07,2.07,0,0,1-.42-.66c.6,0,.91-.37.91-1.09h-.49v-.42h.49l.42.24v-.24l-.42-.66V9.4q1.26,0,1.26-.66h-.84c1-.64,1.5-1.06,1.5-1.27q-.42,0-.42-.48V6.15h.24c.28,0,.43.28.43.84h.24q0-.66.42-.66V6.15h-.66a1.48,1.48,0,0,0,.24-.66h1.08c.2,0,.42-.22.66-.67l.43.24H113V4.82c-.45,0-.67-.14-.67-.42V4.16h.19a2.66,2.66,0,0,0,1.32.42V4.4l-.24-.48h.48V3.5a2.66,2.66,0,0,1-1.32.42,2.06,2.06,0,0,1,1.74-1.09l-.24.49V3.5h.24a1.91,1.91,0,0,1,.67-.18q.06.42.42.42a2,2,0,0,0,.42-.67h-.42V2.83q.3,0,.9-1.08h.18V2l-.42.66h.42a1.55,1.55,0,0,1,.67-.24l-.67-.9A3.07,3.07,0,0,0,118,1.33v.18a2.33,2.33,0,0,0-.18.66H118l.91-.18q0,.3.66.66h.66V2.41l-.48-.9.48-.18c.36,1.16.72,1.74,1.09,1.74H122q0-.66.18-.66a1.48,1.48,0,0,0,.66.24l-.42.67a5.6,5.6,0,0,1,1.75.42,1.38,1.38,0,0,1,1.33-.91l.24.49h-.49l.49.84-.49.24.25.42c0,.28-.22.42-.67.42v.49H125l1.09-.91h.66v.42a.43.43,0,0,1-.48.49,1.48,1.48,0,0,1,.24.84H127l-.18-.42q.06-.42.42-.42l.43.18-.18.42V7c.36,0,.64.45.84,1.33a1.48,1.48,0,0,0,.66.24.37.37,0,0,1-.42.42.21.21,0,0,0-.24-.24V9.4h1.08v.25l-.18.42h.18l-.18.48v.18h.18v-.42h.49a1.61,1.61,0,0,0,.42.9l-.42.61h.42q0,.36-.66.66a1.48,1.48,0,0,1,.24.66H130c0-.24.36-.74,1.08-1.51a.37.37,0,0,1-.42-.42,1.64,1.64,0,0,0,.66-1.14.44.44,0,0,1,.43.48l-.43.66a1.51,1.51,0,0,1,.24.85c.13,0,.19-.08.19-.24q2,.3,2,.9a.37.37,0,0,1-.42.42h-.24l.24-.42v-.24h-.24V13h-.42v-.48h-.42v.24l.18.42-.66.48c0-.32-.37-.48-1.09-.48a2.27,2.27,0,0,0-.18.91l1.51.18-.24.48.24.42-.24,1.33.48.18q.06-.42.42-.42V17.3H132l-.67-.42h-.42v.42h-.42v-.42H130q0,.12.48.66l-.24.42c.28,0,.42.31.42.91h.24q.42,0,.42-.66h.24a1.86,1.86,0,0,0,.19.84c-.57.12-.85.28-.85.48l.18,1.09q-.42.06-.42.42h.42c0-.56.3-.85.91-.85V20h-.43v-.42h.19c.32,0,.48.28.48.85l.42-.19v.67h-.24l-.66-.48v1.08a2.34,2.34,0,0,0-1.09.66c-.12,0-.18.16-.18.49a.43.43,0,0,1-.48-.49q.24,0,.24-.18l-.42-.24q0,.42-.24.42l.24.49-.24.42q.3,1.08.66,1.08v-.24a1.49,1.49,0,0,1-.24-.6h.48l.18,1.51V25c-.28,0-.42-.22-.42-.67h-.91a3.29,3.29,0,0,1,.49,1.33h-.24l.24.42v.18l-.24.49h.24a1.4,1.4,0,0,1,.66-.25v.25q0,.42-.48.42h-.18a.21.21,0,0,1-.24-.24l-.43.24L128.7,27l-.18.48c.64.28,1,.56,1.09.84-.17,0-.25.08-.25.24q-1.5-.78-1.5-1.32h-.24q0,.18-.18,1.32l.42-.24h.24v.48h-.48l.48.61a.21.21,0,0,0-.24.24q.3,0,.66.66v.24c-.72,0-1.08.22-1.08.67q.66,0,.66.42v.66h-.91V32h.67a.37.37,0,0,0-.42-.42l-.25.42-.42-.24h-.48l.48,1.14a1.82,1.82,0,0,1-.66.18v.25H127c0-.45.16-.67.49-.67,0,.4.5.71,1.5.91v.18a.37.37,0,0,1-.42.42h-.24l.24-.42v-.18h-.42V34h-.66l-.49-.24v.42c0,.32.22.48.67.48v.18c-.45.89-.89,1.33-1.33,1.33v.42H127l-.18-.42H127c.32,0,.49.18.49.42l-.91.91h-.24l.24-.43a1.86,1.86,0,0,1-.84.18v.67q1.08.06,1.08.66a1.53,1.53,0,0,0-.48.9h-.18a.21.21,0,0,1-.24-.24c-.89.2-1.33.43-1.33.67l.66.42h.25v-.66q.42,0,.42,1.14h-.67v.42c.73,0,1.09.14,1.09.42v.43h-.6v-.43H125a1.47,1.47,0,0,1-.24.67h1.33v.24a1.48,1.48,0,0,0-.24.66q-.42,0-.42-.66l-.43.18.67,1.08-.67.49h-.24v-.49h.42q-.6-1.26-.84-1.26h-.24l.24.42v.24h-.66v.42c.32,0,.54.29.66.85a.49.49,0,0,1,.42.48q-.24,0-.24.18h.66v.48h-.84c-.16.45-.32.67-.48.67a1.49,1.49,0,0,0-.6-.24v.24q0,.3,1.08.84,0-.24.18-.24a.8.8,0,0,0,.91.9v.43a6.34,6.34,0,0,1-.91.24,2,2,0,0,1-.18-.91h-.24a2.53,2.53,0,0,1-.42,1.15h.42v.42a1.38,1.38,0,0,0-.84.42c0-.44-.16-.66-.49-.66l.24.42v.24h-.42l.18.42v.24a.38.38,0,0,0-.42.43l-.42-.18h-.24v.42l.24.42.42-.18h.24q0,1.26-.66,1.26v.49H123v-.24h-.66a1.81,1.81,0,0,0,.42-1.09c.24,0,.46.28.67.84-.12,0-.18.09-.18.25l.42.24c0-.32.22-.49.66-.49V52h-.66q.06-.42.42-.42a2,2,0,0,0,.9.18v.48c0,.45-.38.67-1.14.67l.48.66h-.66v-.48h-.42v.48h.42a1.76,1.76,0,0,0-.42,1.09h-.49v-.25a1.48,1.48,0,0,0,.24-.66l-.42.24a.21.21,0,0,1-.24-.24,1.48,1.48,0,0,1-.66.24v.18l.24.49h-.48v.84l.48-.18v.18a.21.21,0,0,1-.24.24l.24.42-.9.91h.66v-.49H122c.28.09.42.25.42.49q-.36,0-.9,1.5H122V59a.42.42,0,0,1-.48.48v-.67h-.67l.25.43v.24h-.67c0,.2.22.42.67.66a1.48,1.48,0,0,0,.24-.66h.18v.42a1.82,1.82,0,0,0-.18.66h-.24l-1.09-.9h-.66v.24q.9,0,.9.24s-.08.32-.24.84c.08.61.3.91.66.91a.37.37,0,0,1-.42.42l.18.42v.49a2,2,0,0,0-1.08.66l.24.42v.18h-.48a6.38,6.38,0,0,1-.18-.84q.18,0,.18-.24h-.18c-.33.08-.63.44-.91,1.08h.24l.42-.18.25.84h.18l.48-.18.42.67v.18h-.42v-.42a1.61,1.61,0,0,1-.91.42v.48l.25.42h-.49q0-.9-.84-.9V66a2.66,2.66,0,0,1,.42,1.32v.85c.6.08.91.3.91.66v.24c-.21,0-.43-.22-.67-.66a8.47,8.47,0,0,1-2.23.84v.24h.66a.22.22,0,0,1,.25-.24c0,.45.08.67.24.67a1.82,1.82,0,0,1,.66-.18v.42a.8.8,0,0,0-.9.9,1.61,1.61,0,0,0,.9.42c0,.21-.3.43-.9.67a.22.22,0,0,0-.25-.24l-.42.66h.24l-.9,1.51v.48h.66v1.08l.24.43.43-.19.42.19c.32-.37.48-.59.48-.67h-.9V75h.42l.48.24q.06-.48.42-.48a2.39,2.39,0,0,1-1.32,2v.42l-.43-.18q0,.3-.9.84l.42.24-.18.43v.24H116v-.42h.48v.18l-.48.66v.42l.48-.18a2.06,2.06,0,0,1,.67.42,1.48,1.48,0,0,1,.66-.24l-.48.66-.42-.18h-.67c0,.57-.14.85-.42.85h-.24a.37.37,0,0,0-.42-.42v-.25q.66,0,.66-.42l-.24-.42c-1.61,1-2.41,2.09-2.41,3.26a2,2,0,0,1,1.08.66l.49-.18a.16.16,0,0,0,.18.18l-.43,1.08v.25h.25c0-.45.14-.67.42-.67h.24l-.48.91q.48,0,.48,1.08l.6-.42h.24v.18a1.48,1.48,0,0,0-.24.66.21.21,0,0,1,.24.24H116a1.49,1.49,0,0,0-.6-.24c0,.29-.16.43-.48.43h-.18v-.19l.18-.42V86h-.18a1.49,1.49,0,0,1-.91,1.33v-.48a.49.49,0,0,0-.42.48.16.16,0,0,1,.18.18l-.42.24q-.3,0-.66-.66a.21.21,0,0,0,.24-.24h-1.09l.18.48v1.08q.48.06.48.42l-.48.25.24.42v.42a3,3,0,0,1-1.5-.66v.24a2,2,0,0,1,.18.9h.66a1.78,1.78,0,0,0,.9-.24,1.53,1.53,0,0,0,.85.24v.42H113l-.48-.24V91h1.32v-.25a1.48,1.48,0,0,1-.24-.66l.48-.24h.18l.24,1.15-.9,1.5-.18-.42v-.24h.42a.37.37,0,0,0-.42-.42q0,.66-.9.66l-.19-.48c.13,0,.19-.06.19-.18h-.67V91h.48l-.24-.49a1.48,1.48,0,0,1-.66.24l.24.43q-.48.06-.48.42v.24q.6,0,.9.9h.24c0,.29-.16.43-.48.43s-.42-.37-.42-1.09h-.24l-1.09.18a1.52,1.52,0,0,1,.25.66h.24v-.42H111V93l-.24.49H111l.42-.24q.66,0,.66,1.08h.24c0-.44.15-.66.43-.66v.9l.42-.24a1.48,1.48,0,0,0,.66.24l.42-.66c-.56,0-.84-.36-.84-1.09h.18a2.75,2.75,0,0,0,1.33.67,4.75,4.75,0,0,1-.85,1.26h.67v.48A6.7,6.7,0,0,1,113,94.7a2.61,2.61,0,0,0-.48,1.57c-.21,0-.43-.22-.67-.66v-.24h.48v-.43q-.48-.9-.66-.9a1.48,1.48,0,0,1-.66.24,2,2,0,0,1,.66,1.09l-.24.48a1.49,1.49,0,0,1,.24.6l.42-.18h.24v.42h-.48v.42c.4,0,.7.45.91,1.33h-.43q-.48,0-.48-.84h-.42l-.24,1.08q.48.06.48.42v1.33l-.24.42a2.3,2.3,0,0,0,1.09.48c0-.32.2-.48.48-.48h.18l-1.09,1.33v.9c0,.12.3.4.91.85l.42-.19c.28,0,.42.19.42.43l-.42.18H113l-.67-.42-.9.9h-.24l-.42-.24-.42.66h.24L111,105l.18.48v.42l-.18.43q.3,0,.66.66h-.24l.24.42v.24h-1.32c0,.24.5.46,1.5.67.44-.37.67-.67.67-.91q.48.12.48.48l-.24.43a1.48,1.48,0,0,1,.24.66l-.67.42h-.66q-.48,0-.48-.66H111a11,11,0,0,1-.66,2.65h-.25l-.42-.24a.21.21,0,0,1-.24.24l-.18-.42v-.24h.66v-.24l-1.14-.18v.18l.24.48h-.24a8.7,8.7,0,0,1,.66,1.75l.48-.24h.43a10.07,10.07,0,0,0,.24,1.74l-.49.24h-.66v.67H109c0-.77-.22-1.15-.66-1.15h-.18v.48l-.49-.24h-.18v.67a2,2,0,0,1,.67.24q0-.24.18-.24v.42h-.67l.24.48h-.24c-.48,0-1-.52-1.5-1.57h-.25a2,2,0,0,1-.42,1.33h.24l1.09-.24q0,.48.66.48V116a.21.21,0,0,1-.24.24l.91,1.09v.24h-.25c-1.16-.52-1.74-1-1.74-1.33h-.25l-.42.24v-.66c-1.53,1.29-2.55,1.93-3.07,1.93v.66l.66-.42c.24,0,.52.3.85.91h-.19l-1.08-.25v.25l.18.42.42-.24q.48.06.48.42l-.48.24q-.18,0-.18-.24l-.42.24-.48-.24a1.51,1.51,0,0,1-.67.24l-.18-.42c0-.28.18-.42.43-.42,0,.28.18.42.42.42v-.24a2.29,2.29,0,0,1-.42-1.51h-.43l.18.42-.42.24q0-.36-.66-.66l-.42.18.24.48c0,.2-.22.42-.66.67l-.25-.49h.43v-.18h-.18c-.61.2-.91.42-.91.67v.6h.42V120h-.18l-.9-.66v.42H97.6v-1.33h-.25V118l1.09.24h.48v-.9q0-.42-.48-.42l-.18.42q.42.06.42.42h-.42q-.42,0-.42-.84H97.6L97.35,118a1.48,1.48,0,0,0-.84-.24v-.18l.18-.48h-.18q-.3,0-.66.66.18,0,.18.24h-.18l-.42-.24c0,.88-.16,1.33-.49,1.33v-.43l.24-.42h-.42v.42H94.1a.58.58,0,0,0-.66-.66,1.51,1.51,0,0,1-.67.24V118a1.59,1.59,0,0,0,.24-.9,1.78,1.78,0,0,1-1.14-.43c0,.17-.06.25-.18.25l.42,1.32h-.66q-.42,0-.42-.48v-.42a2.35,2.35,0,0,0,.84-1.51q.48,0,.48.66h.18v-.24a3.63,3.63,0,0,1-.42-1.32h-.66l.42.66v.24h-.66v-.48H91v1.32h-.25q0-.3-.66-.84l.48-.24q0-.9-1.14-.9v-.43H90.6V114l-.24-.42-.42.24H89.7a2.07,2.07,0,0,0,.42-.66H89.7v.42h-.24c-.36,0-.79-1-1.27-3.07q-.48,0-.48-.18l-.42.18h-.24v-.43l-.67.43a.16.16,0,0,0-.18-.18l.18-.49v-.18H86.2v.42h-.48v-.42H85.3a1.91,1.91,0,0,1-.18.67,1.43,1.43,0,0,0-.67-.25v-.42a1.64,1.64,0,0,0,1.09-.48,1.48,1.48,0,0,0,.84.24v-.24l-.18-.42-.48.24h-.18v-.66l-.42.24v-.24l.18-.43.42.18H86l-.24-.42a.21.21,0,0,0,.24-.24l1.09.24h.24v-.24a3.68,3.68,0,0,1-1.57-.84.16.16,0,0,1-.18.18,1.49,1.49,0,0,1-.24-.6l.24-.49V105a.37.37,0,0,0,.42-.42l-.66-.42h-.66v.42l.48-.24.18.48V105h-.18q-.24,0-.24-.18l-.43.18h-.24v-.18l.24-.48c-.24,0-.46-.28-.66-.85a2.28,2.28,0,0,0,.18-1.08c-.12,0-.18-.3-.18-.91l.42.25c.61-.25.91-.47.91-.67l-.48.24h-.43q-.42,0-.42-.66h-.24l-.66.42-.67-.9.49-.18q0,.66.42.66a1.82,1.82,0,0,0,.18-.66h.48v.42h.42V100l-.42-.67h.66l-.24-.42a.21.21,0,0,1,.24-.24l-.24-.42c0-.32.18-.48.43-.48h.24q0,.48.24.48a1.49,1.49,0,0,1,.6-.24,2,2,0,0,1-1.08-1.75.21.21,0,0,0,.24-.24.37.37,0,0,1-.43-.42h.43l.66.42h.18a2.3,2.3,0,0,0-1.51-2.17L84,93.44c0-.24.3-.55.91-.91a1.48,1.48,0,0,1-.24-.66h.24l.84.24-.42-.66h.42v-.24c-.4,0-.6-.37-.6-1.09q.18,0,.18-.24h-.42v.9h-.43a1.53,1.53,0,0,0-.48-.9c.81-.72,1.33-1.09,1.57-1.09v-.18h-.66V89l-.43-.25.19-.42V88h-.43a10.71,10.71,0,0,0,.67-1.75V86h-.24c0,.32-.37.6-1.09.85v.24h-.66a.37.37,0,0,1-.42-.43q.54,0,1.5-1.56l-1.08-.67a2,2,0,0,0,.24-1.08h.42V84h.24v-.84h-.48v-.48c.6,0,.9-.22.9-.67H84l-.84.67h-.42c0-.28.2-.43.6-.43v-.66h-.42V82h-.67q0-.3-.84-1.08v-.42h.42v.42H82v-.42c-.16,0-.24-.08-.24-.25a2.56,2.56,0,0,1,1.09-.18l-.18-.48-.49.24-.42-.24a.21.21,0,0,1-.24.24.58.58,0,0,0-.66-.66v-.24q0-.3.66-.6l-.18-.49L82,76.5a1.82,1.82,0,0,1-.66-.18l.18-.43v-.24c-.28,0-.42.22-.42.67-.28,0-.42-.22-.42-.67a.58.58,0,0,1,.66-.66v-.24h-.24a1.48,1.48,0,0,1-.66.24c-.29-.92-.65-1.43-1.09-1.51q0,.18-.24.18a.16.16,0,0,0-.18-.18,1.82,1.82,0,0,0,.18-.66h.24l.42.18.24-1.08c-.2,0-.42-.22-.66-.67l.24-.42a.21.21,0,0,1-.24-.24l.42-.18c0-.36-.44-.8-1.32-1.33a.21.21,0,0,0,.24-.24l.42.24h.48q0-.42-.48-.42l.24-.48V68h-.24a1.82,1.82,0,0,1-.66.18V68a1.79,1.79,0,0,0,.24-.91v-.24A1.25,1.25,0,0,1,77.64,66h.24q.18,0,.18.24l.43-.24H79l.42.24v-.48a1.33,1.33,0,0,1-1.51-1.33v-.18h.18a.59.59,0,0,0,.67.66v-.24a1.48,1.48,0,0,1-.24-.66l-.43.24-.84-.9.42-.18h.24v.42h.18v-.24a2.57,2.57,0,0,1-.42-1.09,1.79,1.79,0,0,0,.24-1.08,1.17,1.17,0,0,1-1.32-1.33h-.24v.24a1.48,1.48,0,0,1,.24.84l-.48.25h-.19l.19-.43v-.24c0-.16-.06-.24-.19-.24a2.35,2.35,0,0,0,.19-1.08l.66.42h.48L76.74,59c.16,0,.24-.06.24-.19h-.9v.43h-.61V59c0-.21.5-.57,1.51-1.09v-.18a1.64,1.64,0,0,0-1.09-.48V57l.19-1.09h-.43v.85H75v-.25l.48-.6a1.48,1.48,0,0,1-.24-.66,1.49,1.49,0,0,1,.85-.24v-.42h-.19l-.9.66h-.66l1.14-.91v-.24q-.48,0-.48-.84h-.18V54h-.48a.59.59,0,0,0-.67-.66v-.42c.81.12,1.25.18,1.33.18h.24v-.18c-.28,0-.42-.16-.42-.49H73.66c.16-.56.47-.84.91-.84v-.66l-.42.24a.43.43,0,0,1-.49-.48c.16-.45.33-.67.49-.67a.59.59,0,0,0-.67-.66l.18-.42h-.84v.9h-.24a1.61,1.61,0,0,0-.42-.9q.06-.42.42-.42a.21.21,0,0,0,.24.24.21.21,0,0,1,.24-.24v.24l.42-.24.67.42.18-.42v-.24l-1.09-.43a1.48,1.48,0,0,1-.66.24V47.8q0-.3.66-.66a.21.21,0,0,0,.24.24V46.9h-.42v-.42h.85a1.39,1.39,0,0,1-.25-.67,6.52,6.52,0,0,1-1.74.49l-.18-.49.66-.42h.18l.48.24q.06-.48.42-.48a1.48,1.48,0,0,1-.24-.66l-.42.24-.42-.24a.58.58,0,0,0-.66.66h-.25V44.07a.22.22,0,0,1,.25-.25,1.41,1.41,0,0,1-.25-.84l-.66.42h-.18q0-.3.84-.84c0,.12.08.18.25.18v-.66c-.61,0-.91-.22-.91-.67h.24l.42.24.67-.84v-.24l-.42-.66.42-.67V39h-.24v.48c-.25,0-.67-.62-1.27-1.74l.18-.49q-.18-.66-.42-.66l-.91.48-.18-.48a1.86,1.86,0,0,0,.18-.84q-.42,0-.42-.24a1.51,1.51,0,0,0,.24-.67c-.4,0-.7-.58-.9-1.75h.42v-.84l-.42.18c-.16,0-.52-.5-1.09-1.51a2.42,2.42,0,0,0,.43-1.08l-.43-.24q0,1.32-.66,1.32v-.24l.42-.66q-.84,0-.84-.42v-.66c-.6,0-.9-.23-.9-.67v-.18h.42v.42q.9-.36.9-.66-.42,0-.42-.66l.18-.42a1.91,1.91,0,0,1-.18-.67l-.48.18a.37.37,0,0,0-.42-.42l-.19.42.19.49h-.19a.43.43,0,0,1-.48-.49l.67-1.08V25l-.43.18-.42-.85q.42,0,.42-.48-1.08,0-1.08-.6V23c.44-1.53.66-2.33.66-2.41-.32,0-.48-.14-.48-.43a1.86,1.86,0,0,1-.84.19l.66.9v.18h-.48V21h-.43v.66q-.3,0-.66-.66.36,0,.66-.66a4.6,4.6,0,0,1-1.5-.85l.18-.48.48.24h.18l-.66-.84V18l.9-.18-.42.67a.16.16,0,0,1,.18.18,2.53,2.53,0,0,1,1.09-.18l-.43-.67c.17,0,.25-.08.25-.24-.37,0-.67-.3-.91-.9h-.18v-.18c0-.28.18-.43.42-.43v.43h.24v-.91a1.82,1.82,0,0,1-.66-.18q0,.18-.24.18v-.18a.21.21,0,0,1,.24-.24l-.66-2a1.82,1.82,0,0,0,.18-.66.16.16,0,0,1-.18-.18l.42-.24.66,1.32a.37.37,0,0,0,.42-.42q-.3-.06-.84-1.14v-.19h.42v-.24h-.42a.21.21,0,0,1-.24.24l-.24-1.08h1.14v-.24q-.66,0-.66-.42h.18l.48.18.18-.42c0-.37-.28-.59-.84-.67a4.26,4.26,0,0,1,.84-1.75V7l-.42.24-.24-.42q.66,0,.66-.9c.29,0,.43.22.43.66h.48V5.91h.42v.42h.24V6.15a1.48,1.48,0,0,1-.24-.66.37.37,0,0,0,.42-.43V4.82l-.42.24A1.48,1.48,0,0,0,64,4.4q.48,0,.48-1.08a1.82,1.82,0,0,0,.66.18v.24l-.24.42h.24a.37.37,0,0,0,.43-.42l-.24-1.09h.24l.84.85V2.65c.48,0,.86-.52,1.15-1.56A2.49,2.49,0,0,0,68.66.9a1.88,1.88,0,0,0,.66.19l-.24.42h.67V1.09L69.5.66h.91q0-.42.84-.42,0,.18.24.18ZM61.43,7.9q.42.06.42.42h-.42Zm.66-4.58v.42h-.48A.49.49,0,0,1,62.09,3.32Zm0,18.14h.42v.9a1.52,1.52,0,0,0-.66.25v-.25A1.59,1.59,0,0,0,62.09,21.46Zm.18-16.22h.48v.49h-.48Zm0,8.56v1.09h.24V13.8Zm0,6.15h.24a2,2,0,0,1,1.33-.42v-.24c-.6,0-.91-.22-.91-.66Q62.57,18.63,62.27,20Zm.48-15.13h.43v.24h-.43Zm.43,19.05h.42c0,.24-.22.46-.67.66h-.18v-.18C62.79,24,62.93,23.87,63.18,23.87ZM62.93,7.66v.48h.43a.42.42,0,0,0,.48-.48V7.47H63.6A1.68,1.68,0,0,1,62.93,7.66Zm0,6h.43v-.48A.44.44,0,0,0,62.93,13.62Zm.43-8.56h.48v.18h-.48Zm0,1.75v.42h.24V6.81Zm.48,18q.3,0,.66.66v.24q-1.14-.3-1.14-.66Zm-.48,4.58h.48v.48h-.48Zm.48-12.06v.48H64V17.3Zm1.32,6.15v.66h.43a1.48,1.48,0,0,1-.24-.66Zm.61.66-.18.42c0,.33.18.49.42.49a1.55,1.55,0,0,1,.24-.67Zm-.18,5.49H66v.24h-.42Zm.66-27.85a1.48,1.48,0,0,0,.66.24v.18H65.77A.49.49,0,0,1,66.25,1.75ZM66,31.35h.42v.24H66Zm.66-2.84v.24a2.62,2.62,0,0,1,1.09.43v-.43l-.18-.48A1.85,1.85,0,0,1,66.67,28.51Zm0,.67v.42h.42A.37.37,0,0,0,66.67,29.18Zm.24-26.35v.24h.42V2.83Zm0,25v.42h.18v-.42Zm.18,3.32c.33,0,.49.18.49.42h-.49ZM68,33.58V34h-.42Q67.64,33.58,68,33.58ZM67.76,2.41v.42a.37.37,0,0,0,.42-.42Zm0,30h.42v.48h-.42Zm.42,2.9V36h-.42v-.24Q67.82,35.33,68.18,35.33ZM68,30.26a1.82,1.82,0,0,1,.18.66h.24V29.84Q68,29.9,68,30.26Zm0,4.16h.42v.42H68Zm.18-2.83v.18h.48v-.18Zm.66,4.4h.24v.42h-.66Q68.48,36,68.84,36Zm0-5.73v.42h.24v-.42Zm.48,2.41v.42h.18v-.42Zm0,1.51c0,.32.18.48.43.48v-.48Zm0,8.38h.43V43h-.43Zm.18-7.72v.24A1.65,1.65,0,0,1,70,36.17h.66c-.4-.88-.7-1.33-.9-1.33Zm0,5.31H70v.42H69.5Zm0,1.26h.25a.49.49,0,0,1,.42.49l-.42.18-.25-.43Zm.25-4.34h.66v.43h-.24A.38.38,0,0,1,69.75,37.07Zm.24-4v.25a.37.37,0,0,0,.42-.43v-.24Q70,32.73,70,33.09Zm0,5.31h.84a.37.37,0,0,0,.42.42V39c0,.24-.2.46-.6.67h-.24l.42-.67a1.86,1.86,0,0,0-.84-.18Zm.18,7.9h.48v.18h-.48Zm.24-11.22v.25h.42v-.25ZM70.65.9v.61h.42l.18-.85A1.49,1.49,0,0,1,70.65.9Zm0,32.68v.6h.18v-.6Zm.18,8.5h.42v.48h-.42Zm.24-2.41c.2,0,.42.22.67.66h-.25a.37.37,0,0,1-.42-.42ZM71.74.42V.9q.42,0,.42-.48Zm.42,43.22a1.47,1.47,0,0,1-.24.67h.24l.42-.67Zm0-.42v.18h.42v-.18Zm.9.18v.42h.18V43.4Zm.42,5.91v.24a.37.37,0,0,1-.42.42v-.18Q73.12,49.31,73.48,49.31ZM73.66,45v.42h.25V45ZM73.91.42h.42V.66h-.42Zm0,53.53h.42v.42h-.42Zm.9,4.58H75V59h-.18Zm.66-.66h.42v.48Q75.47,58.35,75.47,57.87Zm.18-.42h.43q.48.06.48.42h-.48A.37.37,0,0,1,75.65,57.45Zm.67-1.33V57h.24v-.91Zm.42,8.56a.21.21,0,0,1,.24.24l.42-.24h.24v.67a.37.37,0,0,1-.42.42,1.58,1.58,0,0,0-.48-.85ZM77,61.37a.49.49,0,0,1,.42.48H77Zm.66-2.17a1.61,1.61,0,0,1-.42.9l.42.18.24-.42V59.2Zm-.42,7.23h.42a6,6,0,0,0,.24.9q-.36,0-.66-.66Zm0,2,1.09.24v.84h-.25a1.82,1.82,0,0,0-.18-.66l-.48.24h-.18Zm.18-10.31v.66h.24v-.66Zm.24-55v.25h.67V3.07Zm.67,69.27h.18v.48h-.18Zm.18-9.65v.49h.24v-.49Zm.24-58.53v.42h.42A.37.37,0,0,0,78.73,4.16Zm0,66.91q.42.06.42.42l-.42.18Zm0,7.66H79v.42h-.24ZM79,71.67h.18v.49H79ZM79,75h.42v.24H79Zm.42-69.75v.25h.66V5.06A1.82,1.82,0,0,1,79.39,5.24Zm.24,69.33q.42.06.42.42h-.42Zm0,7.23h.18v.42h-.18Zm.18-10.73v.18h.49v-.18Zm.24-1.32a1.49,1.49,0,0,1,.25.84,1.38,1.38,0,0,1,.84-.42v-.24Zm0,3.73v.18h.43v-.18Zm0,4.34h.25v.49h-.25Zm0,20.62h.43v.48C80.19,98.92,80.05,98.76,80.05,98.44Zm.25-25.86v.66h.42a1.48,1.48,0,0,1-.24-.66Zm.18-69.26h.42V3.5h-.42Zm0,67.93v.42h.24v-.42Zm0,5.91h.42v.48h-.42Zm0,2h.42v.24h-.42Zm0,4.16h.42v.24h-.42Zm.24-76.08v.43h.18V7.23Zm0,73.91h.42a5,5,0,0,0,.24.84Q81,82,80.72,81.14Zm.18,7.23q.48.06.48.42H80.9Zm.66.42v.43h-.42C81.18,88.94,81.32,88.79,81.56,88.79Zm-.18-77v.48q.42,0,.42-.48Zm0,4.82v.24h.42v-.24Zm.84,58.59a.37.37,0,0,1-.42.42v.24h.42l.25-.48v-.18ZM81.8,88h.42v.84H81.8ZM82,14.71a1.86,1.86,0,0,0,.67.18v.48h-.24c-.29,0-.43-.16-.43-.48Zm.18,69.68h.67c0,.25-.22.47-.67.67H82A1.81,1.81,0,0,0,82.22,84.39Zm.25,10.31v.48H82C82.08,94.86,82.22,94.7,82.47,94.7ZM82.71,96v.24c0,.28-.16.42-.49.42H82C82,96.49,82.26,96.27,82.71,96Zm-.49-13.14h.49a1.82,1.82,0,0,0,.18.66l-.42.24-.25-.48c.16,0,.25-.06.25-.18C82.3,83.13,82.22,83.05,82.22,82.89Zm.25-60.95v.67h.24v-.67Zm0,54.8v.66h.24v-.66Zm0,13.38q.42.06.42.42h-.42Zm.42,8.8.24.42h-.66Q82.53,98.92,82.89,98.92Zm-.42,10.49h.24v.42h-.24Zm.24-89.22v.43h.18v-.43Zm0,.67v.42h.42A.37.37,0,0,0,82.71,20.86Zm0,59.86v.66q.42,0,.42-.48Zm.42,16.39a1.86,1.86,0,0,0,.18.67l-.42.24-.18-.42C82.75,97.27,82.89,97.11,83.13,97.11ZM83.31,89v.18q0,.48-.42.48v-.24Q83,89,83.31,89Zm-.42,2.83.42.24.48-.24.18.42v.24H82.89Zm.42,15.55.24.48-.42.18h-.24v-.18Q83,107.42,83.31,107.42Zm0,2.9v.42h-.42Q83,110.32,83.31,110.32Zm-.18-11.88h.42a1.78,1.78,0,0,0,.24.9h-.24a.37.37,0,0,1-.42-.42Zm0,5.49h.42a6,6,0,0,0,.24.9h-.24q-.42,0-.42-.48Zm.18-88.56h.48v.18h-.48Zm0,11.15v.25A1.82,1.82,0,0,1,84,27v-.43Zm0,61.61h.48v.24h-.48Zm0,1.57q.48.06.48.42h-.48Zm.24-71.07H84v.66a.37.37,0,0,1-.42-.42Zm0,72.4H84v.42h-.42Zm.24,4.58h.42a.37.37,0,0,1-.42.42ZM84,82.89v.42h.24v-.42Zm.24,2.17a1.48,1.48,0,0,1-.24.66h.24a.38.38,0,0,0,.43-.42ZM84,106.34q.48.06.48.42V107q-.48,0-.48-.42ZM84.21,84c0,.28.18.42.43.42V84Zm0,11h.24v.43h-.24Zm.43,7.66-.43.66.24.48a1.55,1.55,0,0,1,.67-.24v-.42A.42.42,0,0,0,84.64,102.6Zm0,3.31.66.85-.42.24a.59.59,0,0,0-.67-.66C84.25,106.06,84.39,105.91,84.64,105.91Zm0,5.67h.24c0,.32-.14.48-.43.48h-.24C84.25,111.74,84.39,111.58,84.64,111.58Zm-.19-99.1h.43V13h-.43Zm0,7.9h.19v.48h-.19Zm0,86.86h.19q.48.06.48.42h-.24A.37.37,0,0,1,84.45,107.24Zm.19-76.56v.24h.66v-.24Zm0,62.76V94h.24v-.6Zm0,6.08V100h.24v-.49Zm.66-80.89v.66h-.42v-.24Q84.94,18.63,85.3,18.63Zm-.18,80.71v.18h.42v-.18ZM85.3,93v.49h.24V93Zm0,3.5v.24h.42v-.24Zm0,2v.48h.24v-.48Zm0,3.74v.42h.42A.37.37,0,0,0,85.3,102.18Zm0,10.06h.42v.49H85.3Zm0,2.42h.42v.48Q85.3,115.14,85.3,114.66Zm.24-86.15H86c0,.57.14.85.42.85v.48H86.2C85.76,29.68,85.54,29.24,85.54,28.51Zm0,82.23H86l.24.84q-.3,0-.66-.6Zm.18-9.89v.24q.48,0,.48-.42v-.24Q85.72,100.49,85.72,100.85ZM86,94v.48q.42,0,.42-.48Zm.24,11-.24.48.66.42.25-.42ZM86,108.57h1.09l-.18,1.08h.84c-.2-.88-.56-1.4-1.09-1.57h-.24A.45.45,0,0,0,86,108.57Zm.91-77.89.18.49a6.71,6.71,0,0,1-.85.18C86.2,31.15,86.42,30.92,86.87,30.68Zm-.67,73.49v.42h.18v-.42ZM86.38,32h.49v.24h-.49Zm.24,79.39h.43v.42h-.43Zm.25-70.59v.42h.18v-.42Zm0,65.77V107h.18v-.42Zm.66,10.49v.48h-.48Q87.11,117.07,87.53,117.07Zm-.24-82.65H88v.42h-.24A.37.37,0,0,1,87.29,34.42Zm0,6.57v.24a1.82,1.82,0,0,1,.66.18v-.18L87.53,41Zm.42,71.74H88v.42a1.48,1.48,0,0,0-.66.24v-.24Q87.35,112.73,87.71,112.73Zm0-2q.3,0,.66.66-.42.06-.42.42.42.06.42.42l-.42.25a.37.37,0,0,0-.42-.43Zm-.18,5.72H88v.43h-.42Zm.66-72.82a1.31,1.31,0,0,1-.48.85q.36,0,.9.66h.18v-.42l-.18-1.09Zm-.48,69.93h.66V114h-.18Q87.71,114,87.71,113.57ZM88,45.63v.18h.42v-.18Zm.42,70.17h.42v.42h-.42ZM88.61,16H89v.19h-.43Zm0,24.3h.18v.48h-.18ZM88.79,48v.43H89V48Zm.49,65.53v.24c0,.28-.16.42-.49.42V114A.5.5,0,0,1,89.28,113.57Zm-.49,1.33c.69.28,1.07.58,1.15.9v.42a1.83,1.83,0,0,0-1.15-.42ZM89,42.32h.42a.37.37,0,0,1-.42.42Zm.24,69.26v.48h.18v-.48Zm0,.91v.42a.37.37,0,0,0,.42-.42Zm.66-70.84v.43h-.48A.44.44,0,0,1,89.94,41.65Zm-.48,8.56v.25h.48v-.25Zm.24,66.43h.42v.25H89.7Zm.24,3.08h.42V120h-.42Zm.66-84.64H91v.25c0,.12-.09.18-.25.18L91,36v.18H90.6Zm.18,13.15a1.51,1.51,0,0,0,.67.24v.42h-.24l-.43-.18a.16.16,0,0,1-.18.18v-.18Zm-.18,64.26v.24H91v-.24Zm.61-54.14v.42h.24v-.42ZM91.69,52h.42v.42h-.42Zm.18,4v.6h.9a1.49,1.49,0,0,1-.24-.6Zm0,1.75v.42q.48,0,.48-.42Zm.48-4.82h.42v.42h-.42Zm0,61.36v.43h.18v-.43Zm.18-59.43H93v.48A.42.42,0,0,1,92.53,54.8Zm0,4a1.53,1.53,0,0,1,.24.85H93a.38.38,0,0,1,.43-.42,1.51,1.51,0,0,1-.24-.67A1.55,1.55,0,0,1,92.53,58.77Zm.48-.9v.48h.43C93.44,58,93.29,57.87,93,57.87Zm.43,58.59a1.85,1.85,0,0,1,.18.61h.48v-.18c0-.29-.16-.43-.48-.43Zm.18.85v.42q.48,0,.48-.42Zm.48-52.87v.48h.18v-.48Zm.42,3.32v.42h.24v-.42Zm.24,52.38h.42v.48Q94.76,120.62,94.76,120.14Zm.42,1.57h.25c0,.28-.16.42-.49.42h-.18Q94.82,121.71,95.18,121.71Zm.25-58.53h.18v.18c0,.32-.14.48-.43.48l-.24-.48Zm-.49,3.67v.24c0,.2.22.43.67.67l-.18.42v.24h.18q0-.42.24-.42C95.65,67.31,95.34,66.93,94.94,66.85Zm.24-1.26h.43v.18h-.43Zm.25-5.73h.42a.37.37,0,0,1-.42.42Zm.6,1.33v.42h-.42Q95.67,61.19,96,61.19Zm0,9.64v.42h.24v-.42Zm0,2.83v.25c.32,0,.48-.14.48-.43v-.24Q96,73.3,96,73.66Zm.24,44.73h.24v.49h-.24Zm.42.49v.18a.37.37,0,0,1-.42.42v-.18Q96.33,118.88,96.69,118.88Zm.24-46.06V73a1.66,1.66,0,0,1,1.09.48h.24v-.24a.37.37,0,0,1-.42-.42Zm0,.66v.43h.24v-.43ZM98,71.25a.16.16,0,0,0-.18-.18v.42l-.49-.24h-.18v.42h1.09v-.42h.18l.48.24q0-.24.18-.24a.21.21,0,0,0,.24.24v-.66Zm-.67-3.49A1.55,1.55,0,0,0,98,68v.42a1.55,1.55,0,0,0-.67.24Zm0,52.62h.49v.24c0,.28-.16.43-.49.43Zm.91-53.53v.67h-.42v-.19Q97.9,66.85,98.26,66.85ZM98,73.91v.18h.42v-.18Zm.24-7.66h.42a.37.37,0,0,1-.42.42Zm.42,8.32a1.6,1.6,0,0,1-.42.84v.24h.66l-.24-.42V75h.42A.37.37,0,0,0,98.68,74.57Zm-.24-4.4v.42h.48v-.42Zm0,50.45h.66a.38.38,0,0,1-.42.43h-.24Zm.24-48.46v.18a.37.37,0,0,0,.42-.42v-.25C98.82,71.76,98.68,71.92,98.68,72.16Zm.24-8.8h.67v.24c0,.28-.17.42-.49.42l-.18-.42Zm0,2.23h.42V66A.37.37,0,0,1,98.92,65.59ZM99.34,73l-.42.66h.18a.49.49,0,0,1,.49-.42q0,.24.18.24v-.24Zm0-.42h.43l.24-1.09C99.77,71.49,99.55,71.86,99.34,72.58Zm0,1.75v.42h.43v-.42Zm.67,42.31a.59.59,0,0,1-.67.67c0,.28.18.42.43.42l.66-1.09Zm-.24-55.88c.32,0,.48.18.48.43l-.48.18Zm.9,1.09.18.42h-.42v.24h.24a1.48,1.48,0,0,1,.66-.24q0,.24.18.24c0-.16.08-.24.25-.24v.24a.38.38,0,0,1-.43.42,1.48,1.48,0,0,0-.66-.24c0,.32-.14.49-.42.49l-.24-.49Q100.31,61.85,100.67,61.85ZM100,64.26h.42v.42H100Zm.84,55.22q.48.12.48.48a.58.58,0,0,0-.66.66,1.48,1.48,0,0,0-.66-.24v-.24Q100.31,120.14,100.85,119.48ZM100.43,25h.24v.42h-.24Zm0,33.09h.42a.37.37,0,0,1-.42.42Zm0,11v.18a1.55,1.55,0,0,1,.24.67.21.21,0,0,0-.24.24,1.48,1.48,0,0,1,.66.24h.24v-.24c-.44,0-.66-.36-.66-1.09Zm0,5.49v.66h.24v-.66ZM100.67,59h.42v.24h-.42Zm0,1.14h.42v.42h-.42Zm.18,8.56a.49.49,0,0,0,.48.42h.18a.37.37,0,0,0-.42-.42Zm0,3v.25h.48v-.25Zm.48-13.8h.43v.24a.38.38,0,0,1-.43.42Zm.18,1.09H102v.24c0,.28-.16.42-.49.42h-.18A1.82,1.82,0,0,0,101.51,59Zm0,61.42H102v.42C101.67,120.8,101.51,120.66,101.51,120.38Zm.49.67h.42v.24a.37.37,0,0,1-.42.42c-.33,0-.49-.14-.49-.42Zm-.24-66.25h.42a.42.42,0,0,0,.48.48v.42h-.24q-.3,0-.66-.66ZM102,52h.18q.48.06.48.42v.91C102.34,53.29,102.12,52.85,102,52Zm.18,11.88v.42h.24v-.42Zm0,5v.42h.24v-.42Zm.66-19.05h.24v.42a1.52,1.52,0,0,0-.66.25v-.25Q102.48,49.79,102.84,49.79Zm0-5.3h.24a.49.49,0,0,1,.42.48v.18q0,.48-.42.48h-.24v-.24a.21.21,0,0,1,.24-.24l-.24-.42Zm0,20.19v.42h.24v-.42Zm.24-5.24v.42h.18v-.42Zm0,2.59v.66h.18a1.48,1.48,0,0,1,.24-.66Zm0,58.35q.42.06.42.42h-.42Zm.42-77.82h.43a.38.38,0,0,1-.43.42Zm0,6.33h.43v.24a.38.38,0,0,1-.43.42Zm0,16v.43h.24v-.43Zm0,52.63h.43V118h-.43Zm.67-66.91-.43.66.43.66c-.28,0-.43.18-.43.42h.67l-.24-1.08a.37.37,0,0,0,.42-.42Zm-.43,9.22v.42h.19v-.42Zm0,2.41v.24h.43v-.24Zm0,51.12v.18h.43v-.18Zm.19-75.65h.48v.42Q103.93,38.16,103.93,37.74Zm0,18.8V57h.24v-.49Zm0,59.44v.48h.48A.42.42,0,0,0,103.93,116Zm0,5.31h.48v.42h-.48Zm.24-68V54a.37.37,0,0,0,.42-.42v-.24Zm.24,64a1.48,1.48,0,0,0,.66.24q0,.3-.66.66l-.24-.48Zm0-3.5v.42h.66a1.82,1.82,0,0,1,.18-.66h-.18A1.48,1.48,0,0,1,104.41,113.81Zm0,.85v.24h.66v-.24Zm0,4.22q.42.06.42.42l-.42.18Zm.66,1.26v.24q0,.42-.48.42h-.18Q104.41,120.5,105.07,120.14Zm-.48-84.63h.48V36h-.48Zm0,15v.18h.48v-.18Zm.24-3.08v.42h.24v-.42Zm0,3.74v.18h.42v-.18Zm0,64v.18h.42v-.18ZM105.07,45v.42h.18V45Zm0,72.76h.84v.66h.25l.42-.18v.18c0,.2-.22.43-.67.67a.37.37,0,0,0-.42-.43.22.22,0,0,1-.24.25l-.18-.49Zm.18-89.46h.24v.48h-.24Zm0,91.45h.48v.66h-.48Zm.48-81.8.18.48-.18.42.43.18V37.92Zm0,5.72v.18h.43v-.18Zm.18-6.57v.18h.43v-.18Zm.67-14.28H107q0,.48-.42.48h-.42Q106.22,22.79,106.58,22.79Zm.24,1.74a1.81,1.81,0,0,0,.18.67q-.42,0-.42.48l-.42-.24C106.36,24.84,106.58,24.53,106.82,24.53Zm-.24,11.64a.37.37,0,0,1-.42.42v.24h.42a1.48,1.48,0,0,1,.66-.24.37.37,0,0,0-.42-.42Zm-.24-20.62h.48v.24h-.48Zm0,2.66q.48.06.48.42h-.48Zm0,16.21v.42h.24v-.42Zm0,5.73v.18h.48v-.18Zm0,1.08v.85h.48a1.51,1.51,0,0,1-.24-.85Zm0,1.51V43h.48v-.24ZM106.58,11H107v.24h-.42Zm0,22.37v.42H107v-.42Zm0,4.58v.48q.42,0,.42-.48Zm0,76.07v.24H107V114Zm0,5.07h.66q.42.06.42.42t-.42.48Zm.9,1.32.18.42c0,.16-.06.25-.18.25l.18.42q-.3.9-.66.9l-.42-.9C106.86,120.82,107.16,120.46,107.48,120.38Zm-.66-101.75h.42v.42h-.42ZM107,31.17l-.18.42a2.07,2.07,0,0,1,.66.42v-.42Q107.48,31.17,107,31.17Zm0-22h.24v.43H107Zm0,10.31h.66V20a.38.38,0,0,1-.42.43L107,20a.21.21,0,0,0,.24-.24Q107,19.71,107,19.53Zm.24,1.51-.24.42.48.24.18-.42ZM107,34.66v.42h.48Q107.48,34.66,107,34.66Zm0,.85V36h.24v-.48Zm.24,5.72v.42h.24v-.42Zm0,72.16v.42h.24v-.42Zm.24-97.6V16h.42v-.24Zm0,12.3q.06.42.42.42v-.42Zm0,84.64v.42h.42v-.42Zm.18-95.43v.24h.49V17.3Zm0,6.81a1.51,1.51,0,0,1,.24.67.38.38,0,0,0,.43-.43l-.43-.24Zm0,3.5v.24h.49v-.24Zm.67-16.22a1.66,1.66,0,0,1-.43.91l.43.18a.37.37,0,0,0,.42-.42,1.86,1.86,0,0,1-.18-.67ZM107.9,13v.18h.43V13Zm.25.66v.43h.18v-.43Zm0,.85.18.42a1.82,1.82,0,0,1,.66-.18v-.24Zm0,95.85v.18h.42v-.18Zm0,10.48h.18l1.08.25v.42a.37.37,0,0,0-.42.42h-.42a.37.37,0,0,1-.42-.42Zm1.92-1.32.49.66v.48c0,.28-.16.43-.49.43h-.18c-.88-.41-1.32-.71-1.32-.91A3,3,0,0,1,110.07,119.48ZM108.75,94.7q.12.48.48.48V94.7Zm.66,20.86v.24l-.42.66c.44,0,.66.14.66.43q-.24,0-.24.18a1.82,1.82,0,0,0-.66-.18v-.67Q108.75,115.92,109.41,115.56Zm-.66,2h.48q0,.42-.48.42Zm.48-107.9L109,10.73h.42V9.65ZM109,106.76V107h.42v-.24Zm.42,11.45.48.18a.16.16,0,0,1,.18-.18l.49,1.09-.49.18c0-.56-.22-.85-.66-.85,0,.16-.06.25-.18.25l-.24-.49ZM109.23,89v.42h.18V89Zm0,.84v.48h.18v-.48Zm.42,1.15v.42h.24V91Zm0,2.83v.42h.24v-.42Zm0,19.71V114h.24v-.42Zm0,1.09h.42v.66a.37.37,0,0,1-.42-.42Zm.24-18v.24h.67v-.24Zm0,2c0,.28.18.42.43.42a.37.37,0,0,1,.42-.42v-.42A1.63,1.63,0,0,1,109.89,98.68Zm.18,4.82v.43h.25v-.43Zm.49-8.8a.21.21,0,0,1-.24.24l.24.43v.24a.21.21,0,0,1-.24.24,1.49,1.49,0,0,1,.24.6h.18a1.76,1.76,0,0,1,.42-1.08C111.16,95.17,111,94.94,110.56,94.7Zm0-3.49v.24H111v-.24Zm0,9v.24H111v-.24Zm0,.66v.66h.18v-.66Zm.18-18.63c0,.29.18.43.42.43v-.43Zm.24,27.61h.42l-.24.49v.84l1.14.24v.84h-.24a2.83,2.83,0,0,1-1.32-1.5A1.62,1.62,0,0,0,111,109.83Zm-.24,3.74h.42V114A.37.37,0,0,1,110.74,113.57Zm.42,2.23q.48.06.48.42a.21.21,0,0,1-.24.24l.24.43q0,.42-.48.42a.37.37,0,0,1-.42-.42v-.67Q110.8,115.8,111.16,115.8ZM111,80.48v.42h.18v-.42Zm.18,6.81L111,88.37h.42V87.29ZM111,96.93v.18a.37.37,0,0,0,.42-.42v-.24A.49.49,0,0,0,111,96.93Zm0,6.33v.24c0,.2.22.43.66.67l.18-.43v-.24A5,5,0,0,0,111,103.26Zm0,9.23h.42v.42H111ZM111.4,6.15v.66h.24V6.15Zm0,95.36v.25h.42v-.25Zm.9,12.48c0,.32.19.48.43.48a.21.21,0,0,1,.24-.24v.43h-.48l.24.48v.42a1.17,1.17,0,0,1-1.33-1.33A1.78,1.78,0,0,0,112.3,114ZM111.64,3.92h.42v.24h-.42Zm0,82v.42h.42V86Zm0,22.61v.18q.06.42.42.42l.24-.42A1.82,1.82,0,0,1,111.64,108.57Zm.18,4.34h.24v.66h-.42A1.82,1.82,0,0,0,111.82,112.91Zm0-31.53v.42h.24v-.42Zm.91,17.72h.42v.24c-.48,1-.85,1.51-1.09,1.51q0-.18-.24-.18l.24-.48-.24-.42Zm-.91,6.15h.67a.38.38,0,0,1-.43.42Zm0,.66h.91V107c-.61-.2-.91-.42-.91-.66Zm0,13.39h.24c.28,0,.43.18.43.42v.66h-.19q-.48,0-.48-.42Zm1.33-36.17-1.09,1.51h.43c.08-.57.52-.85,1.32-.85Q113.81,83.43,113.15,83.13ZM112.3,82c0,.24.22.47.67.67V82Zm0,5.73h.19q.3,0,.66.66-.18,0-.18.24h.6v.18c-.36.89-.64,1.33-.84,1.33h-.24L112.3,89l.43-.25v.43H113V89L112.3,88Zm.43,4.58v.48h-.43C112.34,92.45,112.49,92.29,112.73,92.29Zm-.24-13.8v.24H113v-.24Zm0,32.91h.24q.42.06.42.42a.37.37,0,0,1-.42.42l-.24-.42Zm.24-105.25v.42H113V6.15Zm.42,89.7h.24v.42l.42-.24h.24v.24q0,.18-.24.18l.24.48c0,.2-.22.42-.66.67h-.24c-.28,0-.42-.16-.42-.49v-.84Q112.79,95.85,113.15,95.85Zm0,9.64h.24v.42a.37.37,0,0,1-.42.43,1.51,1.51,0,0,0-.24-.67ZM113,109h.42v.18a1.89,1.89,0,0,0-.24.66l-.42-.18A1.48,1.48,0,0,0,113,109Zm.18,9.4c.2,0,.42.22.66.67l-.42.24h-.24a.37.37,0,0,1-.42-.42C112.77,118.55,112.91,118.39,113.15,118.39ZM113,5.49v.24h.42V5.49Zm0,73.42v.48h.18v-.48Zm0,17.54v.24h.6v-.24Zm.18-10.25q.06.42.42.42h.24V86.2Zm0,12.72h.24q.42.06.42.42h-.24A.37.37,0,0,1,113.15,98.92Zm0,1.51h.66v.42h-.66Zm0,.66h.42a7.11,7.11,0,0,1,.48,1.33l-.48.18A5.12,5.12,0,0,1,113.15,101.09Zm0,15.13h.24v.42h-.24Zm.42,4.58h.24v.25a.37.37,0,0,1-.42.42l-.24-.42Zm-.18-50.39v.66a1.82,1.82,0,0,1,.66.18v-.18Q114.05,70.71,113.39,70.41Zm.42,5.91q0,.66-.42.66v.42a.37.37,0,0,1,.42.42h1.57l-.24-.42-.42.24a1.85,1.85,0,0,0-.91-.24v-.24q.06-.42.42-.42h.49v.42q.3,0,.84-.84Zm0,31.76h.42v.49a.37.37,0,0,1-.42.42h-.42v-.42C113.43,108.25,113.57,108.08,113.81,108.08Zm0,2.42.24.48-.48.18-.18-.42Zm-.42,4.16h.42v.66h-.42Zm.18-15.14h1.15c.28.09.42.25.42.49v1.08c-1-.52-1.57-.88-1.57-1.08Zm.24-20.79v.66h1.09a1.64,1.64,0,0,1-.43-.9A1.48,1.48,0,0,1,113.81,78.73Zm0,19h.42V98h-.42Zm.24-16c.2,0,.49.28.85.85v.24h-.67Zm.42,21.46.25.48-.49.19-.18-.43Zm.43-22.54h.24v.42a.37.37,0,0,1-.42.42c-.33,0-.49-.14-.49-.42Zm.48,6.57,1.08.66c-.8,1.29-1.54,1.93-2.23,1.93v-.42a1.13,1.13,0,0,0,1.15-.85,2.31,2.31,0,0,1-.48-1.14Zm-.66,1.08V89h-.49v-.25A.49.49,0,0,1,114.72,88.37Zm-.49,16h.24v.48h-.24ZM114.47,75v.9l1.09-.24C115.56,75.41,115.2,75.19,114.47,75Zm0,16.64h.25q.3,0,.66.66a.42.42,0,0,1-.48.48c-.28,0-.43-.16-.43-.48Zm.25-21.88v.66q.3,0,.66-.66Zm0,43.64h.42v.42h-.42Zm.18-39.91v.61h.24v-.61Zm0,8.08h.48l.18,1.09v.24h-.42a.21.21,0,0,1,.24-.24A2.08,2.08,0,0,1,114.9,81.56Zm0,12.06h.48V94h-.48Zm.48,3.73a3.72,3.72,0,0,1,.42,1.33l-.42.24h-.48v-.48q.48-.54.48-.66h-.48A.44.44,0,0,1,115.38,97.35Zm0,18.63v.91h-.48v-.43Q115,116,115.38,116Zm-.24-47.56v.24q.06.42.42.42a1.61,1.61,0,0,1,.42-.9h-.18A1.48,1.48,0,0,1,115.14,68.42Zm.42,1.08v.43a.21.21,0,0,1,.24.24l-.42.24.18.42v.24l-.42.6.66.49h.42a1.64,1.64,0,0,1,.42-.91q-.84,0-.84-.42l.18-.42.48.18h.18v-.42c-.56,0-.84-.22-.84-.67Zm-.42,20.86h.42v.18h-.42Zm.24-9.22h.18q.42.06.42.42l-.42.24-.18-.42Zm.18,14.23a.44.44,0,0,1,.42.48v.42a1.49,1.49,0,0,0-.6-.24A1.82,1.82,0,0,0,115.56,95.37Zm0-28.94v.42H116v-.42Zm0,1.09v.24h.9v-.24Zm0,41.65H116v.24h-.42Zm.24-35.26H116q.48.06.48.42v.24Q116.16,74.57,115.8,73.91Zm.42,18h.24c.28,0,.43.18.43.42h-.25a.16.16,0,0,1-.18-.18l-.48.18h-.18Q115.86,91.87,116.22,91.87Zm-.42,14.71H116q.48.06.48.42v.24h-.24q-.42,0-.42-.48Zm.42,1.5v.49h-.42C115.84,108.25,116,108.08,116.22,108.08Zm0,8.81.24.42v.24h-.66v-.24Q115.86,116.89,116.22,116.89ZM116,96.27h.66v.42h-.18Q116,96.69,116,96.27Zm0,4.58h.48v.24H116Zm.66-35.26a.37.37,0,0,1-.42.42v.42h.42a1.52,1.52,0,0,1,.25-.66v-.18Zm0,44.73.25.42-.43.24h-.24v-.24Q116.28,110.32,116.64,110.32Zm-.42,3.49h.42v.42A.37.37,0,0,1,116.22,113.81Zm.24-49.37v.48h.43C116.89,64.6,116.74,64.44,116.46,64.44Zm0,13.2h.18c.25,0,.47.22.67.67a.37.37,0,0,1-.42.42.38.38,0,0,0-.43-.42Zm0,3.74h.18c.33,0,.49.18.49.42l-.49.18h-.18Zm.18-8.56h.49v.42h.42v-.42H118l.24.84-1.32.67c0-.28-.09-.42-.25-.42l.25-.43A1.52,1.52,0,0,1,116.64,72.82Zm0,10.07c.33,0,.49.18.49.42h-.49Zm.25-79.82V3.5a6,6,0,0,1,.9.24q0-.42.6-.42V3.07H118l-.42.25A1.52,1.52,0,0,0,116.89,3.07Zm0,81.81h.42v.42h-.42Zm0,3.07h.9v.18a1.48,1.48,0,0,0-.24.66h-.24q0-.66-.42-.66Zm0,4.34h.24v.48h-.24Zm0,3.32h.42a1.32,1.32,0,0,0,.48.84h-.24a1.82,1.82,0,0,0-.66-.18Zm.24-28.94.18.42a1.91,1.91,0,0,0-.18.67h.42a1.82,1.82,0,0,1,.24-.91A1.82,1.82,0,0,1,117.13,66.67Zm0,22.79h.18v.42h-.18Zm0,.66h.18v.42h-.18Zm0,4.4h.42v.18h-.42Zm0,4.4h.42v.18h-.42Zm.18-39.3v.24h.48v-.24Zm0,3.74v1.32h.24a1.48,1.48,0,0,1,.24-.66,1.48,1.48,0,0,1-.24-.66Zm0,34.42h.48v.48h-.48Zm.9-35.51q0,.42-.66.42c0,.24.22.47.66.67,0-.45.14-.67.42-.67A.37.37,0,0,0,118.21,62.27Zm-.66,24.78H118v.24h-.42Zm.24-18.21q.3,0,.6.66h-.18a.37.37,0,0,1-.42-.42Zm.18,3.5h.24v.48H118Zm.42,3.55c0,.13.08.19.24.19a1.48,1.48,0,0,0-.24.66.37.37,0,0,1-.42-.42C118,76,118.15,75.89,118.39,75.89Zm-.42.85h.24v.42H118Zm0,3.49h.42v.25H118Zm0,3.32h.24V84H118Zm.24-16.22h.42a1.39,1.39,0,0,0,.25.67h-.25q-.42,0-.42-.48Zm.42,12.06.25.42-.49.24-.18-.48Zm-.42,16.46h.42V96h-.42Zm.18-34.48h.49v-.43C118.55,61,118.39,61.13,118.39,61.37Zm.67,21.52.24.42q-.42,0-.42.48h-.49v-.24C118.39,83.35,118.61,83.13,119.06,82.89ZM118.39,111h.49v.42h-.49Zm.24-16.28h.25a.49.49,0,0,1,.42.48l-.42.19-.25-.43Zm0,10.13h.43V105h-.43Zm0,7.23h.25v.43h-.25Zm.25-52.2v.42h.18v-.42Zm0,30h.42v.48h-.42Zm0,16.46h.42a.37.37,0,0,1-.42.42Zm.18-45.58h.48v-.48Q119.06,60.34,119.06,60.76Zm.24.43a1.48,1.48,0,0,1-.24.66h.48a1.82,1.82,0,0,1,.18-.66Zm-.24,1.32h.48V62Q119.06,62.15,119.06,62.51Zm0,5.91h.48v.24h-.48Zm0,3.07h.48v.43h-.48Zm0,3.5h.9l-.24.42a1.82,1.82,0,0,0-.66-.18Zm0,1.09h.66v.24l-.18.42q.42.06.42.42h-.24a1.82,1.82,0,0,0-.66-.18Zm0,10.3h.24v.43h-.24Zm0,4.83q.48.06.48.42l-.48.24Zm.24-24.12h.24v.43h-.24Zm.42,2.84q.48.06.48.48t-.48.42a.37.37,0,0,1-.42-.42Q119.36,69.93,119.72,69.93Zm-.18-12.06v.24H120v-.24Zm.42-5v.42h.24v-.42Zm0,11.39h.42v.42A.37.37,0,0,1,120,64.26Zm0,39.48h.42v.19H120Zm.24-47.38v.43h.18a.37.37,0,0,0,.42-.43Zm.42,1.75-.42-.24v.66h.6c.33,0,.49-.14.49-.42v-.42Zm-.42,7.66h.18v.48h-.18Zm0,4.82h.18c.24,0,.46.3.67.9h-.25q-.3,0-.6-.66Zm.85-17.54-.67,1.08h.91a6.38,6.38,0,0,0,.18-.84Zm-.67,10.55h.24V64h-.24Zm.24-6.39v.24h.43v-.24Zm.43,3.55h.24v.43h-.67C120.66,60.91,120.8,60.76,121.05,60.76Zm-.43,2.42h.18c.33,0,.49.18.49.42h-.67Zm.85-61.85q.36,0,.66.66l-.42.18q-.24,0-.24-.18l-.42.18h-.25V2C120.8,1.79,121,1.57,121.47,1.33ZM120.8,55.7v.42c.33,0,.49-.14.49-.42Zm.25,10.73h.42v.42h-.42Zm.42,17.36H122V84h-.48Zm0,7.84H122v.48A.42.42,0,0,1,121.47,91.63Zm.24-17.72H122v.42h-.24ZM122,54.62h.66V55H122Zm.42,3.49v.42H122Q122,58.11,122.37,58.11ZM122,91.21h.42v.24H122ZM122.79,55v.9a.37.37,0,0,1-.42.42h-.24Q122.43,55,122.79,55Zm-.66,10.73q.48.06.48.48h-.48Zm.24-12.72v.48h.42Q122.79,53.05,122.37,53.05Zm.66,4.4.25.42-.49.24-.18-.42Zm-.24-55h.49v.24h-.49Zm.24,39v.24h.43v-.24Zm.25-37.25q.06.42.42.42V4.16Zm0,46.48h.18v.48h-.18Zm0,4.4h.42v.66h-.42Zm.18-52.63h.42v.42h-.42Zm0,.66h.66V3.5h-.24A.37.37,0,0,1,123.46,3.07ZM123.7,45v.42a.37.37,0,0,0,.42-.42Zm.66,5v.49q0,.42-.48.42h-.18v-.24C123.7,50.44,123.92,50.21,124.36,50Zm-.66,9h.66v.24h-.66Zm.18,35.56h.24v.42h-.24ZM124.36,41v.24q.06.42.42.42v-.24A.37.37,0,0,0,124.36,41Zm.66,8.14h.43v.42l-1.09.24Q124.36,49.43,125,49.13ZM124.54,3.5v.9H125V4.16a1.48,1.48,0,0,1-.24-.66Zm.24,34a1.78,1.78,0,0,1-.24.9H125v-.9Zm-.24,20.61H125q0,.42-.48.42ZM124.78,39v.24h.42V39Zm0,11.21h.42v.43A.37.37,0,0,1,124.78,50.21ZM125,6.57v.24h.43V6.57Zm0,26.77v.42h.18v-.42Zm0,21h.43v.25H125Zm.18-19.29v.25h.49v-.25Zm0,.67v.42h.49C125.69,35.89,125.53,35.75,125.2,35.75Zm0,2.83v.24h.49v-.24Zm.25,7.23h.42v.25h-.42Zm.24-42.49q.3,0,.6.6V4.4Q125.81,4.4,125.69,3.32Zm.42,40.5v.49h-.42C125.73,44,125.87,43.82,126.11,43.82Zm-.42,9.23h.6q0,.48-.42.48Zm.18-47.56v.42h.24V5.49Zm0,.84v.24h.42V6.33Zm0,38.82h.24a1.48,1.48,0,0,0,.66.24l-.24.42a1.82,1.82,0,0,0-.66-.18ZM126.11,0h.42V.24h-.42Zm0,2.65h.42v.42h-.42Zm0,28.27v.43h.18v-.43Zm0,2.84V34a1.82,1.82,0,0,0,.18.66l-.18,1.09V36h.18l.48-1.33a.21.21,0,0,1-.24-.24.21.21,0,0,0,.24-.24ZM126.53,54v.42h-.42Q126.17,54,126.53,54Zm0-11.87h.24v.48h-.24Zm0,6.15H127v.24h-.42Zm.66-18.39-.42.66v.85H127c0-.89.22-1.33.67-1.33v-.18Zm-.42,11.39h.42v.42h-.42Zm0,2h.42v.18h-.42Zm.67-38.4h.66c0,.61.2.91.6.91v.84h-.18C128.28,6.57,127.92,6,127.44,4.82Zm.18,33.1h.48v.48h-.48Zm.24-14.65v.18h.42v-.18Zm0,3.25V27h.42a1.92,1.92,0,0,1,.24-.67A1.48,1.48,0,0,1,127.86,26.52Zm.24,4.16h.42v.91a.37.37,0,0,1-.42-.42Zm1.75-24.11V7c0,.24-.3.55-.91.91h-.42V7.23l.18-.42.48.18Zm-.91,34V41h-.42Q128.58,40.57,128.94,40.57ZM128.7,3.32h.48q0,.42-.48.42Zm0,19v1.09h.48l-.24-.42a1.47,1.47,0,0,0,.24-.67Zm0,3.08v.24a.49.49,0,0,0,.48.42v-.24Q129.18,25.44,128.7,25.44Zm0,16.46h.48v.66h-.48Zm.24-36.84h.42v.43h-.42Zm1.33,2.6V7.9l-.24.42a.21.21,0,0,1,.24.24q-.24,0-.24.18l-.42-.18-.43.18q0-.18-.24-.18a1.48,1.48,0,0,0,.24-.66h.18l.49.24Q129.91,7.66,130.27,7.66Zm-1.09,4h.43v-.42C129.32,11.25,129.18,11.39,129.18,11.63Zm0,9.83v.48h.18v-.48Zm.18-12.72h.25c.2,0,.56.44,1.08,1.33q0,.36-.66.66A9.63,9.63,0,0,1,129.36,8.74Zm0,11.21a.45.45,0,0,0,.49.43H130a.37.37,0,0,0-.42-.43Zm.49,11.4h.42v.24h-.42Zm0,2.65h.42v.42A.37.37,0,0,1,129.85,34Zm.18-8.56h.66a.37.37,0,0,1-.42.42H130Zm0,3.31h.48v.43C130.19,29.18,130,29,130,28.75Zm.24-13c0,.29.18.43.42.43l.24-.43Zm0,3.74v.18h.42v-.18Zm0,.42a1.51,1.51,0,0,1,.24.67.37.37,0,0,0,.42-.43l-.42-.24Zm.24-14.89h.18v.43h-.18Zm0,16.64h.42v-.42Q130.51,21.34,130.51,21.7Zm.84.66v.43l-.84.24v-.42Zm-.84,5.07h.42v.42h-.42Zm.6-2.65h.24V25a.37.37,0,0,1-.42.42h-.24V25.2Q130.75,24.78,131.11,24.78Zm-.18-9.41v.18h.66v-.18Zm.42,1.93.24.48h-.66Q131,17.3,131.35,17.3Zm.24,4.64h.67q.42.06.42.42v.25a.58.58,0,0,0-.66.66h-.43V23c0-.16.07-.24.19-.24l-.19-.43Zm.43-7.47h.42v.42H132Zm0,12.3h.42v.42H132Zm.42-18.63h.48v.18h-.48Zm.24,5.66h.24v.43h-.24Zm1.08,4.41c.29,0,.43.18.43.42h-.43Zm.25,2h.18v.43H134Zm1.08-2.89h.24a.44.44,0,0,1,.42.48h-.24Q135.09,17.78,135.09,17.3Z"/></svg>