<svg width="44" height="28" viewBox="0 0 44 28" fill="none" xmlns="http://www.w3.org/2000/svg">
<path d="M15.8835 26.665C16.901 26.4662 17.8654 26.0532 18.7138 25.4532C19.5622 24.8532 20.2755 24.0795 20.807 23.1827C21.6077 21.8939 22.0211 20.3991 21.9975 18.8787C22.0341 17.4862 21.6677 16.113 20.9429 14.9269C20.2037 13.7892 19.1048 12.9366 17.8244 12.5076C18.6 12.1384 19.2949 11.6175 19.8689 10.9751C20.7352 9.83847 21.1731 8.42882 21.1047 6.99719C21.1445 5.52601 20.7135 4.08095 19.8754 2.87583C18.5167 1.01078 16.2048 0.0521692 12.9397 0H0V26.9976H12.0663C13.3466 27.0183 14.6257 26.9068 15.8835 26.665V26.665ZM5.35704 4.68871H11.1799C12.2501 4.65998 13.318 4.80306 14.3437 5.11258C15.3098 5.51689 15.7908 6.34725 15.7864 7.60366C15.834 8.06198 15.7575 8.52472 15.5649 8.94269C15.3724 9.36066 15.0711 9.71822 14.693 9.97736C13.8273 10.4507 12.8495 10.6763 11.8657 10.6295H5.35704V4.68871ZM5.35704 22.2958V15.1225H11.9498C12.8643 15.0877 13.7761 15.2431 14.6283 15.579C15.1766 15.8206 15.6361 16.2291 15.9424 16.7471C16.2487 17.2652 16.3865 17.8669 16.3364 18.4679C16.3364 20.1286 15.7498 21.2524 14.5766 21.8393C13.7189 22.1978 12.7931 22.3603 11.8657 22.3154L5.35704 22.2958Z" fill="#74788B"/>
<path d="M27.0724 25.4449C29.076 27.1276 31.5922 28.0319 34.1797 27.9991C37.4366 27.9991 39.9683 26.9896 41.7748 24.9706C42.8073 23.9714 43.5006 22.6582 43.7527 21.2239H38.3662C38.0087 21.9919 37.4329 22.6303 36.7148 23.0549C35.9968 23.4795 35.1703 23.6703 34.3445 23.602C33.3093 23.6419 32.2853 23.3712 31.3974 22.8229C30.0788 21.9827 29.3733 20.5261 29.2876 18.4461H43.9835C44.0317 17.0704 43.9743 15.6931 43.8121 14.3267C43.6038 12.7911 43.0533 11.3258 42.2034 10.0448C41.3503 8.70006 40.1399 7.63492 38.7157 6.97558C37.2188 6.308 35.6002 5.97764 33.9687 6.00672C32.6435 5.95675 31.3224 6.18581 30.0866 6.67983C28.8507 7.17385 27.7263 7.92238 26.7823 8.87942C24.9274 10.7946 24 13.5498 24 17.1452C23.9956 20.971 25.0197 23.7375 27.0724 25.4449ZM30.8436 11.6573C31.2617 11.2485 31.7574 10.9328 32.2996 10.7299C32.8419 10.5271 33.4191 10.4415 33.9951 10.4784C35.1361 10.4422 36.2505 10.8375 37.1267 11.5895C37.5642 12.0103 37.9141 12.5179 38.1554 13.0815C38.3968 13.645 38.5246 14.253 38.5311 14.8687H29.4195C29.5488 13.6696 30.0478 12.5443 30.8436 11.6573V11.6573Z" fill="#74788B"/>
<path d="M39 2H28V4H39V2Z" fill="#74788B"/>
</svg>
