<svg width="40" height="29" viewBox="0 0 40 29" fill="none" xmlns="http://www.w3.org/2000/svg">
<path d="M0.0534363 3.53589L10.654 13.4031L12.2208 14.8632L0.220112 26.4305L0.0667681 26.1438L0.0534363 3.53589Z" fill="#74788B"/>
<path d="M38.4823 0.669205L19.9546 18.5036L1.12683 0.909218C1.51825 0.543096 2.01519 0.309789 2.54691 0.242514C2.75337 0.229058 2.96049 0.229058 3.16695 0.242514H36.8355C37.4148 0.216525 37.9885 0.365182 38.4823 0.669205V0.669205Z" fill="#74788B"/>
<path d="M25.8416 16.4634L38.469 28.2441C38.0489 28.3574 37.7089 28.4774 37.3622 28.5441C37.1407 28.5686 36.9171 28.5686 36.6955 28.5441H3.28695C2.87359 28.5441 2.46023 28.4707 2.04021 28.4307V28.3174L14.1542 16.6367L14.5409 16.9901L18.9145 21.0636C19.0386 21.2305 19.2 21.3661 19.3858 21.4594C19.5716 21.5528 19.7766 21.6015 19.9846 21.6015C20.1925 21.6015 20.3976 21.5528 20.5834 21.4594C20.7692 21.3661 20.9306 21.2305 21.0546 21.0636L25.5016 16.7834C25.6016 16.6767 25.7082 16.5834 25.8416 16.4634Z" fill="#74788B"/>
<path d="M27.6883 14.6565L39.769 3.01587V25.9372L27.6883 14.6565Z" fill="#74788B"/>
</svg>
