<svg width="31" height="30" viewBox="0 0 31 30" fill="none" xmlns="http://www.w3.org/2000/svg">
<path d="M0.950012 14.1368C1.02335 13.5901 1.09002 13.0501 1.17669 12.5101C1.51673 10.4163 2.32584 8.42659 3.54349 6.68973C5.04332 4.48561 7.11233 2.72906 9.53062 1.60679C11.9489 0.484516 14.6261 0.0384596 17.2776 0.316032C19.9387 0.562591 22.4783 1.54613 24.6114 3.15619C26.761 4.7433 28.4404 6.88321 29.4711 9.34845C30.5018 11.8137 30.8453 14.5122 30.465 17.157C30.2 19.1301 29.5375 21.029 28.5176 22.7387C27.4977 24.4485 26.1416 25.9336 24.5314 27.1042C23.3297 28.0001 21.9897 28.6937 20.5645 29.1577C20.441 29.2238 20.3015 29.2542 20.1617 29.2454C20.0219 29.2367 19.8873 29.1891 19.773 29.1081C19.6588 29.0271 19.5694 28.9158 19.5148 28.7868C19.4603 28.6577 19.4429 28.516 19.4644 28.3776C19.4644 27.0909 19.4644 25.8108 19.4644 24.5241C19.4962 23.8859 19.387 23.2485 19.1444 22.6573C18.9682 22.3173 18.7723 21.9878 18.5577 21.6706C19.0977 21.5706 19.6844 21.4906 20.2578 21.3439C21.7852 21.0389 23.1419 20.1701 24.058 18.9104C24.6904 17.946 25.073 16.8394 25.1714 15.6902C25.3049 14.8197 25.3049 13.9339 25.1714 13.0634C24.9797 12.1121 24.5352 11.23 23.8847 10.5099C23.8296 10.4582 23.7923 10.3904 23.7779 10.3162C23.7636 10.242 23.7729 10.1652 23.8046 10.0966C24.1844 8.91853 24.1179 7.642 23.618 6.50972C23.5928 6.4685 23.5589 6.43338 23.5185 6.40686C23.4782 6.38035 23.4324 6.3631 23.3846 6.35638C22.8803 6.30568 22.3723 6.40543 21.9245 6.64306C21.1778 6.99641 20.4511 7.4031 19.7111 7.76979C19.572 7.84307 19.4128 7.86882 19.2577 7.84313C16.983 7.26177 14.5987 7.26177 12.324 7.84313C12.1682 7.87113 12.0075 7.84277 11.8706 7.76312C10.9413 7.16524 9.92463 6.71541 8.85713 6.42971H8.79713C8.13042 6.28304 7.98375 6.36304 7.78374 7.04308C7.44684 8.06954 7.44684 9.1768 7.78374 10.2033C7.79549 10.2547 7.79622 10.308 7.78588 10.3597C7.77554 10.4114 7.75435 10.4603 7.72373 10.5033C7.16536 11.1767 6.75749 11.9618 6.52751 12.8058C6.29753 13.6498 6.25076 14.5333 6.39032 15.3969C6.47326 16.4307 6.74439 17.4407 7.19037 18.3771C7.51807 19.0047 7.96745 19.5608 8.51231 20.0129C9.05717 20.4651 9.68659 20.8042 10.3639 21.0105C11.1942 21.2561 12.0378 21.4542 12.8907 21.6039H12.984C12.7707 21.9973 12.5507 22.384 12.3173 22.784C12.2461 22.9207 12.203 23.0703 12.1907 23.224C12.1919 23.3536 12.1459 23.4793 12.0612 23.5774C11.9765 23.6756 11.859 23.7396 11.7306 23.7574C11.2859 23.9358 10.808 24.0162 10.3293 23.9932C9.85072 23.9702 9.38269 23.8443 8.95714 23.624C8.50098 23.3304 8.12336 22.9299 7.85707 22.4573C7.46364 21.7357 6.80301 21.1972 6.01697 20.9572C5.71086 20.8879 5.39507 20.8721 5.08358 20.9105C4.89024 20.9105 4.82357 21.0772 4.95691 21.2439C5.07359 21.4215 5.22291 21.5753 5.39693 21.6973C6.13278 22.1731 6.69428 22.875 6.99702 23.6974C7.16251 24.171 7.42862 24.6031 7.77707 24.9641C8.38614 25.4813 9.15817 25.767 9.95719 25.7708C10.6572 25.7708 11.3573 25.7708 12.104 25.7708V27.1709C12.104 27.5443 12.104 27.9243 12.104 28.2976C12.1279 28.4386 12.112 28.5835 12.0579 28.716C12.0038 28.8484 11.9138 28.963 11.798 29.047C11.6821 29.1309 11.5451 29.1807 11.4025 29.1909C11.2598 29.201 11.1171 29.171 10.9906 29.1043C8.82835 28.4007 6.86506 27.1917 5.26359 25.5775C3.69291 23.9946 2.49489 22.0814 1.75672 19.9772C1.34109 18.7713 1.08556 17.516 0.996682 16.2436C0.996682 16.1303 0.996682 16.0169 0.950012 15.9036V14.1368Z" fill="#74788B"/>
</svg>
