<svg id="Capa_1" data-name="Capa 1" xmlns="http://www.w3.org/2000/svg" viewBox="0 0 129.71 36.83"><defs><style>.cls-1{fill:#fff;}</style></defs><path class="cls-1" d="M114.51,0V.24h-.45V0Zm7.15.91v.48h-.26V.91Zm-12.24,2.3-.52.24h-.25V3.21q0-.42.51-.42ZM113.28,3v.48h-.19V3ZM108.2,3v.24h-.52V3Zm-1.49.48v.24h-.51V3.45Zm3.93.49a1.44,1.44,0,0,0-.26.66h-.51V4.12c0-.28.17-.43.51-.43C110.38,3.86,110.47,3.94,110.64,3.94Zm2.64.18v.24h-.71l-.25-.42h.25A2.08,2.08,0,0,0,113.28,4.12Zm3,0V4.6H116V4.12Zm-6.83,0v.24h-.52V4.12Zm-1.74,0V4.6H107q0-.48.45-.48Zm4.38.24v.49h-.45V4.36Zm9.08.24a.48.48,0,0,1-.52.49V4.6Zm-1.22.25v.42h-.26V4.85Zm-3.67,0v.42h-.52C115.73,5,115.9,4.85,116.25,4.85Zm1.48.42c-.43.77-.75,1.15-1,1.15h-.26V5.51q.45,0,.45-.42A2.64,2.64,0,0,0,117.73,5.27Zm-4.64-.18v.42c-.34,0-.52-.14-.52-.42Zm-1.22,0v.18c-.09.32-.26.48-.52.48l-.26-.48.52-.18Zm-76.13.18v.48h-.25V5.27ZM115,5.51V6h-.26V5.51Zm-4.38,0V6h-.26V5.51Zm-3.22.91c0,.32-.19.49-.45.49h-.51c-.35,0-.52-.17-.52-.49V6h.52v.66l.51-.24Zm7.09-.18v.18c-.05.32-.2.49-.45.49l-.52-.25c0,.33-.45.63-1.22.91V7.39a1.77,1.77,0,0,0,.25-.73l-.51.25h-.19V6.42a2.56,2.56,0,0,0,1-.18,2.3,2.3,0,0,0,1,.18A2,2,0,0,1,114.51,6.24Zm-2.9.91v.24a.46.46,0,0,1-.52.42h-.45q0-.66-.51-.66v.42a1.77,1.77,0,0,1,.25.73l-.51.24-.26-.48V7.15c0-.2.45-.51,1.23-.91h.25C111.09,6.84,111.26,7.15,111.61,7.15Zm-9.79-.49h-.26q-.51,0-.51-.42h.25C101.65,6.28,101.82,6.42,101.82,6.66Zm7.08-.24v.24c0,.33-.21.49-.51.49h-.45V6.91c0-.33.15-.49.45-.49Zm12,1.39c-.21,0-.45-.22-.71-.66,0-.33.15-.49.45-.49Zm5.86,9.7v.66h-1.22c0,.24-.24.49-.71.73l.26.42a.48.48,0,0,1-.52.49c0,.2.41.58,1.23,1.15v.24q-1.23,0-1.23-.48c-.47.16-.71.32-.71.48a1.36,1.36,0,0,1,.26.67l.45-.25h.26v.25l-.26.48-.45-.24h-.26c0,.44-.25.67-.77.67l.26.48.51-.24h.26c0,.28.24.66.71,1.15h-.26l-1-.67h-.26l.26,1.34.51-.19h.2c-1,1.05-1.81,1.58-2.45,1.58v.48h1V26l.71.48h.51c0-.61.41-1.15,1.23-1.63v.24a1.65,1.65,0,0,0-.26.72c.17,0,.26.06.26.19q-.78,0-.78.48v.24l1,.91-.45.24a.48.48,0,0,0-.52-.48l-1,.73h-.26l-.45-.25a.23.23,0,0,1-.26.25c0-.25-.26-.49-.77-.73h-.19a5.87,5.87,0,0,1,.45,1.88l-.71.42c-.35,0-.52-.3-.52-.91h-1.67c0,.77-.26,1.15-.77,1.15a2.21,2.21,0,0,0,1.22,1.15v-.48h-.45v-.42h.19l1.22.24v.18l-.45.73q.45.06.45.42V32a2.53,2.53,0,0,0-1.41.25h-.77v.24h-.26v-.73l1.22-.18v-.24h-1.22l-.2-1.15q-.51.06-.51.42H118c-.17,1.37-.25,2.22-.25,2.54h-.26c0-.28-.17-.42-.52-.42v-.24l.52-.73H117v-.18l.26-.49h-.45l.19,1.16q-1,0-1,.9h-.45v-.66l-1.23.42c0-.12-.08-.18-.25-.18,0,.2-.26.42-.78.67,0-.17-.06-.25-.19-.25v.25l.19.48c-.13,0-.19.06-.19.18l-.52-.18a4.58,4.58,0,0,1-1.48.42l-.71-.9-.51.24c-.82-.33-1.22-.63-1.22-.91h-.45v.42c.47,0,.7.16.7.49l-.51.24q-.06-.48-.45-.48a.49.49,0,0,1-.52.48,2.55,2.55,0,0,0-1.22-.48v.24c-.65-.08-1-.33-1-.73H105v.49q0,.36,1,.9v.25h.26A2.63,2.63,0,0,1,107,34v.24a1.88,1.88,0,0,0-.26.73h-.51l-1-.73H105l.25.49V35L104,32.89c-.39,0-.88.47-1.48,1.39l-.45-.24v.49c.47,0,.71.16.71.48v.18h-.26c-.39,0-.71-.44-1-1.33h-.51l.51-.73v-.42l-.51.18h-.2q-.51,0-.51-.66h-.26a1.69,1.69,0,0,1-1,.48v.18h.52c0-.12.06-.18.19-.18v.42c-.43.77-.75,1.15-1,1.15v-.42l.25-.48c-.34,0-.51-.23-.51-.67h-.45l.26.42a2.22,2.22,0,0,1-.78.25v.48h.52v.42h-.26a1.67,1.67,0,0,0-.71-.24v-.18c0-.16.07-.24.2-.24l-.2-.49a1.87,1.87,0,0,0,.2-.9h.25l.52.24.26-.49a2.1,2.1,0,0,1-.78-.24l-1,1.15c-1-.2-1.48-.58-1.48-1.15L94,32v.25c.35,0,.52.16.52.48h.26v-.48h.45q0,.66.51.66c0,.32-.26.49-.77.49a2.55,2.55,0,0,0-1.23-.49l.78,1a1.47,1.47,0,0,0-.26.67H94a1.79,1.79,0,0,0-.71-1.4v-.24a2,2,0,0,0,.45-.66A1.69,1.69,0,0,1,93,32l-.52.73c.17,0,.26.06.26.18h-.45a1.44,1.44,0,0,0-.26-.66l-.51.24h-.46l-.51-1.15h-.26q0,.66-.45.66l-.51-.24A2.23,2.23,0,0,1,88.1,32v-.42a2.78,2.78,0,0,1-1.22.18v-.18l-.52.18h-.45v-.18l.26-.49.45.25h.52v-.25q-.78,0-.78-.24l-.45.24H85.4q-.45,0-.45-.48l-.52.24h-.71a2.68,2.68,0,0,1-.51-.91h-.52v.49c.82,0,1.23.52,1.23,1.57v.73h-.2v-.48l-.51.24a2.83,2.83,0,0,0-1.48-1.64h-.45l.19.49v.24H81V29.92l-1,.91h-.26v-.24l.26-.42-1.74-.25v.67a1.81,1.81,0,0,1,1,.24c0-.16.08-.24.26-.24l.25.48-1.22.25c-.17-.49-.67-.73-1.48-.73h-.71c0-.45-.41-.67-1.22-.67a1.51,1.51,0,0,0-.26.67h-.26c0-.45-.17-.67-.51-.67l-1.42.25v-.25l.19-.48a4,4,0,0,1-.71-.43h-.25v.25h.51v.18a.47.47,0,0,1-.51.48l-.45-.24c0,.49-.35.73-1,.73v-.24l-.46.24h-.25v-.73c-.82.16-1.23.32-1.23.49L68,29.92H66.59a2.18,2.18,0,0,1,.19.91l.78-.42H68a1.56,1.56,0,0,0-.45.91H67.3c-.17,0-.26-.08-.26-.25l-.45.25h-.51l.25-.49c0-.16-.08-.24-.25-.24.21-.77.45-1.15.7-1.15,0,.16.09.24.26.24V29a1.67,1.67,0,0,1-.71-.24c-.21.77-.47,1.15-.77,1.15h-.45l-1.48-1.15v.49h.51v.18c0,.16-.08.24-.25.24l.25.49v.24c-.34,0-.51-.16-.51-.49-.17,0-.26.08-.26.25l-1.22-.25H61.7l.19.49c-.13,0-.19.06-.19.18a2.78,2.78,0,0,0-1-.18v-.24h.51v-.49l-.51.24-.45-.24v.24l.25.49a2.78,2.78,0,0,0-1,.18l.26-1.15a.43.43,0,0,0-.45-.43h-.52l.71,1.16H58.22L57.77,29c-1,.13-1.48.51-1.48,1.16h-.52v-.25l.26-.48c-.17,0-.26-.06-.26-.18-.94.08-1.41.38-1.41.91h-.52v-.49l.71-.91v-.24a3.77,3.77,0,0,1-1.42.48,2.06,2.06,0,0,0-.77-.24l.26.49a.47.47,0,0,1-.52.42h-.45v-.42a28.82,28.82,0,0,0-3.22.42v-.42L49.65,29v-.48l-1.22.24L48,28.53c-.22,0-.62.38-1.22,1.15h-1l-1-.67h-.19c0,.45.32.67,1,.67v.49c-1.33-.41-2-.87-2-1.4a4.21,4.21,0,0,1-1.23.91l-.19-.42.19-.49v-.24h-.19V29h-.77q-.45,0-.45-.48c-.52,0-.78.38-.78,1.15h-.26a4.55,4.55,0,0,1-.7-.42H38.9q0,.66-.45.66l-.52-.24a1.63,1.63,0,0,1-.71.24,2.06,2.06,0,0,0-.77-.24A2.67,2.67,0,0,1,37,30.83l-.78-.42a1.69,1.69,0,0,1-.19.66.46.46,0,0,1,.45.49h-.26c-.47,0-.7-.39-.7-1.15l-.71.42a.52.52,0,0,0-.52-.42v.42a1.83,1.83,0,0,1,.26.73h-.26c-.26,0-.58-.32-1-1l.45-.67H33a.91.91,0,0,1-1,.91,2.56,2.56,0,0,0,.45.73v.18l-1-.42q-.07.42-.45.42h-.26l-.26-1.15h.52v.48h.45l-.26-.48c.17,0,.26-.06.26-.18l-1.23-.24c-.3,1-.79,1.57-1.48,1.57a1.89,1.89,0,0,1-.19-.91,2.12,2.12,0,0,1-.77.24c0,.45.32.67,1,.67v.49a8.14,8.14,0,0,0-1.93-.49c0,.16-.09.24-.26.24a.42.42,0,0,0-.45-.42V32h.45v.25a3.87,3.87,0,0,0-1.67.48v-.24a4.64,4.64,0,0,1-1.48.42L23,32.23a1.51,1.51,0,0,0,.26-.67l-.71.42c-.51,0-.77-.22-.77-.66l-1,1.57A5,5,0,0,0,19.06,32c0,.33-.19.49-.45.49h-.26l.26-.49v-.42H18.1c-.3,0-.54.68-.71,2.06h-.26v-.73h-1a.64.64,0,0,0,.71.73V34h-.25c-1-.4-1.42-.93-1.42-1.57h-.52l.26.42-.51.24-1-.24a1.67,1.67,0,0,1-.71.24,1.44,1.44,0,0,1-.26-.66l-.51.24h-.26l.26-.48-.71-.49V32l.26.49-.77.42-.46-1.15H9.79v.73H9.53c0-.61-.49-1.07-1.48-1.4v.67c-.21,0-.45-.22-.71-.67.17,0,.26-.08.26-.24H7.34l-1.22.24v.25q1,0,1,.42H6.63a2.59,2.59,0,0,0-.77-.18v-.49l.26-.48c-.82-.08-1.23-.3-1.23-.67h.52v-.24H4.64c0,.16-.09.24-.26.24q-.06-.48-.45-.48a1.78,1.78,0,0,0-.26.73H3.41c0-.49-.23-.73-.71-.73v-.91L3,27.38q-.51,0-.51-.42v-.25l.25-.48H1.93V27H1.48v-.73L1,26.47a2.42,2.42,0,0,1-.45-1.15c.12,0,.19-.08.19-.24H.26v-.43H.52l1.22.67h.19L1,23.68V23.5L1.22,23h-1v-.24L1,21.62c-.26,0-.58-.46-1-1.39,1-.28,1.48-.58,1.48-.91H1.22L0,19.57v-.49c.22,0,.54-.3,1-.91,0,.16.08.24.25.24l.52-.66.45.18h.26v-.18a1.67,1.67,0,0,1-.71-.24.52.52,0,0,1-.52.42H1c0-.24.32-.55,1-.91h.52c0,.32.08.49.25.49a1.62,1.62,0,0,1,.71-.25V17H3V16.6c.65,0,1-.16,1-.49-.34,0-.52-.16-.52-.48.18,0,.26-.06.26-.18l1,.42h.25v-.24A6.54,6.54,0,0,0,3.16,15V14.3h.77a7.24,7.24,0,0,1,1.67-.25v.25h.52c0-.77-.17-1.16-.52-1.16a1.88,1.88,0,0,1-.71.19v-.67h.26a1.67,1.67,0,0,0,.71.24c0-.32.17-.48.52-.48v.48l-.26.43c.47,0,.71.16.71.48h.51l.71-.91a7.49,7.49,0,0,0,1.74.67h.26v-.24l-1.48-.19V12.9c0-.32.23-.48.7-.48a2.15,2.15,0,0,0,.78.24c0-.16.08-.24.25-.24l.2.48c-.13,0-.2.08-.2.24h.2c1.16-.32,1.74-.7,1.74-1.15h.51a1.92,1.92,0,0,0,.19.67h-.7v.91h.51c0-.45.65-.67,1.93-.67,0-.32-.4-.48-1.22-.48V12l1.74.19v.72c0,.28-.26.43-.77.43q0,.48.51.48a1.67,1.67,0,0,1,.71-.24c0,.16.09.24.26.24l.25-.48c-.17,0-.25-.06-.25-.19h.71V12.9c-.65,0-1-.16-1-.48v-.24h.77c0,.64.48,1,1.42,1l-.19-.48a2.32,2.32,0,0,0,.19-.91h.51l-.51,2.06h.77a1.51,1.51,0,0,1,.26-.67c-.17,0-.26-.08-.26-.24h.45c.52,0,.78.31.78.91h.25q.45,0,.45-.48a.39.39,0,0,1-.45-.43l1-.72v.48h.45c0-.44.17-.67.52-.67a2.39,2.39,0,0,1,1.48,1.15L24,12.9h.26c0,.45.17.67.51.67H25V12.9h-.52v-.48l1.74.48c.22-.93.45-1.39.71-1.39s.52.2.52.48l-.26.43a1.8,1.8,0,0,1,.26.72l.45-.24.51.24a1.8,1.8,0,0,0,.26-.72h.71l-.26,1.15c0,1.29.49,2,1.48,2.06l-.26-.43V14.05h.26c.34,0,.52.18.52.43-.18,0-.26.08-.26.24l.45.24a1.44,1.44,0,0,0,.26-.66l.77.42H33V14.3h-.71v-.49c.47,0,.71-.16.71-.48h.51v.72L33.3,15.2H34V15l-.25-.48.51-.18c.17,0,.26.06.26.18L35,14.3c.26,0,.52.22.77.66a5.31,5.31,0,0,1,1.94-.66,1.4,1.4,0,0,1,.25.66h.52l.71-.48c0,.52.32.85,1,1v.66h.52v-.24l-.26-1.15h.26c.3,0,.45.24.45.73h1v-.73H41.6v-.24c0-.29.17-.43.52-.43l.45.25v-.49h.51l.26.91h.2c0-.28.08-.42.25-.42,1.46.64,2.19,1.09,2.19,1.33h.26c.34,0,.52-.14.52-.43H46c.65-.93,1.23-1.39,1.74-1.39v.24l-.26.43a1.69,1.69,0,0,1,1,.48l.26-.48V14.3h-.45v-.49h.19L50.17,15h.51l-.25-.48.25-.43a1.89,1.89,0,0,1-1.22-.48c0,.16-.09.24-.26.24,0-.16-.08-.24-.25-.24a1.55,1.55,0,0,0,.25-.91h.26c0,.36.32.67,1,.91v-.43c.3,0,.45.31.45.91h.51l.26-1.15h.45a9.14,9.14,0,0,0-.45,1.82,1.78,1.78,0,0,1,.26.73h.45a1.64,1.64,0,0,1,.26-.73H52.1V14.3h1c0-.37.32-.69,1-1h.26v.24a1.56,1.56,0,0,1-1.49,1.15l.26.48v.25l-.26.42h.45c0-.28.09-.42.26-.42L53.32,15v-.24l1.23.24h.26c.34,0,.51-.3.51-.91l.71.43h.77a2.19,2.19,0,0,1,.2.72h.77l-.26-.48V13.57a1.81,1.81,0,0,0,1-.24v.24l.51-.24h.26v.24a1.78,1.78,0,0,0-.26.73h.71v-.73h.77l.2,1.39c.68-.24,1-.46,1-.66v-.25h-.78v-.48c0-.28.18-.43.52-.43s.58.39.71,1.16l.51-.25h.45l.78.43c.3,0,.45-.14.45-.43h-.45l.25-.48v-.43h-.51v-.48h.26c1.28.69,1.93,1.37,1.93,2.06.26,0,.66-.47,1.22-1.39v-.19l-.45-.72H67a6.46,6.46,0,0,1,1.74,1.15V12.9l.45.24h1.23a1.91,1.91,0,0,1,1-.48c.17,0,.58.38,1.22,1.15l.45-.24v.48h.52v-.48h-.52c0-.28.17-.43.52-.43h.25l.45.19.26-.43v-.24l-.51.24h-.2v-.48l-.51.24L72.9,12h.52l1.22.19a1.51,1.51,0,0,0,.26-.67h1q.51.06.51.48H75.16v.19h.45l-.45.72h.45l.77-.91h.19c.35,0,.52.23.52.67l.51-.24h.46q0,.72.51.72h.26v-.72H79l2,1.15a1.63,1.63,0,0,1,.26-.91H81l-1.23.24v-.72c0-.29.15-.43.45-.43H81q0-.48.45-.48v.48l-.45.67a2.38,2.38,0,0,1,1.22.24c0-.2.24-.42.71-.67h.26c0,.61.23.91.71.91,0-.77.25-1.15.77-1.15l.26.43L85.4,12l1.22.19L86.88,11h.51c0,.65.48,1,1.42,1l.52-.24,1,.43V12q0-.72-1-.72l.25-.43c.73.28,1.14.59,1.23.91v.43l-.26.48.51.24A5.62,5.62,0,0,0,91.77,11a6,6,0,0,1,2.71.73c0-.16.08-.24.26-.24L94.48,11V10.6A1.62,1.62,0,0,0,96,9.69a4.4,4.4,0,0,1,2.19.67,1.63,1.63,0,0,1,.71-.24q0,.48.51.48l.45-.24-.19-.49V9h.45V8.54h-.45V8.3h1v.24l-.26.42h1c0,.17.26.25.78.25v.24h-1.74v.24c.81,0,1.22.14,1.22.43a1.92,1.92,0,0,1,1-.25c0-1-.65-1.57-1.93-1.57V8.06a4.23,4.23,0,0,0,2.19-.67v.18l-.52.73c0,.28.34.42,1,.42v.49h-.51v.24h.51c0-.16.07-.24.19-.24a1.63,1.63,0,0,1,.26.91h.52L104,9q.51,0,.51-.42V8.06H104V7.57l.51.24q0-.66,1.23-.66v.66c-.52,0-.86.55-1,1.64l2-1.15V8.06l.45.24-.19.42v.49h.19c.26,0,.76-.47,1.49-1.4h.51c0,.77.41,1.15,1.22,1.15,0-.28.15-.42.46-.42q0,.42.51.42c0-.44.17-.66.52-.66q0,.42.45.42l-.26.49v.24h.26l.51-1.39c.43,0,.67.38.71,1.15h.77V8.72h.2L115,9c0-.28.17-.42.52-.42h.19c.17,0,.26.06.26.18.17,0,.26-.06.26-.18l1.22.18H118V8.3c-.51,0-.77-.24-.77-.73-.3,0-.45.24-.45.73l-.51-.24c0-.77.64-1.15,1.93-1.15.21.76.47,1.15.77,1.15,0,.16-.09.24-.26.24.47,2.14,1.12,3.21,1.93,3.21V11h.52v.25l-.26.48c.52,0,.78.14.78.43-.31,0-.65.7-1,2.12a2.86,2.86,0,0,0,1.23.18c0-.65.58-1,1.74-1.15l-1.23,1.15c.35,0,.52.38.52,1.15a2.66,2.66,0,0,0-.77-.18v.42h.25l1.23-.24a2.74,2.74,0,0,1,1.22,1.88.45.45,0,0,1-.51.42v-.67h-.2c0,.45-.26.67-.77.67l.26.48v.25h-.52v.24h1.23A2.76,2.76,0,0,1,126.74,17.51ZM115,7.15c0,.16-.08.24-.26.24l.26.42V8.3h-.51l-.2-.91.45-.24Zm-14.17,0v.42h-.51V7.15Zm13.46.91v.48c-.25,0-.51-.24-.77-.73V7.39C113.8,7.39,114.06,7.61,114.31,8.06Zm-7.15-.67c0,.2-.23.42-.7.67V7.81q0-.42.51-.42Zm16.68.18v.49h-.51V7.57Zm-16.16.49v.48c-.34,0-.52-.16-.52-.48V7.57C107.51,7.65,107.68,7.81,107.68,8.06ZM116,7.81c0,.33-.2.49-.45.49V7.81Zm5.67,2.79h-.26l-.78-.48h-.19v.48l-.51-.24.25-.49V9.45c-.51,0-.77-.08-.77-.24l.52-.91c-.18,0-.26-.08-.26-.24h.26c.17,0,.25.08.25.24l.45-.24h.26v.48c-.47,0-.71.06-.71.18ZM104,8.54v.18h-.71V8.54q0-.48.45-.48Zm-5.6,0v.18c-.35,0-.52-.14-.52-.42V8.06C98.23,8.1,98.41,8.26,98.41,8.54Zm27.11-.24v.42h-.19V8.3Zm-2.9.24a.45.45,0,0,1-.51.42h-.26V8.3A2.06,2.06,0,0,0,122.62,8.54ZM87.14,9h-.52V8.54C87,8.58,87.14,8.72,87.14,9Zm37.41-.24V9h-.45V8.72ZM109.61,9h-.19v.49h.19Zm-11.2.25v.24h-.52V9.21Zm-1.23,0v.24h-.51V9.21Zm-25.95,0v.48h-.52V9.21Zm47.46.24h-.25v.42h.25Zm-12.94,0h-.26a2.06,2.06,0,0,1-.77.24v1.15c.43-.76.77-1.15,1-1.15Zm-14,.24v.43a.47.47,0,0,1-.51.48l-.2-.48V9.45A1.67,1.67,0,0,0,91.77,9.69Zm-10-.24v.42h-.26q-.45,0-.45-.42Zm-64.34,0v.24h-.52V9.45Zm104.72.24v.43h-.26V9.69Zm-6.12,0h-.45v.18H116Zm-3.93,0h-.19v.18a2.53,2.53,0,0,1,1.22.73h.19C113.24,10.2,112.83,9.89,112.06,9.69Zm-1.93,0h-.52v.18h.52ZM93,10.12v.24a1.63,1.63,0,0,0-.71.24L92,10.12a2.17,2.17,0,0,1,.71-.43Zm31.1-.25v.49h-.51V9.87Zm-7.6,0h-.25v.49h.25Zm-2,0c-.3.08-.45.25-.45.49v.24q.45,0,.45-.48Zm-25.89,0v.49h-.26V9.87ZM23,10.36v.24q-.45,0-.45-.48V9.87C22.84,10,23,10.12,23,10.36Zm102.53.48a.43.43,0,0,1-.45.43c-.26,0-.52-.31-.77-.91l.51-.24C125,10.12,125.26,10.36,125.52,10.84Zm-23-.72h-.45a1.8,1.8,0,0,1-.26.72h1A1.65,1.65,0,0,1,102.53,10.12Zm-4.64.48-1-.48v.24l.26.48v.67l.45.24a1.88,1.88,0,0,1,.26-.73c-.17,0-.26-.06-.26-.18C97.8,10.84,97.89,10.76,97.89,10.6Zm-13.46-.48v.24h-.51v-.24Zm-3.15.48H80.5v-.48h.26C81.1,10.16,81.28,10.32,81.28,10.6Zm-1.23,0-.51.24c-.35,0-.52-.16-.52-.48l.52-.24Q80,10.18,80.05,10.6Zm38.9-.24h-1v.48h.2a2.06,2.06,0,0,1,.77-.24Zm-8.82,0h-.26v.48h.26Zm-1.74,0h-.45v.24h.45ZM94.22,11H94l-.45-.18c0,.12-.08.18-.26.18L93,10.6v-.24h.51C93.73,10.36,94,10.58,94.22,11ZM74.9,10.36v.48h-.26v-.48Zm-63.37,0v.24H11v-.24Zm110.83.24V11a1.55,1.55,0,0,0-.7.25V11q0-.42.45-.42Zm-4.89,0h-.26V11h.26Zm-13,0h-.25V11h.25Zm-20.8,0v.24h-1V10.6ZM49,10.6V11h-.52V10.6ZM96.41,11a2.08,2.08,0,0,1-.71-.18V11a1.88,1.88,0,0,1,.26.73h.45ZM119,11h-.77v.25q0,.48.51.48A1.88,1.88,0,0,1,119,11Zm-9.53,0h-.52c0,.33.17.49.52.49ZM84.69,11v.25c0,.24-.26.48-.77.72h-.71v-.48ZM14,11v.49h-.26V11Zm68.26.25v.48H82v-.48Zm-14,0v.48q-.45,0-.45-.48Zm-6.83.48h-1q0-.48.45-.48C61.27,11.31,61.44,11.47,61.44,11.75Zm-1.74-.48c0,.24-.24.48-.71.72v-.24q0-.48.45-.48Zm-6.38,0v.48h-.45Q52.87,11.27,53.32,11.27Zm-24.92.48V12c-.26,0-.51-.24-.77-.72h.26Q28.4,11.33,28.4,11.75Zm-13.2-.48v.48h-.52v-.48Zm-6.63,0v.48H8.05v-.48ZM93.7,12A3.87,3.87,0,0,1,92,11.51h-.26v.24a3.66,3.66,0,0,1,1.74.67ZM77.8,12h-.45v-.48A.45.45,0,0,1,77.8,12Zm44.82.19-.51.24v-.67C122.45,11.79,122.62,11.93,122.62,12.18Zm-3.41-.43H119v.43h.26Zm-24,0h-.26a1.67,1.67,0,0,1-.71.24v.43h.52c0-.29.15-.43.45-.43Zm-23,0v.67c-.34,0-.51-.14-.51-.43v-.24Zm-15.39,0V12a.51.51,0,0,1-.51.43c-.35,0-.52-.14-.52-.43Zm-24.28,0v.43h-.45v-.43Zm-8.05.43v.24h-1v-.67H24C24.3,11.79,24.47,11.93,24.47,12.18Zm-5.15-.43a.43.43,0,0,1-.45.43h-.26c0-.29.15-.43.45-.43Zm69.3.67a2.57,2.57,0,0,1-.78-.43,2.21,2.21,0,0,1-.25,1.15h.25Q88.23,13.14,88.62,12.42ZM69,12v.43c-.09.32-.26.48-.52.48V12ZM54.36,12v.43h-.52V12ZM30.08,12v.43h-.46V12Zm96.47.19v.48H126v-.48Zm-6.63,0h-.52v.24h.52Zm-21.06,0h-.45v.24h.45Zm-9.53,0h-.52v.24h.52Zm-2.19,0c-.35.08-.52.24-.52.48v.24h.52Zm-24,.24a2.39,2.39,0,0,0-.19.72h-.26a1.72,1.72,0,0,0-.51-1h.51Zm-14.42-.24v.24h-.45v-.24Zm-5.35,1h-.26q-.51,0-.51-.48l-.45.24h-.26c0-.24.24-.48.71-.72h.51l-.25.48Q43.34,12.72,43.34,13.14Zm-39.93-1v.48H3.16v-.48Zm117.21.24h-.45q0,.48.45.48Zm-24.47,0H95.7v.24h.45Zm-4.12,0h-.26a1.74,1.74,0,0,1-.25.72H92Zm-19.58,0v.48h-.26v-.48Zm-6.63,0v.24c0,.2-.24.42-.71.67v-.19a1.8,1.8,0,0,0,.26-.72Zm-4.64,0v.24h-.51v-.24Zm-9.79.48h-.51v-.48Q51.39,12.48,51.39,12.9Zm72.45.24v.19l-.51-.19a4,4,0,0,1-1.48.43l-.19-.43.45-.24c0,.16.08.24.25.24,0-.32.17-.48.52-.48h.45Q123.84,12.72,123.84,13.14ZM85.4,12.66h-.26v.48h.26Zm-2.45,0h-.26v.67H83Zm-26.66.48a2.39,2.39,0,0,0-.71.43l-.26-.43a2.19,2.19,0,0,1,.71-.48Zm-8.83-.48v.48H47v-.48Zm-15.9.24v.43H31.3c-.64-.21-1-.43-1-.67h.52A1.63,1.63,0,0,0,31.56,12.9Zm-8.83,0-.45.24a.47.47,0,0,0-.51-.48,1.55,1.55,0,0,1-.26.91l.52.24h1v-.24A1.47,1.47,0,0,1,22.73,12.9Zm102.08,0v.43h-.26V12.9Zm-4.64,0h-.51v.43C120,13.33,120.17,13.18,120.17,12.9Zm-37.93.24-.51-.24c0,.28-.2.43-.45.43a2.43,2.43,0,0,1,.19,1H82Zm-5.41-.24h-.71c-.34,0-.51.18-.51.43v.24a3.27,3.27,0,0,1,1.22-.43Zm-19.06,0v.24h-.52V12.9Zm-27.44,0v.43h-.71c0-.29.15-.43.46-.43Zm64.6.24h-.45v.19h.45Zm-8.76,0h-.52a1.39,1.39,0,0,1-.25.67v.24h.25c0-.32.18-.48.52-.48Zm-1.48,0h-.52v.67h.52Zm-16.87,0h-.26c0,.45-.17.67-.52.67a1.47,1.47,0,0,1,.26.67A2.08,2.08,0,0,1,68,14.3,2.86,2.86,0,0,1,67.82,13.14Zm-12.5.43h-.26c-.34,0-.51-.14-.51-.43h.26C55.15,13.18,55.32,13.33,55.32,13.57Zm-2,0h-.45v-.43C53.17,13.18,53.32,13.33,53.32,13.57ZM46,13.14v.91h-.45l.26.43v.24H45v-.91h.77l-.26-.48v-.19Zm-19.77,0c-.34,0-.51.19-.51.43v.24H26v-.48h.45v.48h.52C26.92,13.61,26.68,13.39,26.21,13.14Zm57.51.19h-.26v.48h.26Zm-11.78,0h-.26a1.67,1.67,0,0,1-.71.24v.48a1.69,1.69,0,0,1,1-.48ZM57,13.81a1.63,1.63,0,0,0-.71.24v-.24q0-.48.51-.48Zm-15.65-.48v.48q-.45,0-.45-.48Zm-10,.48h-.45v-.48Q31.3,13.45,31.3,13.81Zm93.51-.24v.48h-.26v-.48Zm-49.46,0h-.19v.48h.19Zm-4.64,0-.45.24a2.06,2.06,0,0,0-.77-.24l-.26.48v.25a2.24,2.24,0,0,1,1.23.66v-.91h.25Zm9.79.24h-.26v.49H81C81,14,80.8,13.81,80.5,13.81Zm-8.31,0h-.51v.24h.51Zm-51.13,0h-.52c0,.32.18.49.52.49Zm33.75.24v.25h-.45v-.25Zm-8.31,0a.47.47,0,0,1-.52.43v-.43Zm-18.1,0h-1v.43h.19a2.59,2.59,0,0,1,.77-.18Zm-3.41,0h-.52v.25H25Zm-2,0h-.45v.25H23Zm101.31.25v.42h-.71V14.3Zm-40.84,0H83v.18h.51Zm-11,0h-.26v.42h.26Zm-65.11,0H6.83v.18h.51Zm58.22.18h-.71c-.21,0-.45.24-.71.72h.46a1.65,1.65,0,0,1,1-.48Zm-6.57,0h-.51V15H59Zm-36.71,0H22V15h.25ZM125.33,15v.24a.23.23,0,0,1-.26.25l.26.42v.24h-.26c-.43-.44-.75-.66-1-.66,0-.33.15-.49.45-.49Zm-3.22,0h-.26a.45.45,0,0,0-.45.49h.26C122,15.45,122.11,15.28,122.11,15ZM79,15h-.45v.49C78.87,15.45,79,15.28,79,15ZM56.8,15h-.26v.49h.26ZM56,15a.45.45,0,0,0-.45.49H56Zm-24,0h-.51v.24h.51Zm-3.41,0h-.52v.24h.52Zm-.77,0h-.45v.24h.45ZM6.12,15H5.6v.24h.52Zm67,.24h-.45v.25h.45Zm-18.8,0H54.1v.43h.26Zm-3,0h-.51v.25h.51Zm-8.56,0h-.52v.43C42.66,15.63,42.83,15.49,42.83,15.2Zm-6.38,0h-.26c-.21,0-.45.23-.7.67h.7A1.51,1.51,0,0,1,36.45,15.2Zm89.84.25v.66c0,.16-.08.24-.26.24l.26.43V17l-1,.24v-.48h.45l-.26-.43.51-.24-.25-.48v-.18Zm-80.76,0H45a2.08,2.08,0,0,1-.71.18v.48a1.87,1.87,0,0,1,1.22-.48Zm-6.89,0h-.45v.18h.45Zm-3.41,0H35v.42h.26Zm-32.78,0v.42a.49.49,0,0,1-.52.48,1.63,1.63,0,0,0-.71-.24Q1.22,15.57,2.45,15.45Zm46.5.18v.48h.51Q49.33,15.63,49,15.63Zm-1.49,0H47q0,.48.45.48Zm16.88.24h-.45v.24h.45Zm-8.05,0h-.52v.24h.52Zm-14,0h-.45q0,.48.45.48Zm-2.64,0h-.51v.24h.51Zm83,.24v.24c0,.29.15.43.45.43V16.6C123,16.27,122.88,16.11,122.62,16.11Zm-84.17,0h-.52v.24h.52Zm88.81.24v.43H127v-.43Zm-5.15,0h-.45v.25h.45Zm2,.25q-.51.06-.51.42v.24q.51,0,.51-.48ZM36,16.78h-.26v.48H36Zm-34.52,0v.48q-.51,0-.51-.48ZM122.11,17h-.26v.49h.26Zm1,2.3-.45.73v.18a2.3,2.3,0,0,1,1-.18v-.24C123.54,19.48,123.37,19.32,123.07,19.32Zm-1.93,0h-.52v.25h.52Zm2.7.25v.48h.46C124.25,19.73,124.1,19.57,123.84,19.57Zm-1.73,0h-.26v.48h.26ZM1.93,19.81H1.48v.24h.45Zm124.62.66v.91H126v-.91Zm-2.45,0h-.51v.25h.51Zm-.77,0h-.26V21h.26ZM1.48,20.72H1.22q-.51.06-.51.48H1Q1.48,21.2,1.48,20.72Zm126.29.66v.49h-.25c-.35,0-.52-.16-.52-.49V21.2A2.59,2.59,0,0,0,127.77,21.38Zm1.68,0v.49h-.26v-.49Zm-2.9.24v.25h-1l.26.48a2.08,2.08,0,0,1-.71.18l.45.73-.71.42h-.26q0-.66-.45-.66v-.49c.47,0,1-.38,1.68-1.15A2.06,2.06,0,0,0,126.55,21.62Zm-3.93.25v.48h.45Q123,21.87,122.62,21.87ZM1.74,22.53H1.48V23h.26Zm125,1h-.19l-.52-.24v.42h-.51V23.5a1.8,1.8,0,0,0,.26-.72h.77A2.12,2.12,0,0,0,126.74,23.5Zm-4.12-.24h-.77v.24h.77ZM.52,23.93v.48H0v-.48Zm122.1.24h-.51v.24h.51Zm3.41.67v.48h-.51v-.48Zm1.94.24v.48h-.2v-.48ZM1.22,25.56,1,26h.77A.52.52,0,0,0,1.22,25.56ZM124.1,27h-.26l-1.22.18v.24h1.22Zm-3,0h-.52v.18h.52Zm-.26.42a.45.45,0,0,0-.45.48h.45Zm-76.57.48c0,.45-.17.67-.52.67,0,.32.17.48.52.48l.45-.72C44.72,28,44.57,27.86,44.31,27.86Zm84.17.25v.18H128v-.18Zm-86.88,0h-.51v.18h.51Zm-37.41,0H3.67v.18h.52Zm52.1.18a2,2,0,0,1-1,.24v.24h1.22V29H57C57,28.77,56.76,28.53,56.29,28.29Zm-9.53,0h-.52a1.8,1.8,0,0,1,.26.72H47A1.74,1.74,0,0,1,46.76,28.29Zm74.9.24h-.52c0,.32.17.48.52.48Zm-41.87.24h-.51V29h.51Zm-14.23,0c-.21,0-.45.22-.71.67h.26c.3,0,.45-.14.45-.43ZM60.92,29a1.64,1.64,0,0,1-.7-.24H60V29c.34,0,.51.15.51.43h.45Zm-23.24-.24h-.26v.67h.26Zm-33.49,0H3.93v.49h.26Zm71,.24H74.9v.43h.26Zm-1,0c-.3,0-.45.19-.45.43l.45.24Zm-4.9,0h-.45v.25h.45Zm-1.41,0c-.35,0-.52.19-.52.43l.52.24ZM52.1,29h-.19v.43h.19ZM46,29h-.19c0,.29.15.43.45.43h.26A.47.47,0,0,0,46,29Zm75.16.67a.49.49,0,0,1-.52.49c-.21,0-.45-.25-.7-.73l.51-.18C120.43,29.54,120.67,29.68,121.14,29.68Zm-50.68-.42h-.2v.42h.2Zm-34.72,0h-.51v.42h.51Zm6.38.66c-.52,0-.77.16-.77.49H40.9v-.24c0-.25.23-.49.7-.73C42,29.52,42.12,29.68,42.12,29.92ZM93,29.68h-.26v.49H93Zm-8.57,0h-.26v.49h.26Zm-2.19,0H82a.44.44,0,0,1-.51.49v.24H82l.26-.49Zm-4.89,0h-.52v.49C77.17,30.17,77.35,30,77.35,29.68Zm-19.58,0v.49H57v-.49Zm-6.38,0v.49h-.25a1.62,1.62,0,0,0-.71-.25.23.23,0,0,1-.26.25v-.49Zm-10.75,0v.49h-.52v-.49Zm76.57.24h-.45v.25h.45ZM48,29.92a.48.48,0,0,1-.52.49h-.7v-.49H47c.13,0,.2.08.2.25l.51-.25Zm-40.38,0H7.34v.49H7.6Zm44.76.25v.42h-.45v-.42Zm35.48.24h-.45v.18h.45Zm-29.62,0v.42h-.45v-.42Zm-1.93.66H56q-.45,0-.45-.48v-.18C55.79,30.41,56,30.63,56.29,31.07Zm-6.12-.66v.42h-.52v-.42Zm72.19.18v.48h-.51Q121.85,30.59,122.36,30.59Zm-5.86,0h-.25v.48h.25Zm-1.74,0h-.25v.48h.25Zm-20.54,0h-.71q0,.48.45.48h.26Zm-1.48,0h-.26a1.87,1.87,0,0,1-.45,1v.18l.45-.18.52.18v-.18A1.76,1.76,0,0,1,92.74,30.59Zm-19.32,0v.48h-.26q-.45,0-.45-.48Zm-1.48,0v.48l-1.23.25C70.71,31,71.12,30.71,71.94,30.59Zm-31.82,0v.73h-.26c-.3,0-.45-.17-.45-.49v-.24Zm-1.22,0v1l-.45-.24a2.21,2.21,0,0,0,.19-.73Zm87.65.24v.24H126v-.24Zm-37.74,0h-.45v.24h.45Zm-37.42,0v.24h-.51v-.24Zm-2.7,0v.49h-.26v-.49Zm-21.51,0h-.52v.73h.26A1.83,1.83,0,0,1,27.18,30.83Zm-21.58,0c0,.32-.19.49-.45.49H4.89c0-.33.18-.49.52-.49ZM90,31.07h-.7v.49h.25C89.88,31.56,90,31.4,90,31.07Zm-12.68,0v.49h-.26v-.49Zm-51.65,0h-1l-.26.91.52.25h.19L25.7,32l-.26-.42Zm89.06.25v.24c0,.12.26.34.78.67a1.55,1.55,0,0,1,.71-.25C116.07,31.54,115.58,31.32,114.76,31.32ZM85,31.32v.24a.52.52,0,0,1-.52.42h-.26v-.24c0-.28.17-.42.52-.42Zm-4.45,0v.42h-.45Q80.05,31.32,80.5,31.32Zm-47.2,0v.24a.47.47,0,0,1-.52.42v-.24C32.78,31.46,33,31.32,33.3,31.32Zm-10.76,0H22v.24h.51Zm91.77.24h-.25c0,.24-.26.62-.78,1.15v.18h.26c0-.24.26-.63.77-1.15Zm-14.94,0h-.51v.18h.51Zm30.34.18v.49h-.26v-.49Zm-17.65.49c-.3,0-.45-.17-.45-.49h-.26v.49l.52.24h.19ZM20.8,31.74h-.26v.49h.26Zm-5.6,0h-.52V32h.52ZM9.79,33.13v.25H9.53L8.05,32.23v-.49h.52ZM121.66,32v.25c-.09.32-.26.48-.52.48l-.26-.48V32ZM90.55,32v.73H90V32ZM79.28,32v.49H79V32Zm-5.6,0v.49h-.26V32ZM17.13,32h-.51v.25h.51Zm84.43.25h-.71v.24h.71ZM49,32.23v.24h-.52v-.24Zm-41.09,0v.48c-.35,0-.52-.16-.52-.48Zm114.76.24v.42h-.26v-.42Zm-11.53,0h-.25v.66h.77v-.24A.46.46,0,0,0,111.09,32.47Zm-34.26,0v.42h-.26v-.42Zm-60.41,0h-.51v.24h.51Zm103.75.24v.18l-.25.49a1.58,1.58,0,0,0-.71-.25v-.24A2.56,2.56,0,0,0,120.17,32.71Zm-3.22,0v.42h-.7q0-.42.51-.42Zm-27.37.18-.25.49a1.4,1.4,0,0,1,.25.66h-.51l-.26-1.15.52-.18C89.33,32.83,89.41,32.89,89.58,32.89ZM6.12,32.71v.42H5.86v-.42Zm84.17.18v.24h-.45v-.24Zm-4.38,0v.24c0,.25-.26.49-.77.73v-.24C85.14,33.38,85.4,33.13,85.91,32.89Zm-7.08,0v.49h-.77c0-.33.17-.49.51-.49ZM23,32.89v.49c-.3,0-.45-.17-.45-.49Zm-.71,0a.48.48,0,0,1-.51.49v-.49Zm-2.7,0v.49l-1.23.24c0-.24.24-.49.71-.73Zm-8.82.49H10.3v-.49C10.61,33,10.76,33.13,10.76,33.38Zm105.23,0q0,.54-1.68.9l-.25-.42c.81-.2,1.22-.44,1.22-.73A1.72,1.72,0,0,0,116,33.38Zm-31.82-.25c0,.33-.19.49-.45.49v-.49Zm38.19.25v.24h-.51v-.24Zm-3.41,0v.48h-.51v-.48Zm-16.42,0h-.26v.48h.26Zm-21.06,0v.48h-.71c0-.32.17-.48.52-.48Zm25.24.24V34q-.51,0-.51-.42Zm-5.86.42v.24h-1v-.66h.52Q100.34,34,100.85,34Zm-5.15-.18a.45.45,0,0,1-.51.42v-.42Zm-14.94,0v.42h-.52C80.24,34,80.42,33.86,80.76,33.86Zm30.33.67q-.06.48-.45.48l-.26-.48V34h.26C110.94,34.12,111.09,34.28,111.09,34.53Zm-1.48.48-.45.18v-.91l-.77.49-.19-.49V34h1.22Zm3.93,0h-.26q-.45,0-.45-.48l.45-.25A1.78,1.78,0,0,0,113.54,35Zm-12-.73v.49h-.51v-.49Zm-3,0c0,.25-.24.49-.71.73h-.26c0-.24.26-.48.78-.73ZM96,34.53V35H95.7v-.48Zm24,.24v.91h-.26a1.53,1.53,0,0,0-.26-.91Zm-.71,0a.52.52,0,0,1-.52.42l-.25-.42Zm-23.77,0v.42h-.25v-.42Zm5.86.24a.43.43,0,0,1-.45.43V35Zm15.91.43v.24h-.45v-.24Zm-16.87.24v.48h-.52v-.48Zm-7.09,0a.47.47,0,0,1-.51.48v-.48Zm23.25.24v.24H116v-.24Zm-6.12.24v.43h-.25c-.35,0-.52-.15-.52-.43Zm-1.48.18v.49h-.25v-.49Z"/></svg>