<svg id="Capa_1" data-name="Capa 1" xmlns="http://www.w3.org/2000/svg" viewBox="0 0 129.35 36.56"><defs><style>.cls-1{fill:#fff;}</style></defs><path class="cls-1" d="M115.92.21l0,.24-.45,0,0-.24ZM123,1.61l0,.48-.26,0,0-.48ZM110.62,3.06l-.53.21-.25,0V3c0-.29.2-.42.55-.39Zm3.87,0,0,.49-.19,0,0-.48Zm-5.07-.35,0,.24-.51,0,0-.24Zm-1.51.38,0,.25-.51,0V3.08Zm3.88.76a1.43,1.43,0,0,0-.3.65l-.51,0L111,4q0-.42.54-.39A.22.22,0,0,0,111.79,3.87Zm2.63.36,0,.24-.71,0L113.46,4l.26,0A2,2,0,0,0,114.42,4.23Zm3,.21,0,.48-.26,0,0-.48ZM110.56,4l0,.24-.51,0,0-.24Zm-1.73-.12,0,.48-.7,0q0-.48.48-.45Zm4.35.54,0,.48-.45,0,0-.48Zm9,.87a.49.49,0,0,1-.55.45l0-.49ZM121,5.42l0,.42-.25,0,0-.42Zm-3.66-.26,0,.43-.51,0Q116.81,5.13,117.32,5.16Zm1.45.53c-.48.73-.83,1.09-1,1.08l-.26,0,.06-.9c.3,0,.46-.11.48-.4A2.42,2.42,0,0,0,118.77,5.69Zm-4.61-.5,0,.42c-.35,0-.51-.18-.49-.46Zm-1.23-.09v.18c-.11.32-.29.47-.55.45l-.22-.5.53-.15ZM37,0,37,.5l-.26,0,0-.48Zm79.07,5.72,0,.49-.26,0,0-.49Zm-4.37-.3,0,.48h-.26l0-.49Zm-3.27.68c-.07.32-.23.47-.48.46l-.52,0a.44.44,0,0,1-.48-.52l0-.42.52,0,0,.67.53-.21Zm7.08.31v.18c-.07.32-.23.47-.49.46l-.49-.28c-.07.32-.5.59-1.29.82l0-.18a1.79,1.79,0,0,0,.3-.71l-.53.21-.19,0,0-.48a2.67,2.67,0,0,0,1-.11,2.14,2.14,0,0,0,1,.24A2.1,2.1,0,0,1,115.49,6.43Zm-2.95.71,0,.24a.46.46,0,0,1-.54.39l-.45,0c0-.45-.13-.68-.47-.7l0,.42a1.78,1.78,0,0,1,.21.74l-.54.21-.22-.5.06-.91c.06-.2.49-.47,1.29-.82l.25,0C112,6.8,112.19,7.11,112.54,7.14ZM102.8,6l-.25,0c-.35,0-.51-.18-.49-.46l.26,0C102.66,5.58,102.82,5.74,102.8,6Zm7.09.25,0,.24a.49.49,0,0,1-.55.45l-.45,0,0-.24q0-.48.48-.45Zm11.85,2.21c-.21,0-.43-.25-.66-.71q0-.48.48-.45Zm5.18,10.08,0,.66-1.22-.08c0,.24-.27.47-.76.67l.23.45a.48.48,0,0,1-.55.44c0,.2.37.61,1.14,1.24v.24c-.82-.06-1.21-.25-1.19-.57-.48.13-.73.27-.74.43a1.51,1.51,0,0,1,.21.69l.47-.21h.25v.25l-.29.46-.44-.27-.25,0c0,.44-.31.65-.82.61l.22.5.53-.2h.26a2,2,0,0,0,.63,1.2l-.26,0-.92-.73-.25,0,.16,1.35.53-.14H124c-1.06,1-1.91,1.45-2.55,1.4l0,.48,1,.08,0-.73.67.53.51,0c0-.61.49-1.12,1.34-1.55l0,.24a1.85,1.85,0,0,0-.31.71c.17,0,.26.08.25.2-.52,0-.78.11-.81.43v.24l.9,1-.47.21a.48.48,0,0,0-.48-.52l-1,.65h-.26l-.43-.28a.24.24,0,0,1-.28.23q0-.36-.72-.78h-.19a6,6,0,0,1,.32,1.9l-.74.37c-.34,0-.49-.33-.45-.94l-1.67-.11c-.05.76-.34,1.13-.85,1.09a2.3,2.3,0,0,0,1.14,1.23l0-.48-.44,0,0-.42h.2l1.2.33v.18l-.5.69c.3.06.44.21.42.46l0,.24a2.66,2.66,0,0,0-1.43.14l-.77,0,0,.24-.25,0,0-.72,1.23-.1,0-.24-1.22-.09-.12-1.16q-.51,0-.54.39l.51,0c-.26,1.35-.41,2.19-.43,2.52l-.26,0c0-.28-.14-.44-.48-.46l0-.24.56-.69-.51,0v-.18l.29-.46-.45,0,.11,1.17c-.64-.05-1,.23-1,.83l-.45,0,0-.66-1.25.34c0-.12-.07-.19-.24-.2,0,.2-.29.4-.82.61,0-.16,0-.25-.17-.26l0,.25.16.49a.17.17,0,0,0-.21.17l-.5-.22a4.21,4.21,0,0,1-1.51.32l-.64-1-.53.21c-.79-.38-1.18-.71-1.16-1l-.45,0,0,.43c.47,0,.7.21.68.53l-.53.2c0-.32-.16-.49-.42-.51a.49.49,0,0,1-.55.45,2.54,2.54,0,0,0-1.19-.57v.24c-.64-.12-.94-.39-.92-.79l-.25,0,0,.48c0,.25.29.57.9,1v.24l.25,0a2.31,2.31,0,0,1,.81-.43l0,.24a1.79,1.79,0,0,0-.3.71l-.52,0-.91-.79-.26,0,.22.5v.24l-1.08-2.2c-.38,0-.91.41-1.57,1.29l-.43-.27,0,.48c.47,0,.7.21.68.54l0,.18-.25,0c-.39,0-.68-.49-.87-1.4l-.52,0,.57-.69,0-.43-.52.15H100c-.35,0-.5-.26-.47-.7l-.26,0a1.69,1.69,0,0,1-1,.41V32l.51,0c0-.12.08-.17.21-.17l0,.43c-.48.73-.83,1.09-1,1.08l0-.42.29-.47c-.35,0-.5-.26-.47-.7l-.45,0,.23.44a2.1,2.1,0,0,1-.79.19l0,.48.51,0,0,.42-.26,0a1.66,1.66,0,0,0-.69-.29l0-.18c0-.16.08-.24.21-.23l-.16-.5a1.91,1.91,0,0,0,.25-.89l.26,0,.5.28.29-.47a2.11,2.11,0,0,1-.76-.29l-1,1.08c-1-.27-1.44-.69-1.4-1.25l-1.24.15v.25q.51,0,.48.51l.25,0L94,31l.45,0c0,.44.12.68.47.7,0,.32-.29.47-.81.43a2.54,2.54,0,0,0-1.19-.57l.71,1a1.6,1.6,0,0,0-.31.65l-.25,0a1.84,1.84,0,0,0-.61-1.44v-.24a2.1,2.1,0,0,0,.5-.63,1.66,1.66,0,0,1-.69-.29l-.56.69c.17,0,.25.07.24.2l-.45,0a1.45,1.45,0,0,0-.21-.68l-.53.21-.45,0-.44-1.19-.25,0c0,.45-.2.66-.5.64l-.5-.28a2.11,2.11,0,0,1-1.23.16l0-.42a3,3,0,0,1-1.24.09l0-.18-.53.15-.45,0v-.18l.29-.46.44.27.51,0,0-.25c-.52,0-.77-.13-.76-.29l-.46.21-.52,0c-.3,0-.44-.19-.41-.51l-.54.21-.7-.05a2.6,2.6,0,0,1-.45-.95l-.52,0,0,.48c.81.06,1.18.61,1.11,1.66l0,.72H83l0-.48-.53.2a2.78,2.78,0,0,0-1.36-1.73l-.45,0,.16.49,0,.25-.45,0,.11-1.64-1,.84h-.26l0-.25.28-.4-1.72-.36,0,.66a1.78,1.78,0,0,1,.94.31.22.22,0,0,1,.28-.22l.22.5L77.9,29c-.13-.49-.61-.77-1.42-.82l-.71-.05q0-.68-1.17-.75a1.33,1.33,0,0,0-.31.65L74,28c0-.45-.13-.68-.47-.7l-1.43.14v-.24l.23-.47a4.14,4.14,0,0,1-.68-.47l-.25,0,0,.24.51,0v.18a.48.48,0,0,1-.55.45L71,26.84c0,.49-.39.7-1.08.66l0-.25-.47.22-.25,0,0-.73c-.83.11-1.25.24-1.26.4l-.5-.28-1.41-.09a2.17,2.17,0,0,1,.13.92l.8-.37.45,0a1.62,1.62,0,0,0-.51.87l-.26,0c-.17,0-.25-.09-.24-.25l-.47.21-.51,0,.29-.47c0-.16-.07-.24-.24-.26.27-.75.53-1.11.79-1.09,0,.16.07.24.24.26l0-.67a1.66,1.66,0,0,1-.69-.29c-.26.75-.55,1.12-.85,1.09l-.45,0-1.39-1.25,0,.49.52,0,0,.18a.22.22,0,0,1-.27.23l.22.5v.24c-.35,0-.51-.2-.48-.52-.18,0-.27.06-.28.22l-1.2-.32-.45,0,.16.49c-.13,0-.2.05-.21.17a2.83,2.83,0,0,0-1-.25v-.24l.52,0,0-.48-.53.21-.43-.28,0,.24.22.51a2.69,2.69,0,0,0-1,.11l.34-1.13a.43.43,0,0,0-.42-.46l-.51,0,.62,1.19-1.22-.08-.37-1.18c-1,.05-1.51.4-1.56,1l-.51,0,0-.24.29-.47c-.17,0-.26-.08-.25-.2-.94,0-1.44.29-1.47.81l-.52,0,0-.49.77-.86v-.24a3.66,3.66,0,0,1-1.44.39,2.25,2.25,0,0,0-.76-.3l.23.5a.47.47,0,0,1-.55.39l-.45,0,0-.42a26.72,26.72,0,0,0-3.24.2l0-.43,1.24-.15,0-.49L48,24.34l-.43-.27c-.22,0-.65.34-1.3,1.06l-1-.06-1-.74h-.19c0,.44.28.68.92.73l0,.48c-1.31-.49-1.94-1-1.9-1.53a4.31,4.31,0,0,1-1.28.82l-.17-.43.23-.47,0-.24-.2,0,0,.49-.77-.06q-.45,0-.42-.51c-.51,0-.8.33-.85,1.09H39.4a6.49,6.49,0,0,1-.67-.48h-.26c0,.44-.2.65-.5.63l-.49-.28a1.56,1.56,0,0,1-.73.19,2.08,2.08,0,0,0-.75-.29,2.47,2.47,0,0,1,.43,1.18l-.74-.47a1.75,1.75,0,0,1-.24.65.45.45,0,0,1,.42.51l-.26,0c-.47,0-.68-.43-.62-1.19l-.74.37a.52.52,0,0,0-.48-.46l0,.43a1.89,1.89,0,0,1,.2.74l-.25,0c-.26,0-.56-.36-.9-1l.49-.64-.7,0a.91.91,0,0,1-1,.83A2.65,2.65,0,0,0,32,26v.18L31,25.71a.42.42,0,0,1-.48.39h-.25l-.18-1.17.51,0,0,.48.45,0L30.8,25c.17,0,.26,0,.27-.16l-1.21-.33c-.37,1-.9,1.52-1.58,1.47a1.78,1.78,0,0,1-.13-.92,2.1,2.1,0,0,1-.79.19c0,.44.27.68.92.73l0,.48a9,9,0,0,0-1.89-.62c0,.17-.1.24-.28.23a.43.43,0,0,0-.42-.46l0,.43.44,0v.24a3.92,3.92,0,0,0-1.71.37l0-.24a4.72,4.72,0,0,1-1.51.32L22.4,26a1.43,1.43,0,0,0,.3-.65l-.74.37c-.51,0-.75-.27-.72-.71l-1.07,1.5a4.87,4.87,0,0,0-1.68-1c-.06.32-.22.47-.48.46l-.26,0,.29-.47,0-.42-.51,0c-.3,0-.58.65-.85,2l-.26,0,.05-.72-1-.07a.64.64,0,0,0,.66.77l0,.43-.26,0c-.91-.47-1.35-1-1.3-1.67l-.52,0,.23.44-.53.21L12.84,26a1.53,1.53,0,0,1-.72.19,1.45,1.45,0,0,1-.21-.68l-.53.21-.26,0,.29-.47-.67-.53,0,.24.22.51-.8.36-.37-1.17-.51,0,0,.73-.26,0c0-.61-.42-1.1-1.38-1.5l-.05.67c-.21,0-.43-.25-.66-.71.18,0,.27-.07.28-.23l-.26,0-1.24.16V24c.64.05,1,.21.93.49l-.45,0a2.62,2.62,0,0,0-.76-.23l0-.49.29-.46c-.81-.14-1.2-.39-1.18-.75l.52,0v-.24l-.77-.05c0,.16-.1.23-.27.22q0-.48-.42-.51a2,2,0,0,0-.31.71l-.25,0a.64.64,0,0,0-.66-.78l.06-.9.34-1.13c-.34,0-.5-.18-.48-.46v-.24l.29-.47-.77-.05-.05.72-.45,0,.05-.72-.53.2a2.49,2.49,0,0,1-.37-1.18c.13,0,.2-.06.21-.23l-.45,0,0-.42.26,0,1.17.75h.19L1,16l0-.18.29-.46-1-.07,0-.24.79-1.1c-.26,0-.55-.51-.87-1.46,1-.21,1.52-.48,1.54-.8l-.26,0-1.23.16,0-.49c.21,0,.56-.26,1-.84,0,.16.06.25.24.26l.56-.63.43.22h.26v-.18a1.66,1.66,0,0,1-.69-.29.5.5,0,0,1-.54.39l-.26,0c0-.24.36-.52,1-.84l.51,0c0,.32.06.49.23.5a1.53,1.53,0,0,1,.72-.19l0-.25-.45,0,0-.42q1,.07,1-.42Q4,8.6,4,8.12c.17,0,.26,0,.27-.17l.94.49.25,0,0-.24A6.83,6.83,0,0,0,3.8,7.43l.05-.66.77.05A7.84,7.84,0,0,1,6.31,6.7l0,.24L6.8,7c.06-.76-.09-1.16-.43-1.18a2.1,2.1,0,0,1-.72.13l0-.66H6a1.71,1.71,0,0,0,.69.3c0-.33.21-.48.55-.45l0,.48L6.87,6c.47,0,.7.21.67.53l.52,0,.77-.85a7.12,7.12,0,0,0,1.69.78l.25,0,0-.24L9.32,6l0-.24c0-.32.27-.46.74-.43a2,2,0,0,0,.76.29c0-.16.1-.23.27-.22l.16.5c-.13,0-.2.06-.21.22l.19,0c1.18-.25,1.79-.59,1.82-1l.51,0a1.74,1.74,0,0,0,.15.67l-.71,0L13,6.67l.51,0c0-.45.69-.62,2-.53,0-.33-.37-.52-1.18-.57l0-.43L16,5.49,16,6.21c0,.28-.29.41-.8.37a.44.44,0,0,0,.48.52,1.53,1.53,0,0,1,.72-.19c0,.16.07.24.24.26l.29-.47c-.17,0-.25-.08-.24-.2l.71,0V6.31c-.64,0-.95-.23-.93-.55l0-.24.77.05c-.05.64.4,1,1.35,1.07l-.16-.5a2.23,2.23,0,0,0,.25-.89l.52,0-.66,2,.77,0a1.41,1.41,0,0,1,.3-.64c-.17,0-.25-.1-.24-.26l.45,0c.52,0,.75.35.71,1l.26,0c.3,0,.46-.13.48-.46q-.45,0-.42-.45l1-.66,0,.48.45,0c0-.45.22-.66.56-.63A2.33,2.33,0,0,1,24.23,7l.47-.21H25c0,.45.13.68.47.7l.26,0,0-.66-.51,0,0-.48,1.7.6c.28-.91.55-1.36.81-1.34s.5.24.48.52l-.29.41a1.78,1.78,0,0,1,.21.74l.47-.21.49.28a1.76,1.76,0,0,0,.31-.71l.71,0-.34,1.13c-.09,1.29.36,2,1.34,2.15l-.23-.44L31,8.41h.25c.34.07.51.22.49.46a.23.23,0,0,0-.28.23l.44.27a1.43,1.43,0,0,0,.3-.65l.74.48.71,0,0-.43-.71,0,0-.49c.47,0,.71-.11.74-.43l.51,0-.05.73-.34,1.13.71.05,0-.24-.23-.51.53-.14c.17,0,.25.08.24.2L35.59,9c.25,0,.49.25.72.72a5.23,5.23,0,0,1,2-.53,1.38,1.38,0,0,1,.22.68l.51,0,.74-.43c0,.52.26.87.9,1l0,.67.51,0,0-.24L41,9.77h.26c.3,0,.43.28.4.76l1,.07,0-.72-.52,0,0-.24q0-.42.54-.39l.44.27,0-.48.51,0,.2.92h.19c0-.28.12-.41.29-.4,1.41.74,2.11,1.24,2.09,1.48l.26,0q.51,0,.54-.39l-.77,0c.71-.89,1.32-1.31,1.83-1.27l0,.24L48,10a1.73,1.73,0,0,1,.93.55l.29-.46V9.92l-.45,0,0-.49.2,0,1.65,1.26.52,0-.23-.5.29-.41a1.94,1.94,0,0,1-1.19-.56c0,.16-.1.23-.27.22a.22.22,0,0,0-.24-.26,1.56,1.56,0,0,0,.32-.89l.26,0c0,.36.27.69.9,1l0-.42c.29,0,.42.33.38.94l.52,0,.33-1.13.45,0a9,9,0,0,0-.57,1.78,1.8,1.8,0,0,1,.2.75l.45,0a1.85,1.85,0,0,1,.31-.71l-.51,0,0-.43,1,.07c0-.36.37-.66,1-.9l.26,0v.24a1.55,1.55,0,0,1-1.56,1.05l.22.5,0,.24-.28.41.45,0c0-.28.11-.42.28-.41l-.22-.5,0-.24,1.2.33h.26c.34,0,.53-.26.58-.87l.67.48.77.05a2.2,2.2,0,0,1,.15.74l.77,0L58,11l.08-1.15a1.76,1.76,0,0,0,1-.17v.24l.53-.21.25,0v.24a1.7,1.7,0,0,0-.31.71l.71,0,.05-.73.77.06.09,1.4c.71-.19,1.07-.39,1.08-.59l0-.24-.78-.06,0-.48q0-.42.54-.39t.63,1.2l.53-.21.45,0,.74.48q.45,0,.48-.39l-.45,0,.29-.47,0-.42-.51,0,0-.48.26,0c1.23.77,1.83,1.5,1.78,2.18.26,0,.7-.41,1.32-1.3V10l-.4-.76.45,0a6.73,6.73,0,0,1,1.66,1.27l0-.66.44.27,1.22.08a1.93,1.93,0,0,1,1.06-.41q.25,0,1.14,1.23l.47-.21,0,.49.52,0,0-.48-.51,0c0-.28.2-.41.54-.38h.26l.43.22.29-.41,0-.24-.53.21-.2,0,0-.48-.53.21-.47-.7.51,0,1.21.27a1.43,1.43,0,0,0,.3-.65l1,.07c.34.06.5.23.48.52l-1.22-.09,0,.18.45,0-.5.7.45,0,.84-.85h.19c.34,0,.5.26.47.7l.53-.21.45,0c0,.49.12.74.46.77h.26l0-.72h.19l1.91,1.29a1.81,1.81,0,0,1,.32-.89l-.25,0-1.24.16,0-.73q0-.42.48-.39l.77.06c0-.33.18-.48.48-.46l0,.49-.5.63a2.4,2.4,0,0,1,1.21.33c0-.21.26-.41.75-.62l.26,0c0,.6.17.92.64,1,0-.76.34-1.13.85-1.09l.23.44.46-.15,1.21.27L87.6,9.3l.51,0c0,.64.4,1,1.35,1.07l.53-.21.93.49V10.5c0-.49-.27-.75-.91-.79l.29-.41c.71.33,1.09.66,1.15,1l0,.43-.29.46.49.28a6.08,6.08,0,0,0,.84-1.83,5.9,5.9,0,0,1,2.65.92c0-.17.1-.24.27-.23l-.22-.5,0-.42a1.64,1.64,0,0,0,1.54-.81,4.5,4.5,0,0,1,2.14.82,1.66,1.66,0,0,1,.72-.19c0,.32.14.49.48.52l.47-.21L100.4,9l.06-.91.45,0,0-.42-.45,0,0-.24,1,.06,0,.25-.28.4,1,.07c0,.16.24.26.75.29v.25l-1.74-.12V8.9c.81,0,1.21.22,1.19.5a2,2,0,0,1,1-.17c.07-1.05-.54-1.62-1.82-1.71l0-.24a4.22,4.22,0,0,0,2.23-.51l0,.18-.56.69c0,.28.31.45,1,.49l0,.49-.51,0,0,.24.52,0c0-.16.08-.24.21-.23a1.75,1.75,0,0,1,.19.93l.52,0-.18-1.16q.51,0,.54-.39l0-.49-.52,0,0-.48.5.27c0-.44.45-.63,1.27-.58l0,.67q-.77-.06-1.14,1.56l2.07-1,0-.24L108,8l-.22.41,0,.48.19,0c.26,0,.78-.42,1.57-1.29l.52,0c-.06.77.32,1.18,1.14,1.24,0-.29.18-.42.48-.4,0,.29.14.44.48.46,0-.44.22-.65.56-.63,0,.29.12.44.42.46l-.29.46v.25h.25l.61-1.35q.65,0,.63,1.2l.77.05,0-.48h.2l.49.28c0-.29.2-.41.55-.39h.19c.17,0,.25.08.25.2.17,0,.26,0,.26-.16l1.21.26.52,0,0-.42Q118,8.67,118.1,8c-.3,0-.47.21-.5.69l-.5-.27q.08-1.15,2-1,.24,1.17.69,1.2a.23.23,0,0,1-.28.23c.33,2.16.89,3.28,1.71,3.33l0-.48.52,0,0,.25-.29.46c.51,0,.76.2.74.48q-.45,0-1.17,2a2.62,2.62,0,0,0,1.2.27c.05-.65.65-1,1.82-1l-1.3,1.06c.34,0,.49.42.43,1.19a2.42,2.42,0,0,0-.76-.24l0,.43h.26l1.24-.15A2.76,2.76,0,0,1,125,18.38a.46.46,0,0,1-.54.39l0-.66-.19,0c0,.45-.3.65-.82.62l.23.5,0,.24-.51,0,0,.24,1.22.09A2.77,2.77,0,0,1,126.92,18.52Zm-11-11.15a.22.22,0,0,1-.27.23l.22.44,0,.48-.51,0-.13-.92.46-.21Zm-14.13-1,0,.43-.52,0,0-.42Zm13.36,1.84,0,.49q-.39,0-.72-.78l0-.43Q114.83,7.54,115.17,8.23Zm-7.08-1.16c0,.2-.27.41-.76.62l0-.24c0-.29.2-.41.54-.39Zm16.62,1.34,0,.48-.51,0,0-.49Zm-16.16-.64,0,.49c-.34,0-.5-.2-.48-.52l0-.49C108.41,7.36,108.57,7.53,108.55,7.77Zm8.31.34c-.07.31-.23.47-.49.45l0-.49Zm5.46,3.17-.26,0-.74-.54h-.19l0,.48-.5-.27.29-.47,0-.42q-.77-.06-.75-.3l.57-.87a.22.22,0,0,1-.24-.26l.26,0a.22.22,0,0,1,.24.26l.47-.21.25,0,0,.48c-.47,0-.71,0-.72.13ZM104.86,8v.18l-.71,0V8q0-.48.48-.45Zm-5.59-.39V7.8c-.35,0-.51-.18-.49-.46l0-.24Q99.3,7.19,99.27,7.61Zm27.06,1.64,0,.42h-.19l0-.42Zm-2.9,0a.47.47,0,0,1-.55.39l-.25,0,0-.67A1.93,1.93,0,0,0,123.43,9.29ZM88,7.26l-.52,0,0-.42C87.85,6.86,88,7,88,7.26ZM125.34,9.6l0,.25-.45,0,0-.25Zm-14.92-.79h-.19l0,.48.19,0Zm-11.2-.53v.24l-.52,0,0-.25ZM98,8.2l0,.24-.51,0,0-.24ZM72.11,6.4l0,.48-.52,0,0-.49Zm47.33,3.52h-.25l0,.42.25,0ZM106.53,9l-.26,0a2,2,0,0,1-.79.19l-.07,1.15c.48-.74.85-1.1,1.1-1.08Zm-14-.73,0,.43a.48.48,0,0,1-.55.45l-.15-.5,0-.67A1.66,1.66,0,0,0,92.57,8.3Zm-10-.93,0,.42-.26,0q-.45,0-.42-.45ZM18.38,2.92l0,.24-.51,0,0-.24ZM122.83,10.4l0,.43-.25,0,0-.43Zm-6.1-.42-.45,0v.18l.45,0Zm-3.92-.27-.19,0,0,.19q.39,0,1.17.81h.2C114,10.29,113.57,10,112.81,9.71Zm-1.93-.14-.51,0v.18l.51,0ZM93.76,8.81v.24a1.71,1.71,0,0,0-.73.2l-.22-.5a2.38,2.38,0,0,1,.73-.38Zm31.05,1.91,0,.49-.52,0,0-.48Zm-7.58-.52-.26,0,0,.48.26,0Zm-2-.14c-.31.06-.47.21-.49.45v.24q.45,0,.48-.45ZM89.41,8.27l0,.48-.26,0,0-.48ZM23.91,4.21l0,.24c-.3,0-.44-.19-.41-.51V3.7Q23.94,3.85,23.91,4.21Zm102.25,7.58c-.07.27-.22.41-.48.39s-.49-.34-.71-1l.53-.21Q125.82,11,126.16,11.79ZM103.27,9.47l-.45,0a1.7,1.7,0,0,1-.31.71l1,.06A1.78,1.78,0,0,1,103.27,9.47Zm-4.66.16-.93-.55,0,.25.23.5,0,.66.44.27a1.76,1.76,0,0,1,.3-.7c-.17,0-.25-.08-.24-.2A.22.22,0,0,0,98.61,9.63ZM85.22,8.22l0,.24-.51,0V8.18ZM82,8.48l-.78-.05,0-.48.26,0C81.89,8,82.06,8.2,82,8.48ZM80.82,8.4l-.54.21c-.34,0-.5-.2-.48-.52l.53-.21C80.67,7.94,80.83,8.12,80.82,8.4Zm38.82,2.45-1-.07,0,.49h.19a2.1,2.1,0,0,1,.79-.19Zm-8.8-.61-.26,0,0,.48.25,0Zm-1.74-.12-.45,0,0,.24.45,0ZM94.92,9.8h-.26l-.43-.22c0,.12-.1.18-.27.17l-.23-.44,0-.25.51,0C94.47,9.1,94.69,9.34,94.92,9.8Zm-19.23-2,0,.49-.26,0,0-.49ZM12.47,3.42v.24l-.52,0,0-.25ZM123,11.33l0,.42a1.66,1.66,0,0,0-.73.19l0-.24q0-.42.48-.39ZM118.14,11l-.25,0,0,.42.25,0Zm-12.91-.9-.26,0,0,.43.26,0ZM84.48,8.65l0,.25-1-.08,0-.24Zm-34.7-2.4,0,.42-.51,0,0-.43ZM97.1,10a1.83,1.83,0,0,1-.69-.23v.19a1.59,1.59,0,0,1,.2.74l.45,0Zm22.49,1.56-.77,0,0,.24a.44.44,0,0,0,.48.52A2,2,0,0,1,119.59,11.51Zm-9.51-.66-.51,0c0,.32.14.49.48.52ZM85.41,9.14l0,.25c0,.24-.29.46-.82.67l-.7-.05,0-.49ZM14.87,4.25l0,.49-.25,0,0-.48ZM83,9.22l0,.48-.26,0,0-.48ZM69,8.25l0,.48q-.45,0-.42-.51Zm-6.84,0-1-.07c0-.32.19-.47.49-.45S62.19,8,62.17,8.26Zm-1.7-.6c0,.24-.27.46-.76.67l0-.24q0-.48.48-.45Zm-6.36-.44,0,.48-.45,0C53.65,7.35,53.81,7.2,54.11,7.22ZM29.21,6l0,.24c-.25,0-.5-.28-.72-.78l.26,0C29.07,5.52,29.23,5.69,29.21,6ZM16.07,4.58l0,.48-.52,0,0-.49ZM9.45,4.12l0,.48-.51,0,0-.49Zm84.89,6.61a3.8,3.8,0,0,1-1.64-.6h-.25l0,.24a3.73,3.73,0,0,1,1.69.78ZM78.47,9.63,78,9.6l0-.48A.45.45,0,0,1,78.47,9.63Zm44.7,3.29-.53.2,0-.66C123,12.52,123.19,12.67,123.17,12.92Zm-3.37-.66-.26,0,0,.42.26,0Zm-24-1.67h-.25a1.7,1.7,0,0,1-.73.19l0,.42.52,0q0-.42.48-.39ZM72.9,9l-.05.67c-.34,0-.5-.18-.48-.46V9ZM57.54,7.94v.24a.52.52,0,0,1-.55.39c-.34,0-.5-.18-.48-.46ZM33.32,6.26l0,.42-.45,0,0-.42Zm-8.06-.13,0,.24-1-.07,0-.66.45,0C25.12,5.73,25.28,5.89,25.26,6.13Zm-5.11-.78a.42.42,0,0,1-.48.39l-.26,0q0-.42.48-.39Zm69.08,5.46a3.11,3.11,0,0,1-.74-.48,2.19,2.19,0,0,1-.33,1.13l.25,0C88.67,11.49,88.94,11.27,89.23,10.81ZM69.73,9l0,.42q-.17.48-.54.45L69.22,9ZM55.08,8l0,.43-.51,0,0-.42ZM30.86,6.33l0,.43-.45,0,0-.43Zm96.23,6.86,0,.48-.51,0,0-.49Zm-6.61-.46-.52,0,0,.24.52,0Zm-21-1.46-.45,0,0,.24.45,0ZM90,10.61l-.52,0v.24l.51,0Zm-2.19-.15q-.52.09-.54.45l0,.24.51,0ZM63.79,9a2.15,2.15,0,0,0-.24.71h-.26a1.73,1.73,0,0,0-.44-1l.51,0ZM49.42,7.8l0,.24L49,8l0-.24ZM44,8.4l-.26,0a.44.44,0,0,1-.48-.52l-.47.21-.25,0c0-.24.27-.46.75-.67l.52,0-.29.47C43.88,7.94,44,8.12,44,8.4ZM4.25,4.67l0,.48H4l0-.49ZM121.17,13l-.45,0c0,.32.11.49.41.51ZM96.75,11.33l-.45,0,0,.24.45,0ZM92.64,11l-.26,0a1.79,1.79,0,0,1-.3.71l.51,0ZM73.11,9.69l0,.48-.25,0,0-.48Zm-6.62-.46,0,.24c0,.2-.26.41-.75.62V9.9A1.68,1.68,0,0,0,66,9.2Zm-4.63-.32v.24l-.52,0,0-.24Zm-9.79-.2-.52,0,0-.48C51.92,8.26,52.09,8.43,52.07,8.71ZM124.33,14v.18l-.51-.22a3.88,3.88,0,0,1-1.5.32l-.17-.43.47-.21c0,.16.07.24.24.25,0-.32.2-.47.55-.44l.45,0C124.19,13.51,124.35,13.68,124.33,14ZM86,10.82h-.26l0,.48.26,0Zm-2.45-.16-.25,0,0,.66.26,0ZM56.93,9.29a2.38,2.38,0,0,0-.73.38L56,9.23a2.28,2.28,0,0,1,.74-.44ZM48.16,8.2l0,.48-.45,0,0-.48ZM32.28,7.34l0,.43-.26,0c-.63-.25-.93-.49-.92-.73l.52,0A1.66,1.66,0,0,0,32.28,7.34Zm-8.8-.61L23,6.94a.48.48,0,0,0-.48-.52,1.54,1.54,0,0,1-.32.89l.5.28,1,.07,0-.25A1.25,1.25,0,0,1,23.48,6.73Zm101.83,7.06,0,.43-.26,0,0-.43Zm-4.63-.32-.51,0,0,.42Q120.65,13.89,120.68,13.47ZM82.82,11.09l-.49-.28q-.1.42-.48.39a2.23,2.23,0,0,1,.12,1l.52,0Zm-5.38-.62-.7-.05c-.35,0-.53.15-.55.39v.24a3.12,3.12,0,0,1,1.25-.33Zm-19-1.31,0,.24-.51,0V9.12ZM31.06,7.26l0,.42-.71,0q0-.42.48-.39ZM95.48,12l-.45,0v.18l.45,0Zm-8.74-.61-.51,0a1.41,1.41,0,0,1-.3.64l0,.24.26,0q0-.48.54-.45Zm-1.47-.1-.52,0,0,.67.52,0ZM68.43,10.09l-.25,0c0,.45-.22.66-.56.63a1.48,1.48,0,0,1,.21.69,2.08,2.08,0,0,1,.72-.14A2.83,2.83,0,0,1,68.43,10.09ZM55.94,9.65l-.26,0c-.34,0-.5-.17-.48-.46l.25,0C55.79,9.26,56,9.41,55.94,9.65Zm-2-.14-.45,0,0-.42Q54,9.15,54,9.51Zm-7.3-.93-.06.91-.45,0,.23.44,0,.24-.77-.05.06-.91.77.05-.22-.5V8.55ZM26.93,7.21c-.35,0-.53.15-.55.39v.24l.25,0,0-.48.45,0,0,.48.52,0Q27.61,7.63,26.93,7.21Zm57.36,4.16H84l0,.48.26,0Zm-11.76-.81-.26,0a1.66,1.66,0,0,1-.72.19l0,.49a1.65,1.65,0,0,1,1-.42ZM57.59,10a1.66,1.66,0,0,0-.72.19l0-.24q0-.48.54-.45ZM42,8.44l0,.49a.43.43,0,0,1-.42-.52ZM32,8.23l-.45,0,0-.48Q32,7.87,32,8.23Zm93.3,6.23,0,.48-.26,0,0-.48ZM75.92,11l-.19,0,0,.49h.2Zm-4.63-.32-.46.21a2,2,0,0,0-.76-.3l-.29.47v.24a2.18,2.18,0,0,1,1.17.75l.06-.91.26,0Zm9.75.91h-.25l0,.48.77.05A.48.48,0,0,0,81,11.63Zm-8.29-.57-.51,0,0,.25.52,0Zm-51-3.54-.51,0c0,.32.14.49.48.52ZM55.39,10.1l0,.24-.45,0,0-.24ZM47.1,9.52a.46.46,0,0,1-.54.39l0-.42Zm-18-1.25-1-.06,0,.42h.19A2.57,2.57,0,0,1,29,8.51ZM25.64,8l-.51,0,0,.24.52,0Zm-2-.14-.45,0v.24l.45,0ZM124.7,15.15l0,.42-.71-.05,0-.42ZM84,12.32l-.51,0v.18l.51,0Zm-11-.76-.26,0,0,.43H73ZM8,7.06,7.51,7V7.2l.51,0Zm58.07,4.21-.71,0c-.21,0-.46.21-.75.67l.45,0a1.69,1.69,0,0,1,1-.41Zm-6.55-.46-.52,0,0,.48.51,0ZM22.92,8.27l-.26,0,0,.49.25,0Zm102.76,7.61,0,.24a.22.22,0,0,1-.27.23l.23.44,0,.24-.26,0c-.39-.47-.7-.71-.91-.73q0-.48.48-.45Zm-3.21-.22-.26,0a.45.45,0,0,0-.48.45l.25,0C122.28,16.13,122.44,16,122.47,15.66Zm-43-3-.45,0,0,.48C79.3,13.15,79.46,13,79.49,12.68ZM57.32,11.14h-.26l0,.48.26,0Zm-.77-.05a.45.45,0,0,0-.48.45l.45,0ZM32.65,9.43l-.52,0v.24l.51,0ZM29.24,9.2l-.51,0,0,.24.52,0Zm-.77-.06-.45,0v.24l.45,0ZM6.76,7.64l-.52,0v.24l.51,0Zm66.86,4.88-.45,0v.25l.45,0Zm-18.76-1.3-.26,0,0,.42.25,0Zm-3-.21-.52,0v.25l.51,0Zm-8.55-.59-.51,0,0,.43Q43.33,10.84,43.36,10.42ZM37,10l-.26,0c-.21,0-.46.19-.75.61l.71,0A1.41,1.41,0,0,1,37,10Zm89.61,6.45,0,.67c0,.16-.1.23-.27.22l.23.44,0,.24-1,.18,0-.48.45,0-.22-.44.53-.21-.23-.5,0-.18ZM46,10.85l-.51,0a1.88,1.88,0,0,1-.72.13l0,.49A1.83,1.83,0,0,1,46,11Zm-6.87-.48-.45,0v.18l.45,0Zm-3.41-.24h-.25l0,.42.25,0ZM3.06,7.87l0,.42a.48.48,0,0,1-.55.45,1.57,1.57,0,0,0-.69-.29C1.82,8.08,2.24,7.89,3.06,7.87Zm46.38,3.39,0,.49.52,0C49.85,11.45,49.69,11.28,49.44,11.26ZM48,11.16l-.45,0c0,.32.11.49.41.52Zm16.81,1.41-.45,0v.24l.45,0Zm-8-.56-.51,0,0,.24.52,0Zm-13.94-1-.45,0q0,.48.42.51Zm-2.63-.19-.52,0v.24l.51,0Zm82.73,6,0,.25c0,.28.13.43.43.45v-.18C123.3,17,123.16,16.86,122.9,16.84ZM38.93,11l-.51,0,0,.24.51,0Zm88.58,6.39,0,.42-.26,0,0-.42Zm-5.14-.36-.45,0,0,.24.45,0Zm2,.38c-.35,0-.53.14-.55.39v.24q.51,0,.54-.45ZM36.44,11.52l-.25,0,0,.48.26,0ZM2,9.13l0,.48c-.34,0-.5-.19-.48-.52Zm120.31,8.58h-.25l0,.48.26,0Zm.81,2.37-.5.69V21a2.24,2.24,0,0,1,1-.11l0-.24A.48.48,0,0,0,123.13,20.08Zm-1.93-.14-.51,0,0,.24.52,0Zm2.68.43,0,.49.45,0C124.28,20.56,124.14,20.39,123.88,20.37Zm-1.73-.12-.26,0,0,.49.26,0ZM2.25,12.18l-.45,0,0,.24.45,0Zm124.27,9.29-.06.9-.52,0,.07-.91Zm-2.44-.17-.52,0v.24l.51,0Zm-.77-.06h-.26l0,.48.25,0ZM1.73,13.06l-.25,0c-.35,0-.53.17-.55.45l.26,0Q1.7,13.54,1.73,13.06Zm126,9.4,0,.48-.25,0c-.35,0-.51-.19-.48-.52v-.18A2.42,2.42,0,0,0,127.68,22.46Zm1.67.11,0,.49-.25,0,0-.49Zm-2.91,0,0,.25-1-.08.23.51a2.1,2.1,0,0,1-.72.13l.4.75-.74.38-.25,0c0-.44-.11-.67-.41-.7l0-.48c.47,0,1-.31,1.75-1A2.08,2.08,0,0,0,126.44,22.61Zm-3.94,0,0,.49.45,0C122.9,22.77,122.76,22.6,122.5,22.58ZM1.86,14.89l-.25,0,0,.48.26,0ZM126.5,24.5h-.19l-.5-.28,0,.42-.51,0v-.18a1.85,1.85,0,0,0,.31-.71l.77.05A2.4,2.4,0,0,0,126.5,24.5ZM122.41,24l-.77,0,0,.24.77.06ZM.55,16.19l0,.49-.51,0,0-.48Zm121.79,8.69-.51,0,0,.25.52,0Zm3.36.9,0,.48-.51,0,0-.48Zm1.91.38,0,.48h-.19l0-.49ZM1.14,17.87l-.29.41.78,0A.52.52,0,0,0,1.14,17.87Zm122.49,9.89-.26,0-1.23.1,0,.24,1.22.09Zm-3-.2-.51,0v.18l.51,0Zm-.28.4a.45.45,0,0,0-.49.46l.45,0ZM44,23.15c0,.44-.21.65-.56.63,0,.32.14.49.48.52l.5-.7A.42.42,0,0,0,44,23.15Zm84,6.06v.18l-.52,0v-.18Zm-86.67-6-.52,0v.18l.52,0ZM3.92,20.62l-.51,0,0,.18.52,0Zm52,3.78a2,2,0,0,1-1,.18v.24l1.22.08,0,.24.45,0C56.56,24.93,56.34,24.68,55.88,24.4Zm-9.5-.66-.52,0a1.78,1.78,0,0,1,.21.74l.51,0A1.65,1.65,0,0,1,46.38,23.74Zm74.7,5.42-.51,0c0,.32.13.49.48.52ZM79.3,26.51l-.51,0,0,.24.51,0Zm-14.2-1c-.21,0-.46.19-.75.61l.26,0q.45,0,.48-.39Zm-4.64-.08a1.66,1.66,0,0,1-.69-.29l-.26,0v.24c.34,0,.5.18.48.46l.45,0ZM37.28,23.6l-.25,0-.05.66.26,0ZM3.87,21.28l-.25,0,0,.49h.26Zm70.79,5.15-.26,0,0,.43h.26Zm-1-.07q-.45,0-.48.39l.43.28ZM68.75,26l-.45,0,0,.24.45,0Zm-1.42-.1q-.51,0-.54.39l.5.28ZM51.66,24.84l-.19,0,0,.43h.19Zm-6.11-.43h-.19q0,.42.42.45l.26,0A.47.47,0,0,0,45.55,24.41Zm74.94,5.87a.47.47,0,0,1-.55.44c-.22,0-.43-.27-.66-.77l.53-.15C119.79,30.09,120,30.24,120.49,30.28ZM70,26.35l-.19,0,0,.43h.19ZM35.32,24l-.51,0,0,.42.51,0Zm6.32,1.1c-.52,0-.79.11-.81.43l-.45,0,0-.24c0-.24.27-.47.76-.68C41.49,24.64,41.65,24.81,41.64,25.05Zm50.77,3.28-.26,0,0,.49h.26Zm-8.55-.59-.25,0,0,.48.26,0Zm-2.18-.15-.26,0q0,.48-.54.45l0,.24.51,0,.29-.46Zm-4.88-.34-.52,0,0,.49A.45.45,0,0,0,76.8,27.25ZM57.27,25.89l0,.49-.77-.06,0-.48Zm-6.36-.44,0,.49-.26,0a1.57,1.57,0,0,0-.69-.29c0,.16-.1.23-.27.22l0-.48Zm-10.73-.74,0,.48-.51,0,0-.49Zm76.37,5.54-.45,0,0,.24.45,0ZM47.48,25.46a.47.47,0,0,1-.54.45l-.71-.05,0-.49.26,0c.13,0,.19.1.18.26l.53-.21ZM7.2,22.67l-.26,0,0,.48.26,0ZM51.84,26l0,.43-.45,0,0-.42Zm35.38,2.7-.45,0v.18l.45,0ZM57.67,26.65l0,.42-.45,0,0-.42Zm-2,.53-.26,0c-.3,0-.43-.19-.41-.51v-.18C55.24,26.48,55.47,26.72,55.69,27.18Zm-6.06-1.09,0,.43-.51,0,0-.42Zm72,5.18,0,.48-.51,0A.43.43,0,0,1,121.64,31.27Zm-5.84-.41-.26,0,0,.49.25,0Zm-1.74-.12-.25,0,0,.49.26,0ZM93.57,29.32l-.71-.05c0,.32.12.5.42.52h.25Zm-1.48-.1-.26,0a1.86,1.86,0,0,1-.51.94l0,.18.47-.15.5.21V30.2A1.78,1.78,0,0,1,92.09,29.22ZM72.82,27.88l0,.49-.26,0c-.3,0-.43-.19-.41-.52Zm-1.48-.1,0,.48-1.23.16C70.09,28.06,70.51,27.84,71.34,27.78ZM39.6,25.58l-.05.72h-.26c-.3,0-.44-.2-.41-.52v-.24Zm-1.22-.08-.07,1-.43-.27a2.15,2.15,0,0,0,.24-.71Zm87.42,6.3V32l-.52,0,0-.25ZM88.15,29.19l-.45,0v.24l.45,0ZM50.83,26.6l0,.24-.52,0,0-.24Zm-2.7-.19,0,.49-.25,0,0-.48ZM26.67,24.93l-.52,0,0,.73h.26A1.68,1.68,0,0,1,26.67,24.93ZM5.15,23.43c-.07.32-.23.47-.49.46l-.25,0q0-.48.54-.45Zm84.21,6.09-.71-.05,0,.48.25,0A.42.42,0,0,0,89.36,29.52ZM76.7,28.64l0,.48-.26,0,0-.48ZM25.17,25.07l-1-.07-.32.89.5.27.19,0,.53-.21-.23-.44ZM114,31.47v.24q0,.18.72.72a1.71,1.71,0,0,1,.72-.2C115.3,31.78,114.83,31.52,114,31.47ZM84.27,29.41l0,.24a.52.52,0,0,1-.54.38h-.26v-.25c0-.28.2-.41.55-.38Zm-4.44-.31,0,.42-.45,0Q79.38,29.07,79.83,29.1ZM32.74,25.83l0,.24a.46.46,0,0,1-.54.39l0-.24C32.21,25.94,32.4,25.81,32.74,25.83ZM22,25.09l-.51,0,0,.24.51,0Zm91.54,6.59-.26,0c0,.24-.3.61-.85,1.09v.19h.25c0-.24.3-.6.85-1.09Zm-14.91-1-.51,0,0,.18.52,0Zm30.25,2.28,0,.49-.25,0,0-.48Zm-17.64-.73c-.3,0-.44-.2-.42-.52l-.25,0,0,.49.5.28h.19Zm-91-6.8-.26,0,0,.49.26,0ZM14.66,25l-.52,0,0,.24.52,0Zm-5.5,1v.24l-.26,0L7.49,25l0-.48.52,0Zm111.68,6.59,0,.24q-.16.48-.54.45l-.23-.5,0-.24Zm-31-2.15,0,.72-.52,0,.05-.73Zm-11.24-.78,0,.48-.26,0,0-.48ZM73,29.29l0,.48h-.25l0-.49ZM16.57,25.38l-.52,0v.25l.51,0Zm84.21,6.08-.71-.05,0,.24.71.05ZM48.29,27.82l0,.24-.51,0v-.24ZM7.3,25l0,.48c-.34,0-.5-.19-.48-.52Zm114.47,8.18,0,.42-.26,0,0-.42Zm-11.5-.8-.26,0,0,.67.77.05v-.24A.46.46,0,0,0,110.27,32.36ZM76.09,30l0,.43-.26,0,0-.43ZM15.83,25.81l-.52,0V26l.51,0Zm103.48,7.42v.18l-.29.47a1.66,1.66,0,0,0-.69-.29l0-.24A2.62,2.62,0,0,0,119.31,33.23ZM116.1,33l0,.42-.71,0c0-.28.2-.41.55-.38ZM88.78,31.3l-.29.46a1.48,1.48,0,0,1,.21.69l-.51,0L88,31.24l.53-.14C88.53,31.22,88.61,31.29,88.78,31.3Zm-83.25-6,0,.43-.26,0,0-.42Zm84,6,0,.24-.45,0,0-.25ZM85.12,31l0,.24c0,.25-.29.47-.82.68l0-.25C84.32,31.47,84.59,31.25,85.12,31Zm-7.07-.49L78,31,77.25,31c0-.32.2-.47.55-.44Zm-55.7-3.86,0,.48q-.45,0-.42-.51Zm-.71-.05a.47.47,0,0,1-.54.45l0-.48Zm-2.7-.18,0,.48-1.24.16c0-.25.27-.47.76-.68Zm-8.83-.13-.45,0,0-.49C10,25.91,10.13,26.09,10.11,26.33Zm105,7.28c0,.36-.6.62-1.73.79l-.23-.44c.83-.15,1.25-.36,1.27-.64A1.81,1.81,0,0,0,115.09,33.61ZM83.37,31.16c-.07.32-.23.47-.48.46l0-.49Zm38.08,2.89,0,.24-.51,0,0-.24Zm-3.4-.24,0,.48-.51,0,0-.48Zm-16.39-1.13-.25,0,0,.48.26,0Zm-21-1.46,0,.48-.71-.05a.44.44,0,0,1,.55-.44Zm25.17,2,0,.42c-.34,0-.5-.18-.48-.46Zm-5.87,0,0,.25-1-.07,0-.67.51,0C99.44,33.05,99.6,33.2,100,33.22Zm-5.13-.53a.45.45,0,0,1-.54.38l0-.42Zm-14.91-1,0,.43-.51,0Q79.4,31.62,79.91,31.65Zm30.22,2.77c-.07.32-.23.47-.49.45l-.22-.5,0-.49.26,0C110,34,110.14,34.17,110.13,34.42Zm-1.51.38-.47.15.07-.91-.81.43-.16-.5,0-.24,1.22.09Zm3.92.27-.26,0q-.45,0-.42-.51l.47-.21A1.82,1.82,0,0,0,112.54,35.07Zm-11.9-1.55,0,.48-.51,0,0-.48Zm-3-.21c0,.24-.27.47-.76.68l-.25,0c0-.24.29-.47.82-.67ZM95,33.37l0,.48h-.26l0-.49Zm23.88,1.9-.06.9h-.26a1.55,1.55,0,0,0-.19-.93Zm-.7-.05a.54.54,0,0,1-.55.39l-.22-.44ZM94.5,33.58l0,.42-.26,0,0-.42Zm5.83.64a.42.42,0,0,1-.48.39l0-.42Zm15.84,1.53,0,.24-.45,0,0-.25Zm-16.85-.93,0,.48-.52,0,0-.49Zm-7.07-.49a.48.48,0,0,1-.55.45l0-.49Zm23.18,1.85,0,.24-.51,0v-.25ZM109.31,36l0,.42-.26,0q-.51,0-.48-.45Zm-1.49.08,0,.48-.25,0,0-.48Z"/></svg>