<svg id="Capa_1" data-name="Capa 1" xmlns="http://www.w3.org/2000/svg" viewBox="0 0 143.18 75.14"><defs><style>.cls-1{fill:#fff;}</style></defs><path class="cls-1" d="M15,43v-.24h.45V43Zm-7.15-1v-.48h.25v.49Zm12.25-2.23.52-.24h.26v.24q0,.43-.51.42ZM16.27,40v-.48h.19V40Zm5.08,0v-.24h.52v.24Zm1.49-.48v-.24h.51v.24Zm-3.93-.5a1.4,1.4,0,0,0,.26-.67h.52v.49c0,.28-.18.42-.52.42C19.17,39.17,19.08,39.09,18.91,39.09Zm-2.64-.2v-.24H17l.26.43H17A1.92,1.92,0,0,0,16.27,38.89Zm-3,0v-.48h.26v.48Zm6.83,0v-.24h.51v.24Zm1.74,0v-.48h.71c0,.32-.16.48-.46.48Zm-4.38-.27v-.48H18v.49Zm-9.08-.29a.48.48,0,0,1,.52-.48v.49Zm1.22-.23V37.7H9.9v.43Zm3.67,0v-.43h.51C13.83,38,13.66,38.15,13.31,38.15Zm-1.48-.44c.44-.76.76-1.14,1-1.14h.25v.91q-.45,0-.45.42A3.13,3.13,0,0,0,11.83,37.71Zm4.64.21V37.5c.35,0,.52.14.52.42Zm1.22,0v-.18c.08-.33.26-.49.51-.49l.26.49-.52.18Zm76.13.23v-.48h.26v.48Zm-79.28-.67V37h.26v.49Zm4.38,0V37h.26v.48Zm3.23-.89q.06-.48.45-.48h.51c.35,0,.52.16.52.49v.42h-.51v-.67l-.51.24Zm-7.09.14v-.18q.07-.48.45-.48l.52.24q.06-.48,1.23-.9v.18a1.94,1.94,0,0,0-.27.73l.52-.24h.19v.49a2.45,2.45,0,0,0-1,.17,2.37,2.37,0,0,0-1-.19A2.08,2.08,0,0,1,15.06,36.76Zm2.9-.89v-.24a.46.46,0,0,1,.52-.42h.45c0,.44.17.67.51.67v-.43a1.8,1.8,0,0,1-.26-.72l.52-.24L20,35v.91q-.06.3-1.23.9h-.26C18.48,36.18,18.31,35.87,18,35.87Zm9.79.54H28c.34,0,.51.14.51.43h-.26Q27.75,36.77,27.75,36.41Zm-7.09.2v-.24a.47.47,0,0,1,.51-.48h.45v.24c0,.32-.15.49-.45.48Zm-12-1.46c.22,0,.45.23.71.67,0,.33-.15.49-.46.49Zm-5.8-9.72v-.67H4.11c0-.24.24-.48.71-.72l-.25-.43a.48.48,0,0,1,.52-.48c0-.2-.41-.59-1.22-1.16v-.24c.82,0,1.22.17,1.22.49.48-.16.71-.32.71-.48a1.43,1.43,0,0,1-.25-.67l-.45.24H4.84v-.24l.26-.48.45.24h.26c0-.44.26-.66.77-.66l-.25-.49-.52.24H5.56a2,2,0,0,0-.71-1.15h.26l1,.67h.26l-.25-1.33-.52.18H5.37c1-1.05,1.81-1.57,2.46-1.57v-.48h-1V17l-.71-.49H5.57c0,.61-.41,1.15-1.23,1.63v-.24a1.72,1.72,0,0,0,.26-.73c-.17,0-.25-.06-.25-.18.51,0,.77-.16.77-.48v-.25l-1-.91.46-.24a.48.48,0,0,0,.51.49l1-.72h.26l.45.24c0-.16.08-.24.25-.24,0,.24.26.49.77.73H8a5.5,5.5,0,0,1-.44-1.88l.71-.42c.34,0,.51.31.51.92h1.67c0-.76.27-1.15.78-1.14A2.29,2.29,0,0,0,10,11.9v.48h.45v.42H10.3l-1.23-.25v-.18l.46-.73q-.45-.06-.45-.42V11a2.72,2.72,0,0,0,1.42-.24h.77v-.25h.26v.73l-1.23.18v.24h1.23l.18,1.15c.35,0,.52-.18.52-.42h-.52c.18-1.37.27-2.22.28-2.54h.25c0,.29.17.43.52.43v.24l-.52.73h.51v.18l-.26.48h.45l-.19-1.16c.65,0,1-.29,1-.9h.46v.67l1.23-.42c0,.12.08.18.25.19,0-.21.26-.43.78-.67,0,.16.06.25.19.25V9.63l-.19-.48c.13,0,.2-.06.2-.18l.51.18a4.34,4.34,0,0,1,1.49-.41l.7.91.52-.24c.81.33,1.22.63,1.21.91h.46V9.9c-.47,0-.71-.16-.71-.49l.52-.24c0,.33.19.49.45.49a.47.47,0,0,1,.51-.48,2.55,2.55,0,0,0,1.23.49V9.43c.64.08,1,.33,1,.73h.26V9.68c0-.24-.32-.55-1-.92V8.52h-.26a2.73,2.73,0,0,1-.77.48V8.76A1.83,1.83,0,0,0,23,8h.51l1,.73h.25l-.25-.49V8l1.21,2.13c.39,0,.89-.46,1.49-1.39l.45.25V8.54c-.47,0-.7-.16-.7-.49V7.87h.26c.38,0,.7.45.95,1.34h.52l-.52.73v.42l.51-.18h.2q.51,0,.51.66h.26a1.58,1.58,0,0,1,1-.48v-.19h-.52c0,.12-.06.18-.19.18V10c.43-.77.76-1.15,1-1.15v.43l-.26.48c.34,0,.51.23.51.67h.45L31.31,10a2.06,2.06,0,0,1,.77-.24V9.23h-.51V8.81h.26a1.63,1.63,0,0,0,.71.24v.19c0,.16-.06.24-.19.24l.19.48a1.91,1.91,0,0,0-.2.91h-.26l-.51-.25-.26.49a2.06,2.06,0,0,1,.77.24l1-1.14c1,.21,1.48.59,1.48,1.16l1.22-.24v-.24c-.35,0-.52-.16-.52-.49H35v.48h-.45c0-.44-.17-.67-.51-.67q0-.48.78-.48a2.49,2.49,0,0,0,1.22.49l-.77-1a1.44,1.44,0,0,0,.26-.66h.26a1.76,1.76,0,0,0,.7,1.39v.25a2.18,2.18,0,0,0-.46.66,1.58,1.58,0,0,1,.71.25l.52-.73c-.17,0-.26-.06-.26-.18h.45a1.47,1.47,0,0,0,.26.67l.51-.24h.45l.51,1.16h.26c0-.45.16-.67.46-.67l.51.25a2.19,2.19,0,0,1,1.22-.24v.43a2.86,2.86,0,0,1,1.23-.18v.18l.51-.18h.45v.18l-.26.48-.45-.24h-.51v.25c.51,0,.77.08.77.24l.45-.24h.51c.31,0,.45.16.45.48l.52-.24H46a2.68,2.68,0,0,1,.51.91H47v-.48c-.82,0-1.23-.53-1.22-1.58v-.73H46v.48l.52-.24A2.8,2.8,0,0,0,48,12.35h.45l-.19-.48v-.25h.45v1.63l1-.9h.26v.24l-.26.42,1.74.26v-.67a1.81,1.81,0,0,1-1-.25c0,.16-.09.24-.26.24l-.25-.48,1.22-.24c.17.49.66.73,1.48.74h.71c0,.44.4.67,1.22.67a1.44,1.44,0,0,0,.26-.66h.26c0,.44.17.67.51.67L57,13.06v.25l-.2.48a4,4,0,0,1,.71.43h.25V14h-.51v-.18a.48.48,0,0,1,.52-.48l.45.24c0-.48.35-.72,1-.72v.25l.45-.24H60v.72c.81-.15,1.22-.31,1.22-.47l.52.24H63.1a2.32,2.32,0,0,1-.19-.91l-.77.42h-.45a1.59,1.59,0,0,0,.45-.91h.26c.17,0,.26.08.26.25l.45-.24h.52l-.26.48c0,.16.08.24.25.25-.22.76-.46,1.14-.71,1.14,0-.16-.09-.24-.26-.24v.67a1.6,1.6,0,0,1,.7.24c.22-.76.48-1.15.78-1.15h.45l1.48,1.16V14h-.51v-.18c0-.16.09-.24.26-.24l-.26-.49v-.24c.35,0,.52.16.52.49a.22.22,0,0,0,.25-.25l1.23.25H68l-.19-.49c.13,0,.19-.06.19-.18a3,3,0,0,0,1,.19v.24h-.52v.48l.52-.24.45.25v-.25l-.26-.48a2.84,2.84,0,0,0,1-.18L70,13.86a.43.43,0,0,0,.45.43H71l-.71-1.15h1.23l.44,1.16c1-.12,1.49-.5,1.49-1.15h.51v.24l-.26.48c.17,0,.26.06.26.18.94-.07,1.42-.37,1.42-.9h.52v.48l-.71.91v.24a3.72,3.72,0,0,1,1.42-.48,2.13,2.13,0,0,0,.77.25l-.26-.49a.47.47,0,0,1,.52-.42H78v.43a30.42,30.42,0,0,0,3.22-.41v.42L80,14.34v.48l1.23-.23.45.24q.32,0,1.23-1.14h1l1,.68h.19c0-.45-.32-.67-1-.67v-.49c1.33.41,2,.88,2,1.41a4.21,4.21,0,0,1,1.23-.91l.19.43-.19.48v.24h.2v-.49h.77c.3,0,.45.17.45.49q.78,0,.78-1.14h.26a4.07,4.07,0,0,1,.7.42h.26c0-.45.16-.67.46-.67l.51.25a1.67,1.67,0,0,1,.71-.24,2.35,2.35,0,0,0,.77.25,2.64,2.64,0,0,1-.51-1.16l.77.43a1.83,1.83,0,0,1,.2-.67.45.45,0,0,1-.45-.48h.26c.47,0,.71.39.7,1.15l.71-.42a.52.52,0,0,0,.52.43v-.42a1.88,1.88,0,0,1-.26-.73h.26c.26,0,.58.33,1,1l-.45.67h.71a.91.91,0,0,1,1-.9,2.43,2.43,0,0,0-.45-.73v-.18l1,.43c0-.29.2-.43.46-.43h.26l.25,1.15h-.52v-.49h-.45l.26.48c-.17,0-.26.06-.26.18l1.22.25c.31-1,.81-1.57,1.49-1.56a1.89,1.89,0,0,1,.19.91,2.12,2.12,0,0,1,.77-.24c0-.45-.31-.67-1-.67v-.49a8.36,8.36,0,0,0,1.93.5c0-.16.09-.24.26-.24a.42.42,0,0,0,.45.42V11.5H103v-.25a3.71,3.71,0,0,0,1.68-.47V11a4.3,4.3,0,0,1,1.48-.41l.52.66a1.44,1.44,0,0,0-.27.67l.71-.42c.52,0,.78.23.77.67l1-1.57a4.86,4.86,0,0,0,1.73.92c0-.32.2-.49.46-.48h.25l-.26.48V12h.52c.3,0,.54-.69.72-2.06h.25v.73h1a.65.65,0,0,0-.71-.74V9.49h.26c.94.41,1.41.94,1.41,1.58H115l-.25-.43.52-.24,1,.25a1.67,1.67,0,0,1,.71-.24,1.47,1.47,0,0,1,.25.67l.52-.24H118l-.26.48.7.49v-.24l-.25-.49.77-.42.45,1.16h.51V11.1h.26c0,.6.48,1.07,1.47,1.4v-.67c.22,0,.45.22.71.67-.17,0-.26.08-.26.24h.26l1.22-.23v-.25q-1,0-1-.42h.45a2.59,2.59,0,0,0,.77.18v.49l-.26.48c.81.09,1.22.31,1.22.67h-.52v.24h.78c0-.16.08-.24.25-.24q.07.48.45.48a1.65,1.65,0,0,0,.26-.72h.26a.64.64,0,0,0,.71.73v.91l-.26,1.15c.34,0,.51.14.51.43v.24l-.26.48h.77v-.73h.45v.73l.52-.24a2.29,2.29,0,0,1,.44,1.15c-.13,0-.19.08-.19.24h.45V19h-.26l-1.22-.67h-.19l1,1.64v.19l-.26.48h1v.25L128.68,22c.26,0,.58.47,1,1.4-1,.28-1.48.58-1.49.9h.26l1.23-.23v.48c-.21,0-.53.3-1,.91a.22.22,0,0,0-.25-.25l-.52.67-.45-.19h-.26v.18a1.72,1.72,0,0,1,.71.25.51.51,0,0,1,.51-.42h.26c0,.24-.32.54-1,.9h-.51c0-.32-.09-.49-.26-.49a1.67,1.67,0,0,1-.71.24v.24h.45V27c-.65,0-1,.16-1,.48.34,0,.51.16.51.49-.17,0-.26.06-.26.18l-1-.43h-.26V28a7,7,0,0,0,1.74.68v.66h-.77a7.68,7.68,0,0,1-1.68.23V29.3h-.52c0,.76.17,1.15.51,1.15a2.08,2.08,0,0,1,.71-.18v.67h-.26a1.58,1.58,0,0,0-.71-.25c0,.32-.17.48-.52.48v-.48l.26-.43c-.48,0-.71-.16-.71-.48h-.52l-.71.91a7.26,7.26,0,0,0-1.73-.68h-.26v.24l1.48.19v.25c0,.32-.24.48-.72.48a1.94,1.94,0,0,0-.77-.25c0,.16-.08.24-.26.24l-.19-.49c.13,0,.2-.07.2-.24h-.19c-1.17.32-1.75.7-1.75,1.14h-.52a1.71,1.71,0,0,0-.18-.67h.7V30h-.52c0,.44-.64.66-1.93.65,0,.33.4.49,1.22.49v.43l-1.74-.19v-.73q0-.42.78-.42a.44.44,0,0,0-.51-.49A1.72,1.72,0,0,1,114,30c0-.16-.09-.24-.26-.24l-.26.48c.17,0,.26.06.26.18H113v.24c.64,0,1,.17,1,.49v.24h-.77c0-.65-.47-1-1.42-1l.19.49a2.12,2.12,0,0,0-.19.91h-.52l.53-2.05H111a1.36,1.36,0,0,1-.26.67c.17,0,.26.08.26.24h-.45c-.52,0-.77-.31-.77-.91h-.26c-.3,0-.45.16-.45.49q.45,0,.45.42l-1,.72v-.48h-.45c0,.44-.18.66-.52.66a2.29,2.29,0,0,1-1.47-1.16l-.46.24h-.25c0-.44-.17-.67-.52-.67h-.25v.67h.52v.48l-1.74-.49c-.22.93-.46,1.39-.72,1.39s-.51-.21-.51-.49l.26-.42a1.77,1.77,0,0,1-.25-.73l-.45.24-.52-.24a1.8,1.8,0,0,0-.26.72h-.71l.27-1.15q0-1.93-1.47-2.07l.25.43v1.15H99c-.35,0-.52-.18-.52-.42.18,0,.26-.08.26-.24l-.45-.25a1.47,1.47,0,0,0-.26.67l-.77-.43h-.71v.42h.71v.49c-.48,0-.71.16-.71.48h-.52v-.73l.27-1.15h-.71v.24l.25.48-.51.18c-.17,0-.26-.06-.26-.18l-.45.18c-.26,0-.51-.23-.77-.67a5,5,0,0,1-1.94.65,1.4,1.4,0,0,1-.25-.66h-.51l-.72.48c0-.52-.31-.85-1-1v-.67H89v.24l.25,1.16H89c-.3,0-.45-.24-.44-.73h-1v.73H88v.24c0,.28-.18.42-.52.42L87,29.1v.48h-.52l-.25-.91h-.19c0,.28-.09.42-.26.42-1.46-.65-2.19-1.1-2.19-1.34h-.25c-.35,0-.52.14-.52.43h.77q-1,1.39-1.74,1.38v-.24l.26-.42a1.66,1.66,0,0,1-1-.49l-.26.48v.18h.45v.48h-.19l-1.74-1.16h-.51l.25.48-.26.43a1.83,1.83,0,0,1,1.22.49.23.23,0,0,1,.26-.24c0,.16.09.24.26.24a1.53,1.53,0,0,0-.26.91h-.26c0-.37-.32-.67-1-.92v.43c-.3,0-.45-.31-.45-.92h-.51L78,30.44H77.5A8.59,8.59,0,0,0,78,28.62a1.74,1.74,0,0,1-.25-.72h-.45a1.78,1.78,0,0,1-.26.73h.51v.43h-1c0,.36-.33.69-1,1h-.26v-.24a1.55,1.55,0,0,1,1.49-1.14l-.26-.49v-.24l.26-.42h-.45c0,.29-.08.43-.26.43l.26.48v.25l-1.23-.25h-.25c-.35,0-.52.3-.52.91l-.71-.43h-.77a2.21,2.21,0,0,1-.19-.73h-.77l.25.48v1.15a1.8,1.8,0,0,0-1,.24v-.24l-.52.24h-.26v-.25a1.8,1.8,0,0,0,.26-.72h-.71v.73h-.78L69,28.33c-.69.24-1,.46-1,.66v.25h.77v.48c0,.29-.17.43-.52.43s-.57-.39-.7-1.16l-.51.24h-.46l-.77-.43q-.45,0-.45.42h.45l-.26.49v.42H66v.49h-.26q-1.92-1.05-1.92-2.07-.37,0-1.23,1.38v.19l.45.72h-.45a6.65,6.65,0,0,1-1.74-1.16v.67l-.45-.25H59.15a2,2,0,0,1-1,.48c-.17,0-.57-.39-1.21-1.16l-.45.24v-.49h-.52v.49h.52c0,.28-.18.42-.52.42h-.26l-.45-.19-.26.43v.24l.52-.24h.19v.48l.51-.23.51.66h-.51L55,31a1.4,1.4,0,0,0-.26.67h-1q-.51-.06-.51-.48h1.22V31H54l.46-.73H54l-.77.91H53q-.51,0-.51-.66l-.51.23h-.46c0-.48-.16-.73-.51-.73h-.25v.73h-.19l-2-1.16a1.71,1.71,0,0,1-.26.9h.25l1.23-.23V31q0,.42-.45.42h-.77q0,.5-.45.48v-.48l.45-.66a2.47,2.47,0,0,1-1.22-.25c0,.2-.24.42-.71.66h-.26c0-.61-.23-.91-.7-.91,0,.76-.27,1.15-.78,1.14L44.65,31l-.45.18L43,31l-.27,1.15H42.2c0-.64-.47-1-1.41-1l-.52.24-1-.43v.18c0,.48.31.73,1,.73l-.26.42c-.73-.28-1.14-.59-1.22-.91V31l.26-.49-.51-.24a5.73,5.73,0,0,0-.72,1.87,5.78,5.78,0,0,1-2.7-.74c0,.16-.09.24-.26.24l.25.49v.42a1.62,1.62,0,0,0-1.48.9,4.33,4.33,0,0,1-2.19-.68,1.67,1.67,0,0,1-.71.24c0-.32-.17-.48-.51-.49l-.45.24.19.49v.91H29.5v.42H30v.24H29v-.24l.26-.43h-1c0-.16-.26-.24-.77-.25v-.24h1.74v-.24c-.82,0-1.23-.15-1.22-.43a2,2,0,0,1-1,.23q0,1.58,1.92,1.59V35a4.21,4.21,0,0,0-2.19.66v-.19l.52-.72c0-.28-.34-.43-1-.43v-.48h.52v-.24h-.52c0,.17-.06.25-.19.24a1.62,1.62,0,0,1-.25-.91h-.52l.25,1.15c-.34,0-.51.14-.52.43V35h.52v.49l-.51-.25q0,.67-1.23.66v-.66c.51,0,.86-.54,1-1.63l-2,1.14V35l-.45-.25.2-.42v-.48h-.19c-.26,0-.76.47-1.49,1.39h-.52c0-.77-.4-1.16-1.21-1.16,0,.28-.16.42-.46.42,0-.28-.17-.42-.51-.43,0,.45-.17.67-.52.67a.39.39,0,0,0-.45-.43l.26-.48v-.24h-.25L16.74,35c-.42,0-.66-.38-.7-1.15h-.77v.48h-.2L14.56,34c0,.29-.17.43-.52.43h-.19c-.17,0-.26-.06-.26-.18-.17,0-.26.06-.26.18l-1.22-.19H11.6v.42c.52,0,.78.25.77.74.3,0,.45-.24.46-.73l.51.25c0,.76-.65,1.14-1.94,1.14-.21-.77-.46-1.16-.76-1.16,0-.16.08-.24.26-.24-.47-2.14-1.1-3.22-1.92-3.22v.48H8.45V31.7l.26-.48c-.51,0-.77-.15-.77-.43.3,0,.65-.7,1-2.12a2.86,2.86,0,0,0-1.23-.18q0,1-1.74,1.14l1.23-1.15c-.35,0-.52-.38-.51-1.15a2.59,2.59,0,0,0,.77.18v-.42H7.26L6,27.32c-.81-.69-1.22-1.31-1.21-1.88A.45.45,0,0,1,5.33,25v.67h.19c0-.45.27-.67.78-.67l-.25-.48V24.3h.51v-.24H5.34A2.76,2.76,0,0,1,2.89,25.43ZM14.55,35.85c0-.16.09-.24.26-.24l-.26-.42V34.7h.51l.19.91-.45.24Zm14.17.08V35.5h.52v.42ZM15.26,35v-.49c.25,0,.51.25.76.73v.43C15.77,35.62,15.52,35.39,15.26,35Zm7.15.7c0-.2.24-.42.71-.66v.24c0,.28-.17.42-.52.42ZM5.73,35.38v-.49h.52v.48ZM21.9,35V34.5c.34,0,.51.16.51.49v.48C22.07,35.39,21.9,35.23,21.9,35Zm-8.31.2q.06-.48.45-.48v.48ZM7.94,32.36h.25l.77.49h.2v-.48l.51.24-.26.49v.42c.52,0,.77.09.77.25l-.52.9a.23.23,0,0,1,.26.25H9.66a.23.23,0,0,1-.26-.25L9,34.91H8.69v-.48c.47,0,.71-.06.71-.18Zm17.63,2.16v-.18h.71v.18c0,.33-.15.49-.46.48Zm5.6,0v-.18c.35,0,.52.14.52.42V35C31.34,35,31.17,34.83,31.17,34.55Zm-27.11.09v-.42h.19v.42ZM7,34.42A.46.46,0,0,1,7.48,34h.25v.66A2.06,2.06,0,0,0,7,34.42Zm35.49-.23H43v.42C42.62,34.57,42.44,34.43,42.45,34.19ZM5,34.22V34h.45v.25ZM20,34.06h.19v-.48H20Zm11.21-.18v-.24h.51v.25Zm1.22,0v-.24h.52v.24Zm26,.14v-.48h.51V34Zm-47.46-.5h.26v-.42h-.26Zm13,.07h.25a2.15,2.15,0,0,1,.78-.24V32.21c-.43.77-.78,1.15-1,1.15Zm14-.17V33a.49.49,0,0,1,.52-.48l.19.48v.67A1.72,1.72,0,0,0,37.81,33.43Zm10,.3v-.42h.26q.45,0,.45.42Zm64.33.35v-.24h.51v.24ZM7.48,33.27v-.43h.26v.42Zm6.12,0h.45v-.18H13.6Zm3.93,0h.19v-.18a2.4,2.4,0,0,1-1.22-.73h-.19C16.35,32.81,16.75,33.12,17.53,33.32Zm1.93,0H20v-.18h-.51ZM36.59,33v-.24a1.67,1.67,0,0,0,.71-.24l.26.49a2.37,2.37,0,0,1-.71.42Zm-31.11.08v-.49H6v.49Zm7.6,0h.26v-.49h-.25Zm2,0q.45-.12.45-.48V32.4c-.3,0-.45.16-.45.49ZM41,33.27v-.49h.26v.48Zm65.63-.13V32.9c.3,0,.45.16.45.49v.24C106.74,33.55,106.59,33.38,106.6,33.14ZM4.07,32.1a.44.44,0,0,1,.46-.42c.25,0,.51.3.76.91l-.51.24C4.56,32.83,4.33,32.59,4.07,32.1Zm23,.85h.45a1.8,1.8,0,0,1,.26-.72h-1A1.82,1.82,0,0,1,27.06,33Zm4.64-.46,1,.49v-.24l-.25-.49v-.66L32,31.34a1.68,1.68,0,0,1-.26.73c.17,0,.26.06.26.18C31.79,32.25,31.7,32.33,31.7,32.49Zm13.46.56v-.24h.51v.24Zm3.15-.47h.78v.48h-.25C48.48,33,48.31,32.87,48.31,32.58Zm1.23,0,.51-.24c.35,0,.52.16.52.49l-.52.24C49.71,33,49.54,32.87,49.54,32.59Zm-38.9,0h1v-.48h-.2a2.06,2.06,0,0,1-.77.24Zm8.82.05h.26v-.49h-.26Zm1.74,0h.45v-.24H21.2Zm14.17-.59h.26l.45.18c0-.12.09-.18.26-.18l.25.43v.24h-.51C35.86,32.76,35.63,32.53,35.37,32.09Zm19.32.77v-.49H55v.48Zm63.37.34V33h.52v.25ZM7.23,32.36v-.43a1.5,1.5,0,0,0,.71-.23v.24c0,.28-.15.42-.46.42Zm4.89,0h.26V32h-.26Zm13,.07h.25V32h-.26Zm20.8.11v-.24h1v.24Zm34.77.19v-.43h.51v.42Zm-47.46-.68a2.08,2.08,0,0,1,.71.18v-.18a1.77,1.77,0,0,1-.25-.73h-.45ZM10.64,32h.78v-.24c0-.33-.17-.49-.52-.49A1.65,1.65,0,0,1,10.64,32Zm9.53.06h.52a.44.44,0,0,0-.51-.49Zm24.73.13V31.9c0-.25.26-.49.77-.73h.71v.48Zm70.72.38V32h.26v.49Zm-68.27-.61v-.48h.26v.48Zm14,.08V31.5c.3,0,.45.17.45.49Zm6.83-.45h1c0,.33-.15.49-.45.49S68.15,31.82,68.16,31.54Zm1.73.49q0-.36.72-.72v.24q0,.5-.45.48Zm6.38,0v-.49h.45Q76.72,32.07,76.27,32.07Zm24.92-.35v-.24c.25,0,.51.24.76.73h-.25C101.36,32.16,101.19,32,101.19,31.72Zm13.2.55v-.48h.51v.49Zm6.64,0v-.48h.51v.48ZM35.89,31.12a3.76,3.76,0,0,1,1.67.5h.26v-.25a3.63,3.63,0,0,1-1.73-.67Zm15.91.09h.45v.48A.45.45,0,0,1,51.8,31.21ZM7,30.78l.51-.24v.67C7.15,31.17,7,31,7,30.78Zm3.41.45h.26V30.8h-.26Zm24,.13h.26a1.67,1.67,0,0,1,.71-.24v-.43h-.52a.38.38,0,0,1-.45.42Zm23,.12v-.67c.34,0,.51.15.51.43v.24Zm15.39.08v-.24a.52.52,0,0,1,.52-.42c.35,0,.52.15.52.43Zm24.28.14v-.43h.46v.43Zm8.05-.38v-.25h1v.67h-.45C105.29,31.7,105.12,31.56,105.12,31.32Zm5.15.45c0-.28.2-.43.46-.42H111c0,.28-.16.42-.46.42ZM41,30.73a2.56,2.56,0,0,1,.77.42A2.25,2.25,0,0,1,42,30h-.26C41.5,30,41.24,30.24,41,30.73Zm19.58.53v-.43c.09-.32.26-.48.52-.48v.91Zm14.68.08v-.43h.52v.43Zm24.28.13V31H100v.42ZM3.05,30.76v-.48h.52v.48Zm6.63,0h.52v-.24H9.68Zm21.06.11h.45v-.24h-.45Zm9.53.05h.52v-.25h-.52Zm2.19,0c.35-.08.52-.24.52-.49v-.24h-.51Zm24-.12a2.12,2.12,0,0,0,.19-.72h.26a1.74,1.74,0,0,0,.51,1h-.51Zm14.42.32v-.24h.45v.25Zm5.35-.94h.26q.51,0,.51.48l.45-.24h.26c0,.25-.24.49-.71.73h-.52l.26-.48C86.43,30.69,86.26,30.53,86.26,30.24Zm39.92,1.19V31h.25v.48ZM9,30.55h.45q0-.48-.45-.48Zm24.47.13h.45v-.25h-.45Zm4.12,0h.26a1.88,1.88,0,0,1,.26-.73h-.52Zm19.58.1v-.48h.26v.48Zm6.63,0v-.24c0-.21.24-.43.71-.67v.19a1.8,1.8,0,0,0-.26.72Zm4.64,0v-.24h.51v.25Zm9.79-.43h.51v.48C78.38,30.89,78.21,30.73,78.21,30.44ZM5.76,29.81v-.18l.51.18a4.2,4.2,0,0,1,1.49-.42l.19.43-.45.24c0-.16-.09-.24-.26-.25,0,.33-.17.49-.52.49H6.27Q5.76,30.23,5.76,29.81Zm38.44.69h.26V30h-.25Zm2.45,0h.26v-.66h-.25Zm26.67-.34a2.37,2.37,0,0,0,.71-.42l.25.43a2.19,2.19,0,0,1-.71.48Zm8.82.54v-.49h.45v.49ZM98,30.55v-.42h.25c.65.2,1,.43,1,.67h-.52A1.55,1.55,0,0,0,98,30.55Zm8.83.05.45-.24a.49.49,0,0,0,.51.49,1.53,1.53,0,0,1,.26-.91l-.51-.25h-1v.24A1.47,1.47,0,0,1,106.87,30.6ZM4.79,30v-.42h.26v.43Zm4.64,0h.51v-.42C9.6,29.65,9.43,29.79,9.43,30.07Zm37.93,0,.52.25c0-.28.19-.43.45-.42a2.33,2.33,0,0,1-.19-1h-.51Zm5.41.27h.71c.34,0,.52-.18.52-.42v-.25a3.23,3.23,0,0,1-1.23.42Zm19.06.11v-.24h.52v.24Zm27.44.15v-.43H100q0,.42-.45.42ZM34.68,30h.45v-.19h-.45Zm8.75.05H44a1.44,1.44,0,0,1,.26-.66v-.24H44q0,.48-.51.48Zm1.49,0h.51v-.66h-.51Zm16.87.09h.26q0-.66.51-.66a1.55,1.55,0,0,1-.25-.67,2.08,2.08,0,0,1-.71.18A2.81,2.81,0,0,1,61.79,30.11Zm12.49-.35h.26q.52,0,.51.42H74.8C74.45,30.14,74.28,30,74.28,29.76Zm2,0h.45v.42Q76.28,30.13,76.28,29.77Zm7.34.46v-.91h.45l-.26-.42v-.24h.77v.91h-.77l.25.49v.18Zm19.77.11c.35,0,.52-.18.52-.42v-.25h-.26v.49h-.45v-.48h-.51C102.69,29.87,102.92,30.09,103.39,30.34Zm-57.51-.5h.26v-.48h-.26Zm11.79.07h.26a1.64,1.64,0,0,1,.7-.24v-.48a1.61,1.61,0,0,1-1,.47Zm14.94-.41a1.63,1.63,0,0,0,.71-.23v.24c0,.32-.17.48-.52.48Zm15.65.57v-.48c.3,0,.45.16.45.49Zm10-.43h.45v.48C98.46,30.05,98.31,29.89,98.31,29.64ZM4.8,29.38v-.49h.26v.49Zm49.46.27h.19v-.49h-.19Zm4.63,0,.45-.24a2,2,0,0,0,.78.25l.26-.49V29a2.16,2.16,0,0,1-1.22-.67v.91H58.9Zm-9.79-.29h.26v-.49h-.78A.49.49,0,0,0,49.1,29.38Zm8.31,0h.52v-.24h-.52Zm51.14.28h.51c0-.32-.17-.48-.51-.49ZM74.8,29.27V29h.45v.25Zm8.31.05a.46.46,0,0,1,.52-.42v.42Zm18.1.1h1V29H102a2.24,2.24,0,0,1-.77.17Zm3.41,0h.52V29.2h-.52Zm2,0h.45v-.24h-.45ZM5.31,28.65v-.42H6v.43Zm40.84.23h.51V28.7h-.51Zm11,.06h.26v-.43h-.26Zm65.11.35h.51v-.18h-.51Zm-58.22-.5h.71c.21,0,.45-.24.71-.72H65a1.69,1.69,0,0,1-1,.48Zm6.57,0h.51v-.49h-.52Zm36.71.2h.25v-.49h-.26ZM4.29,28v-.24c0-.16.09-.24.26-.24l-.26-.43v-.24h.26c.43.45.75.67,1,.67,0,.33-.15.49-.45.49Zm3.22,0h.26a.45.45,0,0,0,.45-.48H8Q7.51,27.52,7.51,28Zm43.08.23H51v-.49A.42.42,0,0,0,50.59,28.23Zm22.22.12h.26v-.49h-.26Zm.77,0a.46.46,0,0,0,.46-.48h-.45Zm24,.13h.52v-.24h-.52Zm3.41,0h.52v-.24H101Zm.78,0h.45v-.24h-.45Zm21.76.12H124v-.24h-.51Zm-67-.61h.46v-.25h-.45Zm18.81.1h.26V27.7h-.26Zm3,0h.52V27.9h-.52Zm8.57.05h.51v-.42C87,27.76,86.79,27.91,86.79,28.19Zm6.37,0h.26c.22,0,.45-.22.71-.66h-.71A1.34,1.34,0,0,1,93.16,28.22ZM3.32,27.49v-.66c0-.17.09-.25.26-.25l-.26-.42v-.24l1-.24v.48H3.85l.25.43-.51.24.25.48v.18Zm80.76.44h.52a1.82,1.82,0,0,1,.71-.17v-.49a1.91,1.91,0,0,1-1.23.48ZM91,28h.46v-.18H91Zm3.42,0h.26v-.43h-.26Zm32.78.17v-.42a.48.48,0,0,1,.52-.48,1.63,1.63,0,0,0,.71.24Q128.39,28.06,127.17,28.16Zm-46.5-.43v-.48h-.51C80.24,27.57,80.41,27.73,80.67,27.73Zm1.48,0h.45c0-.32-.14-.48-.44-.49ZM65.28,27.4h.45v-.25h-.45Zm8,.05h.52v-.24h-.52Zm14,.07h.45c0-.33-.15-.49-.45-.49Zm2.64,0h.51V27.3H90ZM7,26.85V26.6q0-.42-.45-.42v.18C6.59,26.68,6.74,26.84,7,26.85Zm84.17.45h.52v-.25h-.52ZM2.36,26.58v-.43h.25v.42Zm5.16,0H8v-.24H7.52Zm-2-.26c.34,0,.52-.18.52-.42v-.24c-.34,0-.52.16-.52.48Zm88.1.3h.26v-.48h-.26Zm34.52.19v-.49c.35,0,.52.17.52.49ZM7.52,25.94h.26v-.48H7.52Zm-.95-2.31L7,22.91v-.18a2.16,2.16,0,0,1-1,.17v.25A.48.48,0,0,0,6.57,23.63Zm1.93,0H9V23.4H8.5Zm-2.71-.25V22.9H5.35C5.39,23.22,5.54,23.38,5.79,23.39Zm1.74,0h.26v-.49H7.54Zm120.18.41h.45v-.24h-.45ZM3.09,22.46v-.91h.51v.91Zm2.45,0h.52v-.24H5.54Zm.77,0h.26V22H6.32Zm121.85.42h.26c.34,0,.52-.2.52-.48h-.26C128.34,22.42,128.16,22.58,128.16,22.9ZM1.88,21.55v-.49h.26c.34,0,.51.17.51.49v.18A2.59,2.59,0,0,0,1.88,21.55Zm-1.68,0v-.49H.46v.48Zm2.9-.23v-.24h1l-.25-.49a2.08,2.08,0,0,1,.71-.18l-.45-.73.71-.42h.26c0,.45.15.67.45.67v.49c-.47,0-1,.38-1.68,1.14A2.13,2.13,0,0,0,3.1,21.31ZM7,21.09v-.48H6.58C6.62,20.93,6.77,21.09,7,21.09Zm120.88,0h.26V20.6h-.26Zm-125-1.65h.19l.51.25v-.42h.51v.18a1.78,1.78,0,0,0-.26.73H3.11A2.5,2.5,0,0,0,2.92,19.43ZM7,19.7h.77v-.24H7Zm122.11,0v-.48h.51v.49ZM7,18.79h.52v-.24H7ZM3.63,18.1v-.48h.51v.49ZM1.7,17.85v-.48H1.9v.48Zm126.75.21.26-.43h-.78A.54.54,0,0,0,128.45,18.06ZM5.58,16h.25l1.23-.18v-.24H5.84Zm3,0h.51v-.18H8.54Zm.26-.42a.45.45,0,0,0,.45-.48H8.8Zm76.57-.07c0-.44.18-.67.52-.66,0-.33-.16-.49-.51-.49l-.45.72C85,15.38,85.12,15.52,85.37,15.52ZM1.2,14.82v-.18h.52v.18Zm86.88.47h.52v-.18h-.52Zm37.42.21H126v-.18h-.51ZM73.4,15a2,2,0,0,1,1-.24v-.24H73.14V14.3h-.45C72.69,14.54,72.93,14.79,73.4,15Zm9.53.05h.51a2,2,0,0,1-.25-.73h-.51A1.82,1.82,0,0,1,82.93,15.08ZM8,14.43h.52c0-.33-.17-.49-.51-.49Zm41.86,0h.52v-.24H49.9Zm14.24.08c.21,0,.45-.22.71-.67h-.26q-.45,0-.45.42Zm4.64-.22a1.64,1.64,0,0,1,.7.24h.26v-.25q-.51,0-.51-.42h-.45ZM92,14.65h.26V14H92Zm33.49.18h.26v-.48h-.26Zm-71-.63h.26v-.42h-.25Zm1,0c.3,0,.46-.18.46-.42l-.45-.25Zm4.9,0h.45V14h-.45Zm1.41,0c.35,0,.52-.18.52-.42l-.51-.25Zm15.72.09h.19V13.9h-.19Zm6.12,0h.19c0-.28-.15-.42-.45-.43h-.26A.47.47,0,0,0,83.71,14.36ZM8.55,13.29c0-.33.22-.49.52-.49s.45.25.71.73l-.52.18C9.26,13.43,9,13.29,8.55,13.29ZM59.24,14h.19v-.43h-.19ZM94,14.17h.51v-.43H94Zm-6.37-.7c.51,0,.77-.15.77-.48h.45v.25c0,.24-.24.48-.71.72C87.75,13.88,87.57,13.71,87.58,13.47Zm-50.88,0H37V13H36.7Zm8.56,0h.26V13h-.25Zm2.19,0h.26c0-.32.17-.49.52-.48v-.25h-.52l-.26.48Zm4.9,0h.51V13Q52.35,13,52.35,13.52Zm19.57.11v-.49h.77v.48Zm6.38,0v-.48h.26a1.72,1.72,0,0,0,.71.25c0-.16.09-.24.26-.24v.48Zm10.76.06v-.48h.51v.49Zm-76.58-.66h.45v-.25h-.45Zm69.23.38a.49.49,0,0,1,.52-.48h.71v.49h-.26c-.13,0-.19-.09-.19-.25l-.52.24Zm40.38.22h.26v-.48h-.25Zm-44.75-.49v-.42h.45v.43Zm-35.49-.43h.45v-.18h-.46Zm29.63.16v-.42h.45v.42Zm1.93-.66h.26q.45,0,.45.48v.18C73.9,12.91,73.67,12.69,73.41,12.24Zm6.12.7v-.42h.52V13ZM7.34,12.37v-.48h.51Q7.85,12.37,7.34,12.37Zm5.86,0h.25v-.48H13.2Zm1.73,0h.26v-.48h-.26Zm20.55.11h.71c0-.33-.15-.49-.45-.49h-.26Zm1.48,0h.26a1.81,1.81,0,0,1,.45-1v-.19l-.45.18-.51-.18v.18A1.85,1.85,0,0,1,37,12.53Zm19.32.11v-.49h.26c.3,0,.45.17.45.49Zm1.48,0v-.48L59,11.92Q59,12.47,57.76,12.64Zm31.82.18v-.73h.26c.3,0,.45.17.45.49v.24Zm1.22,0v-1l.45.25a2.12,2.12,0,0,0-.19.72ZM3.15,12.1v-.24h.52v.24Zm37.74.21h.45v-.24h-.45Zm37.42.2v-.24h.51v.25Zm2.7,0V12h.26v.49Zm21.51.11H103v-.73h-.26A1.65,1.65,0,0,1,102.52,12.64Zm21.58.12q.06-.48.45-.48h.26c0,.32-.18.48-.52.48Zm-84.43-.7h.71v-.48h-.26Q39.67,11.58,39.67,12.06Zm12.68.07v-.48h.25v.48Zm51.65.28h1l.26-.91-.51-.25h-.19l-.52.24.25.43Zm-89.06-.73v-.24c0-.12-.26-.34-.77-.67a1.67,1.67,0,0,1-.71.24C13.63,11.46,14.12,11.68,14.94,11.68Zm29.82.17V11.6a.52.52,0,0,1,.52-.42h.25v.25c0,.28-.17.42-.52.42Zm4.44,0v-.42h.45Q49.65,11.87,49.2,11.87Zm47.21.26v-.25a.45.45,0,0,1,.51-.42v.25Q96.92,12.13,96.41,12.13Zm10.75.06h.52V12h-.52Zm-91.77-.75h.26c0-.25.26-.63.78-1.15v-.18h-.26q0,.36-.78,1.14Zm14.94.09h.52v-.18h-.52ZM0,11.18v-.49H.26v.48Zm17.65-.39c.3,0,.45.16.45.49h.25v-.49l-.52-.24h-.19Zm91.25,1h.26v-.48h-.26Zm5.6,0H115v-.24h-.51Zm5.42-1.36V10.2h.26l1.48,1.16v.48h-.51ZM8.05,11v-.24c.09-.32.26-.48.52-.48l.26.48V11Zm31.11.17v-.73h.52v.72Zm11.27.06v-.48h.26v.48Zm5.6,0v-.48h.26v.48Zm56.54.31h.52v-.24h-.51Zm-84.42-.7h.7v-.24h-.71Zm52.61.28v-.24h.52v.25Zm41.09.23v-.49c.35,0,.52.17.51.49ZM7.09,10.49v-.42h.26v.42Zm11.53.06h.25V9.89H18.1v.25A.46.46,0,0,0,18.62,10.55Zm34.26.19v-.42h.26v.42Zm60.41.33h.51v-.24h-.51ZM9.54,10.26v-.18L9.8,9.6a1.64,1.64,0,0,0,.7.24v.25A2.37,2.37,0,0,0,9.54,10.26Zm3.22,0V9.86h.71c0,.28-.18.42-.52.42Zm27.37,0,.26-.49a1.44,1.44,0,0,1-.26-.66h.52l.25,1.15-.52.18C40.39,10.31,40.3,10.25,40.13,10.25Zm83.46.63v-.42h.26v.42Zm-84.17-.64V10h.45v.24Zm4.38,0V10q0-.36.78-.72v.24C44.57,9.79,44.32,10,43.8,10.27Zm7.08,0V9.82h.77c0,.33-.18.49-.52.49Zm55.84.31v-.49c.3,0,.45.17.45.49Zm.71,0a.47.47,0,0,1,.51-.48v.48Zm2.7,0v-.49l1.23-.23c0,.24-.24.48-.71.72Zm8.83-.44h.45v.49C119.11,10.59,119,10.43,119,10.19ZM13.73,9.62q0-.55,1.68-.9l.25.42q-1.23.3-1.23.72A1.64,1.64,0,0,0,13.73,9.62ZM45.54,10q.06-.48.45-.48V10ZM7.35,9.58V9.34h.52v.25Zm3.41,0V9.12h.51V9.6Zm16.43.09h.25V9.21h-.26Zm21.06.12V9.32H49c0,.32-.18.48-.52.48ZM23,9.43V9c.35,0,.52.15.52.43ZM28.86,9V8.79h1v.66h-.51C29.38,9.18,29.21,9,28.86,9ZM34,9.24a.45.45,0,0,1,.51-.42v.43ZM49,9.33V8.9h.51C49.47,9.19,49.3,9.33,49,9.33ZM18.63,8.49q.06-.48.45-.48l.26.49V9h-.25C18.78,8.9,18.63,8.74,18.63,8.49ZM20.11,8l.45-.18v.91l.77-.48.19.48V9H20.3ZM16.18,8h.26q.45,0,.45.48l-.45.24A1.8,1.8,0,0,0,16.18,8Zm12,.79V8.3h.51v.48Zm3,0c0-.24.24-.48.71-.72h.26c0,.24-.26.49-.78.73Zm2.64-.22V8.09H34v.49ZM9.81,8.2V7.3h.26a1.57,1.57,0,0,0,.25.91Zm.7,0A.51.51,0,0,1,11,7.79l.26.42Zm23.77.13V7.91h.26v.43Zm-5.86-.28a.42.42,0,0,1,.45-.42v.42ZM12.51,7.55V7.31H13v.24ZM29.39,7.4V6.92h.52V7.4Zm7.08,0A.49.49,0,0,1,37,7v.48ZM13.22,7.07V6.83h.51v.24Zm6.12-.21V6.44h.25c.35,0,.52.14.52.43Zm1.49-.17V6.2h.26v.48Z"/><g id="xXwLgW"><path class="cls-1" d="M119.3,6.09l.2-.23.46.81.14-.09L119.73,6l.45-.35V7l.49,0,0,.16-.35.21.29.29c.24-.4.31.09.5.07-.36.83-.47,1.4.44,1.44.11.7.11.7-.16.8l.16.23.21-.22c0,.08.12.2.1.21-.31.35.06.62.09.92h-.12a1.78,1.78,0,0,0,0,.4c0,.1.14.17.21.26l-.33.14a1.59,1.59,0,0,1-.25,0l.27.25-.18.7-.34-.22-.17.25.32.29-.66.87c.68-.26.36.29.41.54.36-.22.36-.22.67.53l-.7.21v.12l.34,0,0,0c.33.09.66.2,1,.26A2.41,2.41,0,0,1,124,17.36a8.34,8.34,0,0,0,.29,1.46l-.43-.17a1.24,1.24,0,0,0,0,1.53l-1,.49h.74l-.33.7-.48-.29-.2,1.27.37.22a2.7,2.7,0,0,0-.15,1.39l-.46-.39-.09.1.1.4h.42l-.11.52.47-.42.56.89-.11.12-.27-.17,0,0,.44.54v.83a4.59,4.59,0,0,1,.88-.3c.12,0,.28.15.42.24l-.34.3-.26.14.07-.4a2.33,2.33,0,0,0-.72.32c-.13.1-.15.38-.17.59a2,2,0,0,0,.07.47l-.12-.1-.64.57.08.13h.82l-.24-.1,0-.16.76.13c.19,1-.1,1.26-1,1.05,0,.12-.1.24-.16.36l-.63-.54.07-.11-.37,0,.16-.61.14.25.21-.52-.07-.08c-.15.16-.31.3-.46.47s-.23.48.13.6c.08,0,.15.11.23.17a1.28,1.28,0,0,1-.33.06,1.65,1.65,0,0,1-.36-.11l0,.11.34.21-.27.35c.14,0,.21-.09.3-.14a1.27,1.27,0,0,1,.46-.21,1.35,1.35,0,0,1,.48.06c.3,0,.39.14.44.42a2.35,2.35,0,0,0,.18.4c.09-.15.18-.3.26-.45l.05-.12h.12l0,.71c.33-.07.73-.31.92.08l-.2,1.11.08.09c.25-.5.55-.27.87-.08l.16-.82.71.37-.16.5,1.48.45c0,.21-.43.71.28.74v-.43c.37.52.75,1,1.08,1.54a.79.79,0,0,0,.86.35,2.66,2.66,0,0,1,.61.13,3.73,3.73,0,0,1-.26.61c-.14.23-.32.43-.54,0,0-.07-.22,0-.41-.06.19.47.17.77-.27.94-.12,0-.17.31-.23.43l-.71.47c.07.37.13.64.16.92.06.58-.09.7-.58.47-.4.48-.45.45-.82-.46-.25,0-.25.63-.62.32a3,3,0,0,1-.25-.26l.07-.11.28.08c.17-.52,0-.74-.64-1l.51.69-.26.1h0a5.7,5.7,0,0,0-.76-.43s-.25.2-.27.32a3.21,3.21,0,0,0,.06.74l-.51-.11.06-.17-.87-.79-.23.48a5.11,5.11,0,0,1-.67-.21,1.8,1.8,0,0,1-.59-.47l.55.08V37c.1.19.2.37.31.59l.46,0c-.11-.29-.21-.51-.28-.75,0-.06.1-.16.16-.24h0a1,1,0,0,0,.72.77c.2,0,.4.07.62.11l.62-1c0-.53-.37-.69-.89-.64l.06-.12.43-.08,0-.14c-.2-.06-.53-.22-.57-.17-.25.39-.56.17-.84.13l.18.38h-.74c.06-.28.11-.52.17-.75l.23.13c-.17-.52.28-1-.12-1.47-.22.49-.41.17-.61,0,.06-.51.25-.19.5,0,0-.27,0-.47-.09-.51a2.9,2.9,0,0,0-.61-.19v.1l.19.23-.35.09.38.22-.41.29c.18,0,.18,0,.65.5l.28,0,0,.61-.5.31a.62.62,0,0,1-.17.84l.24.79a.76.76,0,0,1-.3,0c-.41-.1-.64.16-.58.62a4.93,4.93,0,0,1,0,.66,1.91,1.91,0,0,0,.17.46l-.2.23L122,38.2c.39-.32,0-.83.24-1.2-.23.13-.23.13-.27.81l-2,1.09.07.52.26.19.46-.4c-.12-.06-.25-.08-.27-.15a.36.36,0,0,1,0-.29,1.05,1.05,0,0,1,.35-.15c.22.49.51.12.77.08a2.69,2.69,0,0,1,.3.37c.21.35.25.35.51,0l0,.31.26-.18v.67l-.55-.2.13.38-.4-.24.11.43-.1-.08-.6.9a1,1,0,0,1,.83.83l-.72-.15,0-.08-.57.23-.33-.51c-.07-.1-.15-.19-.21-.29.1,0,.27-.08.28-.14a1.52,1.52,0,0,0,0-.85c-.1-.17-.46-.17-.76-.27l-.2.18.65.49c-.17.18-.61,0-.5.5a1.27,1.27,0,0,1,.48-.16,1.36,1.36,0,0,1,.17,0l-.1.22c-.19.5-.6.81-.83.71l-.29.48.35.43c-.09-.48-.08-.47.25-.56.07,0,.1-.16.15-.24s.06-.06.1-.11l.11.34.72-.28-.19.62.09.09-.64.14.33.22-.46.17.21.17.57.08.52-.29h0l.16.69-.43-.22.2.75.11,0c0-.11,0-.22,0-.33a1.56,1.56,0,0,1,.07-.14L122,44l0,.1-.18.07.27.46-.53-.2-.06.1.36.48.89-.6,0-.34c.24.3.38.5.11.62l.07,1.09-.86-.18.21,1,.13,0,0-.72.91.26c-.15.27-.23.65-.43.75s-.55,0-.87,0l0,.21-.74.68.05.18a5.38,5.38,0,0,1-1.72-.19,6.13,6.13,0,0,1-1.36-1.21c.4-.4.25-.92.3-1.39l.42-.36-.48-.25h0l-.18-.3h.25c.11-.27-.49-.56.07-.84l.29.49a1,1,0,0,0-.65-1.25l.33.6-.69.23-.16-.2-.13,0a.71.71,0,0,1,.09,1l.35-.07c-.08.1-.16.29-.25.3-.4,0-.31.46-.53.61.3.22,0,.8.46.93s.34.47.35.79,0,.55-.31.57a1.46,1.46,0,0,1-.77-.22,2.85,2.85,0,0,1-.62-.63.42.42,0,0,1,0-.33,2.19,2.19,0,0,1,.28-.42l.24.33.06-.08c.12-.13.35-.28.33-.38a2.52,2.52,0,0,0-.34-.7.21.21,0,0,0-.19,0l-.91.81.11-.67-.37-.24h0l-.35-.17c-.33.72-.33.72-.41.65l-.15.42c-.36.08-.86-.11-.87.56-.51-.18-.55-.31-.21-.66a1.13,1.13,0,0,0-.12-.18.39.39,0,0,0-.14,0l-.35.67.41.27-.25.12,0,.12.49,0a1.28,1.28,0,0,0,.27-.05c0,.1,0,.2,0,.31s0,.2,0,.29l.8.05a8.11,8.11,0,0,1,1,0,.69.69,0,0,1,.66.48c.11.31.46.52.69.78a.32.32,0,0,1,.07.28l-.43-.22c-.06.19-.12.37-.18.53a1.06,1.06,0,0,1-1.86.4c-.33-.4-.77-.39-1.15-.6a.21.21,0,0,0-.13,0c-.26.24-.52.37-.79,0-.08.11-.24.25-.22.34.19,1.11-.24,2.32.45,3.36.08.12,0,.38,0,.58a6.63,6.63,0,0,1,.07,1.77c-.26,1.14-.11,2.29-.27,3.42a21.45,21.45,0,0,1-.33,2.13,3.89,3.89,0,0,1-.59,1,2.48,2.48,0,0,1-.75-2.84,10.45,10.45,0,0,0,.17-2.1c0-.09-.13-.19-.2-.29a.56.56,0,0,0,0-.79c-.24-.33-.34-.59,0-1,.14-.15.11-.54.09-.82-.06-.56-.2-1.11-.25-1.67-.09-.83-.1-1.68-.19-2.52-.06-.45,0-1-.3-1.36a.19.19,0,0,1,0-.13c0-.18.16-.44.1-.53a2.59,2.59,0,0,0-.59-.44.29.29,0,0,0-.16,0c-.1,0-.2,0-.3.06.06-.08.14-.15.19-.23a.52.52,0,0,0,.1-.35l-.43.39,0-.42-.1-.07-.11.29-.5-.25c-.08.11-.21.19-.22.29s0,.36.11.39c.48.23.53.34.28.83,0,.08-.1.15-.18.28-.21-.76-.8-.45-1.17-.56-.16-.35-.31-.66-.43-1,0-.12-.07-.35,0-.38a1.38,1.38,0,0,1,.62-.25.92.92,0,0,0,.81-.86l-.45,0,.47-.77c.48-.11.77.14.88.7l.24-.16-.26-.5.09-.08c.24.11.46.48.83.05l-.43,0-.09-.34-.23.18-.13-.32-.09.08c-.17.07-.4.25-.48.19a.51.51,0,0,0-.71.07c-.11.12-.09.4-.12.61a.76.76,0,0,0,0,.17l-.82.17.18-.94c.08-.14-.44-.28.12-.46l-.48-1,.17-.11.25.37c.34-.27,0-.48-.08-.66-.2-.33-.43-.62-.73-1,0,.2,0,.37,0,.41a.47.47,0,0,1,.07.73c0,.07,0,.22,0,.34,0,.54-.21.63-.63.34,0,0-.1,0,0,0l-.17-.82-.16,0,0,.67c-.11-.09-.21-.12-.25-.19-.15-.25-.29-.51-.43-.77.08-.27.17-.54.26-.85l.22.12.27-1.55H105c0,.23,0,.46,0,.68s.09.42.13.64l-.13,0-.28-.28c-.08.34-.16.66-.22,1,0,0,.12.11.18.17l.08.32c-.44-.25-.64,0-.79.34l-.78-.25-.07.09a1.82,1.82,0,0,1,.15.23l.14.28h0a1.66,1.66,0,0,1-.39-.15.49.49,0,0,1-.19-.33c.07-.53,0-.6-.46-.62l-.22-.71c-.28-.07-.38.19-.46.52a7.26,7.26,0,0,1,.81.49.49.49,0,0,1,.16.38.56.56,0,0,1-.21.36,7.54,7.54,0,0,1-.69.4,4.57,4.57,0,0,1,.38,1.14c0,.45-.35.64-.71.64a.71.71,0,0,1-.54-.34.93.93,0,0,1,.19-1c.12-.1.26-.18.39-.27v-.49l.41-.16c-.11-.23-.07-.57-.47-.48a5.37,5.37,0,0,1-.16-.6l-.29.25c-.35-.25.52-.41,0-.6-.14,0-.37.18-.58.3l-.13-.45c.2-.1.51-.16.17-.48-.06-.06,0-.33.06-.45s.23-.2.37-.32l-.31-.35-.73,1-.17-.07a2.92,2.92,0,0,1,.21-.69c.13-.2-.09-.66.5-.56l-.36-.27.32-.39.25.34-.46-1.08-.47,1.1c.42,0,.16.39.1.71a5.66,5.66,0,0,0-.49-.49,1.25,1.25,0,0,0-.31-.1,1.17,1.17,0,0,1-.36-.16c-.11-.09-.28-.3-.26-.35a1.94,1.94,0,0,1,.4-.41.17.17,0,0,1,.15.05c0,.06,0,.14,0,.21s0,.24,0,.37c.12-.08.24-.14.35-.22s.27-.24.42-.38l-.48-.28h0l.66-.19s0-.1,0-.22c.64-.09.59.42.59.94l.27-.27c-.13-.35-.22-.68-.36-1-.23-.5.29-.49.47-.8l-.54-.29,0,.51a.8.8,0,0,1-.5-.77c0-.43.38-.46.62-.55s.56-.19.66.37l.28-.88-1.52.44L99.65,35l-.08,0,.16.6-.64.05.28-.4-.25-.16.35-.2L99,34.41c0,.55.21,1.06-.3,1.42l0-.43c-.64-.06-.64-.06-.74-.94l1.63-.78v0L98,34.06l-.1-.32s-.07,0-.08,0c-.14.44-.39.1-.59.08,0,0-.06-.14,0-.15a.35.35,0,0,1,.17-.09l.32-.06c0-.23-.09-.46-.15-.69,0,0-.08-.06-.11-.07l.42-.51c.22-.25.1-.41-.11-.6s0-.29-.08-.51l-.67.23-.24-.62.06-.07.48.32-.06-.14.5-.61L97.17,30c.62-.43.79.16,1.1.44a1,1,0,0,0-.11.15c0,.05,0,.11-.06.28l.61-.39s0-.11-.1-.11c-.65-.08-.36-.6-.39-1l-.5-.23.39-.58h0c.22,0,.42-.35.66,0l0,.41s.1.06.09.09c-.06.25-.15.49-.23.72l.91-.12v-.16l-.67-.13.47-1.09-.59.28c0-.09-.06-.23-.11-.24-.36-.08-.21-.29-.1-.45s.17-.12.33-.23l-.43-.26-.09-.11-.76-.17,0,.11-.31-.56.1-.11.36.11c-.32-.52.07-.67.37-.9l-.47-.4-.09-.85-.47.3c.14-.37.13-.39-.14-.59a.29.29,0,0,1-.07-.17s.1-.09.13-.07.26.18.39.27l.08.06.18-.28c-.3-.46-.63-.33-1-.09a.45.45,0,0,0-.28.5l-.36.37-.23-.27-.46.18c-.38-.84-.35-1,.19-1.35l.26.89,1.57-1.91.3,1.26.13,0,0-.51a2.61,2.61,0,0,1,.66.47c.24.34.41.3.62,0l-.36.08c0-.07-.13-.17-.11-.22A3.16,3.16,0,0,1,98.8,23v-.48c.19.16.43-.36.56.13.09-.16.26-.33.24-.48,0-.45.27-.58.48-.88l-.6-.36c.11-.06.25-.19.32-.15.48.22.45-.2.54-.47h0c.22-.15.27-.46.09-.56s-.36-.42-.15-.6.44-.07.66,0,.15.16.27.2l-.23-.47-.55.09a1.06,1.06,0,0,0-.13-1.08c-.11-.13.06-.52.11-.8a1.05,1.05,0,0,1,.3,1.45l.94-.41a1.32,1.32,0,0,0,0-.18l.44.18c0-.4,0-.73.07-1.07,0,0,.09-.13.1-.13l.35.21.43-.31-.51-.25.75-.73,1-.06a.49.49,0,0,0-.4-.19,2.75,2.75,0,0,0-.59.25l-.08-.72,1.41-.1c0-.61-.61-.06-.76-.54H105l0,.72-.6.12c.62.16.68.11.77-.47a.65.65,0,0,1,1-.48c.2.11.5.38.58-.12a2.81,2.81,0,0,0,.31.08c.23-.64.79-.29,1.21-.49l-.59-.32c.28-.06.38-.27.54-.48a.57.57,0,0,1,.89,0l.27-.54a4.21,4.21,0,0,0,.12.52,1.85,1.85,0,0,0,.17.27,2.78,2.78,0,0,0,.09-1c-.07-.28-.37-.49-.56-.74l-.12.1.34.57c-.16-.16-.92.39-.51-.33a7.12,7.12,0,0,1-.54-.6.9.9,0,0,1,0-.38l.29,0a.84.84,0,0,0,.19,0l.19.54.3-1,.14,0c0,.3-.1.68,0,.9a3.48,3.48,0,0,0,.83.7c-.16-.32.06-.84-.54-.78,0,0-.16-.12-.15-.18s.08-.17.13-.26l.3.23c.07-.13.16-.27.23-.41s.11-.23.16-.34c-.07.18-.31-.23-.35.11h-.18c0-.17-.13-.37-.08-.5s.26-.28.44-.45c-.08-.13-.53-.23-.19-.56l.55.21,0,.46.5-.42L110.38,9a.26.26,0,0,1-.06-.15.51.51,0,0,1,.24-.15,4.07,4.07,0,0,1,.52,0l-.34-.35c.13-.07.27-.2.4-.19.45,0,.68-.25.79-1-.21,0-.58.21-.61.14a5.39,5.39,0,0,1-.36-1l.18-.08c.07.13.14.26.2.4s.12.27.17.41c.16-.09.4-.14.45-.27.11-.31.19-.51.56-.54.14,0,.24-.34.4-.48a.48.48,0,0,1,.41,0c.27-.06.5-.47.81,0,.29-.56.79-.38,1.22-.43s.61,0,.87-.3c.1-.13.47,0,.71,0a1.31,1.31,0,0,1,0,.31l.44-.25c.12.12.26.61.47,0,.16.09.08.68.45.28l.52.61ZM98.51,32.8l.52-.56c-.29-.19-.49-.45-.62,0,0,.2.07.41.11.61-.08,0-.18,0-.23-.06a1.63,1.63,0,0,1-.23-.29l-.08.08V33a1.13,1.13,0,0,1,.26,0c.07,0,.11.1.16.16Zm1.72-1,.49-.13.12.32.24-.09,0-.13-1.26-.62a1.93,1.93,0,0,0,.45.55s0,.07-.07.11c-.21.43-.46.81-1,.73a1.84,1.84,0,0,0,.43.17c.12,0,.34,0,.37-.12A4.8,4.8,0,0,0,100.23,31.76Zm1.88,8-.08-.61-.54.48-.06.43Zm-3.85-15c.12.82.57-.15.7.13l-1.11-.37v.54Zm.9,6.94.42.42c.45-.27.19-.51,0-.73Zm-.09-1.29v.94c.55-.09.18-.53.29-.77Zm2,7.69a1.82,1.82,0,0,0,.23-.68c0-.11-.27-.21-.46-.34Zm16.15,5.78-.17.3-.19-.22c0,.2-.25.5.1.59l.43-.23ZM99.76,28.27l0,.61.75-.14Zm22,5c.1.07.2.21.28.2s.25-.13.37-.2C122.23,32.92,122,32.94,121.81,33.31Zm-2.64,7.79,0-.14c-.11,0-.24-.11-.33-.07-.28.09-.28.11-.16.56l.2-.46Zm-14.41-.46-.24-1,0,.87Zm-3.63-9.85.07-.06L101,29.9h-.2Z"/><path class="cls-1" d="M130.49,13.22c.16.24.22.45.36.53a1.62,1.62,0,0,1,.71,1.2,2.12,2.12,0,0,1,.09.89,1.61,1.61,0,0,1-.44.77,2.07,2.07,0,0,1-2,.56.89.89,0,0,1-.76-.65c0-.2-.28-.36-.38-.48A5.53,5.53,0,0,1,128,15a1.67,1.67,0,0,1,1.09-1.42C129.6,13.4,130.08,13.32,130.49,13.22Z"/><path class="cls-1" d="M103.53,47.13l0,.3a1.05,1.05,0,0,0,1.29-.28c.25.25.56.43.67.7.2.5.69-.09.85.35l-.42.52.66.41-.57.31c.4.75.4.74-.38.93a.77.77,0,0,0-.35.32.57.57,0,0,1-.72.35,1.49,1.49,0,0,0-.43,0,.7.7,0,0,1-.82-.54.86.86,0,0,0-.43-.41c-.3-.17-.32-.36-.15-.63a.72.72,0,0,0,.13-.33,1.64,1.64,0,0,1,.64-1.37c-.51-.23-.1-.4,0-.59Z"/><path class="cls-1" d="M135,31.43a1.65,1.65,0,0,1-1.62,1.85,1.81,1.81,0,0,1-1.76-1.72,1.76,1.76,0,0,1,1.52-1.9A1.65,1.65,0,0,1,135,31.43Z"/><path class="cls-1" d="M103.42,43.29c.19-.15.35-.39.63-.18,0,0,.13,0,.2-.07l.67-.3v.9l-.65.24c.08.34.08.34.49.39l.76,0-.06-.55.76.17.48-.2c-.31.49-.38,1.16-1,1.3l.56.45c-.05.18-.28.25-.59.09-.35.25-.15,1-.81,1a.87.87,0,0,0-1-.4,2.44,2.44,0,0,1-.85-.05.44.44,0,0,1-.21-.34.7.7,0,0,1,.27-.39c.37-.27.91-.3,1.05-.9-.23-.23-.67-.35-.46-.88,0,0-.17-.19-.27-.29Z"/><path class="cls-1" d="M95.78,26.09l-.26.73-.86.07c0,.33.46.62.17,1a5.7,5.7,0,0,1,.35-.84.35.35,0,0,1,.38-.08c.23.14.19.63,0,.81a4.45,4.45,0,0,0-.38.48l-.73.43,0-.64.08.21-.62.42-.17-.14.64-1-.1-.12.33,0,0-.09-.29-.09-.18-.78H94l-.33,1.09-.12,0-.28-.55c.28-.06.29-.34.2-.67.37,0,.37,0,.38-.18a2.15,2.15,0,0,1-.49-.07,3.61,3.61,0,0,1,.07-.87c0-.14.15-.25.23-.37h0l.17,0h0l.23.65-.53.15,0,.14c.22-.07.43-.15.65-.21,0,0,.14.06.17.11a.69.69,0,0,0,1.1.27C95.69,25.81,95.69,26,95.78,26.09Z"/><path class="cls-1" d="M95.33,28.38l.67-.12L95.67,28l.28-.69.25.54a.81.81,0,0,0,.45-1.12c.46-.49.47-.49.69-.21l-.1.11c-.39.16-.12.47,0,.62a.77.77,0,0,0,.5.2c.16-.34.45-.13.67-.2l.09.11.29.42-.65,0,.24.55-.23.27h0l-.18-.23c-.06-.08-.11-.17-.19-.29l-.15.74c-.08,0-.21,0-.22-.08a1.54,1.54,0,0,1,0-.38,4,4,0,0,0-.6,0c-.09,0-.17.15-.26.23a.85.85,0,0,0,.29.17,2.41,2.41,0,0,0,.5,0c0,.24.19.57.1.78s-.43.25-.67.37l-.19-.33.19-.25-.82-.57,0-.18-.75.39C94.92,28.66,95.17,28.53,95.33,28.38Z"/><path class="cls-1" d="M109.48,54.58a1.13,1.13,0,0,1-1.11,1.2c-.61,0-1-.48-1-1.21a1.15,1.15,0,0,1,1.06-1.1A1,1,0,0,1,109.48,54.58Z"/><path class="cls-1" d="M109.51,48.7a2.67,2.67,0,0,1-.32.75,2,2,0,0,1-.57.33,2.91,2.91,0,0,1,.68.08,1,1,0,0,1,.5,1.29c-.21.61-.59.82-1.1.62a1,1,0,0,1-.56-1.27,2.19,2.19,0,0,0,.09-.72,1.11,1.11,0,0,1,.72-1.15C109.11,48.56,109.33,48.67,109.51,48.7Z"/><path class="cls-1" d="M126.48,29.34c-.09-.26-.37-.41-.77-.42l-.09-1.11-.56-.23,0-.12c.18,0,.39.08.53,0s.21-.3.35-.51c.43.08.71.54,1.08.92-.15.3-.12.5.32.56.17,0,.32.3.46.48a2.09,2.09,0,0,1,.22.45c-.42.25-.81.88-1.42.26Z"/><path class="cls-1" d="M105.57,60.08a1.11,1.11,0,0,1-1.51,1c-.15-.05-.31-.08-.47-.12s-.28-.07-.12-.28c0-.06,0-.21,0-.32a1.21,1.21,0,0,1,.92-1.45A1.19,1.19,0,0,1,105.57,60.08Z"/><path class="cls-1" d="M105.06,52.22a1.82,1.82,0,0,1,.56.48.85.85,0,0,1-.12,1,.77.77,0,0,1-.91.21l-.69-.25a.74.74,0,0,1-.52-.75.61.61,0,0,1,.58-.66C104.28,52.26,104.59,52.25,105.06,52.22Z"/><path class="cls-1" d="M131,39.47a4.21,4.21,0,0,0,.38.6,1.15,1.15,0,0,1,.23,1.34.89.89,0,0,1-1,.46,1.16,1.16,0,0,1-.85-1,1.2,1.2,0,0,1,.26-.65,2.24,2.24,0,0,1,.56-.39Z"/><path class="cls-1" d="M87.92,18.87a1.14,1.14,0,0,0,.38-.21.81.81,0,0,1,.94-.25.83.83,0,0,1,.6.7c0,.23.13.45,0,.63a1.79,1.79,0,0,1-.6.47c-.5.18-.93-.13-1.07-.69C88.07,19.3,88,19.08,87.92,18.87Z"/><path class="cls-1" d="M130.84,25.69c0,.2-.06.38-.08.57a.89.89,0,0,1-.76.85,1,1,0,0,1-.33-1.84,1.22,1.22,0,0,1,.62.11A4.69,4.69,0,0,1,130.84,25.69Z"/><path class="cls-1" d="M97.74,40.56a.58.58,0,0,0,0-1c-.09-.09-.1-.28-.15-.43l.34.12s.07,0,.1,0l.29.1-.12.29c.71-.28,1-.07,1.1.83,0,.09,0,.17.06.26s0,.25,0,.37h-.3s-.09,0-.11,0c-.48.39-.78.11-1.06-.31,0,0-.1,0-.15-.08S97.77,40.63,97.74,40.56Z"/><path class="cls-1" d="M136.74,33.57a.85.85,0,0,1,.9-.88c.43,0,.67.29.66.82a.85.85,0,0,1-.83.85A.75.75,0,0,1,136.74,33.57Z"/><path class="cls-1" d="M95.61,17.55l.27-1c.33-.05.62-.11.9-.13.06,0,.13.08.2.13-.33.4.12.64.19.95s0,.38-.25.52-.62,0-.91-.14a4.75,4.75,0,0,1-.63-.23c-.08,0-.14-.14-.2-.21l.3.06Z"/><path class="cls-1" d="M127.11,26.9c.13-.11.28-.29,0-.42l.55-.3a.69.69,0,0,1,1,.3.73.73,0,0,1-.23,1,5.9,5.9,0,0,1-.74.32Z"/><path class="cls-1" d="M125.07,24.8l.29.16a.75.75,0,0,1,1.18,0,.8.8,0,0,1-.09,1.1.72.72,0,0,1-1-.11,9.63,9.63,0,0,1-.43-1.05Z"/><path class="cls-1" d="M95.85,34.71c.51-.1.64,0,.87.49a6.19,6.19,0,0,0,.5.78l-.35.62a2.9,2.9,0,0,1-.51-.22,5.68,5.68,0,0,1-.53-.49l.43-.66v.11a2.48,2.48,0,0,1-.71.07c-.1,0-.17-.28-.23-.4l.55-.31Z"/><path class="cls-1" d="M94,29.81l.25.34c.16.26.42.51.45.79a.58.58,0,0,1-.57.62.66.66,0,0,0-.22.15l-.58-.32.28-.65-.28.07C93.27,30.28,93.65,29.78,94,29.81Z"/><path class="cls-1" d="M124.92,43.26c0,.27,0,.51-.09.64a5.35,5.35,0,0,1-.88.9s-.3-.09-.44.06-.12-.08-.12-.11c0-.49-.1-1,.25-1.45.06-.07.28,0,.4,0s.37.2.57.26S124.77,43.41,124.92,43.26Z"/><path class="cls-1" d="M98.55,20.72l.26-.55.62.58c-.66.17-.73.31-.46.76l.6-.51c0,.22.09.36.05.44s-.19.08-.32.12l.19.27-.62.53-.26-.9-1.06.23-.06-.18.44-.19c.22-.11.58-.05.52-.5Z"/><path class="cls-1" d="M96.14,39.12a2.7,2.7,0,0,1-.39-.47,1.08,1.08,0,0,1-.08-.44,3.26,3.26,0,0,1,0-.54c0-.11,0-.27.11-.3a.38.38,0,0,1,.33,0,6.4,6.4,0,0,1,.5.41.71.71,0,0,1-.08,1.13C96.39,39,96.27,39.05,96.14,39.12Z"/><path class="cls-1" d="M96.28,24.42a2.09,2.09,0,0,0,.28.17,1.57,1.57,0,0,0,.25,0l.19.73-.25.6-.1-.05.15.2-.19.11-.48.23-.35.16a2,2,0,0,0,.07-.31.5.5,0,0,0-.08-.2.54.54,0,0,1,.18-.66h0l.52-.05Z"/><path class="cls-1" d="M139.56,42.63c-.09.44-.35.65-.64.48s-.56-.31-.56-.73c0-.12-.13-.25-.16-.38a4.24,4.24,0,0,1,0-.51,2.72,2.72,0,0,1,.43.15,1.68,1.68,0,0,1,.35.3C139.16,42.16,139.36,42.4,139.56,42.63Z"/><path class="cls-1" d="M141.92,28.39c0,.39-.48.8-.81.69s-.51-.29-.52-.45a.81.81,0,0,1,.84-.82A.51.51,0,0,1,141.92,28.39Z"/><path class="cls-1" d="M128.18,41.5v.73h-.91v-.51c-.42.93-.55-.14-.85,0,0-.48.14-.54.51-.3.09.06.28.09.33,0C127.62,41.09,127.91,41.24,128.18,41.5Z"/><path class="cls-1" d="M134.87,35.46c.72,0,.93.35.67.93-.08.19-.16.49-.29.52-.3.07-.29-.27-.37-.49s-.19-.19-.23-.31a.69.69,0,0,1-.06-.46C134.64,35.53,134.83,35.48,134.87,35.46Z"/><path class="cls-1" d="M127.15,74.57a.5.5,0,0,1-.54.57c-.37,0-.58-.26-.57-.74a.46.46,0,0,1,.51-.48C126.94,73.9,127.14,74.12,127.15,74.57Z"/><path class="cls-1" d="M143.18,48.08c-.05.26-.24.35-.5.29a1.15,1.15,0,0,1-.71-.91.5.5,0,0,1,.28-.36C142.57,47,143.19,47.67,143.18,48.08Z"/><path class="cls-1" d="M102.59,52.32a2.12,2.12,0,0,1,0,.83c0,.1-.42.09-.64.07a.47.47,0,0,1-.38-.66.74.74,0,0,1,.44-.43C102.18,52.09,102.39,52.25,102.59,52.32Z"/><path class="cls-1" d="M105.18,13.8l.5-.17c-.47-.38-.13-.68.06-1v.65l.1.09c.09-.09.24-.17.25-.27a1.22,1.22,0,0,0-.08-.45l.14-.05.27.63.37-.36a.65.65,0,0,1-.22.76s-.12.08-.14.06c-.42-.36-.58.19-.87.27a1.07,1.07,0,0,0-.26.19l-.11-.36Z"/><path class="cls-1" d="M93.83,24.93c0-.06,0-.16,0-.16-.31-.12-.25-.39-.27-.65s.08-.42.35-.44a.36.36,0,0,1,.44.36c0,.3.08.6.14,1l-.71-.11Z"/><path class="cls-1" d="M92.66,29l-.1.23.59.06-.18.39c.32.41.32.41.09,1.1l-.73-.43a.18.18,0,0,1-.09-.12.18.18,0,0,1,.08-.13c.32-.17.35-.33.14-.67S92.27,29.05,92.66,29Z"/><path class="cls-1" d="M92.09,25l.21.34.38-.08c.11,0,.23,0,.37,0,0,.21.18.4-.16.49-.13,0-.21.25-.34.43A1.46,1.46,0,0,0,92.3,26c-.07,0-.17,0-.24-.08a6.1,6.1,0,0,1-.6-.38s0-.16,0-.25a1.53,1.53,0,0,1,.21.14,2.29,2.29,0,0,1,.17.28L92,25Z"/><path class="cls-1" d="M99.17,37.54c.16-.41.07-.57-.42-.73a1.09,1.09,0,0,0,.24-.24,1.14,1.14,0,0,0,0-.27c.46.11.6.32.54.92l.16-.26.44.44C99.83,38,99.76,38,99.17,37.54Z"/><path class="cls-1" d="M126.79,44.44c-.26,0-.51.07-.67,0-.43-.24-.24-.68-.22-1.23l1.26,1.1C127,44.69,126.94,44.69,126.79,44.44Z"/><path class="cls-1" d="M129.32,29.25l-.8-.41c.29-.16,0-.75.56-.74a.69.69,0,0,1,.5.24C129.79,28.7,129.57,29,129.32,29.25Z"/><path class="cls-1" d="M121.37,43l.26-1.08c.36,0,.37,0,.31.42l.68.61-.06.15c-.3-.14-.64.4-.93-.16,0,0-.18,0-.28.05Z"/><path class="cls-1" d="M124.06,38.74c-.42,0-.63.2-.46.67,0,.07-.14.21-.24.36L123,37.94l.16,0,.15.55a2.79,2.79,0,0,1,0-.39s.06-.1.1-.1.12.06.12.07c-.1.39.24.35.4.46s.19,0,.29,0Z"/><path class="cls-1" d="M96.52,34.55c.19-.19.31-.38,0-.6,0,0,0-.11,0-.17,0-.28,0-.56.07-.84a3.32,3.32,0,0,1,.16-.49l.37.82c-.48.41.08,1-.23,1.55l-.36-.28Z"/><path class="cls-1" d="M134.83,40.87a.75.75,0,0,1-.08-.14c-.1-.19-.32-.51-.27-.57a2,2,0,0,1,.68-.46.38.38,0,0,1,.33.17c0,.08-.06.26-.13.36S135,40.64,134.83,40.87Z"/><path class="cls-1" d="M126.47,37.84a4.42,4.42,0,0,1,0,.63c0,.09-.1.17-.17.29.36.19.07.52,0,.82h0l-.37-.21a1.25,1.25,0,0,0-.5-1.51h1Z"/><path class="cls-1" d="M92.83,20.07c-.1-.12-.17-.24-.27-.34-.29-.28-.09-.57,0-.77s.46-.05.55.07,0,.42,0,.63A1.47,1.47,0,0,1,92.83,20.07Z"/><path class="cls-1" d="M122.87,41.43c-.17-.57-.36-1.08-1.05-.52l0-.15c.06-.14.08-.33.18-.4.27-.16.85.11,1.09.51v-.41C123.38,40.6,123.33,40.91,122.87,41.43Z"/><path class="cls-1" d="M87.38,14.51c.05.06.23.18.25.33a.52.52,0,0,1-.5.6.38.38,0,0,1-.38-.45C86.76,14.65,86.9,14.5,87.38,14.51Z"/><path class="cls-1" d="M100.6,46.22c.17-.32.1-.83.64-.7a.55.55,0,0,1,.27.75C101.2,46.76,100.92,46.29,100.6,46.22Z"/><path class="cls-1" d="M95.86,34.7c-.2-.11-.51-.15-.25-.47L95,33.91c.3-.14.48-.23.67-.3s.16,0,.24,0l-.12.49.75.05c0,.12,0,.25,0,.38h0c-.26-.08-.54-.27-.68.17Z"/><path class="cls-1" d="M88.7,26.48c-.33.39,0,.5.22.67a.91.91,0,0,1,.24,1.07c-.41,0-.33-.47-.46-.72s-.31-.55-.48-.87Z"/><path class="cls-1" d="M98.5,37.93c.09.54,0,.7-.48.71.08-.35.19-.71-.27-.87a.4.4,0,0,1,0-.28,3.18,3.18,0,0,1,.43-.32c0,.14.08.27.13.4s.11.25.17.37Z"/><path class="cls-1" d="M139.3,38.66c.44,0,.67.21.66.56a.5.5,0,0,1-.31.38c-.25.08-.58-.3-.55-.6A.93.93,0,0,1,139.3,38.66Z"/><path class="cls-1" d="M125.15,29.55a1.18,1.18,0,0,0-.07-.19h.36l-.06.47.48,0-.12.5-.71-.08v-.13a1.16,1.16,0,0,1-.25.2,1,1,0,0,1-.3,0l.18-.21C124.81,29.92,125,29.77,125.15,29.55Z"/><path class="cls-1" d="M137.41,14.8c0-.2-.6-.23-.12-.6a1.21,1.21,0,0,0-.1-.23,2.51,2.51,0,0,1,.49-.16.39.39,0,0,1,.31.08.3.3,0,0,1,0,.28c-.15.24-.33.46-.5.69Z"/><path class="cls-1" d="M94.21,20.54a.3.3,0,0,1-.42.34c-.23-.09-.58-.23-.44-.62.05-.14.28-.22.44-.27s.17.15.24.25a3.28,3.28,0,0,1,.2.31Z"/><path class="cls-1" d="M102.56,14.38c.14-.12.32-.21.36-.34s.13-.41-.16-.57c-.11-.06-.06-.44-.08-.69.33,0,.5.1.45.46s.2.67-.07,1.06S102.72,14.5,102.56,14.38Z"/><path class="cls-1" d="M98.55,20.72l-.1.1c-.16,0-.34-.17-.47.12,0,.06-.36,0-.55-.05v-.13l-.37.26L97,21c0-.1.09-.25.17-.3A1.07,1.07,0,0,1,98.55,20.72Z"/><path class="cls-1" d="M91,43.71A2.54,2.54,0,0,1,90.8,43c0-.08.27-.27.37-.25s.37.27.35.38a1.88,1.88,0,0,1-.33.58Z"/><path class="cls-1" d="M117.42,53.87c.24.25.48.41.47.54a.58.58,0,0,1-.37.43c-.14,0-.35-.23-.4-.4S117.27,54.15,117.42,53.87Z"/><path class="cls-1" d="M97,38.7l.13-.71a4.85,4.85,0,0,1,.67.48c.08.08,0,.31,0,.46A1.08,1.08,0,0,1,97,38.7Z"/><path class="cls-1" d="M130.09,38.6l.4,0,.13-.39c.18.63.14.75-.24,1-.1.07-.15.21-.23.31a2,2,0,0,1-.25.24Z"/><path class="cls-1" d="M98.25,13.48a2.18,2.18,0,0,1,.42.28.83.83,0,0,1,.21.47.43.43,0,0,1-.37.22.54.54,0,0,1-.31-.36A1.84,1.84,0,0,1,98.25,13.48Z"/><path class="cls-1" d="M125.61,40.69l.37-1,.37-.14-.07.85C126,40.2,125.94,41.23,125.61,40.69Z"/><path class="cls-1" d="M94.52,29.58l-.33-.32,1.32-.21c-.07.54-.52.34-.74.56l-.14.46-.16,0Z"/><path class="cls-1" d="M125.54,31.12l0,.32c-.27-.1-.31-.24-.14-.46s.28-.4.44-.59.23-.24.34,0a1.75,1.75,0,0,0,.28.39l-.07.09-.26-.12Z"/><path class="cls-1" d="M98.16,35.85l.4.9-1.15-.19Z"/><path class="cls-1" d="M85.68,15.19a1.26,1.26,0,0,1,.23.52c0,.1-.23.33-.3.3s-.32-.23-.47-.35l.36-.47Z"/><path class="cls-1" d="M125.1,17.24c.43.17.23.62.32.94,0,.07-.22.21-.34.32a1.53,1.53,0,0,1-.17-.51A3.59,3.59,0,0,1,125.1,17.24Z"/><path class="cls-1" d="M130,39.2c-.26.2-.46.44-.54.4a.78.78,0,0,1-.34-.48c0-.08.22-.35.31-.33S129.71,39,130,39.2Z"/><path class="cls-1" d="M93.66,24.91a2,2,0,0,1-.72.1c-.08,0-.09-.4-.14-.64l.76-.1-.19.48.29.17Z"/><path class="cls-1" d="M132.06,35.72c.07.35.18.7-.25.84-.26.09-.37-.11-.39-.33C131.35,35.67,131.8,35.86,132.06,35.72Z"/><path class="cls-1" d="M129.73,42.63c.17.26.35.42.36.58s-.25.37-.33.34a.65.65,0,0,1-.37-.39C129.37,43.05,129.56,42.88,129.73,42.63Z"/><path class="cls-1" d="M93.52,44.39h-.31v.1a3,3,0,0,1,0,.42s-.18,0-.21,0-.25-.29-.22-.39a4,4,0,0,1,.36-.72Z"/><path class="cls-1" d="M138.2,23.83c.05.53-.11.72-.61.67C137.43,23.86,137.57,23.7,138.2,23.83Z"/><path class="cls-1" d="M96,25.44l-1.14.16.21-.46,1-.14-.11.45Z"/><path class="cls-1" d="M96.76,31.84l-.29.85c-.35-.29.14-.5,0-.7L96,31.54l.67-.27.06.12-.28.24Z"/><path class="cls-1" d="M103,51.49a5.55,5.55,0,0,1-.87-.15c-.08,0-.12-.2-.18-.3a2,2,0,0,1,.75-.15C102.78,50.91,102.85,51.24,103,51.49Z"/><path class="cls-1" d="M91.37,36.35a5.77,5.77,0,0,1,.72,0,.49.49,0,0,1,.3.23.31.31,0,0,1-.1.3.46.46,0,0,1-.34,0,5.62,5.62,0,0,1-.64-.34Z"/><path class="cls-1" d="M126.34,39.58a2,2,0,0,0,.2-.47c0-.22,0-.46.34-.21,0,0,.07,0,.09,0l.4.28-.53.12c0,.23-.07.57-.49.27Z"/><path class="cls-1" d="M118.42,44.51l.22.4-1.09.5-.11-.21,1-.68Z"/><path class="cls-1" d="M96.19,31.15l.11-.66.53-.35s.15-.06.18,0,.06.17,0,.2c-.23.3-.48.59-.73.88Z"/><path class="cls-1" d="M119.3,6.09l-.45-.18a3.81,3.81,0,0,1-.15-.44,2.3,2.3,0,0,1,0-.45l.14,0,.15.33c.18.19.21.28.14.35Z"/><path class="cls-1" d="M126.66,19.63l-.26-.89.63-.18-.22,1Z"/><path class="cls-1" d="M133.82,22.71c.15.07.35.11.43.23a.62.62,0,0,1,0,.46c0,.08-.31.12-.33.09a4.36,4.36,0,0,1-.21-.64Z"/><path class="cls-1" d="M129.37,31.73l.78.39s.08.09.12.14a1.13,1.13,0,0,1-.18.12l-.5.22Z"/><path class="cls-1" d="M92.42,23.32l-.28.08,0-.12c.28-.11.45-.57.86-.32a.26.26,0,0,1,.08.23,2.16,2.16,0,0,1-.3.38Z"/><path class="cls-1" d="M93.37,15.82,93,15.53a1.73,1.73,0,0,0,.23-.24s0-.13.06-.19a1.88,1.88,0,0,1,.12-.3c.07,0,.2.06.2.11a.73.73,0,0,1,0,.36C93.56,15.43,93.48,15.58,93.37,15.82Z"/><path class="cls-1" d="M93.45,33c-.14.28-.25.51-.38.73,0,0-.18,0-.18,0a1.64,1.64,0,0,1-.12-.6c0-.08.23-.16.36-.2S93.32,33,93.45,33Z"/><path class="cls-1" d="M92,34.85l.9.68C92,35.7,91.91,35.67,92,34.85Z"/><path class="cls-1" d="M95.21,51.91l-.46-.16c0-.06,0-.17.07-.19l.73-.28c0,.12.09.29,0,.34A2.07,2.07,0,0,1,95.21,51.91Z"/><path class="cls-1" d="M92.69,67.35c-.07-.3-.17-.61.25-.7a.36.36,0,0,1,.32.14C93.35,67,93.06,67.3,92.69,67.35Z"/><path class="cls-1" d="M90.26,5.33C90.11,5.1,90,5,90,4.84s.18-.27.28-.4c.11.13.29.24.33.4S90.41,5.1,90.26,5.33Z"/><path class="cls-1" d="M88.76,24.42a.63.63,0,0,0-1.05,0l-.07-.12c.09-.16.18-.46.29-.46C88.57,23.77,88.65,23.84,88.76,24.42Z"/><path class="cls-1" d="M124.56,47.54c-.16-.26-.34-.46-.31-.52a1.23,1.23,0,0,1,.44-.37s.22.13.22.15C124.82,47,124.72,47.22,124.56,47.54Z"/><path class="cls-1" d="M92.72,22.28c-.12-.22-.24-.43-.35-.66a.6.6,0,0,1,0-.2c.07,0,.17,0,.19,0,.21.28.41.57.66.92l-.58,0Z"/><path class="cls-1" d="M92.51,27.76a2.2,2.2,0,0,1-.34.54.37.37,0,0,1-.36-.05,1.48,1.48,0,0,1-.13-.49Z"/><path class="cls-1" d="M123.32,11.2l-.16-.18-.38.11c0-.07,0-.16,0-.2.2-.25.41-.49.62-.74a.66.66,0,0,1,0,.23C123.45,10.66,123.39,10.89,123.32,11.2Z"/><path class="cls-1" d="M89,40.83c-.29.08-.47.51-.68.05-.06-.13-.07-.42,0-.47C88.71,40.17,88.74,40.63,89,40.83Z"/><path class="cls-1" d="M129.59,42.31l.73-.16c.19.9.19.9-.14.93.28-.71-.24-.58-.59-.63Z"/><path class="cls-1" d="M99.94,16l-.14.21a3.79,3.79,0,0,1-.31.37c-.07.07-.15.15-.23.15s-.18-.09-.19-.15,0-.28.08-.33a7.67,7.67,0,0,1,.7-.36Z"/><path class="cls-1" d="M135.78,4.59l.12-.88.17,0a1.62,1.62,0,0,1,.19.56c0,.16-.2.31-.31.46Z"/><path class="cls-1" d="M94.81,18.08l-.38.36L94.12,18l-.35.26c0-.05-.07-.14-.06-.15s.24-.29.34-.27A4.12,4.12,0,0,1,94.81,18.08Z"/><path class="cls-1" d="M110.57,7.25l.23-.4c.21.27.41.53.6.8,0,0,0,.14-.05.19s-.11,0-.15,0C111,7.65,110.81,7.47,110.57,7.25Z"/><path class="cls-1" d="M124.5,50.26c.15.25.29.39.3.53s-.22.3-.28.28a.55.55,0,0,1-.3-.35C124.2,50.62,124.35,50.48,124.5,50.26Z"/><path class="cls-1" d="M109.69,5.1c.13.16.25.3.35.45a1.34,1.34,0,0,1,.13.27c-.1,0-.22.09-.3,0a3.55,3.55,0,0,1-.45-.36Z"/><path class="cls-1" d="M98.5,37.94l.59-.34c0,.31.06.49.08.67h0c-.4.31-.49-.11-.67-.33Z"/><path class="cls-1" d="M126.9,72.93c-.23.18-.35.35-.48.35s-.2-.2-.3-.31c.11-.11.21-.28.33-.31S126.67,72.78,126.9,72.93Z"/><path class="cls-1" d="M103.93,14.32v-.6l.81.26,0,.11Z"/><path class="cls-1" d="M99.72,53.47c-.06.09-.12.21-.15.21-.25-.07-.5-.16-.75-.25a.44.44,0,0,1,.05-.23.33.33,0,0,1,.26-.09,1.55,1.55,0,0,1,.4.17A1.13,1.13,0,0,1,99.72,53.47Z"/><path class="cls-1" d="M124.6,39.11c-.22-.26-.51-.44-.43-.94l.63.41Z"/><path class="cls-1" d="M90.13,46c-.16-.22-.32-.35-.3-.44s.19-.25.29-.38c.1.13.25.24.29.38S90.27,45.77,90.13,46Z"/><path class="cls-1" d="M94.68,15.89l.38.08a1.16,1.16,0,0,0-.14.27c0,.15,0,.32-.08.46s-.12.09-.19.13a.94.94,0,0,1-.07-.22C94.6,16.38,94.64,16.16,94.68,15.89Z"/><path class="cls-1" d="M108.46,11.84l.19.19a2.22,2.22,0,0,1-.27.19s-.12,0-.17,0l-.41.07.51-.45Z"/><path class="cls-1" d="M97.11,58.63l.53-.53.22.34-.63.37Z"/><path class="cls-1" d="M105.83.33c-.2.13-.34.28-.44.25s-.19-.2-.29-.32c.12-.09.23-.25.35-.26S105.66.17,105.83.33Z"/><path class="cls-1" d="M95.19,30.49c-.06-.09-.19-.19-.18-.27,0-.38.32-.5.69-.54l-.44.68Z"/><path class="cls-1" d="M95.36,34.39c0,.06-.06.15-.09.15a7.69,7.69,0,0,1-.83,0,.58.58,0,0,1,0-.16l.88-.19A1.11,1.11,0,0,1,95.36,34.39Z"/><path class="cls-1" d="M123.58,41.94l-.89.23.62-.83Z"/><path class="cls-1" d="M102.56,49l-.63.48-.17-.4.68-.23S102.51,49,102.56,49Z"/><path class="cls-1" d="M122.69,43.2l.54.31c0,.26-.06.31-.3.22s-.26-.08-.39-.14a1,1,0,0,1-.21-.15l.18-.13Z"/><path class="cls-1" d="M125.56,29.34l-.58-.29.08-.2a6.71,6.71,0,0,1,.77.35s0,.28-.08.42h-.13Z"/><path class="cls-1" d="M87.71,23a2.23,2.23,0,0,1,0,.52.44.44,0,0,1-.22.26.3.3,0,0,1-.26-.16.52.52,0,0,1,.1-.36A1.47,1.47,0,0,1,87.71,23Z"/><path class="cls-1" d="M105.66,47.47l.56-.36c.06.1.19.24.16.32C106.25,47.82,106,47.69,105.66,47.47Z"/><path class="cls-1" d="M89.61,21.71a2.92,2.92,0,0,1,.49-.12,3.67,3.67,0,0,1,.51.09c0,.28-.29.38-1,.18Z"/><path class="cls-1" d="M91.56,3.66c-.2.15-.31.31-.42.31s-.2-.17-.31-.27c.1-.1.19-.26.31-.28S91.35,3.53,91.56,3.66Z"/><path class="cls-1" d="M95.4,55.05a5.58,5.58,0,0,1,.63.26s-.07.37-.12.37C95.65,55.68,95.46,55.54,95.4,55.05Z"/><path class="cls-1" d="M111.88,70.4c-.16.14-.27.31-.35.29a.43.43,0,0,1-.28-.28c0-.11.15-.23.24-.35Z"/><path class="cls-1" d="M128.14,39.77c-.35-.08-.53-.37-.51-.83l.45.28Z"/><path class="cls-1" d="M97.46,39.38a3,3,0,0,1-.42.28.26.26,0,0,1-.21,0,.67.67,0,0,1,0-.38,1.15,1.15,0,0,1,.36-.26Z"/><path class="cls-1" d="M91.45,17.54l.64.35-.39.58Z"/><path class="cls-1" d="M108.13,10.64l-.66-.37c0-.48.47-.08.71-.16Z"/><path class="cls-1" d="M95,22.74l-.22-.22.6-.47.26.19Z"/><path class="cls-1" d="M93.08,23.35H94l-.52.62Z"/><path class="cls-1" d="M99.83,48.42c.09.14.2.25.19.34s-.16.31-.22.3a1.29,1.29,0,0,1-.39-.25Z"/><path class="cls-1" d="M105.53,46.12l.62.39-.3.41-.42-.67Z"/><path class="cls-1" d="M98,21.8l-.29.75-.45-.62Z"/><path class="cls-1" d="M92,24.06l-.51-.44.41-.29.23.71Z"/><path class="cls-1" d="M101.58,51a6.44,6.44,0,0,1,.24.61c0,.06-.12.17-.19.25-.08-.1-.22-.19-.23-.3a2,2,0,0,1,0-.54Z"/><path class="cls-1" d="M90.77,42.07l-.35-.24a5.77,5.77,0,0,1,.56-.27s.13.15.2.23Z"/><path class="cls-1" d="M88.19,31.44l-.28-.36.7-.31.08.13Z"/><path class="cls-1" d="M98.54,46l.5-.14c.1,0,.2-.06.3-.07s.06.13,0,.14a1.09,1.09,0,0,1-.23.14l-.23.11-.31.14Z"/><path class="cls-1" d="M96.86,18.42v.72L96.22,19Z"/><path class="cls-1" d="M96.24,53.79a3.59,3.59,0,0,1,.4.38s-.12.25-.19.25c-.33,0-.33-.24-.33-.48Z"/><path class="cls-1" d="M90.63,15.19c0-.25-.07-.5-.08-.76,0,0,.16-.1.21-.07a.28.28,0,0,1,.15.22,3.82,3.82,0,0,1-.11.57Z"/><path class="cls-1" d="M97.9,46.23c.15.18.29.29.29.39s-.14.28-.23.28-.25-.14-.27-.24S97.79,46.43,97.9,46.23Z"/><path class="cls-1" d="M95.53,46a4.83,4.83,0,0,1,.41.49s-.14.18-.22.28l-.35-.64Z"/><path class="cls-1" d="M142,41.92c-.2.15-.33.3-.39.28a.61.61,0,0,1-.28-.31s.14-.24.21-.24S141.81,41.78,142,41.92Z"/><path class="cls-1" d="M98.14,18.47c-.1.19-.19.39-.3.57a.67.67,0,0,1-.21.2s-.12-.07-.11-.08a.7.7,0,0,1,.11-.21c0-.07.09-.12.1-.19C97.79,18.37,97.78,18.37,98.14,18.47Z"/><path class="cls-1" d="M94.23,20.55c0-.09.07-.22.15-.27s.2,0,.37,0l.21.26c-.22.49-.5,0-.75,0Z"/><path class="cls-1" d="M94.08,47.47l-.3.36c-.09-.11-.23-.2-.25-.33s.13-.25.23-.29S93.94,47.35,94.08,47.47Z"/><path class="cls-1" d="M124.8,46.47c-.15-.11-.37-.19-.44-.34s0-.39,0-.59l.18,0a1.05,1.05,0,0,0,0,.46c.06.12.24.18.37.26Z"/><path class="cls-1" d="M91.77,28.56l-.81.19.49-.7Z"/><path class="cls-1" d="M109.75,10a2,2,0,0,1-.42.41s-.21-.2-.32-.31l.64-.25Z"/><path class="cls-1" d="M117.09,1.52l.53.36-.53.39Z"/><path class="cls-1" d="M98.51,47.14a6.08,6.08,0,0,1,.39.47,1.56,1.56,0,0,1-.21.23l-.37-.54Z"/><path class="cls-1" d="M93.93,42.87v.59h-.54l.44-.63Z"/><path class="cls-1" d="M96.24,55.9c.19-.14.29-.25.41-.27s.15.15.23.23a1.52,1.52,0,0,1-.31.31S96.41,56,96.24,55.9Z"/><path class="cls-1" d="M111.7,6.29c.06-.69.22-.86.65-.79Z"/><path class="cls-1" d="M109.79,7.86l0,.34-.09,0c0-.08-.12-.18-.1-.24a2.09,2.09,0,0,1,.24-.58s.19,0,.3.07Z"/><path class="cls-1" d="M133.72,41.34v.48h-.61l.48-.61Z"/><path class="cls-1" d="M87.81,34.89a1.47,1.47,0,0,1-.36-.1c-.06,0-.1-.11-.14-.17a.42.42,0,0,1,.2-.1,1.64,1.64,0,0,1,.28.07l.36.08Z"/><path class="cls-1" d="M105.19,13.79l-.48-.16L105,13l.1,0c0,.27.09.55.13.82Z"/><path class="cls-1" d="M102.07,46.75c-.29-.16-.17-.44-.14-.67,0-.08.16-.14.24-.21l.14.09-.25.8Z"/><path class="cls-1" d="M92,41.81l.54.42,0,.14-.54,0Z"/><path class="cls-1" d="M141.1,39.76l-.15.71c-.16-.19-.35-.35-.32-.41a1.81,1.81,0,0,1,.34-.4Z"/><path class="cls-1" d="M115.49,44.88l.2.63-.46,0c.09-.25-.26-.62.27-.64Z"/><path class="cls-1" d="M98.12,41.8c.14.19.27.28.3.4s-.12.19-.19.28c-.1-.09-.24-.16-.28-.27S98,42,98.12,41.8Z"/><path class="cls-1" d="M123.39,13l-.3.81-.13-.44h-.36v-.1Z"/><path class="cls-1" d="M84.93,41.08c-.1-.23-.22-.45-.3-.69,0,0,.05-.14.09-.21s.12.09.15.15a2.82,2.82,0,0,1,.18.45.84.84,0,0,1,0,.31Z"/><path class="cls-1" d="M95,46.93c.14.19.28.3.29.43s-.18.18-.27.27c-.08-.11-.2-.21-.23-.33S94.85,47.11,95,46.93Z"/><path class="cls-1" d="M133.62,36.92a3.9,3.9,0,0,1-.1-.58.45.45,0,0,1,.12-.27.23.23,0,0,1,.22,0,.35.35,0,0,1,0,.28A3.32,3.32,0,0,1,133.62,36.92Z"/><path class="cls-1" d="M127,30.4l.52-.52c0,.05.13.12.12.15a1.06,1.06,0,0,1-.21.41c-.06.07-.21,0-.32.07Z"/><path class="cls-1" d="M100.34,20.27l-.49-.13.11-.5c.05.27.68.13.37.64Z"/><path class="cls-1" d="M92.23,49.49l-.35-.41c.11-.08.2-.2.32-.22s.18.15.2.25S92.31,49.31,92.23,49.49Z"/><path class="cls-1" d="M128.72,40.4l.26-.83.25.64Z"/><path class="cls-1" d="M121.11,8.14c.31.16.31.16.31.84L121,8.21Z"/><path class="cls-1" d="M93.06,27.92c-.13.2-.26.41-.41.6,0,0-.16.08-.17.06s-.1-.2-.08-.22A7.67,7.67,0,0,1,93,27.8Z"/><path class="cls-1" d="M124.85,24.79l-.82.06c-.07-.31,0-.37.23-.32s.39.11.58.16Z"/><path class="cls-1" d="M97.67,55.57h-.5l0-.38.49.11Z"/><path class="cls-1" d="M130.21,48.54l.54-.32.13.7Z"/><path class="cls-1" d="M91.79,13.92l-.57-.4.35-.34.29.61Z"/><path class="cls-1" d="M126.48,29.34l.17.29c-.33.33-.48-.05-.7-.12v-.17Z"/><path class="cls-1" d="M119.93,56.61c.33.42.24.58,0,.64a1.23,1.23,0,0,1-.32-.07,1,1,0,0,0,.21-.21A3.88,3.88,0,0,0,119.93,56.61Z"/><path class="cls-1" d="M96.88,5v.56a2.66,2.66,0,0,1-.43-.18.32.32,0,0,1,0-.23A4.72,4.72,0,0,1,96.88,5Z"/><path class="cls-1" d="M103,43.38c-.23.48-.45.43-.66.29,0,0,0-.15,0-.23Z"/><path class="cls-1" d="M91.44,25.43c-.42.49-.62.51-.88.16Z"/><path class="cls-1" d="M102.06,46.76l.16,0,.39-.1v.49l-.11,0-.43-.4Z"/><path class="cls-1" d="M101.77,15.43l-.94-.17C101.23,15,101.51,14.94,101.77,15.43Z"/><path class="cls-1" d="M126.32,23.72l.4.33c-.09.07-.22.22-.27.2s-.2-.21-.3-.32Z"/><path class="cls-1" d="M90.77,33.13l.1.74c-.42-.13-.43-.17-.24-.71Z"/><path class="cls-1" d="M97.49,32l-.36.44c0-.25,0-.48,0-.7a.16.16,0,0,1,.09-.12.16.16,0,0,1,.14.06A2.28,2.28,0,0,1,97.49,32Z"/><path class="cls-1" d="M99.85,44.08c-.14.13-.19.22-.25.23a1.2,1.2,0,0,1-.33,0l-.37,0a1.46,1.46,0,0,1,.35-.22A2.71,2.71,0,0,1,99.85,44.08Z"/><path class="cls-1" d="M136.71,32.86c-.13-.18-.28-.29-.27-.37s.16-.24.25-.36c.06.1.16.2.17.31S136.79,32.66,136.71,32.86Z"/><path class="cls-1" d="M100.25,15.2c-.33.25-.59.16-.66-.21a.21.21,0,0,1,0-.16.18.18,0,0,1,.16,0c.08.06.14.15.21.21A1.4,1.4,0,0,0,100.25,15.2Z"/><path class="cls-1" d="M98.68,53.55l-.36.32-.2-.29.42-.24Z"/><path class="cls-1" d="M130.62,36.74c.13.17.25.27.25.37s-.12.18-.2.27c-.07-.09-.18-.17-.21-.28S130.54,36.91,130.62,36.74Z"/><path class="cls-1" d="M93.5,35.48l.11.56-.1.09c-.12-.12-.28-.22-.33-.36s.13-.23.2-.35Z"/><path class="cls-1" d="M85.49,47.66l.2.38-.34.15,0-.45Z"/><path class="cls-1" d="M92.64,38.05a3.53,3.53,0,0,1-.1-.55s.16-.06.25-.09l.06.62Z"/><path class="cls-1" d="M122,15.15c.33-.44.52-.4.72.11Z"/><path class="cls-1" d="M125.1,41.47a1.55,1.55,0,0,1,0-.43.38.38,0,0,1,.3,0c.06,0,.09.28,0,.31a.9.9,0,0,1-.36.12Z"/><path class="cls-1" d="M104.61,57l-.22-.6.27-.06.12.61Z"/><path class="cls-1" d="M89.85,35l-.39-.46.48-.17v.55Z"/><path class="cls-1" d="M125.09,41.46l-.27.59c-.49-.26.05-.45-.12-.7l.4.12Z"/><path class="cls-1" d="M100.06,18.15a1.5,1.5,0,0,1,0,.42,1.1,1.1,0,0,1-.17.29c0-.11-.16-.24-.14-.34a1.19,1.19,0,0,1,.21-.4Z"/><path class="cls-1" d="M141.38,43.8a1.56,1.56,0,0,1,.44.09s0,.21,0,.33l-.49-.15Z"/><path class="cls-1" d="M127.13,68.25l.54-.45.08.08-.1.53Z"/><path class="cls-1" d="M101.48,18.06l-.66-.52c.5-.13.63.14.76.4Z"/><path class="cls-1" d="M92.14,34.59h-.3a4.68,4.68,0,0,1-.11-.5c0-.06,0-.13,0-.2s.17.06.19.11A6,6,0,0,1,92.14,34.59Z"/><path class="cls-1" d="M123.9,36.56l-.18-.29c.2-.43.5-.37.87-.19a1.15,1.15,0,0,1-.7.47Z"/></g></svg>