<svg width="28" height="28" viewBox="0 0 28 28" fill="none" xmlns="http://www.w3.org/2000/svg">
<path d="M6 9H0V28H6V9Z" fill="#74788B"/>
<path d="M3.46643 6.99984C4.16005 7.0065 4.84 6.8069 5.41997 6.42638C5.99994 6.04587 6.45378 5.5016 6.72384 4.86267C6.99391 4.22374 7.06802 3.51898 6.93679 2.83785C6.80556 2.15672 6.4749 1.52994 5.98679 1.03709C5.49867 0.544239 4.8751 0.207546 4.19527 0.0697526C3.51544 -0.0680404 2.81 -0.000718084 2.1685 0.263173C1.527 0.527064 0.978375 0.975621 0.592285 1.5519C0.206196 2.12818 5.80933e-05 2.80618 2.61494e-05 3.49984C-0.00354817 4.42338 0.359434 5.3106 1.00932 5.96679C1.65921 6.62298 2.5429 6.99451 3.46643 6.99984V6.99984Z" fill="#74788B"/>
<path d="M15.5579 18.3206C15.5579 15.7063 16.7649 14.1835 19.0862 14.1835C21.2152 14.1835 22.2365 15.6671 22.2365 18.3206V28H28V16.3272C28 11.3862 25.1614 9.00069 21.1953 9.00069C20.0685 8.98438 18.9568 9.25643 17.9686 9.79027C16.9805 10.3241 16.1499 11.1015 15.5579 12.0463V9.56276H10V28H15.5579V18.3206Z" fill="#74788B"/>
</svg>
