<svg width="123" height="147" viewBox="0 0 123 147" fill="none" xmlns="http://www.w3.org/2000/svg">
<g clip-path="url(#clip0_8_305)">
<path d="M72.28 11.87L72.71 11.42L73.71 12.99L74 12.81L73.24 11.75L74.17 11.07V13.59L75.17 13.65V13.97L74.44 14.37L75.05 14.94C75.55 14.16 75.7 15.12 76.05 15.09C75.31 16.69 75.05 17.8 76.99 17.88C77.22 19.24 77.22 19.24 76.64 19.43L76.97 19.89L77.42 19.46C77.49 19.61 77.66 19.84 77.62 19.88C76.98 20.56 77.75 21.07 77.8 21.66H77.55C77.5148 21.9188 77.5148 22.1812 77.55 22.44C77.61 22.64 77.83 22.79 77.97 22.96C77.75 23.05 77.52 23.16 77.29 23.23C77.1175 23.254 76.9425 23.254 76.77 23.23L77.33 23.72L77 25.06L76.29 24.62L75.93 25.11L76.61 25.67L75.22 27.36C76.64 26.87 75.97 27.93 76.08 28.43C76.84 27.99 76.84 27.99 77.48 29.43L76.03 29.85V30.08L76.75 30.02V30.11C77.44 30.27 78.13 30.48 78.84 30.6C79.6127 30.818 80.3186 31.2259 80.8932 31.7866C81.4679 32.3473 81.8931 33.0429 82.13 33.81C82.44 34.68 82.2 35.58 82.74 36.63L81.85 36.31C80.99 37.2 81.25 38.24 81.85 39.31L79.85 40.26H81.39L80.71 41.62L79.71 41.07L79.31 43.55L80.08 43.96C79.7095 44.8122 79.5948 45.7538 79.75 46.67L78.75 45.91L78.57 46.11L78.78 46.89H79.65L79.43 47.89L80.43 47.06L81.59 48.8L81.36 49.02L80.8 48.69L80.71 48.76L81.64 49.76V51.38C82.2232 51.1262 82.8293 50.9287 83.45 50.79C83.72 50.79 84.04 51.09 84.33 51.27L83.62 51.85C83.4506 51.9507 83.2733 52.0376 83.09 52.11L83.24 51.33C82.7054 51.465 82.1933 51.6772 81.72 51.96C81.46 52.16 81.42 52.7 81.38 53.1C81.3881 53.4146 81.4351 53.727 81.52 54.03L81.26 53.84L80 55L80.16 55.26H81.87L81.35 55.06L81.41 54.77L82.98 55.01C83.39 56.88 82.79 57.47 80.91 57.01L80.58 57.71L79.25 56.71L79.41 56.51L78.63 56.59L78.97 55.39L79.26 55.89L79.7 54.89L79.54 54.74C79.23 55.04 78.89 55.33 78.6 55.66C78.02 56.28 78.11 56.6 78.86 56.82C79.0386 56.9044 79.2011 57.0195 79.34 57.16C79.1158 57.2281 78.884 57.2684 78.65 57.28C78.3923 57.2359 78.1406 57.1621 77.9 57.06L77.84 57.27L78.56 57.69L77.98 58.37C78.216 58.3445 78.4372 58.2427 78.61 58.08C78.9171 57.8886 79.2556 57.7532 79.61 57.68C79.9466 57.6744 80.2826 57.7114 80.61 57.79C81.23 57.71 81.42 58.08 81.53 58.61C81.6182 58.8853 81.7426 59.1476 81.9 59.39L82.44 58.52C82.44 58.45 82.5 58.37 82.54 58.29H82.8L82.89 59.67C83.57 59.52 84.41 59.07 84.81 59.81L84.4 61.98L84.56 62.17C85.09 61.17 85.71 61.64 86.38 62L86.71 60.41L88.18 61.13L87.85 62.13L90.94 63.02C90.94 63.42 90.05 64.4 91.53 64.45V63.61C92.29 64.61 93.1 65.61 93.79 66.61C94.26 67.32 94.85 67.32 95.57 67.28C96.0035 67.3132 96.4305 67.404 96.84 67.55C96.6907 67.9567 96.5102 68.3512 96.3 68.73C96 69.17 95.64 69.57 95.17 68.82C95.09 68.69 94.71 68.76 94.31 68.72C94.71 69.62 94.66 70.2 93.76 70.54C93.51 70.64 93.4 71.14 93.27 71.38L91.8 72.29C91.94 73.02 92.06 73.54 92.12 74.08C92.25 75.21 91.94 75.44 90.91 75.01C90.08 75.93 89.98 75.88 89.2 74.11C88.69 74.11 88.7 75.33 87.91 74.72C87.7269 74.5602 87.5533 74.3899 87.39 74.21L87.54 74.01L88.14 74.17C88.47 73.17 88.2 72.71 86.79 72.24L87.85 73.57L87.3 73.77C86.7961 73.4491 86.2678 73.1683 85.72 72.93C85.62 72.93 85.19 73.31 85.16 73.55C85.1297 74.0344 85.1532 74.5207 85.23 75L84.23 74.79L84.35 74.46L82.54 72.92L82.06 73.86C81.581 73.7564 81.1099 73.6194 80.65 73.45C80.1853 73.2335 79.77 72.9238 79.43 72.54L80.57 72.69V72L81.22 73.14H82.22C82 72.59 81.78 72.14 81.65 71.69C81.65 71.57 81.85 71.38 81.97 71.22C82.0634 71.5811 82.2518 71.9107 82.5155 72.1745C82.7793 72.4382 83.1089 72.6266 83.47 72.72C83.89 72.81 84.32 72.86 84.76 72.94L86 71C86 70 85.22 69.66 84.14 69.75L84.26 69.52L85.16 69.36V69.09C84.75 68.97 84.06 68.65 83.98 68.76C83.46 69.52 82.81 69.09 82.23 69.01L82.6 69.74H81.07C81.19 69.21 81.3 68.74 81.41 68.28L81.9 68.54C81.54 67.54 82.47 66.54 81.65 65.67C81.2 66.67 80.79 66.02 80.37 65.67C80.49 64.67 80.89 65.29 81.37 65.76C81.29 65.24 81.37 64.84 81.19 64.76C80.8056 64.6001 80.4073 64.4762 80 64.39V64.58L80.39 65.02L79.67 65.19L80.47 65.62L79.62 66.2C80 66.13 80 66.13 80.97 67.2L81.56 67.12L81.5 68.31L80.5 68.92C80.99 69.64 80.57 70.16 80.16 70.55L80.65 72.1C80.4448 72.1349 80.2352 72.1349 80.03 72.1C79.18 71.91 78.69 72.42 78.83 73.29C78.89 73.71 78.74 74.16 78.76 74.59C78.8375 74.8991 78.9516 75.1979 79.1 75.48L78.69 75.93L78 74.41C78.82 73.78 78 72.79 78.51 72.08C78.03 72.33 78.03 72.33 77.94 73.66L73.77 75.78L73.92 76.78L74.45 77.14L75.45 76.37C75.2 76.25 74.94 76.21 74.88 76.08C74.8499 75.9856 74.8433 75.8852 74.8607 75.7876C74.8781 75.6901 74.9191 75.5982 74.98 75.52C75.1999 75.3705 75.4485 75.2684 75.71 75.22C76.16 76.22 76.71 75.46 77.31 75.37C77.5325 75.5959 77.7396 75.8365 77.93 76.09C78.37 76.77 78.45 76.78 78.99 76.02L79.11 76.62L79.64 76.26V77.58L78.49 77.19L78.77 77.93L77.93 77.46L78.16 78.29L77.96 78.15L76.69 79.9C77.1156 79.9458 77.5153 80.1269 77.8303 80.4167C78.1453 80.7065 78.359 81.0897 78.44 81.51L76.94 81.22V81.06L75.76 81.51L75.06 80.51C74.91 80.32 74.76 80.14 74.62 79.95C74.83 79.87 75.2 79.79 75.21 79.68C75.27 79.12 75.43 78.42 75.21 78.02C74.99 77.62 74.21 77.68 73.62 77.49L73.21 77.85L74.57 78.79C74.22 79.14 73.29 78.87 73.57 79.79C73.8777 79.6172 74.2185 79.5116 74.57 79.48C74.693 79.4839 74.8145 79.5076 74.93 79.55L74.74 79.98C74.34 80.98 73.48 81.56 73 81.36L72.4 82.3L73.12 83.13C72.94 82.2 72.95 82.22 73.65 82.05C73.78 82.05 73.84 81.73 73.95 81.57C74.0167 81.4964 74.0904 81.4294 74.17 81.37L74.4 82.03L75.89 81.48L75.5 82.67L75.69 82.87L74.36 83.12L75.04 83.56L74.04 83.9L74.47 84.23L75.67 84.38L76.74 83.81L77.06 85.17L76 84.72L76.41 86.18L76.64 86.12C76.64 85.91 76.64 85.7 76.64 85.48C76.64 85.48 76.64 85.38 76.77 85.21L77.93 85.69L77.88 85.89L77.5 86.02L78.07 86.92L77 86.54L76.86 86.73L77.61 87.67L79.47 86.5L79.4 85.82C79.91 86.42 80.19 86.82 79.64 87.03L79.77 89.17L77.99 88.8L78.43 90.8H78.7L78.61 89.41L80.5 89.91C80.2 90.44 80.04 91.17 79.62 91.37C79.2 91.57 78.46 91.37 77.8 91.28V91.68L76.26 93L76.38 93.37C75.1671 93.4268 73.9526 93.2952 72.78 92.98C71.7409 92.3283 70.8041 91.5263 70 90.6C70.84 89.81 70.52 88.82 70.62 87.89L71.51 87.2L70.51 86.7L70.13 86.13H70.66C70.87 85.59 69.66 85.04 70.79 84.49L71.4 85.44C71.4768 85.1879 71.5011 84.9227 71.4715 84.6608C71.4419 84.3989 71.3589 84.1458 71.2277 83.9172C71.0966 83.6886 70.92 83.4893 70.7088 83.3315C70.4976 83.1738 70.2564 83.0609 70 83L70.68 84.17L69.25 84.62L68.91 84.22L68.63 84.28C68.7885 84.3877 68.9215 84.5289 69.0196 84.6936C69.1176 84.8583 69.1783 85.0425 69.1974 85.2333C69.2164 85.424 69.1934 85.6166 69.1299 85.7974C69.0665 85.9783 68.9641 86.143 68.83 86.28L69.56 86.14C69.39 86.34 69.21 86.71 69.03 86.72C68.2 86.72 68.39 87.62 67.92 87.91C68.55 88.35 67.92 89.47 68.92 89.72C69.76 89.93 69.64 90.64 69.66 91.26C69.68 91.88 69.6 92.34 69.02 92.37C68.4534 92.3942 67.8906 92.2665 67.39 92C66.8992 91.6628 66.464 91.2512 66.1 90.78C66.0359 90.686 65.9929 90.5792 65.974 90.467C65.955 90.3548 65.9604 90.2399 65.99 90.13C66.1545 89.8367 66.3453 89.5589 66.56 89.3L67.07 89.95L67.21 89.79C67.45 89.54 67.93 89.24 67.89 89.06C67.7281 88.5683 67.4884 88.1058 67.18 87.69C67.1201 87.6576 67.0531 87.6407 66.985 87.6407C66.9169 87.6407 66.8499 87.6576 66.79 87.69C66.2 88.15 65.64 88.69 64.89 89.27L65.11 87.96L64.34 87.49L63.62 87.15C62.93 88.56 62.93 88.56 62.77 88.41L62.46 89.23C61.7 89.39 60.65 89.02 60.64 90.34C59.57 89.97 59.49 89.72 60.2 89.05C60.1281 88.9231 60.0408 88.8055 59.94 88.7C59.853 88.6433 59.7534 88.6089 59.65 88.6L58.92 89.9L59.79 90.43L59.25 90.66L59.31 90.89C59.65 90.89 59.99 90.95 60.31 90.95C60.4956 90.9304 60.6794 90.8969 60.86 90.85C60.86 91.05 60.86 91.25 60.86 91.45C60.8377 91.6425 60.801 91.833 60.75 92.02C61.4 92.02 61.92 92.1 62.44 92.12C63.12 92.12 63.81 92.12 64.49 92.19C64.7894 92.189 65.082 92.2794 65.3286 92.4492C65.5752 92.6189 65.7641 92.86 65.87 93.14C66.1 93.74 66.87 94.14 67.31 94.66C67.3754 94.7339 67.4223 94.8224 67.4466 94.918C67.471 95.0137 67.4721 95.1138 67.45 95.21L66.56 94.77C66.42 95.15 66.32 95.48 66.18 95.77C66.0531 96.1511 65.8278 96.4919 65.5268 96.7579C65.2258 97.024 64.8599 97.2058 64.4661 97.2849C64.0723 97.3641 63.6646 97.3378 63.2842 97.2088C62.9039 97.0797 62.5643 96.8525 62.3 96.55C61.62 95.77 60.69 95.79 59.9 95.39C59.8549 95.3807 59.8083 95.3813 59.7634 95.3916C59.7186 95.402 59.6765 95.4219 59.64 95.45C59.1 95.91 58.56 96.16 57.98 95.51C57.82 95.74 57.49 96 57.53 96.19C57.93 98.35 57.04 100.7 58.47 102.73C58.64 102.97 58.39 103.47 58.41 103.85C58.6132 104.988 58.6636 106.148 58.56 107.3C58.01 109.52 58.32 111.76 57.99 113.97C57.8364 115.365 57.606 116.75 57.3 118.12C56.9971 118.804 56.5926 119.437 56.1 120C54.23 118.51 53.92 116.87 54.55 114.47C54.8112 113.119 54.9319 111.745 54.91 110.37C54.91 110.19 54.63 110 54.47 109.81C54.5877 109.721 54.6843 109.608 54.753 109.478C54.8218 109.347 54.8609 109.204 54.8675 109.056C54.8742 108.909 54.8483 108.763 54.7917 108.627C54.7351 108.491 54.6491 108.369 54.54 108.27C54.04 107.62 53.84 107.13 54.54 106.42C54.85 106.13 54.78 105.36 54.72 104.82C54.61 103.73 54.32 102.66 54.2 101.57C54.03 99.94 54.01 98.3 53.81 96.67C53.7 95.77 53.92 94.77 53.19 94.01C53.14 94.01 53.19 93.83 53.19 93.75C53.26 93.4 53.53 92.9 53.39 92.75C53.0321 92.3978 52.616 92.1102 52.16 91.9C52.0522 91.8692 51.9378 91.8692 51.83 91.9C51.62 91.9 51.42 91.98 51.21 92.02C51.3564 91.8822 51.4903 91.7316 51.61 91.57C51.761 91.3768 51.8358 91.1347 51.82 90.89L50.91 91.66L50.85 90.84L50.66 90.7L50.41 91.27L49.41 90.77C49.23 90.99 48.97 91.15 48.95 91.34C48.93 91.53 49.01 92.04 49.17 92.11C50.17 92.56 50.29 92.77 49.75 93.73C49.67 93.87 49.56 94.01 49.38 94.26C48.95 92.78 47.71 93.39 46.94 93.18C46.61 92.48 46.3 91.89 46.05 91.28C45.95 91.05 45.89 90.6 45.99 90.54C46.3615 90.2696 46.7885 90.0851 47.24 90C47.6742 89.9726 48.0839 89.7897 48.3943 89.4849C48.7046 89.18 48.8948 88.7736 48.93 88.34H47.99L48.99 86.84C49.99 86.62 50.6 87.12 50.83 88.2L51.33 87.89L50.77 86.89L50.97 86.74C51.48 86.96 51.97 87.68 52.69 86.85H51.8L51.62 86.18L51.14 86.54L50.87 85.92C50.8081 85.9731 50.7411 86.02 50.67 86.06C50.33 86.21 49.84 86.56 49.67 86.45C49.4526 86.2805 49.179 86.1997 48.9044 86.2238C48.6298 86.2479 48.3745 86.3752 48.19 86.58C47.95 86.81 48.01 87.36 47.93 87.77C47.93 87.85 47.93 87.94 47.93 88.09L46.22 88.42L46.6 86.6C46.77 86.33 45.69 86.05 46.86 85.7L45.86 83.81L46.21 83.59L46.74 84.32C47.45 83.79 46.74 83.39 46.56 83.03C46.16 82.4 45.67 81.82 45.05 81.03C45.05 81.42 45.05 81.74 45.12 81.83C45.2435 81.8967 45.3491 81.9923 45.4277 82.1087C45.5063 82.225 45.5555 82.3586 45.5713 82.4982C45.587 82.6377 45.5687 82.7789 45.518 82.9099C45.4673 83.0408 45.3856 83.1575 45.28 83.25C45.18 83.38 45.28 83.68 45.28 83.9C45.19 84.96 44.86 85.13 43.98 84.58C43.89 84.52 43.77 84.5 43.87 84.58L43.52 82.98H43.18L43.28 84.27C43.03 84.11 42.84 84.04 42.75 83.91C42.43 83.42 42.14 82.91 41.84 82.41C42.02 81.88 42.2 81.36 42.4 80.76L42.86 80.99L43.4 77.99H42.46C42.46 78.43 42.46 78.88 42.54 79.31C42.62 79.74 42.72 80.14 42.81 80.55L42.54 80.66L41.96 80.12C41.8 80.77 41.62 81.41 41.5 82.05C41.5 82.14 41.74 82.28 41.87 82.4L42 83C41.08 82.51 40.65 83 40.34 83.65L38.72 83.17L38.57 83.34C38.68 83.49 38.79 83.64 38.89 83.8C38.99 83.96 39.08 84.16 39.17 84.34C38.8825 84.284 38.6058 84.1827 38.35 84.04C38.2436 83.9692 38.1536 83.8762 38.0863 83.7675C38.019 83.6588 37.9759 83.5369 37.96 83.41C38.1 82.41 38.03 82.24 36.96 82.2L36.49 80.82C35.9 80.67 35.7 81.18 35.54 81.82C36.1173 82.1013 36.6782 82.4152 37.22 82.76C37.3267 82.8537 37.4122 82.9691 37.4708 83.0984C37.5294 83.2277 37.5598 83.368 37.56 83.51C37.5099 83.7969 37.3481 84.0522 37.11 84.22C36.59 84.56 36.01 84.82 35.68 85C36.0428 85.7007 36.3086 86.4476 36.47 87.22C36.47 88.08 35.75 88.46 34.99 88.45C34.7634 88.4398 34.5426 88.3754 34.346 88.2623C34.1494 88.1492 33.9828 87.9907 33.86 87.8C33.7026 87.4672 33.6574 87.0923 33.7313 86.7316C33.8053 86.3709 33.9943 86.044 34.27 85.8C34.5233 85.6039 34.7907 85.4267 35.07 85.27V84.27L36 84C35.76 83.55 35.85 82.9 35 83.06C35 83.06 34.78 82.3 34.66 81.9L34.07 82.39C33.33 81.9 35.14 81.6 34.07 81.23C33.78 81.13 33.3 81.58 32.85 81.8L32.59 80.93C33 80.73 33.66 80.62 32.94 80C32.81 79.89 32.94 79.36 33.07 79.11C33.2 78.86 33.55 78.72 33.84 78.5L33.21 77.82L31.68 79.74L31.33 79.61C31.4019 79.1371 31.547 78.6783 31.76 78.25C32.03 77.86 31.58 76.97 32.81 77.16L32 76.63L32.65 75.88L33.18 76.54L32.23 74.43L31.23 76.57C32.1 76.64 31.55 77.34 31.44 77.95C31.1 77.63 30.78 77.29 30.44 77.01C30.27 76.88 30 76.89 29.79 76.82C29.525 76.7527 29.272 76.6447 29.04 76.5C28.81 76.32 28.44 75.91 28.49 75.82C28.7218 75.5069 29.006 75.2363 29.33 75.02C29.3836 75.0107 29.4386 75.0139 29.4906 75.0296C29.5427 75.0452 29.5904 75.0727 29.63 75.11C29.63 75.24 29.57 75.38 29.58 75.52C29.59 75.66 29.64 76 29.68 76.24C29.9277 76.11 30.1681 75.9665 30.4 75.81C30.7 75.59 30.97 75.34 31.28 75.07L30.28 74.53L31.65 74.16C31.6612 74.0189 31.6812 73.8786 31.71 73.74C33.05 73.55 32.94 74.54 32.95 75.56L33.5 75.03C33.23 74.35 33.03 73.71 32.74 73.12C32.26 72.12 33.35 72.12 33.74 71.57L32.66 71L32.75 72C32.44 71.8944 32.1715 71.6933 31.9828 71.4257C31.7942 71.158 31.6952 70.8374 31.7 70.51C31.7 69.67 32.48 69.61 32.98 69.43C33.48 69.25 34.15 69.05 34.37 70.14L35 68.45L31.83 69.3L31.37 68.1L31.19 68.15L31.54 69.3L30.19 69.41L30.77 68.63L30.25 68.32L31 67.94L29.87 67C29.97 68.07 30.3 69.07 29.25 69.77L29.3 69C27.96 68.88 27.96 68.88 27.77 67.18L31.15 65.65V65.5L27.85 66.36L27.64 65.72C27.58 65.72 27.49 65.72 27.48 65.72C27.18 66.58 26.67 65.92 26.25 65.87C26.25 65.87 26.13 65.62 26.16 65.58C26.2633 65.4951 26.3877 65.4398 26.52 65.42L27.18 65.29C27.08 64.85 27 64.4 26.88 63.96C26.88 63.88 26.7 63.84 26.64 63.81L27.52 62.81C27.97 62.31 27.72 62.01 27.29 61.64C27.12 61.49 27.19 61.07 27.12 60.64L25.72 61.1L25.22 60L25.34 59.85L26.34 60.48L26.21 60.21L27.21 59.02L26.11 58.49C27.4 57.65 27.76 58.8 28.41 59.35C28.3185 59.4301 28.2408 59.5247 28.18 59.63C28.1242 59.8095 28.0841 59.9936 28.06 60.18L29.32 59.43C29.32 59.43 29.21 59.21 29.12 59.2C27.77 59.06 28.35 58.05 28.3 57.33L27.25 56.87L28.07 55.74C28.53 55.74 28.95 55.06 29.44 55.68L29.5 56.49C29.5 56.49 29.72 56.6 29.7 56.66C29.57 57.14 29.38 57.61 29.23 58.07L31.1 57.83V57.52L29.69 57.26L30.69 55.14L29.45 55.68C29.37 55.51 29.32 55.24 29.22 55.22C28.47 55.07 28.79 54.66 29.01 54.34C29.23 54.02 29.38 54.1 29.7 53.9L28.81 53.38L28.62 53.18L27.04 52.84L27 53L26.35 51.91L26.55 51.7L27.31 51.92C26.64 50.92 27.45 50.61 28.09 50.16L27.09 49.39L26.89 47.73L25.89 48.31C26.18 47.6 26.16 47.54 25.61 47.17C25.5155 47.0769 25.4585 46.9524 25.45 46.82C25.45 46.82 25.67 46.66 25.72 46.69C26 46.85 26.26 47.04 26.53 47.22L26.7 47.34L27.08 46.78C26.45 45.89 25.76 46.14 24.93 46.61C24.47 46.88 24.28 47.1 24.34 47.61L23.59 48.35L23.12 47.82L22.12 48.16C21.34 46.53 21.39 46.22 22.52 45.53L23.06 47.26L26.34 43.54L27 46L27.27 45.94L27.2 44.94C27.6989 45.1785 28.1605 45.4884 28.57 45.86C29.07 46.51 29.43 46.44 29.88 45.79L29.12 45.95C29.04 45.82 28.86 45.62 28.9 45.53C29.0929 45.239 29.314 44.9677 29.56 44.72V43.8C29.96 44.11 30.46 43.08 30.74 44.04C30.91 43.73 31.27 43.39 31.23 43.11C31.12 42.24 31.8 41.98 32.23 41.4L31 40.69C31.23 40.58 31.51 40.33 31.66 40.39C32.66 40.82 32.61 40.01 32.8 39.48C33.25 39.19 33.36 38.59 32.98 38.4C32.37 38.11 32.23 37.58 32.66 37.22C33.09 36.86 33.58 37.1 34.05 37.15C34.22 37.15 34.36 37.46 34.61 37.53L34.13 36.62L32.98 36.79C33.1432 36.4508 33.2037 36.0713 33.1539 35.6982C33.1042 35.325 32.9464 34.9746 32.7 34.69C32.48 34.44 32.84 33.69 32.94 33.14C33.1711 33.2853 33.3701 33.4764 33.5246 33.7015C33.6791 33.9266 33.7859 34.181 33.8383 34.4489C33.8908 34.7169 33.8878 34.9927 33.8297 35.2595C33.7715 35.5262 33.6593 35.7782 33.5 36L35.5 35.19C35.5 35.19 35.5 35.03 35.58 34.83L36.5 35.2C36.55 34.42 36.58 33.76 36.64 33.12C36.6764 33.0079 36.7554 32.9145 36.86 32.86C37.13 32.99 37.38 33.16 37.58 33.27L38.48 32.66L37.42 32.16L39 30.74L41 30.63C40.8981 30.5069 40.7695 30.4087 40.6239 30.3429C40.4784 30.277 40.3197 30.2453 40.16 30.25C39.7389 30.3699 39.3329 30.5377 38.95 30.75L38.78 29.34L41.72 29.15C41.72 27.95 40.44 29.02 40.12 28.09H42.42L42.53 29.48L41.28 29.73C42.56 30.03 42.69 29.94 42.88 28.82C42.9119 28.5899 43.0017 28.3717 43.1411 28.1859C43.2805 28 43.4648 27.8527 43.6768 27.7577C43.8888 27.6627 44.1215 27.6232 44.3529 27.6428C44.5844 27.6625 44.8071 27.7406 45 27.87C45.42 28.09 46 28.62 46.21 27.64C46.4189 27.7075 46.6329 27.7576 46.85 27.79C47.33 26.55 48.5 27.24 49.37 26.84L48.14 26.22C48.73 26.1 48.93 25.69 49.26 25.28C49.3842 25.1538 49.5338 25.0555 49.6989 24.9915C49.8639 24.9275 50.0407 24.8993 50.2175 24.9087C50.3943 24.9182 50.5671 24.9651 50.7244 25.0463C50.8817 25.1276 51.02 25.2413 51.13 25.38L51.69 24.38C51.7526 24.7182 51.8361 25.0522 51.94 25.38C52.036 25.5718 52.157 25.7501 52.3 25.91C52.4808 25.2905 52.5419 24.6423 52.48 24C52.33 23.46 51.72 23 51.31 22.56L51.06 22.76L51.77 23.86C51.44 23.55 49.86 24.62 50.71 23.21C50.3119 22.8303 49.9379 22.4262 49.59 22C49.46 21.82 49.51 21.51 49.48 21.26C49.68 21.26 49.88 21.33 50.08 21.33C50.2112 21.3243 50.3416 21.3075 50.47 21.28L50.87 22.34L51.5 20.47L51.79 20.52C51.79 21.11 51.58 21.84 51.84 22.27C52.3406 22.8153 52.9245 23.2777 53.57 23.64C53.23 23.02 53.69 22 52.43 22.11C52.33 22.11 52.11 21.88 52.12 21.77C52.13 21.66 52.3 21.43 52.4 21.27L53.02 21.7C53.18 21.45 53.35 21.18 53.51 20.91C53.67 20.64 53.73 20.47 53.84 20.25C53.68 20.6 53.19 19.8 53.11 20.46C52.9841 20.4798 52.8559 20.4798 52.73 20.46C52.64 20.13 52.45 19.74 52.56 19.46C52.67 19.18 53.11 18.92 53.49 18.58C53.32 18.33 52.38 18.14 53.09 17.48L54.23 17.89L54.29 18.79L55.34 18C54.68 17.8 54.18 17.65 53.7 17.48C53.63 17.48 53.55 17.22 53.57 17.2C53.711 17.0674 53.8778 16.9653 54.06 16.9C54.41 16.84 54.76 16.85 55.15 16.82L54.44 16.15C54.72 16.02 55 15.76 55.27 15.78C56.21 15.78 56.7 15.28 56.93 13.78C56.49 13.89 55.72 14.18 55.65 14.06C55.338 13.4183 55.0869 12.7487 54.9 12.06L55.27 11.89C55.41 12.15 55.56 12.41 55.69 12.67C55.82 12.93 55.93 13.21 56.05 13.48C56.38 13.31 56.89 13.21 56.98 12.95C57.2 12.36 57.38 11.95 58.14 11.89C58.44 11.89 58.65 11.23 58.98 10.97C59.1124 10.9037 59.257 10.865 59.4048 10.8564C59.5527 10.8478 59.7008 10.8695 59.84 10.92C60.39 10.81 60.84 10.01 61.52 11.01C62.14 9.92 63.18 10.27 64.08 10.16C64.72 10.09 65.35 10.24 65.88 9.58C66.09 9.32 66.88 9.51 67.37 9.58C67.4087 9.77453 67.4321 9.97181 67.44 10.17L68.34 9.69C68.6 9.91 68.89 10.88 69.34 9.69C69.67 9.86 69.51 11 70.28 10.22L71.37 11.42L72.28 11.87ZM28.94 63.87L30 62.81C29.39 62.44 29 61.92 28.7 62.72C28.77 63.12 28.84 63.51 28.92 63.92C28.75 63.92 28.55 63.92 28.44 63.8C28.2594 63.6283 28.0984 63.4372 27.96 63.23L27.8 63.38V64.24C27.9825 64.2147 28.1675 64.2147 28.35 64.24C28.48 64.24 28.57 64.44 28.68 64.54L28.94 63.87ZM32.53 61.87L33.53 61.61L33.8 62.25L34.3 62.07V61.81L31.73 60.6C31.9766 61.0132 32.2989 61.3762 32.68 61.67C32.68 61.67 32.58 61.81 32.54 61.89C32.09 62.73 31.54 63.46 30.54 63.31C30.8147 63.4644 31.1115 63.5757 31.42 63.64C31.68 63.64 32.14 63.57 32.2 63.41C32.3569 62.9078 32.4673 62.3923 32.53 61.87V61.87ZM36.45 77.52L36.28 76.34L35.15 77.28L35.03 78.12L36.45 77.52ZM28.45 48.33C28.7 49.94 29.64 48.04 29.92 48.59L27.6 47.86V48.86L28.45 48.33ZM30.3 61.85L31.18 62.67C32.11 62.14 31.58 61.67 31.25 61.25L30.3 61.85ZM30.1 59.34V61.16C31.26 60.99 30.49 60.16 30.71 59.66L30.1 59.34ZM34.19 74.34C34.4 73.83 34.71 73.42 34.68 73.03C34.68 72.81 34.11 72.62 33.68 72.37L34.19 74.34ZM67.87 85.58L67.52 86.16L67.11 85.72C67.2 86.11 66.6 86.72 67.33 86.88L68.22 86.43L67.87 85.58ZM31.54 55.08L31.6 56.25L33.15 56L31.54 55.08ZM77.54 64.89C77.75 65.03 77.95 65.29 78.13 65.28C78.4051 65.1928 78.6624 65.0574 78.89 64.88C78.4 64.13 78 64.17 77.52 64.89H77.54ZM72 80.07L72.07 79.78C71.84 79.78 71.58 79.58 71.38 79.65C70.8 79.83 70.8 79.87 71.05 80.75L71.48 79.84L72 80.07ZM42 79.17L41.5 77.17L41.4 78.88L42 79.17ZM34.42 60L34.55 59.89L34.11 58.27H33.71L34.42 60Z" fill="black"/>
<path d="M95.6 25.76C95.94 26.23 96.08 26.63 96.36 26.76C96.7725 27.0081 97.1218 27.3486 97.3804 27.7547C97.6389 28.1607 97.7997 28.6213 97.85 29.1C98.0247 29.6727 98.0758 30.276 98 30.87C97.8403 31.4436 97.5213 31.9603 97.08 32.36C96.523 32.8884 95.8402 33.2659 95.0965 33.4567C94.3527 33.6474 93.5726 33.6451 92.83 33.45C92.3 33.31 91.44 33.09 91.25 32.17C91.16 31.79 90.67 31.49 90.45 31.24C90.3744 30.5421 90.3744 29.838 90.45 29.14C90.5204 28.5084 90.7722 27.9106 91.1751 27.4191C91.5779 26.9275 92.1145 26.5631 92.72 26.37C93.76 26.1 94.76 25.94 95.6 25.76Z" fill="black"/>
<path d="M39.42 91.81L39.34 92.4C39.7845 92.5977 40.2796 92.6519 40.7563 92.5551C41.233 92.4583 41.6678 92.2154 42 91.86C42.52 92.34 43.18 92.69 43.41 93.22C43.81 94.22 44.84 93.04 45.18 93.89L44.3 94.89L45.67 95.7L44.49 96.3C45.32 97.76 45.31 97.74 43.7 98.12C43.3881 98.2289 43.1279 98.4499 42.97 98.74C42.8483 99.0184 42.6271 99.2414 42.3497 99.3653C42.0722 99.4893 41.7586 99.5052 41.47 99.41C41.1795 99.3357 40.8795 99.3054 40.58 99.32C40.2134 99.3963 39.8315 99.3289 39.5133 99.1316C39.195 98.9343 38.9647 98.6223 38.87 98.26C38.6621 97.9012 38.3425 97.6202 37.96 97.46C37.34 97.14 37.29 96.77 37.65 96.24C37.7931 96.0532 37.886 95.8329 37.92 95.6C37.9048 95.0785 38.0182 94.5612 38.2501 94.0938C38.4821 93.6265 38.8255 93.2233 39.25 92.92C38.2 92.49 39.05 92.16 39.16 91.78L39.42 91.81Z" fill="black"/>
<path d="M104.9 61.23C104.942 61.6939 104.886 62.1615 104.735 62.6021C104.584 63.0427 104.341 63.4463 104.023 63.7863C103.705 64.1264 103.318 64.3952 102.888 64.5751C102.459 64.755 101.996 64.8419 101.53 64.8301C100.61 64.8336 99.7216 64.4911 99.0418 63.8706C98.3621 63.2501 97.9402 62.3969 97.86 61.48C97.8013 60.5775 98.0962 59.6876 98.6824 58.9988C99.2685 58.31 100.1 57.8765 101 57.79C101.492 57.704 101.997 57.7297 102.477 57.8652C102.958 58.0007 103.402 58.2426 103.777 58.5729C104.151 58.9032 104.447 59.3136 104.641 59.7735C104.835 60.2335 104.924 60.7313 104.9 61.23V61.23Z" fill="black"/>
<path d="M39.18 84.33C39.57 84.04 39.91 83.58 40.5 83.97C40.58 83.97 40.77 83.89 40.91 83.83L42.32 83.25V85L41 85.48C41.16 86.13 41.16 86.14 42 86.23C42.49 86.23 43 86.3 43.59 86.34L43.47 85.25L45.05 85.59L46.05 85.2C45.41 86.2 45.27 87.46 43.98 87.74L45.15 88.62C45.03 88.97 44.56 89.1 43.9 88.8C43.19 89.28 43.61 90.8 42.22 90.64C42.0051 90.3225 41.6987 90.0778 41.3415 89.9385C40.9843 89.7992 40.5931 89.7718 40.22 89.86C39.6354 89.9317 39.0426 89.8978 38.47 89.76C38.3458 89.7002 38.2396 89.6086 38.1623 89.4944C38.085 89.3802 38.0393 89.2476 38.03 89.11C38.1048 88.7937 38.2981 88.5181 38.57 88.34C39.36 87.82 40.49 87.76 40.76 86.6C40.29 86.13 39.38 85.9 39.82 84.87C39.82 84.78 39.46 84.5 39.26 84.31L39.18 84.33Z" fill="black"/>
<path d="M23.25 50.83L22.72 52.24L20.91 52.38C21.02 53.02 21.91 53.58 21.27 54.32C21.4705 53.7585 21.7146 53.2135 22 52.69C22.1077 52.5993 22.237 52.5378 22.3754 52.5115C22.5137 52.4853 22.6565 52.4951 22.79 52.54C23.27 52.81 23.18 53.76 22.79 54.12C22.5019 54.3902 22.2376 54.6846 22 55L20.47 55.85L20.4 54.6L20.57 55.01L19.28 55.83L18.92 55.55L20.26 53.55L20.06 53.31L20.74 53.39V53.22L20.13 53.04L19.8 51.6H19.54L18.85 53.71L18.6 53.78L18 52.73C18.59 52.61 18.6 52.06 18.43 51.43C19.19 51.43 19.19 51.43 19.21 51.08C18.8731 51.0643 18.5383 51.0174 18.21 50.94C18.1812 50.3697 18.2283 49.798 18.35 49.24C18.41 48.98 18.67 48.76 18.83 48.52H19.18L19.65 49.79L18.55 50.08L18.62 50.35C19.07 50.21 19.52 50.06 19.97 49.95C20.0419 49.9552 20.1114 49.978 20.1724 50.0164C20.2335 50.0547 20.2841 50.1075 20.32 50.17C20.4182 50.3759 20.562 50.5567 20.7406 50.6986C20.9192 50.8405 21.1278 50.9398 21.3505 50.989C21.5732 51.0381 21.8042 51.0359 22.0259 50.9823C22.2477 50.9288 22.4543 50.8254 22.63 50.68C23.06 50.28 23.06 50.69 23.25 50.83Z" fill="black"/>
<path d="M22.32 55.2701L23.7 55.0501L23 54.6001L23.59 53.2601L24.11 54.3101C24.3258 54.244 24.5246 54.1316 24.6925 53.9806C24.8603 53.8297 24.9932 53.6439 25.0817 53.4363C25.1703 53.2287 25.2125 53.0042 25.2053 52.7786C25.198 52.553 25.1416 52.3317 25.04 52.1301C26.04 51.1301 26.04 51.1301 26.48 51.7201L26.28 51.9301C25.47 52.2501 26.02 52.8401 26.18 53.1401C26.34 53.4401 27.18 53.5901 27.18 53.5401C27.52 52.8701 28.12 53.2801 28.57 53.1501L28.76 53.3501L29.36 54.1801L28 54.1101L28.52 55.1901L28.03 55.7101C27.91 55.5601 27.78 55.4201 27.66 55.2601C27.54 55.1001 27.43 54.9301 27.27 54.6901L27 56.1201C26.84 56.1201 26.57 56.0601 26.54 55.9701C26.4846 55.7276 26.4644 55.4784 26.48 55.2301C26.0641 55.1951 25.6459 55.1951 25.23 55.2301C25.03 55.2301 24.86 55.5201 24.68 55.6801C24.8609 55.8193 25.0637 55.9274 25.28 56.0001C25.639 56.0378 26.001 56.0378 26.36 56.0001C26.44 56.4501 26.75 57.1001 26.56 57.5101C26.37 57.9201 25.67 58.0001 25.17 58.2401L24.77 57.5901L25.18 57.1001L23.46 56.0001V55.6501L21.9 56.4101C21.45 55.8401 22 55.5801 22.32 55.2701Z" fill="black"/>
<path d="M51.81 106.32C51.821 106.627 51.7692 106.932 51.6579 107.218C51.5466 107.503 51.3781 107.763 51.1627 107.981C50.9473 108.2 50.6896 108.371 50.4054 108.486C50.1212 108.602 49.8165 108.657 49.51 108.65C49.2112 108.653 48.9152 108.593 48.6413 108.474C48.3675 108.354 48.1219 108.178 47.9208 107.957C47.7197 107.736 47.5675 107.475 47.4743 107.192C47.3811 106.908 47.349 106.607 47.38 106.31C47.4168 105.742 47.6631 105.207 48.0714 104.81C48.4797 104.413 49.0208 104.181 49.59 104.16C49.8845 104.126 50.1829 104.159 50.4634 104.254C50.744 104.35 50.9997 104.507 51.2122 104.714C51.4247 104.92 51.5885 105.172 51.6919 105.45C51.7953 105.728 51.8356 106.025 51.81 106.32Z" fill="black"/>
<path d="M51.87 94.8702C51.7321 95.39 51.5091 95.8833 51.21 96.3302C50.8513 96.6261 50.4411 96.8532 50 97.0002C50.4749 97.0039 50.9478 97.0609 51.41 97.1702C51.6459 97.2625 51.8603 97.4023 52.04 97.5808C52.2196 97.7594 52.3607 97.973 52.4545 98.2083C52.5482 98.4436 52.5926 98.6957 52.585 98.9489C52.5773 99.202 52.5178 99.451 52.41 99.6802C51.97 100.87 51.18 101.28 50.12 100.89C49.6456 100.694 49.2647 100.323 49.0562 99.8541C48.8478 99.385 48.8276 98.8537 49 98.3702C49.1436 97.9176 49.2145 97.445 49.21 96.9702C49.1647 96.4801 49.289 95.9894 49.562 95.5799C49.835 95.1703 50.2402 94.8669 50.71 94.7202C51 94.5902 51.51 94.8202 51.87 94.8702Z" fill="black"/>
<path d="M87.24 57.16C87.06 56.65 86.48 56.35 85.65 56.34L85.47 54.18L84.29 53.73L84.39 53.49C84.77 53.49 85.21 53.65 85.5 53.49C85.79 53.33 85.94 52.91 86.22 52.49C87.12 52.66 87.71 53.55 88.49 54.28C88.17 54.87 88.23 55.28 89.15 55.38C89.5 55.38 89.83 55.97 90.15 56.32C90.3328 56.5934 90.4869 56.885 90.61 57.19C89.73 57.68 88.91 58.9 87.66 57.69L87.24 57.16Z" fill="black"/>
<path d="M43.66 117C43.66 118.47 42.18 119.4 40.52 118.95L39.52 118.73C39.18 118.66 38.94 118.59 39.28 118.18C39.37 118.07 39.28 117.78 39.28 117.57C39.2103 117.258 39.2047 116.936 39.2634 116.622C39.3221 116.308 39.444 116.009 39.6217 115.743C39.7993 115.478 40.0291 115.251 40.2969 115.077C40.5648 114.903 40.8652 114.785 41.18 114.73C41.807 114.713 42.4159 114.941 42.8786 115.364C43.3412 115.788 43.6214 116.374 43.66 117V117Z" fill="black"/>
<path d="M42.6 101.72C43.0492 101.951 43.4471 102.271 43.77 102.66C43.9704 102.97 44.0543 103.341 44.0067 103.708C43.9591 104.074 43.7831 104.411 43.51 104.66C43.272 104.913 42.9624 105.086 42.6227 105.158C42.2831 105.229 41.9297 105.195 41.61 105.06C41.15 104.88 40.67 104.73 40.19 104.57C39.8677 104.493 39.5823 104.306 39.3833 104.042C39.1842 103.777 39.084 103.451 39.1 103.12C39.0891 102.954 39.1122 102.788 39.168 102.631C39.2238 102.474 39.311 102.33 39.4243 102.209C39.5377 102.087 39.6747 101.99 39.827 101.923C39.9793 101.856 40.1437 101.821 40.31 101.82C41 101.8 41.62 101.78 42.6 101.72Z" fill="black"/>
<path d="M96.71 76.8801C96.931 77.2947 97.1923 77.6866 97.49 78.0501C97.8624 78.3623 98.1162 78.7928 98.2091 79.2698C98.3019 79.7467 98.2281 80.2411 98 80.6701C97.7968 81.0191 97.4871 81.2938 97.1164 81.4539C96.7457 81.6141 96.3334 81.6513 95.94 81.5601C95.4749 81.4497 95.0552 81.1984 94.7383 80.8404C94.4215 80.4824 94.223 80.0352 94.17 79.5601C94.2217 79.0912 94.4133 78.6487 94.72 78.2901C95.0713 77.9838 95.4613 77.7249 95.88 77.5201C96.18 77.2801 96.49 77.0001 96.71 76.8801Z" fill="black"/>
<path d="M6.86 36.7701C7.15041 36.6736 7.42376 36.5318 7.67 36.3501C7.91203 36.072 8.23363 35.8749 8.59133 35.7854C8.94903 35.696 9.32555 35.7186 9.67 35.8501C9.98797 35.9323 10.2749 36.1058 10.4953 36.3493C10.7157 36.5928 10.8598 36.8956 10.91 37.2201C10.99 37.6701 11.19 38.1001 10.84 38.4501C10.486 38.8426 10.0533 39.1561 9.57 39.3701C9.33108 39.4577 9.07555 39.4905 8.82225 39.4662C8.56895 39.4418 8.32435 39.3609 8.10648 39.2294C7.88862 39.098 7.70305 38.9192 7.56347 38.7065C7.42389 38.4937 7.33385 38.2523 7.3 38.0001C7.17372 37.5831 7.02688 37.1726 6.86 36.7701V36.7701Z" fill="black"/>
<path d="M96.34 50.0001C96.28 50.3901 96.21 50.7501 96.18 51.1101C96.1539 51.5301 95.9799 51.9273 95.6889 52.2312C95.3978 52.535 95.0085 52.726 94.59 52.7701C94.3474 52.792 94.1029 52.7655 93.8706 52.6922C93.6383 52.6189 93.4229 52.5002 93.2369 52.343C93.0508 52.1858 92.8979 51.9932 92.7868 51.7764C92.6758 51.5596 92.6089 51.3229 92.59 51.0801C92.547 50.665 92.6504 50.248 92.8823 49.901C93.1142 49.5541 93.46 49.2991 93.86 49.1801C94.3013 49.1505 94.7434 49.2259 95.15 49.4001C95.5605 49.5713 95.9582 49.7718 96.34 50.0001V50.0001Z" fill="black"/>
<path d="M27.34 79C27.5047 78.9072 27.6426 78.7735 27.7406 78.6118C27.8385 78.4501 27.8932 78.2659 27.8992 78.0769C27.9052 77.888 27.8625 77.7007 27.775 77.5331C27.6876 77.3654 27.5584 77.2232 27.4 77.12C27.21 76.95 27.19 76.58 27.1 76.29C27.33 76.38 27.56 76.47 27.8 76.54C27.86 76.54 27.94 76.45 28 76.46C28.21 76.52 28.41 76.6 28.62 76.67L28.36 77.22C29.84 76.68 30.46 77.1 30.65 78.85C30.65 79.02 30.76 79.18 30.78 79.35C30.8 79.52 30.84 79.83 30.86 80.07H30.24C30.17 80.07 30.06 80 30.02 80.07C29.02 80.83 28.38 80.3 27.8 79.47C27.75 79.39 27.58 79.39 27.49 79.32C27.4 79.25 27.41 79.14 27.34 79Z" fill="black"/>
<path d="M108.64 65.4001C108.64 65.1609 108.691 64.9245 108.787 64.7058C108.884 64.4872 109.026 64.2911 109.203 64.1302C109.38 63.9693 109.588 63.8471 109.815 63.7713C110.042 63.6955 110.282 63.6678 110.52 63.6901C111.42 63.6901 111.92 64.2501 111.9 65.2701C111.895 65.4938 111.845 65.7142 111.754 65.9186C111.663 66.123 111.533 66.3073 111.37 66.4608C111.207 66.6143 111.015 66.7339 110.806 66.8128C110.597 66.8916 110.374 66.9281 110.15 66.9201C109.95 66.9228 109.752 66.8853 109.567 66.8097C109.382 66.7342 109.214 66.6222 109.073 66.4803C108.932 66.3385 108.821 66.1698 108.747 65.9842C108.672 65.7986 108.636 65.6 108.64 65.4001V65.4001Z" fill="black"/>
<path d="M22.89 34.2001L23.45 32.32C24.15 32.21 24.75 32.11 25.34 32.05C25.47 32.05 25.61 32.22 25.75 32.32C25.08 33.09 26 33.57 26.16 34.17C26.32 34.77 26.22 34.9 25.62 35.17C24.82 35.55 24.34 35.0901 23.74 34.9001C23.29 34.7501 22.84 34.64 22.41 34.46C22.24 34.39 22.14 34.18 22 34.03L22.62 34.1501L22.89 34.2001Z" fill="black"/>
<path d="M88.56 52.41C88.83 52.18 89.14 51.84 88.56 51.58C88.96 51.37 89.34 51.2 89.69 50.99C89.865 50.891 90.058 50.8277 90.2576 50.8038C90.4573 50.7798 90.6597 50.7958 90.8532 50.8507C91.0467 50.9055 91.2273 50.9983 91.3847 51.1234C91.5421 51.2486 91.673 51.4038 91.77 51.58C91.8702 51.7368 91.9374 51.9124 91.9675 52.0961C91.9975 52.2797 91.9899 52.4676 91.945 52.6482C91.9001 52.8288 91.8188 52.9984 91.7062 53.1465C91.5936 53.2947 91.452 53.4184 91.29 53.51C90.7905 53.7571 90.2722 53.9644 89.74 54.13L88.56 52.41Z" fill="black"/>
<path d="M84.32 48.31L84.91 48.63C85.0639 48.4539 85.2538 48.3126 85.4668 48.2159C85.6798 48.1191 85.911 48.0691 86.145 48.0691C86.379 48.0691 86.6102 48.1191 86.8232 48.2159C87.0362 48.3126 87.2261 48.4539 87.38 48.63C87.5129 48.7798 87.6137 48.9552 87.6764 49.1454C87.739 49.3356 87.7622 49.5366 87.7444 49.736C87.7266 49.9355 87.6682 50.1292 87.5729 50.3053C87.4776 50.4813 87.3473 50.6361 87.19 50.76C86.8744 51.0134 86.4726 51.1342 86.0695 51.0969C85.6665 51.0596 85.2937 50.8671 85.03 50.56C84.6861 49.892 84.3822 49.2041 84.12 48.5L84.32 48.31Z" fill="black"/>
<path d="M23.39 67.6101C24.47 67.4201 24.73 67.6101 25.21 68.6101C25.5199 69.1433 25.8709 69.6515 26.26 70.1301L25.53 71.3401C25.1644 71.2249 24.8097 71.0777 24.47 70.9001C24.075 70.5956 23.7039 70.2613 23.36 69.9001L24.25 68.6201V68.8401C23.7693 68.9568 23.2737 69.0006 22.78 68.9701C22.56 68.9701 22.42 68.4201 22.3 68.2001L23.43 67.5901L23.39 67.6101Z" fill="black"/>
<path d="M19.49 58.0701C19.72 58.3501 19.88 58.5301 20.02 58.7301C20.36 59.2301 20.9 59.7301 20.97 60.2701C21.04 60.8101 20.51 61.3801 19.78 61.4801C19.6 61.4801 19.45 61.6801 19.31 61.7701L18.11 61.1401L18.69 59.8801L18.11 60.0201C18 59.0001 18.8 58.0001 19.49 58.0701Z" fill="black"/>
<path d="M84 84.28C83.93 84.79 84 85.28 83.81 85.52C83.2772 86.1721 82.6697 86.7595 82 87.27C81.9 87.35 81.37 87.1 81.06 87.39C81.06 87.39 80.82 87.24 80.82 87.17C80.9 86.17 80.62 85.17 81.34 84.36C81.47 84.21 81.92 84.25 82.18 84.36C82.44 84.47 82.95 84.75 83.36 84.86C83.47 84.87 83.68 84.56 84 84.28Z" fill="black"/>
<path d="M29 40.37L29.54 39.28L30.83 40.42C29.47 40.75 29.32 41.03 29.89 41.91L31.13 40.91C31.2 41.33 31.33 41.61 31.24 41.77C31.15 41.93 30.84 41.92 30.56 42L30.98 42.53L29.68 43.53L29.14 41.78L27 42.25L26.87 41.91L27.79 41.53C28.25 41.32 29 41.43 28.87 40.53L29 40.37Z" fill="black"/>
<path d="M24 76.2101C23.7017 75.9296 23.4305 75.6215 23.19 75.2901C23.0671 75.0167 23.0057 74.7197 23.01 74.4201C22.9655 74.0887 22.9488 73.7542 22.96 73.4201C22.96 73.2101 23.04 72.9001 23.17 72.8401C23.2802 72.791 23.3994 72.7656 23.52 72.7656C23.6406 72.7656 23.7598 72.791 23.87 72.8401C24.2185 73.0872 24.5524 73.3543 24.87 73.6401C25.0409 73.7742 25.1761 73.9485 25.2635 74.1475C25.3509 74.3465 25.3878 74.5639 25.371 74.7806C25.3542 74.9972 25.2842 75.2064 25.1671 75.3894C25.05 75.5725 24.8896 75.7239 24.7 75.8301C24.53 76.0001 24.28 76.0701 24 76.2101Z" fill="black"/>
<path d="M24.3 47.5701C24.4866 47.6972 24.684 47.8076 24.89 47.9001C25.0589 47.949 25.2342 47.9726 25.41 47.9701L25.79 49.3901L25.28 50.5601L25.07 50.4601L25.38 50.8701C25.25 50.9401 25.12 51.0201 24.98 51.0801L23.98 51.5201L23.25 51.8301C23.3265 51.637 23.3802 51.4356 23.41 51.2301C23.41 51.1001 23.29 50.9701 23.22 50.8401C23.1145 50.6174 23.095 50.3636 23.1651 50.1274C23.2352 49.8911 23.3901 49.6891 23.6 49.5601L24.7 49.4601L24.3 47.5701Z" fill="black"/>
<path d="M114.53 83C114.33 83.86 113.8 84.26 113.19 83.94C112.58 83.62 112.01 83.34 112.01 82.52C112.01 82.27 111.74 82.04 111.68 81.78C111.633 81.4489 111.616 81.1142 111.63 80.78C111.934 80.8574 112.231 80.9577 112.52 81.08C112.789 81.2388 113.035 81.434 113.25 81.66C113.69 82.14 114.11 82.59 114.53 83Z" fill="black"/>
<path d="M119.45 55.3001C119.38 56.0601 118.45 56.8601 117.76 56.6501C117.33 56.5201 116.69 56.0901 116.68 55.7801C116.685 55.5581 116.735 55.3394 116.826 55.1371C116.918 54.9348 117.049 54.753 117.212 54.6027C117.376 54.4524 117.568 54.3366 117.777 54.2622C117.986 54.1879 118.208 54.1565 118.43 54.1701C118.575 54.1659 118.719 54.1932 118.852 54.2501C118.985 54.307 119.104 54.3921 119.201 54.4996C119.298 54.607 119.37 54.7343 119.413 54.8725C119.456 55.0107 119.469 55.1565 119.45 55.3001V55.3001Z" fill="black"/>
<path d="M90.8 80.8501V82.2601H88.9V81.2601C88.03 83.0601 87.76 80.9801 87.13 81.2601C87.2 80.3101 87.42 80.2001 88.19 80.6701C88.38 80.7801 88.77 80.8401 88.89 80.6701C89.64 80.0001 90.24 80.3401 90.8 80.8501Z" fill="black"/>
<path d="M104.74 69.0701C106.24 69.0701 106.68 69.7501 106.14 70.8901C105.97 71.2601 105.8 71.8901 105.54 71.8901C104.9 72.0201 104.94 71.3601 104.77 70.8901C104.67 70.6601 104.37 70.5101 104.28 70.2801C104.131 70.0048 104.089 69.6847 104.16 69.3801C104.27 69.2101 104.66 69.1201 104.74 69.0701Z" fill="black"/>
<path d="M88.66 145.27C88.66 146.04 88.2 146.34 87.53 146.37C86.86 146.4 86.31 145.86 86.34 144.93C86.34 144.27 86.79 144.01 87.41 143.99C88.22 144 88.64 144.39 88.66 145.27Z" fill="black"/>
<path d="M122.06 93.6702C121.96 94.1602 121.57 94.3302 121.06 94.2102C120.55 94.0902 119.52 93.0702 119.58 92.4602C119.614 92.3059 119.685 92.1621 119.786 92.0404C119.887 91.9188 120.015 91.8227 120.16 91.7602C120.81 91.6102 122.08 92.8602 122.06 93.6702Z" fill="black"/>
<path d="M37.46 101.93C37.57 102.458 37.57 103.003 37.46 103.53C37.37 103.74 36.6 103.71 36.13 103.68C35.9813 103.67 35.8372 103.624 35.7097 103.546C35.5822 103.469 35.4749 103.362 35.3968 103.235C35.3186 103.108 35.2718 102.964 35.2602 102.816C35.2486 102.667 35.2725 102.518 35.33 102.38C35.4199 102.186 35.5475 102.012 35.7055 101.868C35.8634 101.723 36.0485 101.612 36.25 101.54C36.6 101.47 37 101.77 37.46 101.93Z" fill="black"/>
<path d="M42.84 26.89L43.9 26.5401C42.9 25.8201 43.62 25.2301 44.02 24.6101V25.8601L44.22 26.0401C44.41 25.8701 44.72 25.7201 44.75 25.5201C44.7459 25.219 44.6884 24.921 44.58 24.64L44.87 24.55L45.43 25.7701L46.21 25.07C46.3186 25.3316 46.3321 25.6229 46.2481 25.8934C46.164 26.1638 45.9878 26.3962 45.75 26.55C45.67 26.62 45.49 26.7 45.45 26.66C44.59 25.96 44.25 27.0401 43.65 27.2001C43.4516 27.2899 43.2692 27.4114 43.11 27.56L42.87 26.8701L42.84 26.89Z" fill="black"/>
<path d="M19.18 48.5501L19.27 48.2501C18.63 48.0201 18.75 47.4901 18.71 46.9901C18.67 46.4901 18.88 46.1701 19.44 46.1301C20 46.0901 20.29 46.2801 20.36 46.8401C20.43 47.4001 20.53 48.0001 20.64 48.7601L19.18 48.5401V48.5501Z" fill="black"/>
<path d="M16.74 56.4602L16.55 56.9102L17.76 57.0402L17.4 57.8002C18.06 58.5902 18.06 58.5902 17.59 59.9302L16.06 59.1102C15.97 59.0555 15.9026 58.9704 15.87 58.8702C15.8785 58.8187 15.8981 58.7697 15.9275 58.7265C15.9568 58.6833 15.9952 58.6471 16.04 58.6202C16.71 58.2802 16.78 57.9702 16.33 57.3102C15.88 56.6502 15.93 56.5902 16.74 56.4602Z" fill="black"/>
<path d="M15.56 48.6902L16 49.3702C16.28 49.3102 16.53 49.2402 16.79 49.2102C17.0464 49.1951 17.3036 49.1951 17.56 49.2102C17.62 49.6102 17.93 49.9902 17.22 50.1602C16.97 50.2302 16.8 50.6502 16.52 50.9902C16.3587 50.8553 16.1883 50.7317 16.01 50.6202C15.86 50.5302 15.65 50.5502 15.49 50.4702C15.0609 50.2509 14.6467 50.0037 14.25 49.7302C14.19 49.7302 14.3 49.4202 14.34 49.2502C14.4928 49.3281 14.6369 49.422 14.77 49.5302C14.9005 49.6995 15.0207 49.8765 15.13 50.0602L15.34 48.6802L15.56 48.6902Z" fill="black"/>
<path d="M30.31 73.12C30.65 72.32 30.47 72.01 29.45 71.71C29.637 71.5761 29.8023 71.4142 29.94 71.23C29.971 71.0614 29.971 70.8886 29.94 70.72C30.94 70.92 31.2 71.34 31.07 72.51L31.4 72L32.32 72.86C31.69 74 31.55 74 30.31 73.12Z" fill="black"/>
<path d="M87.9 86.5602C87.35 86.5602 86.84 86.7102 86.51 86.5602C85.61 86.0902 86.01 85.2302 86.04 84.1602L88.68 86.3002C88.27 87.0602 88.21 87.0602 87.9 86.5602Z" fill="black"/>
<path d="M93.18 57L91.5 56.18C92.11 55.88 91.62 54.73 92.67 54.75C93.0508 54.7659 93.4101 54.9312 93.67 55.21C94.16 55.91 93.69 56.47 93.18 57Z" fill="black"/>
<path d="M76.59 83.82L77.15 81.73C77.9 81.73 77.92 81.8 77.79 82.53L79.21 83.73L79.09 84.02C78.46 83.75 77.74 84.79 77.15 83.71C77.15 83.65 76.77 83.76 76.57 83.79L76.59 83.82Z" fill="black"/>
<path d="M82.22 75.4601C81.33 75.5201 80.9 75.8601 81.22 76.7801C81.22 76.9001 80.92 77.1801 80.7 77.4701L79.86 73.9101L80.18 73.8301L80.51 74.8901C80.4931 74.6437 80.4931 74.3965 80.51 74.1501C80.5244 74.1018 80.5501 74.0576 80.5848 74.0211C80.6196 73.9846 80.6625 73.9569 80.71 73.9401C80.8117 73.9509 80.905 74.0011 80.97 74.0801C80.76 74.8401 81.46 74.7601 81.81 74.9701C82.0014 75.0439 82.2049 75.0813 82.41 75.0801L82.22 75.4601Z" fill="black"/>
<path d="M24.8 67.3002C25.2 66.9302 25.44 66.5702 24.86 66.1402C24.79 66.1402 24.8 65.9202 24.8 65.8102C24.8 65.2602 24.86 64.7102 24.94 64.1702C25.0176 63.827 25.1282 63.4921 25.27 63.1702L26.04 64.7702C25.04 65.5802 26.22 66.7702 25.57 67.7702C25.33 67.5802 25.07 67.4002 24.82 67.2002L24.8 67.3002Z" fill="black"/>
<path d="M104.65 79.6101C104.65 79.6101 104.55 79.4601 104.49 79.3401C104.29 78.9601 103.84 78.3401 103.93 78.2401C104.336 77.8452 104.82 77.5388 105.35 77.3401C105.482 77.332 105.614 77.3581 105.733 77.4159C105.852 77.4737 105.955 77.5612 106.03 77.6701C106.11 77.8301 105.92 78.1701 105.76 78.3701C105.43 78.7901 105.05 79.1701 104.65 79.6101Z" fill="black"/>
<path d="M87.22 73.71C87.25 74.1194 87.25 74.5305 87.22 74.94C87.22 75.12 87.01 75.28 86.85 75.5C87.6 75.87 87.01 76.5 86.97 77.11L86.2 76.69C86.421 76.1639 86.4413 75.5749 86.257 75.0349C86.0727 74.4948 85.6966 74.0412 85.2 73.76H87.27L87.22 73.71Z" fill="black"/>
<path d="M17.11 39.1002C16.9351 38.8676 16.7447 38.6471 16.54 38.4402C15.94 37.8902 16.35 37.3302 16.64 36.9302C16.76 36.7602 17.64 36.8402 17.78 37.0702C17.92 37.3002 17.84 37.8902 17.72 38.2902C17.6 38.6902 17.35 38.8002 17.11 39.1002Z" fill="black"/>
<path d="M79.73 80.7101C79.38 79.6001 78.98 78.6001 77.53 79.7101L77.45 79.4001C77.57 79.1401 77.63 78.7601 77.84 78.6401C78.39 78.3201 79.61 78.8501 80.1 79.6401V78.8401C80.78 79.0901 80.69 79.6901 79.73 80.7101Z" fill="black"/>
<path d="M5.74 28.27C5.84 28.38 6.22 28.61 6.27 28.91C6.29336 29.0541 6.28491 29.2015 6.24523 29.342C6.20555 29.4825 6.1356 29.6125 6.04031 29.7231C5.94501 29.8336 5.82667 29.922 5.69359 29.9819C5.56052 30.0418 5.41594 30.0719 5.27 30.07C5.15725 30.0776 5.04426 30.0595 4.93947 30.0172C4.83467 29.975 4.74079 29.9095 4.66482 29.8259C4.58886 29.7422 4.53278 29.6425 4.50078 29.5341C4.46877 29.4257 4.46167 29.3115 4.48 29.2C4.46 28.53 4.75 28.25 5.74 28.27Z" fill="black"/>
<path d="M33.3 90.0001C33.65 89.3801 33.52 88.3801 34.64 88.6301C34.7809 88.677 34.9096 88.7546 35.0168 88.8574C35.124 88.9602 35.2069 89.0856 35.2596 89.2244C35.3122 89.3633 35.3333 89.5121 35.3213 89.6601C35.3093 89.8081 35.2644 89.9516 35.19 90.0801C34.56 91.0801 34 90.1601 33.3 90.0001Z" fill="black"/>
<path d="M23.41 67.6C23.01 67.39 22.35 67.31 22.89 66.68L21.63 66.06C22.26 65.79 22.63 65.6 23.03 65.47C23.17 65.47 23.36 65.47 23.53 65.47L23.27 66.47L24.84 66.55C24.84 66.8 24.84 67.05 24.84 67.3C24.3 67.16 23.71 66.79 23.41 67.64V67.6Z" fill="black"/>
<path d="M8.5 51.5901C7.81 52.3501 8.5 52.5901 8.95 52.8901C9.2708 53.1248 9.49739 53.4661 9.58904 53.8529C9.68069 54.2397 9.63139 54.6464 9.45 55.0001C8.59 54.9101 8.76 54.0901 8.45 53.5901C8.14 53.0901 7.82 52.5201 7.45 51.9101L8.5 51.5901Z" fill="black"/>
<path d="M28.92 73.8901C29.11 74.8901 28.92 75.2501 27.92 75.2701C28.07 74.6001 28.31 73.8801 27.34 73.5801C27.2741 73.4027 27.2741 73.2076 27.34 73.0301C27.6195 72.7923 27.9209 72.5814 28.24 72.4001C28.3164 72.6679 28.4065 72.9316 28.51 73.1901C28.6146 73.4326 28.7314 73.6696 28.86 73.9001L28.92 73.8901Z" fill="black"/>
<path d="M114 75.3101C114.92 75.3801 115.4 75.7201 115.39 76.4101C115.347 76.5772 115.265 76.7315 115.15 76.8603C115.035 76.989 114.891 77.0884 114.73 77.1501C114.22 77.2901 113.53 76.5601 113.6 75.9701C113.6 75.7001 113.87 75.4701 114 75.3101Z" fill="black"/>
<path d="M84.49 57.5702C84.49 57.5702 84.43 57.4302 84.34 57.1902H85.08L84.96 58.1202L86 58.0002L85.76 59.0002L84.28 58.8502V58.5902C84.1239 58.746 83.9452 58.8775 83.75 58.9802C83.5482 59.0157 83.3418 59.0157 83.14 58.9802L83.52 58.5802C83.78 58.2902 84.08 58.0002 84.49 57.5702Z" fill="black"/>
<path d="M110 28.84C110 28.44 108.74 28.38 109.74 27.67C109.74 27.67 109.6 27.33 109.55 27.21C109.876 27.0804 110.21 26.9735 110.55 26.89C110.779 26.8671 111.008 26.9236 111.2 27.05C111.255 27.1274 111.29 27.2171 111.302 27.3113C111.315 27.4054 111.303 27.5011 111.27 27.59C110.95 28.07 110.58 28.5 110.27 28.95L110 28.84Z" fill="black"/>
<path d="M20 40.0002C20.015 40.1113 20.0001 40.2243 19.9567 40.3277C19.9134 40.4311 19.8433 40.5211 19.7537 40.5884C19.664 40.6556 19.558 40.6978 19.4466 40.7104C19.3352 40.723 19.2225 40.7057 19.12 40.6602C18.64 40.4902 17.9 40.2202 18.2 39.4502C18.3 39.1902 18.78 39.0202 19.12 38.9302C19.24 38.9302 19.47 39.2302 19.62 39.4102C19.7603 39.5977 19.8873 39.7949 20 40.0002V40.0002Z" fill="black"/>
<path d="M37.39 28C37.67 27.76 38.05 27.6 38.15 27.34C38.25 27.08 38.41 26.53 37.81 26.23C37.59 26.11 37.69 25.36 37.64 24.88C38.32 24.8 38.64 25.08 38.57 25.77C38.5 26.46 39 27.08 38.44 27.84C37.88 28.6 37.72 28.25 37.39 28Z" fill="black"/>
<path d="M29 40.37L28.8 40.56C28.47 40.56 28.1 40.22 27.8 40.78C27.73 40.91 27.05 40.73 26.65 40.69V40.44L26 41L25.8 40.86C25.92 40.66 25.99 40.37 26.16 40.28C26.577 39.9797 27.0817 39.8257 27.5953 39.842C28.109 39.8583 28.6028 40.0439 29 40.37V40.37Z" fill="black"/>
<path d="M13.27 85.15C13.0745 84.7235 12.9366 84.2729 12.86 83.81C12.86 83.64 13.43 83.27 13.65 83.32C13.87 83.37 14.41 83.84 14.38 84.05C14.2171 84.469 13.98 84.8552 13.68 85.19L13.27 85.15Z" fill="black"/>
<path d="M68.38 104.93C68.86 105.43 69.38 105.73 69.38 106C69.3335 106.192 69.2381 106.368 69.1032 106.512C68.9682 106.655 68.7983 106.762 68.61 106.82C68.33 106.82 67.9 106.39 67.77 106.06C67.64 105.73 68.05 105.48 68.38 104.93Z" fill="black"/>
<path d="M25.8 75.4L26.06 74C26.5576 74.2698 27.0296 74.5845 27.47 74.94C27.62 75.09 27.47 75.52 27.47 75.83C27.1722 75.8352 26.8744 75.8152 26.58 75.77C26.3111 75.6665 26.0503 75.5428 25.8 75.4V75.4Z" fill="black"/>
<path d="M94.77 75.1902H95.61L95.89 74.4302C96.26 75.6702 96.18 75.8902 95.38 76.4302C95.18 76.5602 95.08 76.8302 94.91 77.0202C94.749 77.1931 94.5752 77.3535 94.39 77.5002L94.77 75.1902Z" fill="black"/>
<path d="M28.4 26.26C28.7125 26.4051 29.0049 26.59 29.27 26.81C29.5196 27.0518 29.6755 27.3742 29.71 27.72C29.71 27.89 29.17 28.21 28.95 28.16C28.7931 28.097 28.6524 27.9996 28.5382 27.875C28.424 27.7504 28.3392 27.6017 28.29 27.44C28.2591 27.0433 28.2963 26.6442 28.4 26.26V26.26Z" fill="black"/>
<path d="M85.43 79.2601L86.22 77.3701L86.98 77.0901L86.84 78.7601C86.21 78.3101 86.13 80.3301 85.43 79.2601Z" fill="black"/>
<path d="M20.63 57.6201L20 57.0001L22.74 56.5901C22.59 57.5901 21.67 57.2301 21.19 57.6701L20.91 58.5701L20.57 58.5101L20.63 57.6201Z" fill="black"/>
<path d="M85.29 60.6201L85.2 61.2501C84.64 61.0601 84.57 60.7801 84.91 60.3601C85.25 59.9401 85.51 59.5801 85.84 59.2101C86.17 58.8401 86.32 58.7201 86.55 59.2701C86.7098 59.5417 86.9011 59.7935 87.12 60.0201L86.98 60.1901L86.45 60.0001L85.29 60.6201Z" fill="black"/>
<path d="M28.21 69.8401L29.05 71.5901L26.64 71.2201L28.21 69.8401Z" fill="black"/>
<path d="M2.21 29.5901C2.42882 29.8918 2.59142 30.2306 2.69 30.5901C2.69 30.7901 2.21 31.2301 2.05 31.1801C1.67909 31.0099 1.34069 30.7764 1.05 30.4901L1.79 29.5701L2.21 29.5901Z" fill="black"/>
<path d="M84.38 33.5801C85.28 33.9101 84.85 34.8001 85.05 35.4201C85.05 35.5401 84.59 35.8301 84.34 36.0401C84.1599 35.7189 84.0443 35.3656 84 35.0001C84.0772 34.5149 84.2045 34.039 84.38 33.5801V33.5801Z" fill="black"/>
<path d="M94.53 76.3601C93.98 76.7601 93.53 77.21 93.41 77.14C93.0564 76.9375 92.7975 76.6031 92.69 76.21C92.69 76.04 93.15 75.52 93.34 75.56C93.68 75.62 94 76.0001 94.53 76.3601Z" fill="black"/>
<path d="M18.83 48.52C18.3502 48.68 17.8453 48.7512 17.34 48.73C17.16 48.73 17.14 47.93 17.04 47.47L18.62 47.28L18.23 48.21L18.83 48.54V48.52Z" fill="black"/>
<path d="M98.88 69.5701C99.02 70.2701 99.27 70.9401 98.37 71.2201C97.82 71.3901 97.6 71.0001 97.54 70.5701C97.41 69.4901 98.35 69.8501 98.88 69.5701Z" fill="black"/>
<path d="M94 83C94.37 83.52 94.74 83.82 94.76 84.13C94.78 84.44 94.23 84.85 94.07 84.8C93.8936 84.735 93.7334 84.6324 93.6005 84.4995C93.4676 84.3666 93.365 84.2064 93.3 84.03C93.27 83.86 93.67 83.53 94 83Z" fill="black"/>
<path d="M18.54 86.4801H17.89C17.9009 86.5396 17.9009 86.6006 17.89 86.6601C17.9152 86.9328 17.9152 87.2073 17.89 87.4801C17.89 87.4801 17.52 87.5601 17.45 87.4801C17.38 87.4001 16.93 86.9201 16.99 86.7301C17.185 86.2359 17.4366 85.7661 17.74 85.3301L18.54 86.4801Z" fill="black"/>
<path d="M111.69 46.42C111.8 47.42 111.45 47.81 110.41 47.73C110.08 46.48 110.38 46.17 111.69 46.42Z" fill="black"/>
<path d="M23.6 49.5602L21.23 49.8702L21.67 48.9802L23.81 48.6902C23.73 49.0102 23.65 49.2902 23.58 49.5802L23.6 49.5602Z" fill="black"/>
<path d="M25.29 62.0001L24.7 63.6601C23.97 63.0901 24.98 62.6601 24.76 62.2901L23.76 61.4301L25.16 60.8901L25.28 61.1201L24.7 61.5901L25.29 62.0001Z" fill="black"/>
<path d="M38.25 100.31C37.6379 100.247 37.0301 100.147 36.43 100.01C36.27 100.01 36.19 99.6201 36.06 99.4201C36.5585 99.231 37.0868 99.1328 37.62 99.1301C37.85 99.1601 38 99.8101 38.25 100.31Z" fill="black"/>
<path d="M14.06 70.8101C14.5595 70.7801 15.0605 70.7801 15.56 70.8101C15.6897 70.8395 15.8121 70.8944 15.9203 70.9717C16.0285 71.049 16.1202 71.147 16.19 71.2601C16.2087 71.3667 16.1991 71.4764 16.1622 71.5781C16.1254 71.6799 16.0626 71.7702 15.98 71.8401C15.7391 71.9003 15.4848 71.8755 15.26 71.7701C14.81 71.5801 14.37 71.3301 13.93 71.1101L14.06 70.8101Z" fill="black"/>
<path d="M87 77.1101C87.1665 76.8162 87.307 76.5084 87.42 76.1901C87.52 75.7501 87.52 75.3001 88.13 75.7801C88.13 75.7801 88.26 75.7801 88.3 75.7801L89.14 76.3201L88 76.5601C88 77.0101 87.87 77.6601 87 77.0801C87.0015 77.09 87.0015 77.1001 87 77.1101V77.1101Z" fill="black"/>
<path d="M70.46 86.7002L70.91 87.4802L68.64 88.4802L68.41 88.0702L70.48 86.7402L70.46 86.7002Z" fill="black"/>
<path d="M24.1 60.6801L24.34 59.4001C24.82 59.1001 25.12 58.8901 25.44 58.7101C25.55 58.6501 25.76 58.6001 25.83 58.6601C25.8704 58.7156 25.8969 58.78 25.9074 58.8479C25.9178 58.9157 25.9119 58.9851 25.89 59.0501C25.39 59.6301 24.89 60.1901 24.36 60.7601L24.1 60.6801Z" fill="black"/>
<path d="M72.28 11.87L71.35 11.52C71.2286 11.2357 71.1218 10.9453 71.03 10.65C70.978 10.3622 70.9413 10.0718 70.92 9.78003H71.22L71.54 10.41C71.91 10.78 71.97 10.96 71.82 11.09L72.28 11.87Z" fill="black"/>
<path d="M87.62 38.2401L87.1 36.5101L88.4 36.1501L87.94 38.1501L87.62 38.2401Z" fill="black"/>
<path d="M102.56 44.23C102.87 44.38 103.28 44.45 103.44 44.7C103.5 44.8429 103.525 44.9976 103.515 45.152C103.504 45.3065 103.458 45.4564 103.38 45.59C103.31 45.73 102.73 45.81 102.7 45.75C102.525 45.3507 102.378 44.9397 102.26 44.52L102.56 44.23Z" fill="black"/>
<path d="M93.28 61.8101C93.97 62.1201 94.45 62.3301 94.91 62.5601C95.02 62.5601 95.08 62.7501 95.16 62.8401C95.041 62.9315 94.9138 63.0119 94.78 63.0801C94.49 63.2101 94.19 63.3201 93.78 63.5001L93.28 61.8101Z" fill="black"/>
<path d="M16.25 45.4201L15.66 45.5801L15.59 45.3501C16.2 45.1301 16.54 44.2401 17.41 44.7401C17.471 44.7941 17.5169 44.8631 17.5432 44.9402C17.5695 45.0174 17.5753 45.1 17.56 45.1801C17.3814 45.4459 17.1735 45.6908 16.94 45.9101L16.25 45.4201Z" fill="black"/>
<path d="M18.23 30.8201L17.55 30.2501C17.7165 30.1036 17.8735 29.9466 18.02 29.7801C18.1 29.6901 18.09 29.5301 18.14 29.4201C18.2131 29.2225 18.2965 29.0289 18.39 28.8401C18.54 28.9101 18.81 28.9501 18.82 29.0501C18.8514 29.2857 18.8274 29.5254 18.75 29.7501C18.63 30.0701 18.46 30.3601 18.23 30.8201Z" fill="black"/>
<path d="M18.4 64.2501C18.09 64.8001 17.87 65.2501 17.6 65.6601C17.55 65.7401 17.23 65.7401 17.23 65.7201C17.0829 65.3473 17.005 64.9509 17 64.5501C17 64.3901 17.48 64.2401 17.76 64.1601C17.9771 64.1499 18.1942 64.1804 18.4 64.2501Z" fill="black"/>
<path d="M15.39 67.8901L17.28 69.2201C15.31 69.5501 15.19 69.4801 15.39 67.8901Z" fill="black"/>
<path d="M22.06 101.12L21.11 100.81C21.16 100.68 21.17 100.48 21.25 100.44C21.75 100.24 22.25 100.08 22.77 99.9001C22.77 100.12 22.97 100.45 22.88 100.56C22.6304 100.779 22.355 100.967 22.06 101.12Z" fill="black"/>
<path d="M16.81 131.2C16.67 130.62 16.45 130.01 17.32 129.84C17.53 129.84 17.93 129.94 17.99 130.1C18.18 130.58 17.59 131.11 16.81 131.2Z" fill="black"/>
<path d="M11.75 10.3801C11.43 9.9401 11.09 9.6601 11.12 9.3801C11.15 9.1001 11.49 8.8601 11.7 8.6001C11.94 8.8501 12.32 9.0701 12.39 9.3701C12.46 9.6701 12.07 9.9301 11.75 10.3801Z" fill="black"/>
<path d="M8.63 47.5802C8.50276 47.4066 8.33641 47.2654 8.14443 47.1681C7.95245 47.0708 7.74024 47.02 7.525 47.02C7.30976 47.02 7.09755 47.0708 6.90557 47.1681C6.71359 47.2654 6.54724 47.4066 6.42 47.5802L6.28 47.3402C6.48 47.0302 6.66 46.4602 6.89 46.4402C8.22 46.3002 8.4 46.4502 8.63 47.5802Z" fill="black"/>
<path d="M83.26 92.6101C82.92 92.1101 82.54 91.7101 82.61 91.6101C82.8526 91.2995 83.1641 91.0496 83.52 90.8801C83.6 90.8801 83.99 91.1401 83.97 91.1801C83.8 91.5801 83.58 92.0001 83.26 92.6101Z" fill="black"/>
<path d="M16.87 43.3901C16.62 42.9701 16.36 42.5501 16.14 42.1201C16.0977 41.9947 16.0807 41.8621 16.09 41.7301C16.22 41.7301 16.43 41.6601 16.48 41.7301C16.92 42.2701 17.33 42.8401 17.85 43.5401L16.65 43.6001L16.87 43.3901Z" fill="black"/>
<path d="M16.44 54.0801C16.2556 54.4627 16.0164 54.8164 15.73 55.1301C15.6072 55.1716 15.4759 55.1814 15.3483 55.1587C15.2207 55.136 15.1009 55.0814 15 55.0001C14.82 54.8201 14.83 54.4701 14.73 54.0601L16.44 54.0801Z" fill="black"/>
<path d="M80.66 21.8101L80.34 21.4701L79.54 21.6701C79.5477 21.5368 79.5853 21.4069 79.65 21.2901C80.07 20.8001 80.51 20.2901 80.94 19.8501C80.9948 19.9937 81.0219 20.1464 81.02 20.3001C80.93 20.7601 80.81 21.2101 80.66 21.8101Z" fill="black"/>
<path d="M9.16 79.53C8.55 79.69 8.16 80.53 7.74 79.63C7.62 79.37 7.6 78.81 7.74 78.72C8.53 78.24 8.58 79.14 9.16 79.53Z" fill="black"/>
<path d="M93.75 82.4301L95.26 82.1001C95.66 83.8601 95.66 83.8601 94.97 83.9101C95.56 82.5401 94.47 82.7901 93.73 82.6901L93.75 82.4301Z" fill="black"/>
<path d="M31.93 31.1702C31.83 31.3102 31.74 31.4502 31.63 31.5802C31.52 31.7102 31.22 32.0802 30.99 32.3002C30.8595 32.446 30.6892 32.5503 30.5 32.6002C30.4161 32.5874 30.337 32.553 30.2704 32.5004C30.2037 32.4478 30.1519 32.3788 30.12 32.3002C30.12 32.0902 30.12 31.7502 30.27 31.6602C30.7438 31.4009 31.2311 31.1672 31.73 30.9602L31.93 31.1702Z" fill="black"/>
<path d="M106.65 8.94015L106.89 7.23015L107.24 7.15015C107.39 7.52015 107.67 7.90015 107.63 8.25015C107.59 8.60015 107.23 8.84015 107 9.13015L106.65 8.94015Z" fill="black"/>
<path d="M21.23 35.22L20.43 35.91L19.79 35L19.05 35.51C19.05 35.4 18.92 35.24 18.95 35.21C19.16 35.01 19.44 34.65 19.64 34.68C20.1876 34.8032 20.7206 34.9842 21.23 35.22V35.22Z" fill="black"/>
<path d="M54.08 14.1201L54.57 13.3401C55.01 13.8801 55.43 14.3401 55.82 14.9101C55.82 14.9701 55.82 15.1801 55.72 15.2801C55.62 15.3801 55.48 15.2801 55.4 15.2801C55 14.9001 54.59 14.5501 54.08 14.1201Z" fill="black"/>
<path d="M83.12 97.9102C83.44 98.3902 83.74 98.6602 83.76 98.9102C83.78 99.1602 83.29 99.5001 83.16 99.4501C83.0098 99.3947 82.875 99.304 82.7671 99.1857C82.6592 99.0674 82.5813 98.9249 82.54 98.7701C82.49 98.6201 82.82 98.3402 83.12 97.9102Z" fill="black"/>
<path d="M52.25 9.93018C52.51 10.2402 52.76 10.5102 52.98 10.8102C53.0931 10.9792 53.187 11.1603 53.26 11.3502C53.05 11.3502 52.79 11.5102 52.63 11.4302C52.2793 11.2265 51.9449 10.9958 51.63 10.7402L52.25 9.93018Z" fill="black"/>
<path d="M28.92 73.9L30.15 73.24C30.23 73.85 30.28 74.24 30.33 74.55C29.5 75.16 29.33 74.34 28.94 73.91L28.92 73.9Z" fill="black"/>
<path d="M88.13 142.07C87.65 142.42 87.4 142.74 87.13 142.74C86.86 142.74 86.71 142.36 86.5 142.14C86.73 141.93 86.92 141.6 87.18 141.54C87.44 141.48 87.66 141.78 88.13 142.07Z" fill="black"/>
<path d="M40.24 27.89V26.72L41.93 27.22L42.01 27.44L40.24 27.89Z" fill="black"/>
<path d="M31.47 104.15C31.34 104.33 31.22 104.57 31.16 104.56C30.6287 104.427 30.1047 104.267 29.59 104.08C29.5768 103.922 29.6155 103.764 29.7 103.63C29.771 103.565 29.8551 103.517 29.9465 103.487C30.038 103.458 30.1346 103.449 30.23 103.46C30.5256 103.53 30.8088 103.645 31.07 103.8C31.216 103.901 31.3502 104.019 31.47 104.15V104.15Z" fill="black"/>
<path d="M83.33 76.1801C82.88 75.6901 82.27 75.3201 82.45 74.3501L83.74 75.1501L83.33 76.1801Z" fill="black"/>
<path d="M11.48 89.56C11.15 89.15 10.81 88.88 10.85 88.71C10.89 88.54 11.24 88.22 11.45 87.97C11.67 88.22 11.98 88.43 12.06 88.72C12.14 89.01 11.77 89.15 11.48 89.56Z" fill="black"/>
<path d="M21 31L21.79 31.15C21.6723 31.3143 21.575 31.4923 21.5 31.68C21.42 31.97 21.42 32.29 21.33 32.57C21.33 32.69 21.08 32.74 20.94 32.82C20.8665 32.6868 20.819 32.5409 20.8 32.39C20.8 31.92 20.88 31.48 21 31Z" fill="black"/>
<path d="M49.68 23.06L50.09 23.4401C49.9041 23.5716 49.7104 23.6918 49.51 23.8C49.42 23.8 49.28 23.8 49.16 23.8L48.32 23.9401L49.32 23.05C49.32 23.05 49.42 23.06 49.68 23.06Z" fill="black"/>
<path d="M26 114.21L27.1 113.21L27.56 113.88L26.25 114.61L26 114.21Z" fill="black"/>
<path d="M44.21 0.640087C43.79 0.890087 43.51 1.18009 43.29 1.14009C43.07 1.10009 42.88 0.730087 42.68 0.510087C42.93 0.330087 43.16 0.0200867 43.42 8.66707e-05C43.68 -0.0199133 43.85 0.330087 44.21 0.640087Z" fill="black"/>
<path d="M22 59.3901C21.86 59.2201 21.59 59.0201 21.61 58.8601C21.71 58.1401 22.29 57.8601 23.05 57.8601L22.14 59.1901L22 59.3901Z" fill="black"/>
<path d="M22.37 67.0001C22.3 67.1101 22.25 67.2901 22.18 67.2901C21.61 67.2901 21.04 67.3701 20.47 67.3701C20.47 67.3701 20.41 67.1701 20.38 67.0701C20.99 66.9401 21.6 66.8001 22.21 66.6901C22.24 66.6801 22.31 66.8701 22.37 67.0001Z" fill="black"/>
<path d="M81.21 81.7L79.36 82.15L80.65 80.53L81.21 81.7Z" fill="black"/>
<path d="M37.4 95.5002L36.08 96.4402L35.72 95.6702C36.19 95.5102 36.66 95.3502 37.14 95.2202C37.18 95.2102 37.28 95.3702 37.4 95.5002Z" fill="black"/>
<path d="M79.36 84.1501L80.48 84.7501C80.48 85.2601 80.35 85.3701 79.85 85.1801C79.59 85.0801 79.3 85.0201 79.04 84.9101C78.8847 84.8326 78.7401 84.7351 78.61 84.6201C78.727 84.5277 78.8506 84.4442 78.98 84.3701C79.15 84.2601 79.33 84.1701 79.36 84.1501Z" fill="black"/>
<path d="M85.34 57.1502L84.13 56.5902L84.29 56.2002C84.8401 56.3974 85.3778 56.6278 85.9 56.8902C85.97 56.8902 85.79 57.4202 85.72 57.7002H85.46L85.34 57.1502Z" fill="black"/>
<path d="M6.43 44.8C6.47011 45.1322 6.47011 45.4679 6.43 45.8C6.39424 45.9142 6.33478 46.0195 6.25551 46.1092C6.17624 46.1988 6.07895 46.2706 5.97 46.32C5.85775 46.3225 5.74701 46.2939 5.64997 46.2374C5.55293 46.181 5.47335 46.0988 5.42 46C5.4008 45.8758 5.40873 45.749 5.44326 45.6281C5.47779 45.5073 5.53808 45.3954 5.62 45.3C5.8645 45.0952 6.13732 44.9268 6.43 44.8V44.8Z" fill="black"/>
<path d="M43.84 92.48L45 91.76C45.11 91.97 45.38 92.24 45.32 92.39C45.08 93.15 44.52 92.9 43.84 92.48Z" fill="black"/>
<path d="M10.39 42.2801C10.7168 42.1821 11.0514 42.1118 11.39 42.0701C11.7447 42.0922 12.0964 42.1492 12.44 42.2401C12.5 42.7801 11.83 42.9601 10.44 42.5901L10.39 42.2801Z" fill="black"/>
<path d="M14.45 7.12009C14.05 7.43009 13.81 7.74009 13.58 7.74009C13.35 7.74009 13.15 7.40009 12.94 7.20009C13.15 7.01009 13.34 6.71009 13.58 6.66009C13.82 6.61009 14 6.88009 14.45 7.12009Z" fill="black"/>
<path d="M22.47 107.24C22.9174 107.381 23.3551 107.551 23.78 107.75C23.78 107.75 23.63 108.46 23.53 108.46C23 108.47 22.59 108.2 22.47 107.24Z" fill="black"/>
<path d="M56.82 137.15C56.49 137.42 56.26 137.74 56.1 137.71C55.94 137.68 55.52 137.36 55.51 137.16C55.5 136.96 55.83 136.71 56 136.48L56.82 137.15Z" fill="black"/>
<path d="M90.72 77.4701C90.365 77.3978 90.0531 77.1877 89.8526 76.886C89.6521 76.5843 89.5792 76.2154 89.65 75.8601L90.59 76.4001L90.72 77.4701Z" fill="black"/>
<path d="M26.76 76.7202C26.4 76.9402 26.15 77.1302 25.88 77.2602C25.7297 77.2912 25.5732 77.2663 25.44 77.1902C25.3904 76.9453 25.4148 76.6912 25.51 76.4602C25.7282 76.2449 25.9819 76.069 26.26 75.9402L26.76 76.7202Z" fill="black"/>
<path d="M14.23 34.1602L15.56 34.8402L14.75 36.0002L14.23 34.1602Z" fill="black"/>
<path d="M49 20.72L47.62 20C47.71 19.07 48.62 19.86 49.11 19.7L49 20.72Z" fill="black"/>
<path d="M21.61 44.3L21.14 43.88L22.39 43L22.94 43.38L21.61 44.3Z" fill="black"/>
<path d="M17.62 45.49H19.45L18.38 46.7L17.62 45.49Z" fill="black"/>
<path d="M31.71 94.3301C31.88 94.6001 32.12 94.8201 32.09 94.9801C32.06 95.1401 31.75 95.6001 31.64 95.5701C31.3366 95.4569 31.0557 95.291 30.81 95.0801L31.71 94.3301Z" fill="black"/>
<path d="M43.59 89.8301L44.88 90.6001L44.25 91.3901L43.37 90.1001L43.59 89.8301Z" fill="black"/>
<path d="M27.78 42.4602L27.17 43.9202L26.23 42.7102L27.78 42.4602Z" fill="black"/>
<path d="M15.35 46.8702L14.35 46.0202L15.2 45.4402L15.67 46.8302L15.35 46.8702Z" fill="black"/>
<path d="M35.34 99.29C35.5356 99.6774 35.7027 100.078 35.84 100.49C35.84 100.6 35.59 100.8 35.46 100.96C35.28 100.77 35 100.59 34.97 100.38C34.958 100.023 34.995 99.6667 35.08 99.32L35.34 99.29Z" fill="black"/>
<path d="M12.8 82L12.08 81.53C12.4518 81.3225 12.8397 81.1453 13.24 81C13.33 81 13.52 81.28 13.67 81.43L12.8 82Z" fill="black"/>
<path d="M7.43 61.2402L6.85 60.5502L8.3 59.9302L8.48 60.2002L7.43 61.2402Z" fill="black"/>
<path d="M29 89.69L30 89.42C30.2006 89.3594 30.4042 89.3093 30.61 89.27C30.61 89.27 30.75 89.53 30.72 89.55C30.5705 89.6576 30.4095 89.7481 30.24 89.82C30.0846 89.9002 29.9243 89.9703 29.76 90.03L29.1 90.31L29 89.69Z" fill="black"/>
<path d="M25.51 35.8901V37.2801L24.17 37.0001L25.51 35.8901Z" fill="black"/>
<path d="M24.21 104.78C24.506 105.011 24.7866 105.262 25.05 105.53C25.05 105.53 24.8 106 24.65 106.01C23.96 106.01 23.96 105.54 23.96 105.07L24.21 104.78Z" fill="black"/>
<path d="M12.51 29.58C12.45 29.1 12.37 28.58 12.34 28.12C12.3994 28.0665 12.469 28.0256 12.5446 27.9998C12.6202 27.974 12.7003 27.9639 12.78 27.97C12.93 28.04 13.12 28.26 13.11 28.4C13.0598 28.7758 12.9796 29.147 12.87 29.51L12.51 29.58Z" fill="black"/>
<path d="M27.68 90.05C27.98 90.41 28.28 90.62 28.28 90.82C28.2535 90.945 28.1954 91.0611 28.1114 91.1574C28.0274 91.2536 27.9202 91.3268 27.8 91.37C27.6706 91.3486 27.5494 91.2927 27.4491 91.2083C27.3488 91.1238 27.2731 91.0139 27.23 90.89C27.19 90.7 27.45 90.45 27.68 90.05Z" fill="black"/>
<path d="M22.73 89.52C23.0369 89.8112 23.321 90.1255 23.58 90.46C23.58 90.52 23.29 90.82 23.13 91.01L22.4 89.76L22.73 89.52Z" fill="black"/>
<path d="M119.7 81.6601C119.27 81.9601 119.01 82.2501 118.88 82.2001C118.619 82.0757 118.41 81.8632 118.29 81.6001C118.29 81.5401 118.59 81.1301 118.74 81.1401C118.89 81.1501 119.22 81.3801 119.7 81.6601Z" fill="black"/>
<path d="M28.17 36.0001C27.97 36.3701 27.78 36.7601 27.55 37.1301C27.4332 37.2813 27.2869 37.4072 27.12 37.5001C27.12 37.5001 26.86 37.3601 26.87 37.3501C26.9346 37.207 27.0116 37.0698 27.1 36.9401C27.1919 36.8343 27.2631 36.7122 27.31 36.5801C27.44 35.7801 27.43 35.7801 28.17 36.0001Z" fill="black"/>
<path d="M20 40.0001C20.11 39.8201 20.17 39.5701 20.32 39.4701C20.5725 39.3935 20.8367 39.3631 21.1 39.3801L21.54 39.8801C21.07 40.8801 20.54 39.9401 19.98 39.9701L20 40.0001Z" fill="black"/>
<path d="M19.72 92.46L19.09 93.18C18.9 92.97 18.61 92.77 18.56 92.53C18.51 92.29 18.83 92 19 92C19.17 92 19.41 92.23 19.72 92.46Z" fill="black"/>
<path d="M83.74 90.52C83.43 90.3 82.98 90.15 82.84 89.85C82.7 89.55 82.84 89.1 82.84 88.71H83.21C83.21 89.02 83.05 89.38 83.21 89.61C83.37 89.84 83.7 89.96 83.96 90.13L83.74 90.52Z" fill="black"/>
<path d="M14.9 55.6301L13.2 56.0001L14.2 54.6401L14.9 55.6301Z" fill="black"/>
<path d="M52.37 19.53C52.1212 19.8346 51.8318 20.1038 51.51 20.33C51.42 20.33 51.07 19.93 50.84 19.71L52.16 19.22L52.37 19.53Z" fill="black"/>
<path d="M67.68 3L68.79 3.72L67.68 4.48V3Z" fill="black"/>
<path d="M28.94 91.8301C29.2289 92.1225 29.5026 92.4296 29.76 92.7501C29.6287 92.908 29.4849 93.0551 29.33 93.1901L28.55 92.1301L28.94 91.8301Z" fill="black"/>
<path d="M19.39 83.5002V84.6502H18.26L19.19 83.4402L19.39 83.5002Z" fill="black"/>
<path d="M24.21 108.89C24.61 108.63 24.83 108.4 25.08 108.36C25.33 108.32 25.39 108.65 25.55 108.82C25.3599 109.051 25.1376 109.253 24.89 109.42C24.82 109.46 24.57 109.17 24.21 108.89Z" fill="black"/>
<path d="M56.44 12.2501C56.57 10.9101 56.91 10.5801 57.81 10.7201L56.44 12.2501Z" fill="black"/>
<path d="M52.46 15.32L52.39 15.97L52.21 16.04C52.13 15.87 51.95 15.68 51.99 15.56C52.1084 15.1652 52.28 14.7884 52.5 14.44C52.5 14.38 52.91 14.52 53.13 14.57L52.46 15.32Z" fill="black"/>
<path d="M102.34 80.54V81.46H101.09L102.09 80.28L102.34 80.54Z" fill="black"/>
<path d="M6.63 68C6.37788 67.9555 6.13024 67.8885 5.89 67.8C5.77 67.74 5.69 67.59 5.59 67.47C5.73 67.4 5.87 67.27 6.01 67.27C6.21075 67.3023 6.4082 67.3525 6.6 67.42C6.85 67.48 7.1 67.52 7.35 67.56L6.63 68Z" fill="black"/>
<path d="M42.87 26.87L41.87 26.55L42.38 25.22L42.58 25.28L42.85 26.89L42.87 26.87Z" fill="black"/>
<path d="M36.37 91.0701C35.76 90.7601 36 90.2201 36.07 89.7701C36.07 89.6101 36.4 89.4901 36.58 89.3601L36.87 89.5301L36.35 91.1001L36.37 91.0701Z" fill="black"/>
<path d="M15.32 81.4402L16.43 82.2602V82.5402L15.28 82.6102L15.32 81.4402Z" fill="black"/>
<path d="M117.72 77.45L117.42 78.83C117.09 78.46 116.7 78.15 116.75 78.04C116.946 77.7394 117.189 77.4726 117.47 77.25L117.72 77.45Z" fill="black"/>
<path d="M64.34 87.4301L64.76 88.6401H63.76C63.93 88.1601 63.2 87.4301 64.31 87.4001L64.34 87.4301Z" fill="black"/>
<path d="M28.12 81.4302C28.43 81.7902 28.7 81.9702 28.76 82.2102C28.82 82.4502 28.51 82.5702 28.36 82.7602C28.16 82.5902 27.86 82.4502 27.77 82.2202C27.68 81.9902 27.94 81.8102 28.12 81.4302Z" fill="black"/>
<path d="M80.81 25.3201L80.18 26.8901L79.92 26.0001H79.17V25.8201L80.81 25.3201Z" fill="black"/>
<path d="M0.63 80C0.42 79.55 0.19 79.11 0.0100002 78.65C0.0100002 78.55 0.12 78.37 0.19 78.23C0.310774 78.3177 0.418511 78.422 0.51 78.54C0.665223 78.8166 0.792518 79.1081 0.89 79.41C0.919168 79.6056 0.919168 79.8044 0.89 80H0.63Z" fill="black"/>
<path d="M21.53 91.4202C21.81 91.7802 22.1 92.0002 22.12 92.2502C22.14 92.5002 21.76 92.6002 21.56 92.7802C21.4 92.5702 21.14 92.3802 21.1 92.1402C21.06 91.9002 21.31 91.7602 21.53 91.4202Z" fill="black"/>
<path d="M102.15 71.9101C102.045 71.5397 101.968 71.1619 101.92 70.7801C101.939 70.5812 102.036 70.398 102.19 70.2701C102.266 70.2458 102.346 70.2405 102.425 70.2544C102.503 70.2683 102.577 70.3012 102.64 70.3501C102.694 70.4315 102.731 70.5232 102.749 70.6196C102.766 70.716 102.763 70.8149 102.74 70.9101C102.574 71.2606 102.377 71.5953 102.15 71.9101Z" fill="black"/>
<path d="M88.43 59.23L89.52 58.23C89.6 58.33 89.77 58.47 89.75 58.53C89.6636 58.8235 89.5172 59.096 89.32 59.33C89.19 59.46 88.88 59.43 88.65 59.47L88.43 59.23Z" fill="black"/>
<path d="M32.77 39.48L31.77 39.24L32 38.24C32.11 38.76 33.43 38.5 32.79 39.48H32.77Z" fill="black"/>
<path d="M15.85 96.42L15.13 95.6C15.35 95.45 15.55 95.22 15.78 95.19C16.01 95.16 16.17 95.47 16.2 95.66C16.23 95.85 16 96.05 15.85 96.42Z" fill="black"/>
<path d="M91.92 78.7001L92.46 77.0701L93 78.3201L91.92 78.7001Z" fill="black"/>
<path d="M76.07 15.8601C76.71 16.1601 76.71 16.1601 76.7 17.5001L75.79 16.0001L76.07 15.8601Z" fill="black"/>
<path d="M17.59 54.4002C17.31 54.7902 17.04 55.1802 16.73 55.5502C16.66 55.6402 16.4 55.7102 16.37 55.6702C16.34 55.6302 16.16 55.2902 16.21 55.2402C16.59 54.8602 17.01 54.5102 17.42 54.1602L17.59 54.4002Z" fill="black"/>
<path d="M83.86 48.2901L82.14 48.4001C81.99 47.8001 82.06 47.6801 82.62 47.7801C83.03 47.8501 83.43 47.9901 83.84 48.1001L83.86 48.2901Z" fill="black"/>
<path d="M27.18 108.26H26.18L26.23 107.5L27.23 107.73L27.18 108.26Z" fill="black"/>
<path d="M95 94.5502L96.11 93.9402L96.39 95.3002L95 94.5502Z" fill="black"/>
<path d="M14.94 27.1102L13.74 26.3402L14.48 25.6702L15.08 26.8702L14.94 27.1102Z" fill="black"/>
<path d="M87.24 57.1602L87.62 57.7102C86.93 58.3702 86.62 57.6202 86.14 57.4802V57.1602H87.24Z" fill="black"/>
<path d="M73.59 110.28C74.29 111.09 74.1 111.42 73.51 111.51C73.2815 111.509 73.0548 111.468 72.84 111.39C73.0029 111.272 73.1507 111.134 73.28 110.98C73.4055 110.757 73.5093 110.523 73.59 110.28Z" fill="black"/>
<path d="M25.54 9.64014V10.7401C25.2361 10.6477 24.9415 10.5272 24.66 10.3801C24.6189 10.3135 24.5932 10.2386 24.5845 10.1607C24.5759 10.0829 24.5846 10.0042 24.61 9.93014C24.9138 9.81467 25.2244 9.71782 25.54 9.64014V9.64014Z" fill="black"/>
<path d="M38.29 84.5C37.8 85.44 37.35 85.34 36.9 85.06C36.82 85.06 36.84 84.77 36.82 84.62L38.29 84.5Z" fill="black"/>
<path d="M14.21 49.54C13.32 50.48 12.91 50.54 12.37 49.85L14.21 49.54Z" fill="black"/>
<path d="M36.35 91.1L36.68 91L37.5 90.8V91.8L37.26 91.9L36.37 91.12L36.35 91.1Z" fill="black"/>
<path d="M35.74 30.0602L33.74 29.7202C34.61 29.1702 35.19 29.1102 35.74 30.0602Z" fill="black"/>
<path d="M86.92 46.2102L87.76 46.8502C87.56 46.9902 87.29 47.2802 87.19 47.2302C87.09 47.1802 86.77 46.8302 86.56 46.6202L86.92 46.2102Z" fill="black"/>
<path d="M12.81 64.54L13 66C12.12 65.74 12.1 65.66 12.5 64.62L12.81 64.54Z" fill="black"/>
<path d="M26.81 62.2402L26.07 63.0902C26.07 62.6002 25.98 62.1702 25.97 61.7402C25.9772 61.6868 25.9987 61.6364 26.0321 61.5941C26.0655 61.5519 26.1097 61.5195 26.16 61.5002C26.2143 61.4962 26.2689 61.505 26.3192 61.5259C26.3696 61.5467 26.4143 61.579 26.45 61.6202C26.5836 61.8187 26.7038 62.0258 26.81 62.2402Z" fill="black"/>
<path d="M31.74 85.87C31.46 86.13 31.35 86.29 31.22 86.32C30.9943 86.3501 30.7657 86.3501 30.54 86.32H29.75C29.9794 86.1459 30.2318 86.0046 30.5 85.9C30.9114 85.8506 31.3267 85.8405 31.74 85.87Z" fill="black"/>
<path d="M108.58 64.0001C108.3 63.6601 107.99 63.4301 108.03 63.2901C108.07 63.1501 108.36 62.8101 108.54 62.5701C108.67 62.7801 108.88 62.9701 108.9 63.1901C108.92 63.4101 108.74 63.6301 108.58 64.0001Z" fill="black"/>
<path d="M32.58 29.62C31.88 30.09 31.34 29.92 31.21 29.2C31.199 29.1449 31.2015 29.0879 31.2171 29.034C31.2328 28.98 31.2612 28.9306 31.3 28.89C31.3515 28.8652 31.4079 28.8523 31.465 28.8523C31.5221 28.8523 31.5785 28.8652 31.63 28.89C31.8 29 31.92 29.17 32.08 29.29C32.238 29.4126 32.4051 29.523 32.58 29.62Z" fill="black"/>
<path d="M29.3 104.31L28.55 104.94L28.13 104.37L29.01 103.91L29.3 104.31Z" fill="black"/>
<path d="M95.89 71.5801C96.15 71.9101 96.41 72.0901 96.42 72.2801C96.43 72.4701 96.15 72.6401 95.99 72.8201C95.84 72.6401 95.61 72.4801 95.56 72.2701C95.51 72.0601 95.72 71.9101 95.89 71.5801Z" fill="black"/>
<path d="M18.5 69.12L18.73 70.2L18.52 70.37C18.28 70.15 17.94 69.96 17.84 69.68C17.74 69.4 18.1 69.23 18.25 68.99L18.5 69.12Z" fill="black"/>
<path d="M1.8 92.8401L2.22 93.5801L1.51 93.8701L1.4 93.0001L1.8 92.8401Z" fill="black"/>
<path d="M16.7 74.1301C16.6118 73.7575 16.545 73.3803 16.5 73.0001C16.5 73.0001 16.83 72.8901 17.01 72.8301L17.14 74.0401L16.7 74.1301Z" fill="black"/>
<path d="M77.81 29.5101C78.5 28.6601 78.89 28.7301 79.31 29.7301L77.81 29.5101Z" fill="black"/>
<path d="M84.37 80.7802C84.3349 80.5013 84.3349 80.2191 84.37 79.9402C84.4681 79.8989 84.5735 79.8777 84.68 79.8777C84.7865 79.8777 84.8919 79.8989 84.99 79.9402C85.0513 80.0279 85.0913 80.1287 85.1069 80.2346C85.1225 80.3404 85.1133 80.4485 85.08 80.5502C84.8457 80.6692 84.5914 80.7437 84.33 80.7702L84.37 80.7802Z" fill="black"/>
<path d="M41.67 111L41.2 109.84L41.77 109.71L42.02 110.91L41.67 111Z" fill="black"/>
<path d="M10.89 68.22L10.09 67.33L11.09 66.98V68.06L10.89 68.22Z" fill="black"/>
<path d="M84.35 80.76L83.8 81.91C82.8 81.41 83.9 81.04 83.54 80.54L84.37 80.78L84.35 80.76Z" fill="black"/>
<path d="M32.18 35.36C32.2146 35.6289 32.2146 35.9011 32.18 36.17C32.0955 36.3803 31.9735 36.5734 31.82 36.74C31.71 36.52 31.5 36.28 31.53 36.08C31.6297 35.7952 31.7749 35.5284 31.96 35.29L32.18 35.36Z" fill="black"/>
<path d="M118.31 85.3101C118.626 85.3323 118.938 85.3928 119.24 85.4901C119.32 85.4901 119.24 85.9101 119.24 86.1301L118.24 85.8501L118.31 85.3101Z" fill="black"/>
<path d="M88.61 132.94L89.74 132.07L89.9 132.23L89.69 133.23L88.61 132.94Z" fill="black"/>
<path d="M35.14 35.19L33.77 34.19C33.9246 34.1326 34.0894 34.1077 34.2541 34.1168C34.4187 34.1259 34.5798 34.1689 34.7271 34.243C34.8744 34.3172 35.0049 34.4209 35.1103 34.5477C35.2158 34.6745 35.294 34.8217 35.34 34.98L35.14 35.19Z" fill="black"/>
<path d="M15.67 67.37H15C14.91 66.99 14.82 66.7 14.78 66.37C14.7989 66.2408 14.8395 66.1157 14.9 66C15.03 66.07 15.24 66.11 15.29 66.22C15.44 66.58 15.53 67 15.67 67.37Z" fill="black"/>
<path d="M81.87 71.2202L81.5 70.6502C81.93 69.8302 82.5 69.9302 83.31 70.2902C82.9579 70.7694 82.4353 71.0952 81.85 71.2002L81.87 71.2202Z" fill="black"/>
</g>
<defs>
<clipPath id="clip0_8_305">
<rect width="122.06" height="146.37" fill="white"/>
</clipPath>
</defs>
</svg>
